G04 #@! TF.GenerationSoftware,KiCad,Pcbnew,7.0.5-0*
G04 #@! TF.CreationDate,2023-07-15T23:21:00+02:00*
G04 #@! TF.ProjectId,atf1508_plcc84_breakout,61746631-3530-4385-9f70-6c636338345f,B*
G04 #@! TF.SameCoordinates,Original*
G04 #@! TF.FileFunction,Legend,Top*
G04 #@! TF.FilePolarity,Positive*
%FSLAX46Y46*%
G04 Gerber Fmt 4.6, Leading zero omitted, Abs format (unit mm)*
G04 Created by KiCad (PCBNEW 7.0.5-0) date 2023-07-15 23:21:00*
%MOMM*%
%LPD*%
G01*
G04 APERTURE LIST*
G04 Aperture macros list*
%AMRoundRect*
0 Rectangle with rounded corners*
0 $1 Rounding radius*
0 $2 $3 $4 $5 $6 $7 $8 $9 X,Y pos of 4 corners*
0 Add a 4 corners polygon primitive as box body*
4,1,4,$2,$3,$4,$5,$6,$7,$8,$9,$2,$3,0*
0 Add four circle primitives for the rounded corners*
1,1,$1+$1,$2,$3*
1,1,$1+$1,$4,$5*
1,1,$1+$1,$6,$7*
1,1,$1+$1,$8,$9*
0 Add four rect primitives between the rounded corners*
20,1,$1+$1,$2,$3,$4,$5,0*
20,1,$1+$1,$4,$5,$6,$7,0*
20,1,$1+$1,$6,$7,$8,$9,0*
20,1,$1+$1,$8,$9,$2,$3,0*%
G04 Aperture macros list end*
%ADD10C,0.150000*%
%ADD11C,0.120000*%
%ADD12R,1.200000X1.200000*%
%ADD13C,1.200000*%
%ADD14R,1.422400X1.422400*%
%ADD15C,1.422400*%
%ADD16RoundRect,0.250000X-0.600000X-0.600000X0.600000X-0.600000X0.600000X0.600000X-0.600000X0.600000X0*%
%ADD17C,1.700000*%
%ADD18R,1.700000X1.700000*%
%ADD19O,1.700000X1.700000*%
G04 APERTURE END LIST*
D10*
X203131009Y-57042017D02*
X203178628Y-56899160D01*
X203178628Y-56899160D02*
X203226247Y-56851541D01*
X203226247Y-56851541D02*
X203321485Y-56803922D01*
X203321485Y-56803922D02*
X203464342Y-56803922D01*
X203464342Y-56803922D02*
X203559580Y-56851541D01*
X203559580Y-56851541D02*
X203607200Y-56899160D01*
X203607200Y-56899160D02*
X203654819Y-56994398D01*
X203654819Y-56994398D02*
X203654819Y-57375350D01*
X203654819Y-57375350D02*
X202654819Y-57375350D01*
X202654819Y-57375350D02*
X202654819Y-57042017D01*
X202654819Y-57042017D02*
X202702438Y-56946779D01*
X202702438Y-56946779D02*
X202750057Y-56899160D01*
X202750057Y-56899160D02*
X202845295Y-56851541D01*
X202845295Y-56851541D02*
X202940533Y-56851541D01*
X202940533Y-56851541D02*
X203035771Y-56899160D01*
X203035771Y-56899160D02*
X203083390Y-56946779D01*
X203083390Y-56946779D02*
X203131009Y-57042017D01*
X203131009Y-57042017D02*
X203131009Y-57375350D01*
X203654819Y-55851541D02*
X203654819Y-56422969D01*
X203654819Y-56137255D02*
X202654819Y-56137255D01*
X202654819Y-56137255D02*
X202797676Y-56232493D01*
X202797676Y-56232493D02*
X202892914Y-56327731D01*
X202892914Y-56327731D02*
X202940533Y-56422969D01*
X202654819Y-54946779D02*
X202654819Y-55422969D01*
X202654819Y-55422969D02*
X203131009Y-55470588D01*
X203131009Y-55470588D02*
X203083390Y-55422969D01*
X203083390Y-55422969D02*
X203035771Y-55327731D01*
X203035771Y-55327731D02*
X203035771Y-55089636D01*
X203035771Y-55089636D02*
X203083390Y-54994398D01*
X203083390Y-54994398D02*
X203131009Y-54946779D01*
X203131009Y-54946779D02*
X203226247Y-54899160D01*
X203226247Y-54899160D02*
X203464342Y-54899160D01*
X203464342Y-54899160D02*
X203559580Y-54946779D01*
X203559580Y-54946779D02*
X203607200Y-54994398D01*
X203607200Y-54994398D02*
X203654819Y-55089636D01*
X203654819Y-55089636D02*
X203654819Y-55327731D01*
X203654819Y-55327731D02*
X203607200Y-55422969D01*
X203607200Y-55422969D02*
X203559580Y-55470588D01*
X175714819Y-69513220D02*
X174714819Y-69513220D01*
X174714819Y-69513220D02*
X174714819Y-69275125D01*
X174714819Y-69275125D02*
X174762438Y-69132268D01*
X174762438Y-69132268D02*
X174857676Y-69037030D01*
X174857676Y-69037030D02*
X174952914Y-68989411D01*
X174952914Y-68989411D02*
X175143390Y-68941792D01*
X175143390Y-68941792D02*
X175286247Y-68941792D01*
X175286247Y-68941792D02*
X175476723Y-68989411D01*
X175476723Y-68989411D02*
X175571961Y-69037030D01*
X175571961Y-69037030D02*
X175667200Y-69132268D01*
X175667200Y-69132268D02*
X175714819Y-69275125D01*
X175714819Y-69275125D02*
X175714819Y-69513220D01*
X175048152Y-68084649D02*
X175714819Y-68084649D01*
X174667200Y-68322744D02*
X175381485Y-68560839D01*
X175381485Y-68560839D02*
X175381485Y-67941792D01*
X174714819Y-67370363D02*
X174714819Y-67275125D01*
X174714819Y-67275125D02*
X174762438Y-67179887D01*
X174762438Y-67179887D02*
X174810057Y-67132268D01*
X174810057Y-67132268D02*
X174905295Y-67084649D01*
X174905295Y-67084649D02*
X175095771Y-67037030D01*
X175095771Y-67037030D02*
X175333866Y-67037030D01*
X175333866Y-67037030D02*
X175524342Y-67084649D01*
X175524342Y-67084649D02*
X175619580Y-67132268D01*
X175619580Y-67132268D02*
X175667200Y-67179887D01*
X175667200Y-67179887D02*
X175714819Y-67275125D01*
X175714819Y-67275125D02*
X175714819Y-67370363D01*
X175714819Y-67370363D02*
X175667200Y-67465601D01*
X175667200Y-67465601D02*
X175619580Y-67513220D01*
X175619580Y-67513220D02*
X175524342Y-67560839D01*
X175524342Y-67560839D02*
X175333866Y-67608458D01*
X175333866Y-67608458D02*
X175095771Y-67608458D01*
X175095771Y-67608458D02*
X174905295Y-67560839D01*
X174905295Y-67560839D02*
X174810057Y-67513220D01*
X174810057Y-67513220D02*
X174762438Y-67465601D01*
X174762438Y-67465601D02*
X174714819Y-67370363D01*
X150314819Y-57422969D02*
X149314819Y-57422969D01*
X149791009Y-57422969D02*
X149791009Y-56851541D01*
X150314819Y-56851541D02*
X149314819Y-56851541D01*
X149314819Y-56470588D02*
X149314819Y-55803922D01*
X149314819Y-55803922D02*
X150314819Y-56232493D01*
X149314819Y-55518207D02*
X149314819Y-54851541D01*
X149314819Y-54851541D02*
X150314819Y-55280112D01*
X203559580Y-68941792D02*
X203607200Y-68989411D01*
X203607200Y-68989411D02*
X203654819Y-69132268D01*
X203654819Y-69132268D02*
X203654819Y-69227506D01*
X203654819Y-69227506D02*
X203607200Y-69370363D01*
X203607200Y-69370363D02*
X203511961Y-69465601D01*
X203511961Y-69465601D02*
X203416723Y-69513220D01*
X203416723Y-69513220D02*
X203226247Y-69560839D01*
X203226247Y-69560839D02*
X203083390Y-69560839D01*
X203083390Y-69560839D02*
X202892914Y-69513220D01*
X202892914Y-69513220D02*
X202797676Y-69465601D01*
X202797676Y-69465601D02*
X202702438Y-69370363D01*
X202702438Y-69370363D02*
X202654819Y-69227506D01*
X202654819Y-69227506D02*
X202654819Y-69132268D01*
X202654819Y-69132268D02*
X202702438Y-68989411D01*
X202702438Y-68989411D02*
X202750057Y-68941792D01*
X202750057Y-68560839D02*
X202702438Y-68513220D01*
X202702438Y-68513220D02*
X202654819Y-68417982D01*
X202654819Y-68417982D02*
X202654819Y-68179887D01*
X202654819Y-68179887D02*
X202702438Y-68084649D01*
X202702438Y-68084649D02*
X202750057Y-68037030D01*
X202750057Y-68037030D02*
X202845295Y-67989411D01*
X202845295Y-67989411D02*
X202940533Y-67989411D01*
X202940533Y-67989411D02*
X203083390Y-68037030D01*
X203083390Y-68037030D02*
X203654819Y-68608458D01*
X203654819Y-68608458D02*
X203654819Y-67989411D01*
X202654819Y-67656077D02*
X202654819Y-66989411D01*
X202654819Y-66989411D02*
X203654819Y-67417982D01*
X215402438Y-68989411D02*
X215354819Y-69084649D01*
X215354819Y-69084649D02*
X215354819Y-69227506D01*
X215354819Y-69227506D02*
X215402438Y-69370363D01*
X215402438Y-69370363D02*
X215497676Y-69465601D01*
X215497676Y-69465601D02*
X215592914Y-69513220D01*
X215592914Y-69513220D02*
X215783390Y-69560839D01*
X215783390Y-69560839D02*
X215926247Y-69560839D01*
X215926247Y-69560839D02*
X216116723Y-69513220D01*
X216116723Y-69513220D02*
X216211961Y-69465601D01*
X216211961Y-69465601D02*
X216307200Y-69370363D01*
X216307200Y-69370363D02*
X216354819Y-69227506D01*
X216354819Y-69227506D02*
X216354819Y-69132268D01*
X216354819Y-69132268D02*
X216307200Y-68989411D01*
X216307200Y-68989411D02*
X216259580Y-68941792D01*
X216259580Y-68941792D02*
X215926247Y-68941792D01*
X215926247Y-68941792D02*
X215926247Y-69132268D01*
X216354819Y-68513220D02*
X215354819Y-68513220D01*
X215354819Y-68513220D02*
X216354819Y-67941792D01*
X216354819Y-67941792D02*
X215354819Y-67941792D01*
X216354819Y-67465601D02*
X215354819Y-67465601D01*
X215354819Y-67465601D02*
X215354819Y-67227506D01*
X215354819Y-67227506D02*
X215402438Y-67084649D01*
X215402438Y-67084649D02*
X215497676Y-66989411D01*
X215497676Y-66989411D02*
X215592914Y-66941792D01*
X215592914Y-66941792D02*
X215783390Y-66894173D01*
X215783390Y-66894173D02*
X215926247Y-66894173D01*
X215926247Y-66894173D02*
X216116723Y-66941792D01*
X216116723Y-66941792D02*
X216211961Y-66989411D01*
X216211961Y-66989411D02*
X216307200Y-67084649D01*
X216307200Y-67084649D02*
X216354819Y-67227506D01*
X216354819Y-67227506D02*
X216354819Y-67465601D01*
X157934819Y-57422969D02*
X156934819Y-57422969D01*
X157411009Y-57422969D02*
X157411009Y-56851541D01*
X157934819Y-56851541D02*
X156934819Y-56851541D01*
X156934819Y-56470588D02*
X156934819Y-55803922D01*
X156934819Y-55803922D02*
X157934819Y-56232493D01*
X157268152Y-54994398D02*
X157934819Y-54994398D01*
X156887200Y-55232493D02*
X157601485Y-55470588D01*
X157601485Y-55470588D02*
X157601485Y-54851541D01*
X206099580Y-68941792D02*
X206147200Y-68989411D01*
X206147200Y-68989411D02*
X206194819Y-69132268D01*
X206194819Y-69132268D02*
X206194819Y-69227506D01*
X206194819Y-69227506D02*
X206147200Y-69370363D01*
X206147200Y-69370363D02*
X206051961Y-69465601D01*
X206051961Y-69465601D02*
X205956723Y-69513220D01*
X205956723Y-69513220D02*
X205766247Y-69560839D01*
X205766247Y-69560839D02*
X205623390Y-69560839D01*
X205623390Y-69560839D02*
X205432914Y-69513220D01*
X205432914Y-69513220D02*
X205337676Y-69465601D01*
X205337676Y-69465601D02*
X205242438Y-69370363D01*
X205242438Y-69370363D02*
X205194819Y-69227506D01*
X205194819Y-69227506D02*
X205194819Y-69132268D01*
X205194819Y-69132268D02*
X205242438Y-68989411D01*
X205242438Y-68989411D02*
X205290057Y-68941792D01*
X205290057Y-68560839D02*
X205242438Y-68513220D01*
X205242438Y-68513220D02*
X205194819Y-68417982D01*
X205194819Y-68417982D02*
X205194819Y-68179887D01*
X205194819Y-68179887D02*
X205242438Y-68084649D01*
X205242438Y-68084649D02*
X205290057Y-68037030D01*
X205290057Y-68037030D02*
X205385295Y-67989411D01*
X205385295Y-67989411D02*
X205480533Y-67989411D01*
X205480533Y-67989411D02*
X205623390Y-68037030D01*
X205623390Y-68037030D02*
X206194819Y-68608458D01*
X206194819Y-68608458D02*
X206194819Y-67989411D01*
X205194819Y-67084649D02*
X205194819Y-67560839D01*
X205194819Y-67560839D02*
X205671009Y-67608458D01*
X205671009Y-67608458D02*
X205623390Y-67560839D01*
X205623390Y-67560839D02*
X205575771Y-67465601D01*
X205575771Y-67465601D02*
X205575771Y-67227506D01*
X205575771Y-67227506D02*
X205623390Y-67132268D01*
X205623390Y-67132268D02*
X205671009Y-67084649D01*
X205671009Y-67084649D02*
X205766247Y-67037030D01*
X205766247Y-67037030D02*
X206004342Y-67037030D01*
X206004342Y-67037030D02*
X206099580Y-67084649D01*
X206099580Y-67084649D02*
X206147200Y-67132268D01*
X206147200Y-67132268D02*
X206194819Y-67227506D01*
X206194819Y-67227506D02*
X206194819Y-67465601D01*
X206194819Y-67465601D02*
X206147200Y-67560839D01*
X206147200Y-67560839D02*
X206099580Y-67608458D01*
X131534819Y-60137255D02*
X131534819Y-59946779D01*
X131534819Y-59946779D02*
X131582438Y-59851541D01*
X131582438Y-59851541D02*
X131677676Y-59756303D01*
X131677676Y-59756303D02*
X131868152Y-59708684D01*
X131868152Y-59708684D02*
X132201485Y-59708684D01*
X132201485Y-59708684D02*
X132391961Y-59756303D01*
X132391961Y-59756303D02*
X132487200Y-59851541D01*
X132487200Y-59851541D02*
X132534819Y-59946779D01*
X132534819Y-59946779D02*
X132534819Y-60137255D01*
X132534819Y-60137255D02*
X132487200Y-60232493D01*
X132487200Y-60232493D02*
X132391961Y-60327731D01*
X132391961Y-60327731D02*
X132201485Y-60375350D01*
X132201485Y-60375350D02*
X131868152Y-60375350D01*
X131868152Y-60375350D02*
X131677676Y-60327731D01*
X131677676Y-60327731D02*
X131582438Y-60232493D01*
X131582438Y-60232493D02*
X131534819Y-60137255D01*
X132011009Y-59280112D02*
X132011009Y-58946779D01*
X132534819Y-58803922D02*
X132534819Y-59280112D01*
X132534819Y-59280112D02*
X131534819Y-59280112D01*
X131534819Y-59280112D02*
X131534819Y-58803922D01*
X132534819Y-57851541D02*
X132534819Y-58422969D01*
X132534819Y-58137255D02*
X131534819Y-58137255D01*
X131534819Y-58137255D02*
X131677676Y-58232493D01*
X131677676Y-58232493D02*
X131772914Y-58327731D01*
X131772914Y-58327731D02*
X131820533Y-58422969D01*
X131487200Y-56708684D02*
X132772914Y-57565826D01*
X131963390Y-56232493D02*
X131915771Y-56327731D01*
X131915771Y-56327731D02*
X131868152Y-56375350D01*
X131868152Y-56375350D02*
X131772914Y-56422969D01*
X131772914Y-56422969D02*
X131725295Y-56422969D01*
X131725295Y-56422969D02*
X131630057Y-56375350D01*
X131630057Y-56375350D02*
X131582438Y-56327731D01*
X131582438Y-56327731D02*
X131534819Y-56232493D01*
X131534819Y-56232493D02*
X131534819Y-56042017D01*
X131534819Y-56042017D02*
X131582438Y-55946779D01*
X131582438Y-55946779D02*
X131630057Y-55899160D01*
X131630057Y-55899160D02*
X131725295Y-55851541D01*
X131725295Y-55851541D02*
X131772914Y-55851541D01*
X131772914Y-55851541D02*
X131868152Y-55899160D01*
X131868152Y-55899160D02*
X131915771Y-55946779D01*
X131915771Y-55946779D02*
X131963390Y-56042017D01*
X131963390Y-56042017D02*
X131963390Y-56232493D01*
X131963390Y-56232493D02*
X132011009Y-56327731D01*
X132011009Y-56327731D02*
X132058628Y-56375350D01*
X132058628Y-56375350D02*
X132153866Y-56422969D01*
X132153866Y-56422969D02*
X132344342Y-56422969D01*
X132344342Y-56422969D02*
X132439580Y-56375350D01*
X132439580Y-56375350D02*
X132487200Y-56327731D01*
X132487200Y-56327731D02*
X132534819Y-56232493D01*
X132534819Y-56232493D02*
X132534819Y-56042017D01*
X132534819Y-56042017D02*
X132487200Y-55946779D01*
X132487200Y-55946779D02*
X132439580Y-55899160D01*
X132439580Y-55899160D02*
X132344342Y-55851541D01*
X132344342Y-55851541D02*
X132153866Y-55851541D01*
X132153866Y-55851541D02*
X132058628Y-55899160D01*
X132058628Y-55899160D02*
X132011009Y-55946779D01*
X132011009Y-55946779D02*
X131963390Y-56042017D01*
X131868152Y-54994398D02*
X132534819Y-54994398D01*
X131487200Y-55232493D02*
X132201485Y-55470588D01*
X132201485Y-55470588D02*
X132201485Y-54851541D01*
X141742438Y-62708684D02*
X141694819Y-62803922D01*
X141694819Y-62803922D02*
X141694819Y-62946779D01*
X141694819Y-62946779D02*
X141742438Y-63089636D01*
X141742438Y-63089636D02*
X141837676Y-63184874D01*
X141837676Y-63184874D02*
X141932914Y-63232493D01*
X141932914Y-63232493D02*
X142123390Y-63280112D01*
X142123390Y-63280112D02*
X142266247Y-63280112D01*
X142266247Y-63280112D02*
X142456723Y-63232493D01*
X142456723Y-63232493D02*
X142551961Y-63184874D01*
X142551961Y-63184874D02*
X142647200Y-63089636D01*
X142647200Y-63089636D02*
X142694819Y-62946779D01*
X142694819Y-62946779D02*
X142694819Y-62851541D01*
X142694819Y-62851541D02*
X142647200Y-62708684D01*
X142647200Y-62708684D02*
X142599580Y-62661065D01*
X142599580Y-62661065D02*
X142266247Y-62661065D01*
X142266247Y-62661065D02*
X142266247Y-62851541D01*
X142599580Y-61661065D02*
X142647200Y-61708684D01*
X142647200Y-61708684D02*
X142694819Y-61851541D01*
X142694819Y-61851541D02*
X142694819Y-61946779D01*
X142694819Y-61946779D02*
X142647200Y-62089636D01*
X142647200Y-62089636D02*
X142551961Y-62184874D01*
X142551961Y-62184874D02*
X142456723Y-62232493D01*
X142456723Y-62232493D02*
X142266247Y-62280112D01*
X142266247Y-62280112D02*
X142123390Y-62280112D01*
X142123390Y-62280112D02*
X141932914Y-62232493D01*
X141932914Y-62232493D02*
X141837676Y-62184874D01*
X141837676Y-62184874D02*
X141742438Y-62089636D01*
X141742438Y-62089636D02*
X141694819Y-61946779D01*
X141694819Y-61946779D02*
X141694819Y-61851541D01*
X141694819Y-61851541D02*
X141742438Y-61708684D01*
X141742438Y-61708684D02*
X141790057Y-61661065D01*
X142694819Y-60756303D02*
X142694819Y-61232493D01*
X142694819Y-61232493D02*
X141694819Y-61232493D01*
X142694819Y-60422969D02*
X141694819Y-60422969D01*
X142694819Y-59851541D02*
X142123390Y-60280112D01*
X141694819Y-59851541D02*
X142266247Y-60422969D01*
X141694819Y-59518207D02*
X141694819Y-58899160D01*
X141694819Y-58899160D02*
X142075771Y-59232493D01*
X142075771Y-59232493D02*
X142075771Y-59089636D01*
X142075771Y-59089636D02*
X142123390Y-58994398D01*
X142123390Y-58994398D02*
X142171009Y-58946779D01*
X142171009Y-58946779D02*
X142266247Y-58899160D01*
X142266247Y-58899160D02*
X142504342Y-58899160D01*
X142504342Y-58899160D02*
X142599580Y-58946779D01*
X142599580Y-58946779D02*
X142647200Y-58994398D01*
X142647200Y-58994398D02*
X142694819Y-59089636D01*
X142694819Y-59089636D02*
X142694819Y-59375350D01*
X142694819Y-59375350D02*
X142647200Y-59470588D01*
X142647200Y-59470588D02*
X142599580Y-59518207D01*
X141647200Y-57756303D02*
X142932914Y-58613445D01*
X142694819Y-57422969D02*
X141694819Y-57422969D01*
X142171009Y-57422969D02*
X142171009Y-56851541D01*
X142694819Y-56851541D02*
X141694819Y-56851541D01*
X142123390Y-56232493D02*
X142075771Y-56327731D01*
X142075771Y-56327731D02*
X142028152Y-56375350D01*
X142028152Y-56375350D02*
X141932914Y-56422969D01*
X141932914Y-56422969D02*
X141885295Y-56422969D01*
X141885295Y-56422969D02*
X141790057Y-56375350D01*
X141790057Y-56375350D02*
X141742438Y-56327731D01*
X141742438Y-56327731D02*
X141694819Y-56232493D01*
X141694819Y-56232493D02*
X141694819Y-56042017D01*
X141694819Y-56042017D02*
X141742438Y-55946779D01*
X141742438Y-55946779D02*
X141790057Y-55899160D01*
X141790057Y-55899160D02*
X141885295Y-55851541D01*
X141885295Y-55851541D02*
X141932914Y-55851541D01*
X141932914Y-55851541D02*
X142028152Y-55899160D01*
X142028152Y-55899160D02*
X142075771Y-55946779D01*
X142075771Y-55946779D02*
X142123390Y-56042017D01*
X142123390Y-56042017D02*
X142123390Y-56232493D01*
X142123390Y-56232493D02*
X142171009Y-56327731D01*
X142171009Y-56327731D02*
X142218628Y-56375350D01*
X142218628Y-56375350D02*
X142313866Y-56422969D01*
X142313866Y-56422969D02*
X142504342Y-56422969D01*
X142504342Y-56422969D02*
X142599580Y-56375350D01*
X142599580Y-56375350D02*
X142647200Y-56327731D01*
X142647200Y-56327731D02*
X142694819Y-56232493D01*
X142694819Y-56232493D02*
X142694819Y-56042017D01*
X142694819Y-56042017D02*
X142647200Y-55946779D01*
X142647200Y-55946779D02*
X142599580Y-55899160D01*
X142599580Y-55899160D02*
X142504342Y-55851541D01*
X142504342Y-55851541D02*
X142313866Y-55851541D01*
X142313866Y-55851541D02*
X142218628Y-55899160D01*
X142218628Y-55899160D02*
X142171009Y-55946779D01*
X142171009Y-55946779D02*
X142123390Y-56042017D01*
X142694819Y-54899160D02*
X142694819Y-55470588D01*
X142694819Y-55184874D02*
X141694819Y-55184874D01*
X141694819Y-55184874D02*
X141837676Y-55280112D01*
X141837676Y-55280112D02*
X141932914Y-55375350D01*
X141932914Y-55375350D02*
X141980533Y-55470588D01*
X178254819Y-69513220D02*
X177254819Y-69513220D01*
X177254819Y-69513220D02*
X177254819Y-69275125D01*
X177254819Y-69275125D02*
X177302438Y-69132268D01*
X177302438Y-69132268D02*
X177397676Y-69037030D01*
X177397676Y-69037030D02*
X177492914Y-68989411D01*
X177492914Y-68989411D02*
X177683390Y-68941792D01*
X177683390Y-68941792D02*
X177826247Y-68941792D01*
X177826247Y-68941792D02*
X178016723Y-68989411D01*
X178016723Y-68989411D02*
X178111961Y-69037030D01*
X178111961Y-69037030D02*
X178207200Y-69132268D01*
X178207200Y-69132268D02*
X178254819Y-69275125D01*
X178254819Y-69275125D02*
X178254819Y-69513220D01*
X177254819Y-68608458D02*
X177254819Y-67989411D01*
X177254819Y-67989411D02*
X177635771Y-68322744D01*
X177635771Y-68322744D02*
X177635771Y-68179887D01*
X177635771Y-68179887D02*
X177683390Y-68084649D01*
X177683390Y-68084649D02*
X177731009Y-68037030D01*
X177731009Y-68037030D02*
X177826247Y-67989411D01*
X177826247Y-67989411D02*
X178064342Y-67989411D01*
X178064342Y-67989411D02*
X178159580Y-68037030D01*
X178159580Y-68037030D02*
X178207200Y-68084649D01*
X178207200Y-68084649D02*
X178254819Y-68179887D01*
X178254819Y-68179887D02*
X178254819Y-68465601D01*
X178254819Y-68465601D02*
X178207200Y-68560839D01*
X178207200Y-68560839D02*
X178159580Y-68608458D01*
X178254819Y-67513220D02*
X178254819Y-67322744D01*
X178254819Y-67322744D02*
X178207200Y-67227506D01*
X178207200Y-67227506D02*
X178159580Y-67179887D01*
X178159580Y-67179887D02*
X178016723Y-67084649D01*
X178016723Y-67084649D02*
X177826247Y-67037030D01*
X177826247Y-67037030D02*
X177445295Y-67037030D01*
X177445295Y-67037030D02*
X177350057Y-67084649D01*
X177350057Y-67084649D02*
X177302438Y-67132268D01*
X177302438Y-67132268D02*
X177254819Y-67227506D01*
X177254819Y-67227506D02*
X177254819Y-67417982D01*
X177254819Y-67417982D02*
X177302438Y-67513220D01*
X177302438Y-67513220D02*
X177350057Y-67560839D01*
X177350057Y-67560839D02*
X177445295Y-67608458D01*
X177445295Y-67608458D02*
X177683390Y-67608458D01*
X177683390Y-67608458D02*
X177778628Y-67560839D01*
X177778628Y-67560839D02*
X177826247Y-67513220D01*
X177826247Y-67513220D02*
X177873866Y-67417982D01*
X177873866Y-67417982D02*
X177873866Y-67227506D01*
X177873866Y-67227506D02*
X177826247Y-67132268D01*
X177826247Y-67132268D02*
X177778628Y-67084649D01*
X177778628Y-67084649D02*
X177683390Y-67037030D01*
X208639580Y-68941792D02*
X208687200Y-68989411D01*
X208687200Y-68989411D02*
X208734819Y-69132268D01*
X208734819Y-69132268D02*
X208734819Y-69227506D01*
X208734819Y-69227506D02*
X208687200Y-69370363D01*
X208687200Y-69370363D02*
X208591961Y-69465601D01*
X208591961Y-69465601D02*
X208496723Y-69513220D01*
X208496723Y-69513220D02*
X208306247Y-69560839D01*
X208306247Y-69560839D02*
X208163390Y-69560839D01*
X208163390Y-69560839D02*
X207972914Y-69513220D01*
X207972914Y-69513220D02*
X207877676Y-69465601D01*
X207877676Y-69465601D02*
X207782438Y-69370363D01*
X207782438Y-69370363D02*
X207734819Y-69227506D01*
X207734819Y-69227506D02*
X207734819Y-69132268D01*
X207734819Y-69132268D02*
X207782438Y-68989411D01*
X207782438Y-68989411D02*
X207830057Y-68941792D01*
X207830057Y-68560839D02*
X207782438Y-68513220D01*
X207782438Y-68513220D02*
X207734819Y-68417982D01*
X207734819Y-68417982D02*
X207734819Y-68179887D01*
X207734819Y-68179887D02*
X207782438Y-68084649D01*
X207782438Y-68084649D02*
X207830057Y-68037030D01*
X207830057Y-68037030D02*
X207925295Y-67989411D01*
X207925295Y-67989411D02*
X208020533Y-67989411D01*
X208020533Y-67989411D02*
X208163390Y-68037030D01*
X208163390Y-68037030D02*
X208734819Y-68608458D01*
X208734819Y-68608458D02*
X208734819Y-67989411D01*
X208068152Y-67132268D02*
X208734819Y-67132268D01*
X207687200Y-67370363D02*
X208401485Y-67608458D01*
X208401485Y-67608458D02*
X208401485Y-66989411D01*
X169682438Y-68989411D02*
X169634819Y-69084649D01*
X169634819Y-69084649D02*
X169634819Y-69227506D01*
X169634819Y-69227506D02*
X169682438Y-69370363D01*
X169682438Y-69370363D02*
X169777676Y-69465601D01*
X169777676Y-69465601D02*
X169872914Y-69513220D01*
X169872914Y-69513220D02*
X170063390Y-69560839D01*
X170063390Y-69560839D02*
X170206247Y-69560839D01*
X170206247Y-69560839D02*
X170396723Y-69513220D01*
X170396723Y-69513220D02*
X170491961Y-69465601D01*
X170491961Y-69465601D02*
X170587200Y-69370363D01*
X170587200Y-69370363D02*
X170634819Y-69227506D01*
X170634819Y-69227506D02*
X170634819Y-69132268D01*
X170634819Y-69132268D02*
X170587200Y-68989411D01*
X170587200Y-68989411D02*
X170539580Y-68941792D01*
X170539580Y-68941792D02*
X170206247Y-68941792D01*
X170206247Y-68941792D02*
X170206247Y-69132268D01*
X170634819Y-68513220D02*
X169634819Y-68513220D01*
X169634819Y-68513220D02*
X170634819Y-67941792D01*
X170634819Y-67941792D02*
X169634819Y-67941792D01*
X170634819Y-67465601D02*
X169634819Y-67465601D01*
X169634819Y-67465601D02*
X169634819Y-67227506D01*
X169634819Y-67227506D02*
X169682438Y-67084649D01*
X169682438Y-67084649D02*
X169777676Y-66989411D01*
X169777676Y-66989411D02*
X169872914Y-66941792D01*
X169872914Y-66941792D02*
X170063390Y-66894173D01*
X170063390Y-66894173D02*
X170206247Y-66894173D01*
X170206247Y-66894173D02*
X170396723Y-66941792D01*
X170396723Y-66941792D02*
X170491961Y-66989411D01*
X170491961Y-66989411D02*
X170587200Y-67084649D01*
X170587200Y-67084649D02*
X170634819Y-67227506D01*
X170634819Y-67227506D02*
X170634819Y-67465601D01*
X139631009Y-69179887D02*
X139631009Y-69513220D01*
X140154819Y-69513220D02*
X139154819Y-69513220D01*
X139154819Y-69513220D02*
X139154819Y-69037030D01*
X139154819Y-68179887D02*
X139154819Y-68656077D01*
X139154819Y-68656077D02*
X139631009Y-68703696D01*
X139631009Y-68703696D02*
X139583390Y-68656077D01*
X139583390Y-68656077D02*
X139535771Y-68560839D01*
X139535771Y-68560839D02*
X139535771Y-68322744D01*
X139535771Y-68322744D02*
X139583390Y-68227506D01*
X139583390Y-68227506D02*
X139631009Y-68179887D01*
X139631009Y-68179887D02*
X139726247Y-68132268D01*
X139726247Y-68132268D02*
X139964342Y-68132268D01*
X139964342Y-68132268D02*
X140059580Y-68179887D01*
X140059580Y-68179887D02*
X140107200Y-68227506D01*
X140107200Y-68227506D02*
X140154819Y-68322744D01*
X140154819Y-68322744D02*
X140154819Y-68560839D01*
X140154819Y-68560839D02*
X140107200Y-68656077D01*
X140107200Y-68656077D02*
X140059580Y-68703696D01*
X139154819Y-67798934D02*
X139154819Y-67132268D01*
X139154819Y-67132268D02*
X140154819Y-67560839D01*
X100028951Y-61684819D02*
X100028951Y-62399104D01*
X100028951Y-62399104D02*
X99981332Y-62541961D01*
X99981332Y-62541961D02*
X99886094Y-62637200D01*
X99886094Y-62637200D02*
X99743237Y-62684819D01*
X99743237Y-62684819D02*
X99647999Y-62684819D01*
X100981332Y-62684819D02*
X100505142Y-62684819D01*
X100505142Y-62684819D02*
X100505142Y-61684819D01*
X101886094Y-62589580D02*
X101838475Y-62637200D01*
X101838475Y-62637200D02*
X101695618Y-62684819D01*
X101695618Y-62684819D02*
X101600380Y-62684819D01*
X101600380Y-62684819D02*
X101457523Y-62637200D01*
X101457523Y-62637200D02*
X101362285Y-62541961D01*
X101362285Y-62541961D02*
X101314666Y-62446723D01*
X101314666Y-62446723D02*
X101267047Y-62256247D01*
X101267047Y-62256247D02*
X101267047Y-62113390D01*
X101267047Y-62113390D02*
X101314666Y-61922914D01*
X101314666Y-61922914D02*
X101362285Y-61827676D01*
X101362285Y-61827676D02*
X101457523Y-61732438D01*
X101457523Y-61732438D02*
X101600380Y-61684819D01*
X101600380Y-61684819D02*
X101695618Y-61684819D01*
X101695618Y-61684819D02*
X101838475Y-61732438D01*
X101838475Y-61732438D02*
X101886094Y-61780057D01*
X102600380Y-61684819D02*
X102600380Y-62399104D01*
X102600380Y-62399104D02*
X102552761Y-62541961D01*
X102552761Y-62541961D02*
X102457523Y-62637200D01*
X102457523Y-62637200D02*
X102314666Y-62684819D01*
X102314666Y-62684819D02*
X102219428Y-62684819D01*
X103552761Y-62684819D02*
X103076571Y-62684819D01*
X103076571Y-62684819D02*
X103076571Y-61684819D01*
X104457523Y-62589580D02*
X104409904Y-62637200D01*
X104409904Y-62637200D02*
X104267047Y-62684819D01*
X104267047Y-62684819D02*
X104171809Y-62684819D01*
X104171809Y-62684819D02*
X104028952Y-62637200D01*
X104028952Y-62637200D02*
X103933714Y-62541961D01*
X103933714Y-62541961D02*
X103886095Y-62446723D01*
X103886095Y-62446723D02*
X103838476Y-62256247D01*
X103838476Y-62256247D02*
X103838476Y-62113390D01*
X103838476Y-62113390D02*
X103886095Y-61922914D01*
X103886095Y-61922914D02*
X103933714Y-61827676D01*
X103933714Y-61827676D02*
X104028952Y-61732438D01*
X104028952Y-61732438D02*
X104171809Y-61684819D01*
X104171809Y-61684819D02*
X104267047Y-61684819D01*
X104267047Y-61684819D02*
X104409904Y-61732438D01*
X104409904Y-61732438D02*
X104457523Y-61780057D01*
X105171809Y-61684819D02*
X105171809Y-62399104D01*
X105171809Y-62399104D02*
X105124190Y-62541961D01*
X105124190Y-62541961D02*
X105028952Y-62637200D01*
X105028952Y-62637200D02*
X104886095Y-62684819D01*
X104886095Y-62684819D02*
X104790857Y-62684819D01*
X106124190Y-62684819D02*
X105648000Y-62684819D01*
X105648000Y-62684819D02*
X105648000Y-61684819D01*
X107028952Y-62589580D02*
X106981333Y-62637200D01*
X106981333Y-62637200D02*
X106838476Y-62684819D01*
X106838476Y-62684819D02*
X106743238Y-62684819D01*
X106743238Y-62684819D02*
X106600381Y-62637200D01*
X106600381Y-62637200D02*
X106505143Y-62541961D01*
X106505143Y-62541961D02*
X106457524Y-62446723D01*
X106457524Y-62446723D02*
X106409905Y-62256247D01*
X106409905Y-62256247D02*
X106409905Y-62113390D01*
X106409905Y-62113390D02*
X106457524Y-61922914D01*
X106457524Y-61922914D02*
X106505143Y-61827676D01*
X106505143Y-61827676D02*
X106600381Y-61732438D01*
X106600381Y-61732438D02*
X106743238Y-61684819D01*
X106743238Y-61684819D02*
X106838476Y-61684819D01*
X106838476Y-61684819D02*
X106981333Y-61732438D01*
X106981333Y-61732438D02*
X107028952Y-61780057D01*
X107743238Y-61684819D02*
X107743238Y-62399104D01*
X107743238Y-62399104D02*
X107695619Y-62541961D01*
X107695619Y-62541961D02*
X107600381Y-62637200D01*
X107600381Y-62637200D02*
X107457524Y-62684819D01*
X107457524Y-62684819D02*
X107362286Y-62684819D01*
X108695619Y-62684819D02*
X108219429Y-62684819D01*
X108219429Y-62684819D02*
X108219429Y-61684819D01*
X109600381Y-62589580D02*
X109552762Y-62637200D01*
X109552762Y-62637200D02*
X109409905Y-62684819D01*
X109409905Y-62684819D02*
X109314667Y-62684819D01*
X109314667Y-62684819D02*
X109171810Y-62637200D01*
X109171810Y-62637200D02*
X109076572Y-62541961D01*
X109076572Y-62541961D02*
X109028953Y-62446723D01*
X109028953Y-62446723D02*
X108981334Y-62256247D01*
X108981334Y-62256247D02*
X108981334Y-62113390D01*
X108981334Y-62113390D02*
X109028953Y-61922914D01*
X109028953Y-61922914D02*
X109076572Y-61827676D01*
X109076572Y-61827676D02*
X109171810Y-61732438D01*
X109171810Y-61732438D02*
X109314667Y-61684819D01*
X109314667Y-61684819D02*
X109409905Y-61684819D01*
X109409905Y-61684819D02*
X109552762Y-61732438D01*
X109552762Y-61732438D02*
X109600381Y-61780057D01*
X144711009Y-69179887D02*
X144711009Y-69513220D01*
X145234819Y-69513220D02*
X144234819Y-69513220D01*
X144234819Y-69513220D02*
X144234819Y-69037030D01*
X144234819Y-68227506D02*
X144234819Y-68417982D01*
X144234819Y-68417982D02*
X144282438Y-68513220D01*
X144282438Y-68513220D02*
X144330057Y-68560839D01*
X144330057Y-68560839D02*
X144472914Y-68656077D01*
X144472914Y-68656077D02*
X144663390Y-68703696D01*
X144663390Y-68703696D02*
X145044342Y-68703696D01*
X145044342Y-68703696D02*
X145139580Y-68656077D01*
X145139580Y-68656077D02*
X145187200Y-68608458D01*
X145187200Y-68608458D02*
X145234819Y-68513220D01*
X145234819Y-68513220D02*
X145234819Y-68322744D01*
X145234819Y-68322744D02*
X145187200Y-68227506D01*
X145187200Y-68227506D02*
X145139580Y-68179887D01*
X145139580Y-68179887D02*
X145044342Y-68132268D01*
X145044342Y-68132268D02*
X144806247Y-68132268D01*
X144806247Y-68132268D02*
X144711009Y-68179887D01*
X144711009Y-68179887D02*
X144663390Y-68227506D01*
X144663390Y-68227506D02*
X144615771Y-68322744D01*
X144615771Y-68322744D02*
X144615771Y-68513220D01*
X144615771Y-68513220D02*
X144663390Y-68608458D01*
X144663390Y-68608458D02*
X144711009Y-68656077D01*
X144711009Y-68656077D02*
X144806247Y-68703696D01*
X144234819Y-67513220D02*
X144234819Y-67417982D01*
X144234819Y-67417982D02*
X144282438Y-67322744D01*
X144282438Y-67322744D02*
X144330057Y-67275125D01*
X144330057Y-67275125D02*
X144425295Y-67227506D01*
X144425295Y-67227506D02*
X144615771Y-67179887D01*
X144615771Y-67179887D02*
X144853866Y-67179887D01*
X144853866Y-67179887D02*
X145044342Y-67227506D01*
X145044342Y-67227506D02*
X145139580Y-67275125D01*
X145139580Y-67275125D02*
X145187200Y-67322744D01*
X145187200Y-67322744D02*
X145234819Y-67417982D01*
X145234819Y-67417982D02*
X145234819Y-67513220D01*
X145234819Y-67513220D02*
X145187200Y-67608458D01*
X145187200Y-67608458D02*
X145139580Y-67656077D01*
X145139580Y-67656077D02*
X145044342Y-67703696D01*
X145044342Y-67703696D02*
X144853866Y-67751315D01*
X144853866Y-67751315D02*
X144615771Y-67751315D01*
X144615771Y-67751315D02*
X144425295Y-67703696D01*
X144425295Y-67703696D02*
X144330057Y-67656077D01*
X144330057Y-67656077D02*
X144282438Y-67608458D01*
X144282438Y-67608458D02*
X144234819Y-67513220D01*
X134122438Y-59756303D02*
X134074819Y-59851541D01*
X134074819Y-59851541D02*
X134074819Y-59994398D01*
X134074819Y-59994398D02*
X134122438Y-60137255D01*
X134122438Y-60137255D02*
X134217676Y-60232493D01*
X134217676Y-60232493D02*
X134312914Y-60280112D01*
X134312914Y-60280112D02*
X134503390Y-60327731D01*
X134503390Y-60327731D02*
X134646247Y-60327731D01*
X134646247Y-60327731D02*
X134836723Y-60280112D01*
X134836723Y-60280112D02*
X134931961Y-60232493D01*
X134931961Y-60232493D02*
X135027200Y-60137255D01*
X135027200Y-60137255D02*
X135074819Y-59994398D01*
X135074819Y-59994398D02*
X135074819Y-59899160D01*
X135074819Y-59899160D02*
X135027200Y-59756303D01*
X135027200Y-59756303D02*
X134979580Y-59708684D01*
X134979580Y-59708684D02*
X134646247Y-59708684D01*
X134646247Y-59708684D02*
X134646247Y-59899160D01*
X134979580Y-58708684D02*
X135027200Y-58756303D01*
X135027200Y-58756303D02*
X135074819Y-58899160D01*
X135074819Y-58899160D02*
X135074819Y-58994398D01*
X135074819Y-58994398D02*
X135027200Y-59137255D01*
X135027200Y-59137255D02*
X134931961Y-59232493D01*
X134931961Y-59232493D02*
X134836723Y-59280112D01*
X134836723Y-59280112D02*
X134646247Y-59327731D01*
X134646247Y-59327731D02*
X134503390Y-59327731D01*
X134503390Y-59327731D02*
X134312914Y-59280112D01*
X134312914Y-59280112D02*
X134217676Y-59232493D01*
X134217676Y-59232493D02*
X134122438Y-59137255D01*
X134122438Y-59137255D02*
X134074819Y-58994398D01*
X134074819Y-58994398D02*
X134074819Y-58899160D01*
X134074819Y-58899160D02*
X134122438Y-58756303D01*
X134122438Y-58756303D02*
X134170057Y-58708684D01*
X135074819Y-57803922D02*
X135074819Y-58280112D01*
X135074819Y-58280112D02*
X134074819Y-58280112D01*
X135074819Y-56899160D02*
X134598628Y-57232493D01*
X135074819Y-57470588D02*
X134074819Y-57470588D01*
X134074819Y-57470588D02*
X134074819Y-57089636D01*
X134074819Y-57089636D02*
X134122438Y-56994398D01*
X134122438Y-56994398D02*
X134170057Y-56946779D01*
X134170057Y-56946779D02*
X134265295Y-56899160D01*
X134265295Y-56899160D02*
X134408152Y-56899160D01*
X134408152Y-56899160D02*
X134503390Y-56946779D01*
X134503390Y-56946779D02*
X134551009Y-56994398D01*
X134551009Y-56994398D02*
X134598628Y-57089636D01*
X134598628Y-57089636D02*
X134598628Y-57470588D01*
X134027200Y-55756303D02*
X135312914Y-56613445D01*
X135074819Y-54899160D02*
X135074819Y-55470588D01*
X135074819Y-55184874D02*
X134074819Y-55184874D01*
X134074819Y-55184874D02*
X134217676Y-55280112D01*
X134217676Y-55280112D02*
X134312914Y-55375350D01*
X134312914Y-55375350D02*
X134360533Y-55470588D01*
X128994819Y-57470588D02*
X129994819Y-57137255D01*
X129994819Y-57137255D02*
X128994819Y-56803922D01*
X129899580Y-55899160D02*
X129947200Y-55946779D01*
X129947200Y-55946779D02*
X129994819Y-56089636D01*
X129994819Y-56089636D02*
X129994819Y-56184874D01*
X129994819Y-56184874D02*
X129947200Y-56327731D01*
X129947200Y-56327731D02*
X129851961Y-56422969D01*
X129851961Y-56422969D02*
X129756723Y-56470588D01*
X129756723Y-56470588D02*
X129566247Y-56518207D01*
X129566247Y-56518207D02*
X129423390Y-56518207D01*
X129423390Y-56518207D02*
X129232914Y-56470588D01*
X129232914Y-56470588D02*
X129137676Y-56422969D01*
X129137676Y-56422969D02*
X129042438Y-56327731D01*
X129042438Y-56327731D02*
X128994819Y-56184874D01*
X128994819Y-56184874D02*
X128994819Y-56089636D01*
X128994819Y-56089636D02*
X129042438Y-55946779D01*
X129042438Y-55946779D02*
X129090057Y-55899160D01*
X129899580Y-54899160D02*
X129947200Y-54946779D01*
X129947200Y-54946779D02*
X129994819Y-55089636D01*
X129994819Y-55089636D02*
X129994819Y-55184874D01*
X129994819Y-55184874D02*
X129947200Y-55327731D01*
X129947200Y-55327731D02*
X129851961Y-55422969D01*
X129851961Y-55422969D02*
X129756723Y-55470588D01*
X129756723Y-55470588D02*
X129566247Y-55518207D01*
X129566247Y-55518207D02*
X129423390Y-55518207D01*
X129423390Y-55518207D02*
X129232914Y-55470588D01*
X129232914Y-55470588D02*
X129137676Y-55422969D01*
X129137676Y-55422969D02*
X129042438Y-55327731D01*
X129042438Y-55327731D02*
X128994819Y-55184874D01*
X128994819Y-55184874D02*
X128994819Y-55089636D01*
X128994819Y-55089636D02*
X129042438Y-54946779D01*
X129042438Y-54946779D02*
X129090057Y-54899160D01*
X165031009Y-69513220D02*
X165031009Y-69179887D01*
X165554819Y-69037030D02*
X165554819Y-69513220D01*
X165554819Y-69513220D02*
X164554819Y-69513220D01*
X164554819Y-69513220D02*
X164554819Y-69037030D01*
X164888152Y-68179887D02*
X165554819Y-68179887D01*
X164507200Y-68417982D02*
X165221485Y-68656077D01*
X165221485Y-68656077D02*
X165221485Y-68037030D01*
X164554819Y-67179887D02*
X164554819Y-67656077D01*
X164554819Y-67656077D02*
X165031009Y-67703696D01*
X165031009Y-67703696D02*
X164983390Y-67656077D01*
X164983390Y-67656077D02*
X164935771Y-67560839D01*
X164935771Y-67560839D02*
X164935771Y-67322744D01*
X164935771Y-67322744D02*
X164983390Y-67227506D01*
X164983390Y-67227506D02*
X165031009Y-67179887D01*
X165031009Y-67179887D02*
X165126247Y-67132268D01*
X165126247Y-67132268D02*
X165364342Y-67132268D01*
X165364342Y-67132268D02*
X165459580Y-67179887D01*
X165459580Y-67179887D02*
X165507200Y-67227506D01*
X165507200Y-67227506D02*
X165554819Y-67322744D01*
X165554819Y-67322744D02*
X165554819Y-67560839D01*
X165554819Y-67560839D02*
X165507200Y-67656077D01*
X165507200Y-67656077D02*
X165459580Y-67703696D01*
X164507200Y-65989411D02*
X165792914Y-66846553D01*
X165554819Y-65656077D02*
X164554819Y-65656077D01*
X164554819Y-65656077D02*
X164554819Y-65275125D01*
X164554819Y-65275125D02*
X164602438Y-65179887D01*
X164602438Y-65179887D02*
X164650057Y-65132268D01*
X164650057Y-65132268D02*
X164745295Y-65084649D01*
X164745295Y-65084649D02*
X164888152Y-65084649D01*
X164888152Y-65084649D02*
X164983390Y-65132268D01*
X164983390Y-65132268D02*
X165031009Y-65179887D01*
X165031009Y-65179887D02*
X165078628Y-65275125D01*
X165078628Y-65275125D02*
X165078628Y-65656077D01*
X165554819Y-64656077D02*
X164554819Y-64656077D01*
X164554819Y-64656077D02*
X164554819Y-64417982D01*
X164554819Y-64417982D02*
X164602438Y-64275125D01*
X164602438Y-64275125D02*
X164697676Y-64179887D01*
X164697676Y-64179887D02*
X164792914Y-64132268D01*
X164792914Y-64132268D02*
X164983390Y-64084649D01*
X164983390Y-64084649D02*
X165126247Y-64084649D01*
X165126247Y-64084649D02*
X165316723Y-64132268D01*
X165316723Y-64132268D02*
X165411961Y-64179887D01*
X165411961Y-64179887D02*
X165507200Y-64275125D01*
X165507200Y-64275125D02*
X165554819Y-64417982D01*
X165554819Y-64417982D02*
X165554819Y-64656077D01*
X164650057Y-63703696D02*
X164602438Y-63656077D01*
X164602438Y-63656077D02*
X164554819Y-63560839D01*
X164554819Y-63560839D02*
X164554819Y-63322744D01*
X164554819Y-63322744D02*
X164602438Y-63227506D01*
X164602438Y-63227506D02*
X164650057Y-63179887D01*
X164650057Y-63179887D02*
X164745295Y-63132268D01*
X164745295Y-63132268D02*
X164840533Y-63132268D01*
X164840533Y-63132268D02*
X164983390Y-63179887D01*
X164983390Y-63179887D02*
X165554819Y-63751315D01*
X165554819Y-63751315D02*
X165554819Y-63132268D01*
X193399580Y-68941792D02*
X193447200Y-68989411D01*
X193447200Y-68989411D02*
X193494819Y-69132268D01*
X193494819Y-69132268D02*
X193494819Y-69227506D01*
X193494819Y-69227506D02*
X193447200Y-69370363D01*
X193447200Y-69370363D02*
X193351961Y-69465601D01*
X193351961Y-69465601D02*
X193256723Y-69513220D01*
X193256723Y-69513220D02*
X193066247Y-69560839D01*
X193066247Y-69560839D02*
X192923390Y-69560839D01*
X192923390Y-69560839D02*
X192732914Y-69513220D01*
X192732914Y-69513220D02*
X192637676Y-69465601D01*
X192637676Y-69465601D02*
X192542438Y-69370363D01*
X192542438Y-69370363D02*
X192494819Y-69227506D01*
X192494819Y-69227506D02*
X192494819Y-69132268D01*
X192494819Y-69132268D02*
X192542438Y-68989411D01*
X192542438Y-68989411D02*
X192590057Y-68941792D01*
X192494819Y-68608458D02*
X192494819Y-67989411D01*
X192494819Y-67989411D02*
X192875771Y-68322744D01*
X192875771Y-68322744D02*
X192875771Y-68179887D01*
X192875771Y-68179887D02*
X192923390Y-68084649D01*
X192923390Y-68084649D02*
X192971009Y-68037030D01*
X192971009Y-68037030D02*
X193066247Y-67989411D01*
X193066247Y-67989411D02*
X193304342Y-67989411D01*
X193304342Y-67989411D02*
X193399580Y-68037030D01*
X193399580Y-68037030D02*
X193447200Y-68084649D01*
X193447200Y-68084649D02*
X193494819Y-68179887D01*
X193494819Y-68179887D02*
X193494819Y-68465601D01*
X193494819Y-68465601D02*
X193447200Y-68560839D01*
X193447200Y-68560839D02*
X193399580Y-68608458D01*
X193494819Y-67037030D02*
X193494819Y-67608458D01*
X193494819Y-67322744D02*
X192494819Y-67322744D01*
X192494819Y-67322744D02*
X192637676Y-67417982D01*
X192637676Y-67417982D02*
X192732914Y-67513220D01*
X192732914Y-67513220D02*
X192780533Y-67608458D01*
X210751009Y-69179887D02*
X210798628Y-69037030D01*
X210798628Y-69037030D02*
X210846247Y-68989411D01*
X210846247Y-68989411D02*
X210941485Y-68941792D01*
X210941485Y-68941792D02*
X211084342Y-68941792D01*
X211084342Y-68941792D02*
X211179580Y-68989411D01*
X211179580Y-68989411D02*
X211227200Y-69037030D01*
X211227200Y-69037030D02*
X211274819Y-69132268D01*
X211274819Y-69132268D02*
X211274819Y-69513220D01*
X211274819Y-69513220D02*
X210274819Y-69513220D01*
X210274819Y-69513220D02*
X210274819Y-69179887D01*
X210274819Y-69179887D02*
X210322438Y-69084649D01*
X210322438Y-69084649D02*
X210370057Y-69037030D01*
X210370057Y-69037030D02*
X210465295Y-68989411D01*
X210465295Y-68989411D02*
X210560533Y-68989411D01*
X210560533Y-68989411D02*
X210655771Y-69037030D01*
X210655771Y-69037030D02*
X210703390Y-69084649D01*
X210703390Y-69084649D02*
X210751009Y-69179887D01*
X210751009Y-69179887D02*
X210751009Y-69513220D01*
X210370057Y-68560839D02*
X210322438Y-68513220D01*
X210322438Y-68513220D02*
X210274819Y-68417982D01*
X210274819Y-68417982D02*
X210274819Y-68179887D01*
X210274819Y-68179887D02*
X210322438Y-68084649D01*
X210322438Y-68084649D02*
X210370057Y-68037030D01*
X210370057Y-68037030D02*
X210465295Y-67989411D01*
X210465295Y-67989411D02*
X210560533Y-67989411D01*
X210560533Y-67989411D02*
X210703390Y-68037030D01*
X210703390Y-68037030D02*
X211274819Y-68608458D01*
X211274819Y-68608458D02*
X211274819Y-67989411D01*
X210370057Y-67608458D02*
X210322438Y-67560839D01*
X210322438Y-67560839D02*
X210274819Y-67465601D01*
X210274819Y-67465601D02*
X210274819Y-67227506D01*
X210274819Y-67227506D02*
X210322438Y-67132268D01*
X210322438Y-67132268D02*
X210370057Y-67084649D01*
X210370057Y-67084649D02*
X210465295Y-67037030D01*
X210465295Y-67037030D02*
X210560533Y-67037030D01*
X210560533Y-67037030D02*
X210703390Y-67084649D01*
X210703390Y-67084649D02*
X211274819Y-67656077D01*
X211274819Y-67656077D02*
X211274819Y-67037030D01*
X208211009Y-57042017D02*
X208258628Y-56899160D01*
X208258628Y-56899160D02*
X208306247Y-56851541D01*
X208306247Y-56851541D02*
X208401485Y-56803922D01*
X208401485Y-56803922D02*
X208544342Y-56803922D01*
X208544342Y-56803922D02*
X208639580Y-56851541D01*
X208639580Y-56851541D02*
X208687200Y-56899160D01*
X208687200Y-56899160D02*
X208734819Y-56994398D01*
X208734819Y-56994398D02*
X208734819Y-57375350D01*
X208734819Y-57375350D02*
X207734819Y-57375350D01*
X207734819Y-57375350D02*
X207734819Y-57042017D01*
X207734819Y-57042017D02*
X207782438Y-56946779D01*
X207782438Y-56946779D02*
X207830057Y-56899160D01*
X207830057Y-56899160D02*
X207925295Y-56851541D01*
X207925295Y-56851541D02*
X208020533Y-56851541D01*
X208020533Y-56851541D02*
X208115771Y-56899160D01*
X208115771Y-56899160D02*
X208163390Y-56946779D01*
X208163390Y-56946779D02*
X208211009Y-57042017D01*
X208211009Y-57042017D02*
X208211009Y-57375350D01*
X208734819Y-55851541D02*
X208734819Y-56422969D01*
X208734819Y-56137255D02*
X207734819Y-56137255D01*
X207734819Y-56137255D02*
X207877676Y-56232493D01*
X207877676Y-56232493D02*
X207972914Y-56327731D01*
X207972914Y-56327731D02*
X208020533Y-56422969D01*
X207734819Y-55518207D02*
X207734819Y-54851541D01*
X207734819Y-54851541D02*
X208734819Y-55280112D01*
X132011009Y-69179887D02*
X132011009Y-69513220D01*
X132534819Y-69513220D02*
X131534819Y-69513220D01*
X131534819Y-69513220D02*
X131534819Y-69037030D01*
X131534819Y-68179887D02*
X131534819Y-68656077D01*
X131534819Y-68656077D02*
X132011009Y-68703696D01*
X132011009Y-68703696D02*
X131963390Y-68656077D01*
X131963390Y-68656077D02*
X131915771Y-68560839D01*
X131915771Y-68560839D02*
X131915771Y-68322744D01*
X131915771Y-68322744D02*
X131963390Y-68227506D01*
X131963390Y-68227506D02*
X132011009Y-68179887D01*
X132011009Y-68179887D02*
X132106247Y-68132268D01*
X132106247Y-68132268D02*
X132344342Y-68132268D01*
X132344342Y-68132268D02*
X132439580Y-68179887D01*
X132439580Y-68179887D02*
X132487200Y-68227506D01*
X132487200Y-68227506D02*
X132534819Y-68322744D01*
X132534819Y-68322744D02*
X132534819Y-68560839D01*
X132534819Y-68560839D02*
X132487200Y-68656077D01*
X132487200Y-68656077D02*
X132439580Y-68703696D01*
X131868152Y-67275125D02*
X132534819Y-67275125D01*
X131487200Y-67513220D02*
X132201485Y-67751315D01*
X132201485Y-67751315D02*
X132201485Y-67132268D01*
X190954819Y-69513220D02*
X189954819Y-69513220D01*
X189954819Y-69513220D02*
X189954819Y-69275125D01*
X189954819Y-69275125D02*
X190002438Y-69132268D01*
X190002438Y-69132268D02*
X190097676Y-69037030D01*
X190097676Y-69037030D02*
X190192914Y-68989411D01*
X190192914Y-68989411D02*
X190383390Y-68941792D01*
X190383390Y-68941792D02*
X190526247Y-68941792D01*
X190526247Y-68941792D02*
X190716723Y-68989411D01*
X190716723Y-68989411D02*
X190811961Y-69037030D01*
X190811961Y-69037030D02*
X190907200Y-69132268D01*
X190907200Y-69132268D02*
X190954819Y-69275125D01*
X190954819Y-69275125D02*
X190954819Y-69513220D01*
X189954819Y-68608458D02*
X189954819Y-67989411D01*
X189954819Y-67989411D02*
X190335771Y-68322744D01*
X190335771Y-68322744D02*
X190335771Y-68179887D01*
X190335771Y-68179887D02*
X190383390Y-68084649D01*
X190383390Y-68084649D02*
X190431009Y-68037030D01*
X190431009Y-68037030D02*
X190526247Y-67989411D01*
X190526247Y-67989411D02*
X190764342Y-67989411D01*
X190764342Y-67989411D02*
X190859580Y-68037030D01*
X190859580Y-68037030D02*
X190907200Y-68084649D01*
X190907200Y-68084649D02*
X190954819Y-68179887D01*
X190954819Y-68179887D02*
X190954819Y-68465601D01*
X190954819Y-68465601D02*
X190907200Y-68560839D01*
X190907200Y-68560839D02*
X190859580Y-68608458D01*
X189954819Y-67656077D02*
X189954819Y-67037030D01*
X189954819Y-67037030D02*
X190335771Y-67370363D01*
X190335771Y-67370363D02*
X190335771Y-67227506D01*
X190335771Y-67227506D02*
X190383390Y-67132268D01*
X190383390Y-67132268D02*
X190431009Y-67084649D01*
X190431009Y-67084649D02*
X190526247Y-67037030D01*
X190526247Y-67037030D02*
X190764342Y-67037030D01*
X190764342Y-67037030D02*
X190859580Y-67084649D01*
X190859580Y-67084649D02*
X190907200Y-67132268D01*
X190907200Y-67132268D02*
X190954819Y-67227506D01*
X190954819Y-67227506D02*
X190954819Y-67513220D01*
X190954819Y-67513220D02*
X190907200Y-67608458D01*
X190907200Y-67608458D02*
X190859580Y-67656077D01*
X147251009Y-69179887D02*
X147251009Y-69513220D01*
X147774819Y-69513220D02*
X146774819Y-69513220D01*
X146774819Y-69513220D02*
X146774819Y-69037030D01*
X146774819Y-68227506D02*
X146774819Y-68417982D01*
X146774819Y-68417982D02*
X146822438Y-68513220D01*
X146822438Y-68513220D02*
X146870057Y-68560839D01*
X146870057Y-68560839D02*
X147012914Y-68656077D01*
X147012914Y-68656077D02*
X147203390Y-68703696D01*
X147203390Y-68703696D02*
X147584342Y-68703696D01*
X147584342Y-68703696D02*
X147679580Y-68656077D01*
X147679580Y-68656077D02*
X147727200Y-68608458D01*
X147727200Y-68608458D02*
X147774819Y-68513220D01*
X147774819Y-68513220D02*
X147774819Y-68322744D01*
X147774819Y-68322744D02*
X147727200Y-68227506D01*
X147727200Y-68227506D02*
X147679580Y-68179887D01*
X147679580Y-68179887D02*
X147584342Y-68132268D01*
X147584342Y-68132268D02*
X147346247Y-68132268D01*
X147346247Y-68132268D02*
X147251009Y-68179887D01*
X147251009Y-68179887D02*
X147203390Y-68227506D01*
X147203390Y-68227506D02*
X147155771Y-68322744D01*
X147155771Y-68322744D02*
X147155771Y-68513220D01*
X147155771Y-68513220D02*
X147203390Y-68608458D01*
X147203390Y-68608458D02*
X147251009Y-68656077D01*
X147251009Y-68656077D02*
X147346247Y-68703696D01*
X147774819Y-67179887D02*
X147774819Y-67751315D01*
X147774819Y-67465601D02*
X146774819Y-67465601D01*
X146774819Y-67465601D02*
X146917676Y-67560839D01*
X146917676Y-67560839D02*
X147012914Y-67656077D01*
X147012914Y-67656077D02*
X147060533Y-67751315D01*
X174762438Y-56851541D02*
X174714819Y-56946779D01*
X174714819Y-56946779D02*
X174714819Y-57089636D01*
X174714819Y-57089636D02*
X174762438Y-57232493D01*
X174762438Y-57232493D02*
X174857676Y-57327731D01*
X174857676Y-57327731D02*
X174952914Y-57375350D01*
X174952914Y-57375350D02*
X175143390Y-57422969D01*
X175143390Y-57422969D02*
X175286247Y-57422969D01*
X175286247Y-57422969D02*
X175476723Y-57375350D01*
X175476723Y-57375350D02*
X175571961Y-57327731D01*
X175571961Y-57327731D02*
X175667200Y-57232493D01*
X175667200Y-57232493D02*
X175714819Y-57089636D01*
X175714819Y-57089636D02*
X175714819Y-56994398D01*
X175714819Y-56994398D02*
X175667200Y-56851541D01*
X175667200Y-56851541D02*
X175619580Y-56803922D01*
X175619580Y-56803922D02*
X175286247Y-56803922D01*
X175286247Y-56803922D02*
X175286247Y-56994398D01*
X174714819Y-55946779D02*
X174714819Y-56137255D01*
X174714819Y-56137255D02*
X174762438Y-56232493D01*
X174762438Y-56232493D02*
X174810057Y-56280112D01*
X174810057Y-56280112D02*
X174952914Y-56375350D01*
X174952914Y-56375350D02*
X175143390Y-56422969D01*
X175143390Y-56422969D02*
X175524342Y-56422969D01*
X175524342Y-56422969D02*
X175619580Y-56375350D01*
X175619580Y-56375350D02*
X175667200Y-56327731D01*
X175667200Y-56327731D02*
X175714819Y-56232493D01*
X175714819Y-56232493D02*
X175714819Y-56042017D01*
X175714819Y-56042017D02*
X175667200Y-55946779D01*
X175667200Y-55946779D02*
X175619580Y-55899160D01*
X175619580Y-55899160D02*
X175524342Y-55851541D01*
X175524342Y-55851541D02*
X175286247Y-55851541D01*
X175286247Y-55851541D02*
X175191009Y-55899160D01*
X175191009Y-55899160D02*
X175143390Y-55946779D01*
X175143390Y-55946779D02*
X175095771Y-56042017D01*
X175095771Y-56042017D02*
X175095771Y-56232493D01*
X175095771Y-56232493D02*
X175143390Y-56327731D01*
X175143390Y-56327731D02*
X175191009Y-56375350D01*
X175191009Y-56375350D02*
X175286247Y-56422969D01*
X175048152Y-54994398D02*
X175714819Y-54994398D01*
X174667200Y-55232493D02*
X175381485Y-55470588D01*
X175381485Y-55470588D02*
X175381485Y-54851541D01*
X136614819Y-64994398D02*
X136614819Y-64803922D01*
X136614819Y-64803922D02*
X136662438Y-64708684D01*
X136662438Y-64708684D02*
X136757676Y-64613446D01*
X136757676Y-64613446D02*
X136948152Y-64565827D01*
X136948152Y-64565827D02*
X137281485Y-64565827D01*
X137281485Y-64565827D02*
X137471961Y-64613446D01*
X137471961Y-64613446D02*
X137567200Y-64708684D01*
X137567200Y-64708684D02*
X137614819Y-64803922D01*
X137614819Y-64803922D02*
X137614819Y-64994398D01*
X137614819Y-64994398D02*
X137567200Y-65089636D01*
X137567200Y-65089636D02*
X137471961Y-65184874D01*
X137471961Y-65184874D02*
X137281485Y-65232493D01*
X137281485Y-65232493D02*
X136948152Y-65232493D01*
X136948152Y-65232493D02*
X136757676Y-65184874D01*
X136757676Y-65184874D02*
X136662438Y-65089636D01*
X136662438Y-65089636D02*
X136614819Y-64994398D01*
X137091009Y-64137255D02*
X137091009Y-63803922D01*
X137614819Y-63661065D02*
X137614819Y-64137255D01*
X137614819Y-64137255D02*
X136614819Y-64137255D01*
X136614819Y-64137255D02*
X136614819Y-63661065D01*
X136710057Y-63280112D02*
X136662438Y-63232493D01*
X136662438Y-63232493D02*
X136614819Y-63137255D01*
X136614819Y-63137255D02*
X136614819Y-62899160D01*
X136614819Y-62899160D02*
X136662438Y-62803922D01*
X136662438Y-62803922D02*
X136710057Y-62756303D01*
X136710057Y-62756303D02*
X136805295Y-62708684D01*
X136805295Y-62708684D02*
X136900533Y-62708684D01*
X136900533Y-62708684D02*
X137043390Y-62756303D01*
X137043390Y-62756303D02*
X137614819Y-63327731D01*
X137614819Y-63327731D02*
X137614819Y-62708684D01*
X136567200Y-61565827D02*
X137852914Y-62422969D01*
X136662438Y-60708684D02*
X136614819Y-60803922D01*
X136614819Y-60803922D02*
X136614819Y-60946779D01*
X136614819Y-60946779D02*
X136662438Y-61089636D01*
X136662438Y-61089636D02*
X136757676Y-61184874D01*
X136757676Y-61184874D02*
X136852914Y-61232493D01*
X136852914Y-61232493D02*
X137043390Y-61280112D01*
X137043390Y-61280112D02*
X137186247Y-61280112D01*
X137186247Y-61280112D02*
X137376723Y-61232493D01*
X137376723Y-61232493D02*
X137471961Y-61184874D01*
X137471961Y-61184874D02*
X137567200Y-61089636D01*
X137567200Y-61089636D02*
X137614819Y-60946779D01*
X137614819Y-60946779D02*
X137614819Y-60851541D01*
X137614819Y-60851541D02*
X137567200Y-60708684D01*
X137567200Y-60708684D02*
X137519580Y-60661065D01*
X137519580Y-60661065D02*
X137186247Y-60661065D01*
X137186247Y-60661065D02*
X137186247Y-60851541D01*
X137519580Y-59661065D02*
X137567200Y-59708684D01*
X137567200Y-59708684D02*
X137614819Y-59851541D01*
X137614819Y-59851541D02*
X137614819Y-59946779D01*
X137614819Y-59946779D02*
X137567200Y-60089636D01*
X137567200Y-60089636D02*
X137471961Y-60184874D01*
X137471961Y-60184874D02*
X137376723Y-60232493D01*
X137376723Y-60232493D02*
X137186247Y-60280112D01*
X137186247Y-60280112D02*
X137043390Y-60280112D01*
X137043390Y-60280112D02*
X136852914Y-60232493D01*
X136852914Y-60232493D02*
X136757676Y-60184874D01*
X136757676Y-60184874D02*
X136662438Y-60089636D01*
X136662438Y-60089636D02*
X136614819Y-59946779D01*
X136614819Y-59946779D02*
X136614819Y-59851541D01*
X136614819Y-59851541D02*
X136662438Y-59708684D01*
X136662438Y-59708684D02*
X136710057Y-59661065D01*
X137614819Y-58756303D02*
X137614819Y-59232493D01*
X137614819Y-59232493D02*
X136614819Y-59232493D01*
X137614819Y-58422969D02*
X136614819Y-58422969D01*
X137614819Y-57851541D02*
X137043390Y-58280112D01*
X136614819Y-57851541D02*
X137186247Y-58422969D01*
X136710057Y-57470588D02*
X136662438Y-57422969D01*
X136662438Y-57422969D02*
X136614819Y-57327731D01*
X136614819Y-57327731D02*
X136614819Y-57089636D01*
X136614819Y-57089636D02*
X136662438Y-56994398D01*
X136662438Y-56994398D02*
X136710057Y-56946779D01*
X136710057Y-56946779D02*
X136805295Y-56899160D01*
X136805295Y-56899160D02*
X136900533Y-56899160D01*
X136900533Y-56899160D02*
X137043390Y-56946779D01*
X137043390Y-56946779D02*
X137614819Y-57518207D01*
X137614819Y-57518207D02*
X137614819Y-56899160D01*
X136567200Y-55756303D02*
X137852914Y-56613445D01*
X136710057Y-55470588D02*
X136662438Y-55422969D01*
X136662438Y-55422969D02*
X136614819Y-55327731D01*
X136614819Y-55327731D02*
X136614819Y-55089636D01*
X136614819Y-55089636D02*
X136662438Y-54994398D01*
X136662438Y-54994398D02*
X136710057Y-54946779D01*
X136710057Y-54946779D02*
X136805295Y-54899160D01*
X136805295Y-54899160D02*
X136900533Y-54899160D01*
X136900533Y-54899160D02*
X137043390Y-54946779D01*
X137043390Y-54946779D02*
X137614819Y-55518207D01*
X137614819Y-55518207D02*
X137614819Y-54899160D01*
X198479580Y-68941792D02*
X198527200Y-68989411D01*
X198527200Y-68989411D02*
X198574819Y-69132268D01*
X198574819Y-69132268D02*
X198574819Y-69227506D01*
X198574819Y-69227506D02*
X198527200Y-69370363D01*
X198527200Y-69370363D02*
X198431961Y-69465601D01*
X198431961Y-69465601D02*
X198336723Y-69513220D01*
X198336723Y-69513220D02*
X198146247Y-69560839D01*
X198146247Y-69560839D02*
X198003390Y-69560839D01*
X198003390Y-69560839D02*
X197812914Y-69513220D01*
X197812914Y-69513220D02*
X197717676Y-69465601D01*
X197717676Y-69465601D02*
X197622438Y-69370363D01*
X197622438Y-69370363D02*
X197574819Y-69227506D01*
X197574819Y-69227506D02*
X197574819Y-69132268D01*
X197574819Y-69132268D02*
X197622438Y-68989411D01*
X197622438Y-68989411D02*
X197670057Y-68941792D01*
X197670057Y-68560839D02*
X197622438Y-68513220D01*
X197622438Y-68513220D02*
X197574819Y-68417982D01*
X197574819Y-68417982D02*
X197574819Y-68179887D01*
X197574819Y-68179887D02*
X197622438Y-68084649D01*
X197622438Y-68084649D02*
X197670057Y-68037030D01*
X197670057Y-68037030D02*
X197765295Y-67989411D01*
X197765295Y-67989411D02*
X197860533Y-67989411D01*
X197860533Y-67989411D02*
X198003390Y-68037030D01*
X198003390Y-68037030D02*
X198574819Y-68608458D01*
X198574819Y-68608458D02*
X198574819Y-67989411D01*
X198574819Y-67513220D02*
X198574819Y-67322744D01*
X198574819Y-67322744D02*
X198527200Y-67227506D01*
X198527200Y-67227506D02*
X198479580Y-67179887D01*
X198479580Y-67179887D02*
X198336723Y-67084649D01*
X198336723Y-67084649D02*
X198146247Y-67037030D01*
X198146247Y-67037030D02*
X197765295Y-67037030D01*
X197765295Y-67037030D02*
X197670057Y-67084649D01*
X197670057Y-67084649D02*
X197622438Y-67132268D01*
X197622438Y-67132268D02*
X197574819Y-67227506D01*
X197574819Y-67227506D02*
X197574819Y-67417982D01*
X197574819Y-67417982D02*
X197622438Y-67513220D01*
X197622438Y-67513220D02*
X197670057Y-67560839D01*
X197670057Y-67560839D02*
X197765295Y-67608458D01*
X197765295Y-67608458D02*
X198003390Y-67608458D01*
X198003390Y-67608458D02*
X198098628Y-67560839D01*
X198098628Y-67560839D02*
X198146247Y-67513220D01*
X198146247Y-67513220D02*
X198193866Y-67417982D01*
X198193866Y-67417982D02*
X198193866Y-67227506D01*
X198193866Y-67227506D02*
X198146247Y-67132268D01*
X198146247Y-67132268D02*
X198098628Y-67084649D01*
X198098628Y-67084649D02*
X198003390Y-67037030D01*
X155394819Y-57422969D02*
X154394819Y-57422969D01*
X154871009Y-57422969D02*
X154871009Y-56851541D01*
X155394819Y-56851541D02*
X154394819Y-56851541D01*
X154394819Y-56470588D02*
X154394819Y-55803922D01*
X154394819Y-55803922D02*
X155394819Y-56232493D01*
X154394819Y-54946779D02*
X154394819Y-55422969D01*
X154394819Y-55422969D02*
X154871009Y-55470588D01*
X154871009Y-55470588D02*
X154823390Y-55422969D01*
X154823390Y-55422969D02*
X154775771Y-55327731D01*
X154775771Y-55327731D02*
X154775771Y-55089636D01*
X154775771Y-55089636D02*
X154823390Y-54994398D01*
X154823390Y-54994398D02*
X154871009Y-54946779D01*
X154871009Y-54946779D02*
X154966247Y-54899160D01*
X154966247Y-54899160D02*
X155204342Y-54899160D01*
X155204342Y-54899160D02*
X155299580Y-54946779D01*
X155299580Y-54946779D02*
X155347200Y-54994398D01*
X155347200Y-54994398D02*
X155394819Y-55089636D01*
X155394819Y-55089636D02*
X155394819Y-55327731D01*
X155394819Y-55327731D02*
X155347200Y-55422969D01*
X155347200Y-55422969D02*
X155299580Y-55470588D01*
X167142438Y-56851541D02*
X167094819Y-56946779D01*
X167094819Y-56946779D02*
X167094819Y-57089636D01*
X167094819Y-57089636D02*
X167142438Y-57232493D01*
X167142438Y-57232493D02*
X167237676Y-57327731D01*
X167237676Y-57327731D02*
X167332914Y-57375350D01*
X167332914Y-57375350D02*
X167523390Y-57422969D01*
X167523390Y-57422969D02*
X167666247Y-57422969D01*
X167666247Y-57422969D02*
X167856723Y-57375350D01*
X167856723Y-57375350D02*
X167951961Y-57327731D01*
X167951961Y-57327731D02*
X168047200Y-57232493D01*
X168047200Y-57232493D02*
X168094819Y-57089636D01*
X168094819Y-57089636D02*
X168094819Y-56994398D01*
X168094819Y-56994398D02*
X168047200Y-56851541D01*
X168047200Y-56851541D02*
X167999580Y-56803922D01*
X167999580Y-56803922D02*
X167666247Y-56803922D01*
X167666247Y-56803922D02*
X167666247Y-56994398D01*
X167094819Y-55946779D02*
X167094819Y-56137255D01*
X167094819Y-56137255D02*
X167142438Y-56232493D01*
X167142438Y-56232493D02*
X167190057Y-56280112D01*
X167190057Y-56280112D02*
X167332914Y-56375350D01*
X167332914Y-56375350D02*
X167523390Y-56422969D01*
X167523390Y-56422969D02*
X167904342Y-56422969D01*
X167904342Y-56422969D02*
X167999580Y-56375350D01*
X167999580Y-56375350D02*
X168047200Y-56327731D01*
X168047200Y-56327731D02*
X168094819Y-56232493D01*
X168094819Y-56232493D02*
X168094819Y-56042017D01*
X168094819Y-56042017D02*
X168047200Y-55946779D01*
X168047200Y-55946779D02*
X167999580Y-55899160D01*
X167999580Y-55899160D02*
X167904342Y-55851541D01*
X167904342Y-55851541D02*
X167666247Y-55851541D01*
X167666247Y-55851541D02*
X167571009Y-55899160D01*
X167571009Y-55899160D02*
X167523390Y-55946779D01*
X167523390Y-55946779D02*
X167475771Y-56042017D01*
X167475771Y-56042017D02*
X167475771Y-56232493D01*
X167475771Y-56232493D02*
X167523390Y-56327731D01*
X167523390Y-56327731D02*
X167571009Y-56375350D01*
X167571009Y-56375350D02*
X167666247Y-56422969D01*
X167523390Y-55280112D02*
X167475771Y-55375350D01*
X167475771Y-55375350D02*
X167428152Y-55422969D01*
X167428152Y-55422969D02*
X167332914Y-55470588D01*
X167332914Y-55470588D02*
X167285295Y-55470588D01*
X167285295Y-55470588D02*
X167190057Y-55422969D01*
X167190057Y-55422969D02*
X167142438Y-55375350D01*
X167142438Y-55375350D02*
X167094819Y-55280112D01*
X167094819Y-55280112D02*
X167094819Y-55089636D01*
X167094819Y-55089636D02*
X167142438Y-54994398D01*
X167142438Y-54994398D02*
X167190057Y-54946779D01*
X167190057Y-54946779D02*
X167285295Y-54899160D01*
X167285295Y-54899160D02*
X167332914Y-54899160D01*
X167332914Y-54899160D02*
X167428152Y-54946779D01*
X167428152Y-54946779D02*
X167475771Y-54994398D01*
X167475771Y-54994398D02*
X167523390Y-55089636D01*
X167523390Y-55089636D02*
X167523390Y-55280112D01*
X167523390Y-55280112D02*
X167571009Y-55375350D01*
X167571009Y-55375350D02*
X167618628Y-55422969D01*
X167618628Y-55422969D02*
X167713866Y-55470588D01*
X167713866Y-55470588D02*
X167904342Y-55470588D01*
X167904342Y-55470588D02*
X167999580Y-55422969D01*
X167999580Y-55422969D02*
X168047200Y-55375350D01*
X168047200Y-55375350D02*
X168094819Y-55280112D01*
X168094819Y-55280112D02*
X168094819Y-55089636D01*
X168094819Y-55089636D02*
X168047200Y-54994398D01*
X168047200Y-54994398D02*
X167999580Y-54946779D01*
X167999580Y-54946779D02*
X167904342Y-54899160D01*
X167904342Y-54899160D02*
X167713866Y-54899160D01*
X167713866Y-54899160D02*
X167618628Y-54946779D01*
X167618628Y-54946779D02*
X167571009Y-54994398D01*
X167571009Y-54994398D02*
X167523390Y-55089636D01*
X137091009Y-69179887D02*
X137091009Y-69513220D01*
X137614819Y-69513220D02*
X136614819Y-69513220D01*
X136614819Y-69513220D02*
X136614819Y-69037030D01*
X136614819Y-68179887D02*
X136614819Y-68656077D01*
X136614819Y-68656077D02*
X137091009Y-68703696D01*
X137091009Y-68703696D02*
X137043390Y-68656077D01*
X137043390Y-68656077D02*
X136995771Y-68560839D01*
X136995771Y-68560839D02*
X136995771Y-68322744D01*
X136995771Y-68322744D02*
X137043390Y-68227506D01*
X137043390Y-68227506D02*
X137091009Y-68179887D01*
X137091009Y-68179887D02*
X137186247Y-68132268D01*
X137186247Y-68132268D02*
X137424342Y-68132268D01*
X137424342Y-68132268D02*
X137519580Y-68179887D01*
X137519580Y-68179887D02*
X137567200Y-68227506D01*
X137567200Y-68227506D02*
X137614819Y-68322744D01*
X137614819Y-68322744D02*
X137614819Y-68560839D01*
X137614819Y-68560839D02*
X137567200Y-68656077D01*
X137567200Y-68656077D02*
X137519580Y-68703696D01*
X136614819Y-67275125D02*
X136614819Y-67465601D01*
X136614819Y-67465601D02*
X136662438Y-67560839D01*
X136662438Y-67560839D02*
X136710057Y-67608458D01*
X136710057Y-67608458D02*
X136852914Y-67703696D01*
X136852914Y-67703696D02*
X137043390Y-67751315D01*
X137043390Y-67751315D02*
X137424342Y-67751315D01*
X137424342Y-67751315D02*
X137519580Y-67703696D01*
X137519580Y-67703696D02*
X137567200Y-67656077D01*
X137567200Y-67656077D02*
X137614819Y-67560839D01*
X137614819Y-67560839D02*
X137614819Y-67370363D01*
X137614819Y-67370363D02*
X137567200Y-67275125D01*
X137567200Y-67275125D02*
X137519580Y-67227506D01*
X137519580Y-67227506D02*
X137424342Y-67179887D01*
X137424342Y-67179887D02*
X137186247Y-67179887D01*
X137186247Y-67179887D02*
X137091009Y-67227506D01*
X137091009Y-67227506D02*
X137043390Y-67275125D01*
X137043390Y-67275125D02*
X136995771Y-67370363D01*
X136995771Y-67370363D02*
X136995771Y-67560839D01*
X136995771Y-67560839D02*
X137043390Y-67656077D01*
X137043390Y-67656077D02*
X137091009Y-67703696D01*
X137091009Y-67703696D02*
X137186247Y-67751315D01*
X213291009Y-57042017D02*
X213338628Y-56899160D01*
X213338628Y-56899160D02*
X213386247Y-56851541D01*
X213386247Y-56851541D02*
X213481485Y-56803922D01*
X213481485Y-56803922D02*
X213624342Y-56803922D01*
X213624342Y-56803922D02*
X213719580Y-56851541D01*
X213719580Y-56851541D02*
X213767200Y-56899160D01*
X213767200Y-56899160D02*
X213814819Y-56994398D01*
X213814819Y-56994398D02*
X213814819Y-57375350D01*
X213814819Y-57375350D02*
X212814819Y-57375350D01*
X212814819Y-57375350D02*
X212814819Y-57042017D01*
X212814819Y-57042017D02*
X212862438Y-56946779D01*
X212862438Y-56946779D02*
X212910057Y-56899160D01*
X212910057Y-56899160D02*
X213005295Y-56851541D01*
X213005295Y-56851541D02*
X213100533Y-56851541D01*
X213100533Y-56851541D02*
X213195771Y-56899160D01*
X213195771Y-56899160D02*
X213243390Y-56946779D01*
X213243390Y-56946779D02*
X213291009Y-57042017D01*
X213291009Y-57042017D02*
X213291009Y-57375350D01*
X212910057Y-56422969D02*
X212862438Y-56375350D01*
X212862438Y-56375350D02*
X212814819Y-56280112D01*
X212814819Y-56280112D02*
X212814819Y-56042017D01*
X212814819Y-56042017D02*
X212862438Y-55946779D01*
X212862438Y-55946779D02*
X212910057Y-55899160D01*
X212910057Y-55899160D02*
X213005295Y-55851541D01*
X213005295Y-55851541D02*
X213100533Y-55851541D01*
X213100533Y-55851541D02*
X213243390Y-55899160D01*
X213243390Y-55899160D02*
X213814819Y-56470588D01*
X213814819Y-56470588D02*
X213814819Y-55851541D01*
X212814819Y-55232493D02*
X212814819Y-55137255D01*
X212814819Y-55137255D02*
X212862438Y-55042017D01*
X212862438Y-55042017D02*
X212910057Y-54994398D01*
X212910057Y-54994398D02*
X213005295Y-54946779D01*
X213005295Y-54946779D02*
X213195771Y-54899160D01*
X213195771Y-54899160D02*
X213433866Y-54899160D01*
X213433866Y-54899160D02*
X213624342Y-54946779D01*
X213624342Y-54946779D02*
X213719580Y-54994398D01*
X213719580Y-54994398D02*
X213767200Y-55042017D01*
X213767200Y-55042017D02*
X213814819Y-55137255D01*
X213814819Y-55137255D02*
X213814819Y-55232493D01*
X213814819Y-55232493D02*
X213767200Y-55327731D01*
X213767200Y-55327731D02*
X213719580Y-55375350D01*
X213719580Y-55375350D02*
X213624342Y-55422969D01*
X213624342Y-55422969D02*
X213433866Y-55470588D01*
X213433866Y-55470588D02*
X213195771Y-55470588D01*
X213195771Y-55470588D02*
X213005295Y-55422969D01*
X213005295Y-55422969D02*
X212910057Y-55375350D01*
X212910057Y-55375350D02*
X212862438Y-55327731D01*
X212862438Y-55327731D02*
X212814819Y-55232493D01*
X152331009Y-69513220D02*
X152331009Y-69179887D01*
X152854819Y-69037030D02*
X152854819Y-69513220D01*
X152854819Y-69513220D02*
X151854819Y-69513220D01*
X151854819Y-69513220D02*
X151854819Y-69037030D01*
X151854819Y-68132268D02*
X151854819Y-68608458D01*
X151854819Y-68608458D02*
X152331009Y-68656077D01*
X152331009Y-68656077D02*
X152283390Y-68608458D01*
X152283390Y-68608458D02*
X152235771Y-68513220D01*
X152235771Y-68513220D02*
X152235771Y-68275125D01*
X152235771Y-68275125D02*
X152283390Y-68179887D01*
X152283390Y-68179887D02*
X152331009Y-68132268D01*
X152331009Y-68132268D02*
X152426247Y-68084649D01*
X152426247Y-68084649D02*
X152664342Y-68084649D01*
X152664342Y-68084649D02*
X152759580Y-68132268D01*
X152759580Y-68132268D02*
X152807200Y-68179887D01*
X152807200Y-68179887D02*
X152854819Y-68275125D01*
X152854819Y-68275125D02*
X152854819Y-68513220D01*
X152854819Y-68513220D02*
X152807200Y-68608458D01*
X152807200Y-68608458D02*
X152759580Y-68656077D01*
X152854819Y-67132268D02*
X152854819Y-67703696D01*
X152854819Y-67417982D02*
X151854819Y-67417982D01*
X151854819Y-67417982D02*
X151997676Y-67513220D01*
X151997676Y-67513220D02*
X152092914Y-67608458D01*
X152092914Y-67608458D02*
X152140533Y-67703696D01*
X180794819Y-69513220D02*
X179794819Y-69513220D01*
X179794819Y-69513220D02*
X179794819Y-69275125D01*
X179794819Y-69275125D02*
X179842438Y-69132268D01*
X179842438Y-69132268D02*
X179937676Y-69037030D01*
X179937676Y-69037030D02*
X180032914Y-68989411D01*
X180032914Y-68989411D02*
X180223390Y-68941792D01*
X180223390Y-68941792D02*
X180366247Y-68941792D01*
X180366247Y-68941792D02*
X180556723Y-68989411D01*
X180556723Y-68989411D02*
X180651961Y-69037030D01*
X180651961Y-69037030D02*
X180747200Y-69132268D01*
X180747200Y-69132268D02*
X180794819Y-69275125D01*
X180794819Y-69275125D02*
X180794819Y-69513220D01*
X179794819Y-68608458D02*
X179794819Y-67989411D01*
X179794819Y-67989411D02*
X180175771Y-68322744D01*
X180175771Y-68322744D02*
X180175771Y-68179887D01*
X180175771Y-68179887D02*
X180223390Y-68084649D01*
X180223390Y-68084649D02*
X180271009Y-68037030D01*
X180271009Y-68037030D02*
X180366247Y-67989411D01*
X180366247Y-67989411D02*
X180604342Y-67989411D01*
X180604342Y-67989411D02*
X180699580Y-68037030D01*
X180699580Y-68037030D02*
X180747200Y-68084649D01*
X180747200Y-68084649D02*
X180794819Y-68179887D01*
X180794819Y-68179887D02*
X180794819Y-68465601D01*
X180794819Y-68465601D02*
X180747200Y-68560839D01*
X180747200Y-68560839D02*
X180699580Y-68608458D01*
X179794819Y-67656077D02*
X179794819Y-66989411D01*
X179794819Y-66989411D02*
X180794819Y-67417982D01*
X172222438Y-56851541D02*
X172174819Y-56946779D01*
X172174819Y-56946779D02*
X172174819Y-57089636D01*
X172174819Y-57089636D02*
X172222438Y-57232493D01*
X172222438Y-57232493D02*
X172317676Y-57327731D01*
X172317676Y-57327731D02*
X172412914Y-57375350D01*
X172412914Y-57375350D02*
X172603390Y-57422969D01*
X172603390Y-57422969D02*
X172746247Y-57422969D01*
X172746247Y-57422969D02*
X172936723Y-57375350D01*
X172936723Y-57375350D02*
X173031961Y-57327731D01*
X173031961Y-57327731D02*
X173127200Y-57232493D01*
X173127200Y-57232493D02*
X173174819Y-57089636D01*
X173174819Y-57089636D02*
X173174819Y-56994398D01*
X173174819Y-56994398D02*
X173127200Y-56851541D01*
X173127200Y-56851541D02*
X173079580Y-56803922D01*
X173079580Y-56803922D02*
X172746247Y-56803922D01*
X172746247Y-56803922D02*
X172746247Y-56994398D01*
X172174819Y-55946779D02*
X172174819Y-56137255D01*
X172174819Y-56137255D02*
X172222438Y-56232493D01*
X172222438Y-56232493D02*
X172270057Y-56280112D01*
X172270057Y-56280112D02*
X172412914Y-56375350D01*
X172412914Y-56375350D02*
X172603390Y-56422969D01*
X172603390Y-56422969D02*
X172984342Y-56422969D01*
X172984342Y-56422969D02*
X173079580Y-56375350D01*
X173079580Y-56375350D02*
X173127200Y-56327731D01*
X173127200Y-56327731D02*
X173174819Y-56232493D01*
X173174819Y-56232493D02*
X173174819Y-56042017D01*
X173174819Y-56042017D02*
X173127200Y-55946779D01*
X173127200Y-55946779D02*
X173079580Y-55899160D01*
X173079580Y-55899160D02*
X172984342Y-55851541D01*
X172984342Y-55851541D02*
X172746247Y-55851541D01*
X172746247Y-55851541D02*
X172651009Y-55899160D01*
X172651009Y-55899160D02*
X172603390Y-55946779D01*
X172603390Y-55946779D02*
X172555771Y-56042017D01*
X172555771Y-56042017D02*
X172555771Y-56232493D01*
X172555771Y-56232493D02*
X172603390Y-56327731D01*
X172603390Y-56327731D02*
X172651009Y-56375350D01*
X172651009Y-56375350D02*
X172746247Y-56422969D01*
X172174819Y-54946779D02*
X172174819Y-55422969D01*
X172174819Y-55422969D02*
X172651009Y-55470588D01*
X172651009Y-55470588D02*
X172603390Y-55422969D01*
X172603390Y-55422969D02*
X172555771Y-55327731D01*
X172555771Y-55327731D02*
X172555771Y-55089636D01*
X172555771Y-55089636D02*
X172603390Y-54994398D01*
X172603390Y-54994398D02*
X172651009Y-54946779D01*
X172651009Y-54946779D02*
X172746247Y-54899160D01*
X172746247Y-54899160D02*
X172984342Y-54899160D01*
X172984342Y-54899160D02*
X173079580Y-54946779D01*
X173079580Y-54946779D02*
X173127200Y-54994398D01*
X173127200Y-54994398D02*
X173174819Y-55089636D01*
X173174819Y-55089636D02*
X173174819Y-55327731D01*
X173174819Y-55327731D02*
X173127200Y-55422969D01*
X173127200Y-55422969D02*
X173079580Y-55470588D01*
X162491009Y-69513220D02*
X162491009Y-69179887D01*
X163014819Y-69037030D02*
X163014819Y-69513220D01*
X163014819Y-69513220D02*
X162014819Y-69513220D01*
X162014819Y-69513220D02*
X162014819Y-69037030D01*
X162348152Y-68179887D02*
X163014819Y-68179887D01*
X161967200Y-68417982D02*
X162681485Y-68656077D01*
X162681485Y-68656077D02*
X162681485Y-68037030D01*
X162014819Y-67227506D02*
X162014819Y-67417982D01*
X162014819Y-67417982D02*
X162062438Y-67513220D01*
X162062438Y-67513220D02*
X162110057Y-67560839D01*
X162110057Y-67560839D02*
X162252914Y-67656077D01*
X162252914Y-67656077D02*
X162443390Y-67703696D01*
X162443390Y-67703696D02*
X162824342Y-67703696D01*
X162824342Y-67703696D02*
X162919580Y-67656077D01*
X162919580Y-67656077D02*
X162967200Y-67608458D01*
X162967200Y-67608458D02*
X163014819Y-67513220D01*
X163014819Y-67513220D02*
X163014819Y-67322744D01*
X163014819Y-67322744D02*
X162967200Y-67227506D01*
X162967200Y-67227506D02*
X162919580Y-67179887D01*
X162919580Y-67179887D02*
X162824342Y-67132268D01*
X162824342Y-67132268D02*
X162586247Y-67132268D01*
X162586247Y-67132268D02*
X162491009Y-67179887D01*
X162491009Y-67179887D02*
X162443390Y-67227506D01*
X162443390Y-67227506D02*
X162395771Y-67322744D01*
X162395771Y-67322744D02*
X162395771Y-67513220D01*
X162395771Y-67513220D02*
X162443390Y-67608458D01*
X162443390Y-67608458D02*
X162491009Y-67656077D01*
X162491009Y-67656077D02*
X162586247Y-67703696D01*
X201114819Y-61232493D02*
X200114819Y-61232493D01*
X200114819Y-61232493D02*
X200114819Y-60851541D01*
X200114819Y-60851541D02*
X200162438Y-60756303D01*
X200162438Y-60756303D02*
X200210057Y-60708684D01*
X200210057Y-60708684D02*
X200305295Y-60661065D01*
X200305295Y-60661065D02*
X200448152Y-60661065D01*
X200448152Y-60661065D02*
X200543390Y-60708684D01*
X200543390Y-60708684D02*
X200591009Y-60756303D01*
X200591009Y-60756303D02*
X200638628Y-60851541D01*
X200638628Y-60851541D02*
X200638628Y-61232493D01*
X201114819Y-60232493D02*
X200114819Y-60232493D01*
X200114819Y-60232493D02*
X200114819Y-59994398D01*
X200114819Y-59994398D02*
X200162438Y-59851541D01*
X200162438Y-59851541D02*
X200257676Y-59756303D01*
X200257676Y-59756303D02*
X200352914Y-59708684D01*
X200352914Y-59708684D02*
X200543390Y-59661065D01*
X200543390Y-59661065D02*
X200686247Y-59661065D01*
X200686247Y-59661065D02*
X200876723Y-59708684D01*
X200876723Y-59708684D02*
X200971961Y-59756303D01*
X200971961Y-59756303D02*
X201067200Y-59851541D01*
X201067200Y-59851541D02*
X201114819Y-59994398D01*
X201114819Y-59994398D02*
X201114819Y-60232493D01*
X201114819Y-58708684D02*
X201114819Y-59280112D01*
X201114819Y-58994398D02*
X200114819Y-58994398D01*
X200114819Y-58994398D02*
X200257676Y-59089636D01*
X200257676Y-59089636D02*
X200352914Y-59184874D01*
X200352914Y-59184874D02*
X200400533Y-59280112D01*
X200067200Y-57565827D02*
X201352914Y-58422969D01*
X200829104Y-57280112D02*
X200829104Y-56803922D01*
X201114819Y-57375350D02*
X200114819Y-57042017D01*
X200114819Y-57042017D02*
X201114819Y-56708684D01*
X201114819Y-55851541D02*
X201114819Y-56422969D01*
X201114819Y-56137255D02*
X200114819Y-56137255D01*
X200114819Y-56137255D02*
X200257676Y-56232493D01*
X200257676Y-56232493D02*
X200352914Y-56327731D01*
X200352914Y-56327731D02*
X200400533Y-56422969D01*
X200210057Y-55470588D02*
X200162438Y-55422969D01*
X200162438Y-55422969D02*
X200114819Y-55327731D01*
X200114819Y-55327731D02*
X200114819Y-55089636D01*
X200114819Y-55089636D02*
X200162438Y-54994398D01*
X200162438Y-54994398D02*
X200210057Y-54946779D01*
X200210057Y-54946779D02*
X200305295Y-54899160D01*
X200305295Y-54899160D02*
X200400533Y-54899160D01*
X200400533Y-54899160D02*
X200543390Y-54946779D01*
X200543390Y-54946779D02*
X201114819Y-55518207D01*
X201114819Y-55518207D02*
X201114819Y-54899160D01*
X193209104Y-56327731D02*
X193209104Y-55851541D01*
X193494819Y-56422969D02*
X192494819Y-56089636D01*
X192494819Y-56089636D02*
X193494819Y-55756303D01*
X193494819Y-55375350D02*
X193494819Y-55184874D01*
X193494819Y-55184874D02*
X193447200Y-55089636D01*
X193447200Y-55089636D02*
X193399580Y-55042017D01*
X193399580Y-55042017D02*
X193256723Y-54946779D01*
X193256723Y-54946779D02*
X193066247Y-54899160D01*
X193066247Y-54899160D02*
X192685295Y-54899160D01*
X192685295Y-54899160D02*
X192590057Y-54946779D01*
X192590057Y-54946779D02*
X192542438Y-54994398D01*
X192542438Y-54994398D02*
X192494819Y-55089636D01*
X192494819Y-55089636D02*
X192494819Y-55280112D01*
X192494819Y-55280112D02*
X192542438Y-55375350D01*
X192542438Y-55375350D02*
X192590057Y-55422969D01*
X192590057Y-55422969D02*
X192685295Y-55470588D01*
X192685295Y-55470588D02*
X192923390Y-55470588D01*
X192923390Y-55470588D02*
X193018628Y-55422969D01*
X193018628Y-55422969D02*
X193066247Y-55375350D01*
X193066247Y-55375350D02*
X193113866Y-55280112D01*
X193113866Y-55280112D02*
X193113866Y-55089636D01*
X193113866Y-55089636D02*
X193066247Y-54994398D01*
X193066247Y-54994398D02*
X193018628Y-54946779D01*
X193018628Y-54946779D02*
X192923390Y-54899160D01*
X164602438Y-56851541D02*
X164554819Y-56946779D01*
X164554819Y-56946779D02*
X164554819Y-57089636D01*
X164554819Y-57089636D02*
X164602438Y-57232493D01*
X164602438Y-57232493D02*
X164697676Y-57327731D01*
X164697676Y-57327731D02*
X164792914Y-57375350D01*
X164792914Y-57375350D02*
X164983390Y-57422969D01*
X164983390Y-57422969D02*
X165126247Y-57422969D01*
X165126247Y-57422969D02*
X165316723Y-57375350D01*
X165316723Y-57375350D02*
X165411961Y-57327731D01*
X165411961Y-57327731D02*
X165507200Y-57232493D01*
X165507200Y-57232493D02*
X165554819Y-57089636D01*
X165554819Y-57089636D02*
X165554819Y-56994398D01*
X165554819Y-56994398D02*
X165507200Y-56851541D01*
X165507200Y-56851541D02*
X165459580Y-56803922D01*
X165459580Y-56803922D02*
X165126247Y-56803922D01*
X165126247Y-56803922D02*
X165126247Y-56994398D01*
X164554819Y-55946779D02*
X164554819Y-56137255D01*
X164554819Y-56137255D02*
X164602438Y-56232493D01*
X164602438Y-56232493D02*
X164650057Y-56280112D01*
X164650057Y-56280112D02*
X164792914Y-56375350D01*
X164792914Y-56375350D02*
X164983390Y-56422969D01*
X164983390Y-56422969D02*
X165364342Y-56422969D01*
X165364342Y-56422969D02*
X165459580Y-56375350D01*
X165459580Y-56375350D02*
X165507200Y-56327731D01*
X165507200Y-56327731D02*
X165554819Y-56232493D01*
X165554819Y-56232493D02*
X165554819Y-56042017D01*
X165554819Y-56042017D02*
X165507200Y-55946779D01*
X165507200Y-55946779D02*
X165459580Y-55899160D01*
X165459580Y-55899160D02*
X165364342Y-55851541D01*
X165364342Y-55851541D02*
X165126247Y-55851541D01*
X165126247Y-55851541D02*
X165031009Y-55899160D01*
X165031009Y-55899160D02*
X164983390Y-55946779D01*
X164983390Y-55946779D02*
X164935771Y-56042017D01*
X164935771Y-56042017D02*
X164935771Y-56232493D01*
X164935771Y-56232493D02*
X164983390Y-56327731D01*
X164983390Y-56327731D02*
X165031009Y-56375350D01*
X165031009Y-56375350D02*
X165126247Y-56422969D01*
X165554819Y-55375350D02*
X165554819Y-55184874D01*
X165554819Y-55184874D02*
X165507200Y-55089636D01*
X165507200Y-55089636D02*
X165459580Y-55042017D01*
X165459580Y-55042017D02*
X165316723Y-54946779D01*
X165316723Y-54946779D02*
X165126247Y-54899160D01*
X165126247Y-54899160D02*
X164745295Y-54899160D01*
X164745295Y-54899160D02*
X164650057Y-54946779D01*
X164650057Y-54946779D02*
X164602438Y-54994398D01*
X164602438Y-54994398D02*
X164554819Y-55089636D01*
X164554819Y-55089636D02*
X164554819Y-55280112D01*
X164554819Y-55280112D02*
X164602438Y-55375350D01*
X164602438Y-55375350D02*
X164650057Y-55422969D01*
X164650057Y-55422969D02*
X164745295Y-55470588D01*
X164745295Y-55470588D02*
X164983390Y-55470588D01*
X164983390Y-55470588D02*
X165078628Y-55422969D01*
X165078628Y-55422969D02*
X165126247Y-55375350D01*
X165126247Y-55375350D02*
X165173866Y-55280112D01*
X165173866Y-55280112D02*
X165173866Y-55089636D01*
X165173866Y-55089636D02*
X165126247Y-54994398D01*
X165126247Y-54994398D02*
X165078628Y-54946779D01*
X165078628Y-54946779D02*
X164983390Y-54899160D01*
X169682438Y-56851541D02*
X169634819Y-56946779D01*
X169634819Y-56946779D02*
X169634819Y-57089636D01*
X169634819Y-57089636D02*
X169682438Y-57232493D01*
X169682438Y-57232493D02*
X169777676Y-57327731D01*
X169777676Y-57327731D02*
X169872914Y-57375350D01*
X169872914Y-57375350D02*
X170063390Y-57422969D01*
X170063390Y-57422969D02*
X170206247Y-57422969D01*
X170206247Y-57422969D02*
X170396723Y-57375350D01*
X170396723Y-57375350D02*
X170491961Y-57327731D01*
X170491961Y-57327731D02*
X170587200Y-57232493D01*
X170587200Y-57232493D02*
X170634819Y-57089636D01*
X170634819Y-57089636D02*
X170634819Y-56994398D01*
X170634819Y-56994398D02*
X170587200Y-56851541D01*
X170587200Y-56851541D02*
X170539580Y-56803922D01*
X170539580Y-56803922D02*
X170206247Y-56803922D01*
X170206247Y-56803922D02*
X170206247Y-56994398D01*
X169634819Y-55946779D02*
X169634819Y-56137255D01*
X169634819Y-56137255D02*
X169682438Y-56232493D01*
X169682438Y-56232493D02*
X169730057Y-56280112D01*
X169730057Y-56280112D02*
X169872914Y-56375350D01*
X169872914Y-56375350D02*
X170063390Y-56422969D01*
X170063390Y-56422969D02*
X170444342Y-56422969D01*
X170444342Y-56422969D02*
X170539580Y-56375350D01*
X170539580Y-56375350D02*
X170587200Y-56327731D01*
X170587200Y-56327731D02*
X170634819Y-56232493D01*
X170634819Y-56232493D02*
X170634819Y-56042017D01*
X170634819Y-56042017D02*
X170587200Y-55946779D01*
X170587200Y-55946779D02*
X170539580Y-55899160D01*
X170539580Y-55899160D02*
X170444342Y-55851541D01*
X170444342Y-55851541D02*
X170206247Y-55851541D01*
X170206247Y-55851541D02*
X170111009Y-55899160D01*
X170111009Y-55899160D02*
X170063390Y-55946779D01*
X170063390Y-55946779D02*
X170015771Y-56042017D01*
X170015771Y-56042017D02*
X170015771Y-56232493D01*
X170015771Y-56232493D02*
X170063390Y-56327731D01*
X170063390Y-56327731D02*
X170111009Y-56375350D01*
X170111009Y-56375350D02*
X170206247Y-56422969D01*
X169634819Y-55518207D02*
X169634819Y-54851541D01*
X169634819Y-54851541D02*
X170634819Y-55280112D01*
X149791009Y-69513220D02*
X149791009Y-69179887D01*
X150314819Y-69037030D02*
X150314819Y-69513220D01*
X150314819Y-69513220D02*
X149314819Y-69513220D01*
X149314819Y-69513220D02*
X149314819Y-69037030D01*
X149314819Y-68132268D02*
X149314819Y-68608458D01*
X149314819Y-68608458D02*
X149791009Y-68656077D01*
X149791009Y-68656077D02*
X149743390Y-68608458D01*
X149743390Y-68608458D02*
X149695771Y-68513220D01*
X149695771Y-68513220D02*
X149695771Y-68275125D01*
X149695771Y-68275125D02*
X149743390Y-68179887D01*
X149743390Y-68179887D02*
X149791009Y-68132268D01*
X149791009Y-68132268D02*
X149886247Y-68084649D01*
X149886247Y-68084649D02*
X150124342Y-68084649D01*
X150124342Y-68084649D02*
X150219580Y-68132268D01*
X150219580Y-68132268D02*
X150267200Y-68179887D01*
X150267200Y-68179887D02*
X150314819Y-68275125D01*
X150314819Y-68275125D02*
X150314819Y-68513220D01*
X150314819Y-68513220D02*
X150267200Y-68608458D01*
X150267200Y-68608458D02*
X150219580Y-68656077D01*
X149410057Y-67703696D02*
X149362438Y-67656077D01*
X149362438Y-67656077D02*
X149314819Y-67560839D01*
X149314819Y-67560839D02*
X149314819Y-67322744D01*
X149314819Y-67322744D02*
X149362438Y-67227506D01*
X149362438Y-67227506D02*
X149410057Y-67179887D01*
X149410057Y-67179887D02*
X149505295Y-67132268D01*
X149505295Y-67132268D02*
X149600533Y-67132268D01*
X149600533Y-67132268D02*
X149743390Y-67179887D01*
X149743390Y-67179887D02*
X150314819Y-67751315D01*
X150314819Y-67751315D02*
X150314819Y-67132268D01*
X195749104Y-57280112D02*
X195749104Y-56803922D01*
X196034819Y-57375350D02*
X195034819Y-57042017D01*
X195034819Y-57042017D02*
X196034819Y-56708684D01*
X196034819Y-55851541D02*
X196034819Y-56422969D01*
X196034819Y-56137255D02*
X195034819Y-56137255D01*
X195034819Y-56137255D02*
X195177676Y-56232493D01*
X195177676Y-56232493D02*
X195272914Y-56327731D01*
X195272914Y-56327731D02*
X195320533Y-56422969D01*
X195034819Y-55232493D02*
X195034819Y-55137255D01*
X195034819Y-55137255D02*
X195082438Y-55042017D01*
X195082438Y-55042017D02*
X195130057Y-54994398D01*
X195130057Y-54994398D02*
X195225295Y-54946779D01*
X195225295Y-54946779D02*
X195415771Y-54899160D01*
X195415771Y-54899160D02*
X195653866Y-54899160D01*
X195653866Y-54899160D02*
X195844342Y-54946779D01*
X195844342Y-54946779D02*
X195939580Y-54994398D01*
X195939580Y-54994398D02*
X195987200Y-55042017D01*
X195987200Y-55042017D02*
X196034819Y-55137255D01*
X196034819Y-55137255D02*
X196034819Y-55232493D01*
X196034819Y-55232493D02*
X195987200Y-55327731D01*
X195987200Y-55327731D02*
X195939580Y-55375350D01*
X195939580Y-55375350D02*
X195844342Y-55422969D01*
X195844342Y-55422969D02*
X195653866Y-55470588D01*
X195653866Y-55470588D02*
X195415771Y-55470588D01*
X195415771Y-55470588D02*
X195225295Y-55422969D01*
X195225295Y-55422969D02*
X195130057Y-55375350D01*
X195130057Y-55375350D02*
X195082438Y-55327731D01*
X195082438Y-55327731D02*
X195034819Y-55232493D01*
X177302438Y-56851541D02*
X177254819Y-56946779D01*
X177254819Y-56946779D02*
X177254819Y-57089636D01*
X177254819Y-57089636D02*
X177302438Y-57232493D01*
X177302438Y-57232493D02*
X177397676Y-57327731D01*
X177397676Y-57327731D02*
X177492914Y-57375350D01*
X177492914Y-57375350D02*
X177683390Y-57422969D01*
X177683390Y-57422969D02*
X177826247Y-57422969D01*
X177826247Y-57422969D02*
X178016723Y-57375350D01*
X178016723Y-57375350D02*
X178111961Y-57327731D01*
X178111961Y-57327731D02*
X178207200Y-57232493D01*
X178207200Y-57232493D02*
X178254819Y-57089636D01*
X178254819Y-57089636D02*
X178254819Y-56994398D01*
X178254819Y-56994398D02*
X178207200Y-56851541D01*
X178207200Y-56851541D02*
X178159580Y-56803922D01*
X178159580Y-56803922D02*
X177826247Y-56803922D01*
X177826247Y-56803922D02*
X177826247Y-56994398D01*
X177254819Y-55946779D02*
X177254819Y-56137255D01*
X177254819Y-56137255D02*
X177302438Y-56232493D01*
X177302438Y-56232493D02*
X177350057Y-56280112D01*
X177350057Y-56280112D02*
X177492914Y-56375350D01*
X177492914Y-56375350D02*
X177683390Y-56422969D01*
X177683390Y-56422969D02*
X178064342Y-56422969D01*
X178064342Y-56422969D02*
X178159580Y-56375350D01*
X178159580Y-56375350D02*
X178207200Y-56327731D01*
X178207200Y-56327731D02*
X178254819Y-56232493D01*
X178254819Y-56232493D02*
X178254819Y-56042017D01*
X178254819Y-56042017D02*
X178207200Y-55946779D01*
X178207200Y-55946779D02*
X178159580Y-55899160D01*
X178159580Y-55899160D02*
X178064342Y-55851541D01*
X178064342Y-55851541D02*
X177826247Y-55851541D01*
X177826247Y-55851541D02*
X177731009Y-55899160D01*
X177731009Y-55899160D02*
X177683390Y-55946779D01*
X177683390Y-55946779D02*
X177635771Y-56042017D01*
X177635771Y-56042017D02*
X177635771Y-56232493D01*
X177635771Y-56232493D02*
X177683390Y-56327731D01*
X177683390Y-56327731D02*
X177731009Y-56375350D01*
X177731009Y-56375350D02*
X177826247Y-56422969D01*
X177254819Y-55518207D02*
X177254819Y-54899160D01*
X177254819Y-54899160D02*
X177635771Y-55232493D01*
X177635771Y-55232493D02*
X177635771Y-55089636D01*
X177635771Y-55089636D02*
X177683390Y-54994398D01*
X177683390Y-54994398D02*
X177731009Y-54946779D01*
X177731009Y-54946779D02*
X177826247Y-54899160D01*
X177826247Y-54899160D02*
X178064342Y-54899160D01*
X178064342Y-54899160D02*
X178159580Y-54946779D01*
X178159580Y-54946779D02*
X178207200Y-54994398D01*
X178207200Y-54994398D02*
X178254819Y-55089636D01*
X178254819Y-55089636D02*
X178254819Y-55375350D01*
X178254819Y-55375350D02*
X178207200Y-55470588D01*
X178207200Y-55470588D02*
X178159580Y-55518207D01*
X201019580Y-68941792D02*
X201067200Y-68989411D01*
X201067200Y-68989411D02*
X201114819Y-69132268D01*
X201114819Y-69132268D02*
X201114819Y-69227506D01*
X201114819Y-69227506D02*
X201067200Y-69370363D01*
X201067200Y-69370363D02*
X200971961Y-69465601D01*
X200971961Y-69465601D02*
X200876723Y-69513220D01*
X200876723Y-69513220D02*
X200686247Y-69560839D01*
X200686247Y-69560839D02*
X200543390Y-69560839D01*
X200543390Y-69560839D02*
X200352914Y-69513220D01*
X200352914Y-69513220D02*
X200257676Y-69465601D01*
X200257676Y-69465601D02*
X200162438Y-69370363D01*
X200162438Y-69370363D02*
X200114819Y-69227506D01*
X200114819Y-69227506D02*
X200114819Y-69132268D01*
X200114819Y-69132268D02*
X200162438Y-68989411D01*
X200162438Y-68989411D02*
X200210057Y-68941792D01*
X200210057Y-68560839D02*
X200162438Y-68513220D01*
X200162438Y-68513220D02*
X200114819Y-68417982D01*
X200114819Y-68417982D02*
X200114819Y-68179887D01*
X200114819Y-68179887D02*
X200162438Y-68084649D01*
X200162438Y-68084649D02*
X200210057Y-68037030D01*
X200210057Y-68037030D02*
X200305295Y-67989411D01*
X200305295Y-67989411D02*
X200400533Y-67989411D01*
X200400533Y-67989411D02*
X200543390Y-68037030D01*
X200543390Y-68037030D02*
X201114819Y-68608458D01*
X201114819Y-68608458D02*
X201114819Y-67989411D01*
X200543390Y-67417982D02*
X200495771Y-67513220D01*
X200495771Y-67513220D02*
X200448152Y-67560839D01*
X200448152Y-67560839D02*
X200352914Y-67608458D01*
X200352914Y-67608458D02*
X200305295Y-67608458D01*
X200305295Y-67608458D02*
X200210057Y-67560839D01*
X200210057Y-67560839D02*
X200162438Y-67513220D01*
X200162438Y-67513220D02*
X200114819Y-67417982D01*
X200114819Y-67417982D02*
X200114819Y-67227506D01*
X200114819Y-67227506D02*
X200162438Y-67132268D01*
X200162438Y-67132268D02*
X200210057Y-67084649D01*
X200210057Y-67084649D02*
X200305295Y-67037030D01*
X200305295Y-67037030D02*
X200352914Y-67037030D01*
X200352914Y-67037030D02*
X200448152Y-67084649D01*
X200448152Y-67084649D02*
X200495771Y-67132268D01*
X200495771Y-67132268D02*
X200543390Y-67227506D01*
X200543390Y-67227506D02*
X200543390Y-67417982D01*
X200543390Y-67417982D02*
X200591009Y-67513220D01*
X200591009Y-67513220D02*
X200638628Y-67560839D01*
X200638628Y-67560839D02*
X200733866Y-67608458D01*
X200733866Y-67608458D02*
X200924342Y-67608458D01*
X200924342Y-67608458D02*
X201019580Y-67560839D01*
X201019580Y-67560839D02*
X201067200Y-67513220D01*
X201067200Y-67513220D02*
X201114819Y-67417982D01*
X201114819Y-67417982D02*
X201114819Y-67227506D01*
X201114819Y-67227506D02*
X201067200Y-67132268D01*
X201067200Y-67132268D02*
X201019580Y-67084649D01*
X201019580Y-67084649D02*
X200924342Y-67037030D01*
X200924342Y-67037030D02*
X200733866Y-67037030D01*
X200733866Y-67037030D02*
X200638628Y-67084649D01*
X200638628Y-67084649D02*
X200591009Y-67132268D01*
X200591009Y-67132268D02*
X200543390Y-67227506D01*
X183049104Y-56327731D02*
X183049104Y-55851541D01*
X183334819Y-56422969D02*
X182334819Y-56089636D01*
X182334819Y-56089636D02*
X183334819Y-55756303D01*
X182668152Y-54994398D02*
X183334819Y-54994398D01*
X182287200Y-55232493D02*
X183001485Y-55470588D01*
X183001485Y-55470588D02*
X183001485Y-54851541D01*
X188414819Y-69513220D02*
X187414819Y-69513220D01*
X187414819Y-69513220D02*
X187414819Y-69275125D01*
X187414819Y-69275125D02*
X187462438Y-69132268D01*
X187462438Y-69132268D02*
X187557676Y-69037030D01*
X187557676Y-69037030D02*
X187652914Y-68989411D01*
X187652914Y-68989411D02*
X187843390Y-68941792D01*
X187843390Y-68941792D02*
X187986247Y-68941792D01*
X187986247Y-68941792D02*
X188176723Y-68989411D01*
X188176723Y-68989411D02*
X188271961Y-69037030D01*
X188271961Y-69037030D02*
X188367200Y-69132268D01*
X188367200Y-69132268D02*
X188414819Y-69275125D01*
X188414819Y-69275125D02*
X188414819Y-69513220D01*
X187414819Y-68608458D02*
X187414819Y-67989411D01*
X187414819Y-67989411D02*
X187795771Y-68322744D01*
X187795771Y-68322744D02*
X187795771Y-68179887D01*
X187795771Y-68179887D02*
X187843390Y-68084649D01*
X187843390Y-68084649D02*
X187891009Y-68037030D01*
X187891009Y-68037030D02*
X187986247Y-67989411D01*
X187986247Y-67989411D02*
X188224342Y-67989411D01*
X188224342Y-67989411D02*
X188319580Y-68037030D01*
X188319580Y-68037030D02*
X188367200Y-68084649D01*
X188367200Y-68084649D02*
X188414819Y-68179887D01*
X188414819Y-68179887D02*
X188414819Y-68465601D01*
X188414819Y-68465601D02*
X188367200Y-68560839D01*
X188367200Y-68560839D02*
X188319580Y-68608458D01*
X187748152Y-67132268D02*
X188414819Y-67132268D01*
X187367200Y-67370363D02*
X188081485Y-67608458D01*
X188081485Y-67608458D02*
X188081485Y-66989411D01*
X167571009Y-69513220D02*
X167571009Y-69179887D01*
X168094819Y-69037030D02*
X168094819Y-69513220D01*
X168094819Y-69513220D02*
X167094819Y-69513220D01*
X167094819Y-69513220D02*
X167094819Y-69037030D01*
X167428152Y-68179887D02*
X168094819Y-68179887D01*
X167047200Y-68417982D02*
X167761485Y-68656077D01*
X167761485Y-68656077D02*
X167761485Y-68037030D01*
X167428152Y-67227506D02*
X168094819Y-67227506D01*
X167047200Y-67465601D02*
X167761485Y-67703696D01*
X167761485Y-67703696D02*
X167761485Y-67084649D01*
X134551009Y-69179887D02*
X134551009Y-69513220D01*
X135074819Y-69513220D02*
X134074819Y-69513220D01*
X134074819Y-69513220D02*
X134074819Y-69037030D01*
X134074819Y-68179887D02*
X134074819Y-68656077D01*
X134074819Y-68656077D02*
X134551009Y-68703696D01*
X134551009Y-68703696D02*
X134503390Y-68656077D01*
X134503390Y-68656077D02*
X134455771Y-68560839D01*
X134455771Y-68560839D02*
X134455771Y-68322744D01*
X134455771Y-68322744D02*
X134503390Y-68227506D01*
X134503390Y-68227506D02*
X134551009Y-68179887D01*
X134551009Y-68179887D02*
X134646247Y-68132268D01*
X134646247Y-68132268D02*
X134884342Y-68132268D01*
X134884342Y-68132268D02*
X134979580Y-68179887D01*
X134979580Y-68179887D02*
X135027200Y-68227506D01*
X135027200Y-68227506D02*
X135074819Y-68322744D01*
X135074819Y-68322744D02*
X135074819Y-68560839D01*
X135074819Y-68560839D02*
X135027200Y-68656077D01*
X135027200Y-68656077D02*
X134979580Y-68703696D01*
X134074819Y-67227506D02*
X134074819Y-67703696D01*
X134074819Y-67703696D02*
X134551009Y-67751315D01*
X134551009Y-67751315D02*
X134503390Y-67703696D01*
X134503390Y-67703696D02*
X134455771Y-67608458D01*
X134455771Y-67608458D02*
X134455771Y-67370363D01*
X134455771Y-67370363D02*
X134503390Y-67275125D01*
X134503390Y-67275125D02*
X134551009Y-67227506D01*
X134551009Y-67227506D02*
X134646247Y-67179887D01*
X134646247Y-67179887D02*
X134884342Y-67179887D01*
X134884342Y-67179887D02*
X134979580Y-67227506D01*
X134979580Y-67227506D02*
X135027200Y-67275125D01*
X135027200Y-67275125D02*
X135074819Y-67370363D01*
X135074819Y-67370363D02*
X135074819Y-67608458D01*
X135074819Y-67608458D02*
X135027200Y-67703696D01*
X135027200Y-67703696D02*
X134979580Y-67751315D01*
X142171009Y-69179887D02*
X142171009Y-69513220D01*
X142694819Y-69513220D02*
X141694819Y-69513220D01*
X141694819Y-69513220D02*
X141694819Y-69037030D01*
X141694819Y-68179887D02*
X141694819Y-68656077D01*
X141694819Y-68656077D02*
X142171009Y-68703696D01*
X142171009Y-68703696D02*
X142123390Y-68656077D01*
X142123390Y-68656077D02*
X142075771Y-68560839D01*
X142075771Y-68560839D02*
X142075771Y-68322744D01*
X142075771Y-68322744D02*
X142123390Y-68227506D01*
X142123390Y-68227506D02*
X142171009Y-68179887D01*
X142171009Y-68179887D02*
X142266247Y-68132268D01*
X142266247Y-68132268D02*
X142504342Y-68132268D01*
X142504342Y-68132268D02*
X142599580Y-68179887D01*
X142599580Y-68179887D02*
X142647200Y-68227506D01*
X142647200Y-68227506D02*
X142694819Y-68322744D01*
X142694819Y-68322744D02*
X142694819Y-68560839D01*
X142694819Y-68560839D02*
X142647200Y-68656077D01*
X142647200Y-68656077D02*
X142599580Y-68703696D01*
X142123390Y-67560839D02*
X142075771Y-67656077D01*
X142075771Y-67656077D02*
X142028152Y-67703696D01*
X142028152Y-67703696D02*
X141932914Y-67751315D01*
X141932914Y-67751315D02*
X141885295Y-67751315D01*
X141885295Y-67751315D02*
X141790057Y-67703696D01*
X141790057Y-67703696D02*
X141742438Y-67656077D01*
X141742438Y-67656077D02*
X141694819Y-67560839D01*
X141694819Y-67560839D02*
X141694819Y-67370363D01*
X141694819Y-67370363D02*
X141742438Y-67275125D01*
X141742438Y-67275125D02*
X141790057Y-67227506D01*
X141790057Y-67227506D02*
X141885295Y-67179887D01*
X141885295Y-67179887D02*
X141932914Y-67179887D01*
X141932914Y-67179887D02*
X142028152Y-67227506D01*
X142028152Y-67227506D02*
X142075771Y-67275125D01*
X142075771Y-67275125D02*
X142123390Y-67370363D01*
X142123390Y-67370363D02*
X142123390Y-67560839D01*
X142123390Y-67560839D02*
X142171009Y-67656077D01*
X142171009Y-67656077D02*
X142218628Y-67703696D01*
X142218628Y-67703696D02*
X142313866Y-67751315D01*
X142313866Y-67751315D02*
X142504342Y-67751315D01*
X142504342Y-67751315D02*
X142599580Y-67703696D01*
X142599580Y-67703696D02*
X142647200Y-67656077D01*
X142647200Y-67656077D02*
X142694819Y-67560839D01*
X142694819Y-67560839D02*
X142694819Y-67370363D01*
X142694819Y-67370363D02*
X142647200Y-67275125D01*
X142647200Y-67275125D02*
X142599580Y-67227506D01*
X142599580Y-67227506D02*
X142504342Y-67179887D01*
X142504342Y-67179887D02*
X142313866Y-67179887D01*
X142313866Y-67179887D02*
X142218628Y-67227506D01*
X142218628Y-67227506D02*
X142171009Y-67275125D01*
X142171009Y-67275125D02*
X142123390Y-67370363D01*
X179842438Y-56994398D02*
X179794819Y-57089636D01*
X179794819Y-57089636D02*
X179794819Y-57232493D01*
X179794819Y-57232493D02*
X179842438Y-57375350D01*
X179842438Y-57375350D02*
X179937676Y-57470588D01*
X179937676Y-57470588D02*
X180032914Y-57518207D01*
X180032914Y-57518207D02*
X180223390Y-57565826D01*
X180223390Y-57565826D02*
X180366247Y-57565826D01*
X180366247Y-57565826D02*
X180556723Y-57518207D01*
X180556723Y-57518207D02*
X180651961Y-57470588D01*
X180651961Y-57470588D02*
X180747200Y-57375350D01*
X180747200Y-57375350D02*
X180794819Y-57232493D01*
X180794819Y-57232493D02*
X180794819Y-57137255D01*
X180794819Y-57137255D02*
X180747200Y-56994398D01*
X180747200Y-56994398D02*
X180699580Y-56946779D01*
X180699580Y-56946779D02*
X180366247Y-56946779D01*
X180366247Y-56946779D02*
X180366247Y-57137255D01*
X180794819Y-56518207D02*
X179794819Y-56518207D01*
X179794819Y-56518207D02*
X180794819Y-55946779D01*
X180794819Y-55946779D02*
X179794819Y-55946779D01*
X180794819Y-55470588D02*
X179794819Y-55470588D01*
X179794819Y-55470588D02*
X179794819Y-55232493D01*
X179794819Y-55232493D02*
X179842438Y-55089636D01*
X179842438Y-55089636D02*
X179937676Y-54994398D01*
X179937676Y-54994398D02*
X180032914Y-54946779D01*
X180032914Y-54946779D02*
X180223390Y-54899160D01*
X180223390Y-54899160D02*
X180366247Y-54899160D01*
X180366247Y-54899160D02*
X180556723Y-54946779D01*
X180556723Y-54946779D02*
X180651961Y-54994398D01*
X180651961Y-54994398D02*
X180747200Y-55089636D01*
X180747200Y-55089636D02*
X180794819Y-55232493D01*
X180794819Y-55232493D02*
X180794819Y-55470588D01*
X185589104Y-56327731D02*
X185589104Y-55851541D01*
X185874819Y-56422969D02*
X184874819Y-56089636D01*
X184874819Y-56089636D02*
X185874819Y-55756303D01*
X184874819Y-54946779D02*
X184874819Y-55422969D01*
X184874819Y-55422969D02*
X185351009Y-55470588D01*
X185351009Y-55470588D02*
X185303390Y-55422969D01*
X185303390Y-55422969D02*
X185255771Y-55327731D01*
X185255771Y-55327731D02*
X185255771Y-55089636D01*
X185255771Y-55089636D02*
X185303390Y-54994398D01*
X185303390Y-54994398D02*
X185351009Y-54946779D01*
X185351009Y-54946779D02*
X185446247Y-54899160D01*
X185446247Y-54899160D02*
X185684342Y-54899160D01*
X185684342Y-54899160D02*
X185779580Y-54946779D01*
X185779580Y-54946779D02*
X185827200Y-54994398D01*
X185827200Y-54994398D02*
X185874819Y-55089636D01*
X185874819Y-55089636D02*
X185874819Y-55327731D01*
X185874819Y-55327731D02*
X185827200Y-55422969D01*
X185827200Y-55422969D02*
X185779580Y-55470588D01*
X185874819Y-69513220D02*
X184874819Y-69513220D01*
X184874819Y-69513220D02*
X184874819Y-69275125D01*
X184874819Y-69275125D02*
X184922438Y-69132268D01*
X184922438Y-69132268D02*
X185017676Y-69037030D01*
X185017676Y-69037030D02*
X185112914Y-68989411D01*
X185112914Y-68989411D02*
X185303390Y-68941792D01*
X185303390Y-68941792D02*
X185446247Y-68941792D01*
X185446247Y-68941792D02*
X185636723Y-68989411D01*
X185636723Y-68989411D02*
X185731961Y-69037030D01*
X185731961Y-69037030D02*
X185827200Y-69132268D01*
X185827200Y-69132268D02*
X185874819Y-69275125D01*
X185874819Y-69275125D02*
X185874819Y-69513220D01*
X184874819Y-68608458D02*
X184874819Y-67989411D01*
X184874819Y-67989411D02*
X185255771Y-68322744D01*
X185255771Y-68322744D02*
X185255771Y-68179887D01*
X185255771Y-68179887D02*
X185303390Y-68084649D01*
X185303390Y-68084649D02*
X185351009Y-68037030D01*
X185351009Y-68037030D02*
X185446247Y-67989411D01*
X185446247Y-67989411D02*
X185684342Y-67989411D01*
X185684342Y-67989411D02*
X185779580Y-68037030D01*
X185779580Y-68037030D02*
X185827200Y-68084649D01*
X185827200Y-68084649D02*
X185874819Y-68179887D01*
X185874819Y-68179887D02*
X185874819Y-68465601D01*
X185874819Y-68465601D02*
X185827200Y-68560839D01*
X185827200Y-68560839D02*
X185779580Y-68608458D01*
X184874819Y-67084649D02*
X184874819Y-67560839D01*
X184874819Y-67560839D02*
X185351009Y-67608458D01*
X185351009Y-67608458D02*
X185303390Y-67560839D01*
X185303390Y-67560839D02*
X185255771Y-67465601D01*
X185255771Y-67465601D02*
X185255771Y-67227506D01*
X185255771Y-67227506D02*
X185303390Y-67132268D01*
X185303390Y-67132268D02*
X185351009Y-67084649D01*
X185351009Y-67084649D02*
X185446247Y-67037030D01*
X185446247Y-67037030D02*
X185684342Y-67037030D01*
X185684342Y-67037030D02*
X185779580Y-67084649D01*
X185779580Y-67084649D02*
X185827200Y-67132268D01*
X185827200Y-67132268D02*
X185874819Y-67227506D01*
X185874819Y-67227506D02*
X185874819Y-67465601D01*
X185874819Y-67465601D02*
X185827200Y-67560839D01*
X185827200Y-67560839D02*
X185779580Y-67608458D01*
X188129104Y-56327731D02*
X188129104Y-55851541D01*
X188414819Y-56422969D02*
X187414819Y-56089636D01*
X187414819Y-56089636D02*
X188414819Y-55756303D01*
X187414819Y-54994398D02*
X187414819Y-55184874D01*
X187414819Y-55184874D02*
X187462438Y-55280112D01*
X187462438Y-55280112D02*
X187510057Y-55327731D01*
X187510057Y-55327731D02*
X187652914Y-55422969D01*
X187652914Y-55422969D02*
X187843390Y-55470588D01*
X187843390Y-55470588D02*
X188224342Y-55470588D01*
X188224342Y-55470588D02*
X188319580Y-55422969D01*
X188319580Y-55422969D02*
X188367200Y-55375350D01*
X188367200Y-55375350D02*
X188414819Y-55280112D01*
X188414819Y-55280112D02*
X188414819Y-55089636D01*
X188414819Y-55089636D02*
X188367200Y-54994398D01*
X188367200Y-54994398D02*
X188319580Y-54946779D01*
X188319580Y-54946779D02*
X188224342Y-54899160D01*
X188224342Y-54899160D02*
X187986247Y-54899160D01*
X187986247Y-54899160D02*
X187891009Y-54946779D01*
X187891009Y-54946779D02*
X187843390Y-54994398D01*
X187843390Y-54994398D02*
X187795771Y-55089636D01*
X187795771Y-55089636D02*
X187795771Y-55280112D01*
X187795771Y-55280112D02*
X187843390Y-55375350D01*
X187843390Y-55375350D02*
X187891009Y-55422969D01*
X187891009Y-55422969D02*
X187986247Y-55470588D01*
X198289104Y-57280112D02*
X198289104Y-56803922D01*
X198574819Y-57375350D02*
X197574819Y-57042017D01*
X197574819Y-57042017D02*
X198574819Y-56708684D01*
X198574819Y-55851541D02*
X198574819Y-56422969D01*
X198574819Y-56137255D02*
X197574819Y-56137255D01*
X197574819Y-56137255D02*
X197717676Y-56232493D01*
X197717676Y-56232493D02*
X197812914Y-56327731D01*
X197812914Y-56327731D02*
X197860533Y-56422969D01*
X198574819Y-54899160D02*
X198574819Y-55470588D01*
X198574819Y-55184874D02*
X197574819Y-55184874D01*
X197574819Y-55184874D02*
X197717676Y-55280112D01*
X197717676Y-55280112D02*
X197812914Y-55375350D01*
X197812914Y-55375350D02*
X197860533Y-55470588D01*
X147774819Y-57422969D02*
X146774819Y-57422969D01*
X147251009Y-57422969D02*
X147251009Y-56851541D01*
X147774819Y-56851541D02*
X146774819Y-56851541D01*
X146774819Y-56470588D02*
X146774819Y-55803922D01*
X146774819Y-55803922D02*
X147774819Y-56232493D01*
X147774819Y-55375350D02*
X147774819Y-55184874D01*
X147774819Y-55184874D02*
X147727200Y-55089636D01*
X147727200Y-55089636D02*
X147679580Y-55042017D01*
X147679580Y-55042017D02*
X147536723Y-54946779D01*
X147536723Y-54946779D02*
X147346247Y-54899160D01*
X147346247Y-54899160D02*
X146965295Y-54899160D01*
X146965295Y-54899160D02*
X146870057Y-54946779D01*
X146870057Y-54946779D02*
X146822438Y-54994398D01*
X146822438Y-54994398D02*
X146774819Y-55089636D01*
X146774819Y-55089636D02*
X146774819Y-55280112D01*
X146774819Y-55280112D02*
X146822438Y-55375350D01*
X146822438Y-55375350D02*
X146870057Y-55422969D01*
X146870057Y-55422969D02*
X146965295Y-55470588D01*
X146965295Y-55470588D02*
X147203390Y-55470588D01*
X147203390Y-55470588D02*
X147298628Y-55422969D01*
X147298628Y-55422969D02*
X147346247Y-55375350D01*
X147346247Y-55375350D02*
X147393866Y-55280112D01*
X147393866Y-55280112D02*
X147393866Y-55089636D01*
X147393866Y-55089636D02*
X147346247Y-54994398D01*
X147346247Y-54994398D02*
X147298628Y-54946779D01*
X147298628Y-54946779D02*
X147203390Y-54899160D01*
X183334819Y-69513220D02*
X182334819Y-69513220D01*
X182334819Y-69513220D02*
X182334819Y-69275125D01*
X182334819Y-69275125D02*
X182382438Y-69132268D01*
X182382438Y-69132268D02*
X182477676Y-69037030D01*
X182477676Y-69037030D02*
X182572914Y-68989411D01*
X182572914Y-68989411D02*
X182763390Y-68941792D01*
X182763390Y-68941792D02*
X182906247Y-68941792D01*
X182906247Y-68941792D02*
X183096723Y-68989411D01*
X183096723Y-68989411D02*
X183191961Y-69037030D01*
X183191961Y-69037030D02*
X183287200Y-69132268D01*
X183287200Y-69132268D02*
X183334819Y-69275125D01*
X183334819Y-69275125D02*
X183334819Y-69513220D01*
X182334819Y-68608458D02*
X182334819Y-67989411D01*
X182334819Y-67989411D02*
X182715771Y-68322744D01*
X182715771Y-68322744D02*
X182715771Y-68179887D01*
X182715771Y-68179887D02*
X182763390Y-68084649D01*
X182763390Y-68084649D02*
X182811009Y-68037030D01*
X182811009Y-68037030D02*
X182906247Y-67989411D01*
X182906247Y-67989411D02*
X183144342Y-67989411D01*
X183144342Y-67989411D02*
X183239580Y-68037030D01*
X183239580Y-68037030D02*
X183287200Y-68084649D01*
X183287200Y-68084649D02*
X183334819Y-68179887D01*
X183334819Y-68179887D02*
X183334819Y-68465601D01*
X183334819Y-68465601D02*
X183287200Y-68560839D01*
X183287200Y-68560839D02*
X183239580Y-68608458D01*
X182334819Y-67132268D02*
X182334819Y-67322744D01*
X182334819Y-67322744D02*
X182382438Y-67417982D01*
X182382438Y-67417982D02*
X182430057Y-67465601D01*
X182430057Y-67465601D02*
X182572914Y-67560839D01*
X182572914Y-67560839D02*
X182763390Y-67608458D01*
X182763390Y-67608458D02*
X183144342Y-67608458D01*
X183144342Y-67608458D02*
X183239580Y-67560839D01*
X183239580Y-67560839D02*
X183287200Y-67513220D01*
X183287200Y-67513220D02*
X183334819Y-67417982D01*
X183334819Y-67417982D02*
X183334819Y-67227506D01*
X183334819Y-67227506D02*
X183287200Y-67132268D01*
X183287200Y-67132268D02*
X183239580Y-67084649D01*
X183239580Y-67084649D02*
X183144342Y-67037030D01*
X183144342Y-67037030D02*
X182906247Y-67037030D01*
X182906247Y-67037030D02*
X182811009Y-67084649D01*
X182811009Y-67084649D02*
X182763390Y-67132268D01*
X182763390Y-67132268D02*
X182715771Y-67227506D01*
X182715771Y-67227506D02*
X182715771Y-67417982D01*
X182715771Y-67417982D02*
X182763390Y-67513220D01*
X182763390Y-67513220D02*
X182811009Y-67560839D01*
X182811009Y-67560839D02*
X182906247Y-67608458D01*
X210751009Y-57042017D02*
X210798628Y-56899160D01*
X210798628Y-56899160D02*
X210846247Y-56851541D01*
X210846247Y-56851541D02*
X210941485Y-56803922D01*
X210941485Y-56803922D02*
X211084342Y-56803922D01*
X211084342Y-56803922D02*
X211179580Y-56851541D01*
X211179580Y-56851541D02*
X211227200Y-56899160D01*
X211227200Y-56899160D02*
X211274819Y-56994398D01*
X211274819Y-56994398D02*
X211274819Y-57375350D01*
X211274819Y-57375350D02*
X210274819Y-57375350D01*
X210274819Y-57375350D02*
X210274819Y-57042017D01*
X210274819Y-57042017D02*
X210322438Y-56946779D01*
X210322438Y-56946779D02*
X210370057Y-56899160D01*
X210370057Y-56899160D02*
X210465295Y-56851541D01*
X210465295Y-56851541D02*
X210560533Y-56851541D01*
X210560533Y-56851541D02*
X210655771Y-56899160D01*
X210655771Y-56899160D02*
X210703390Y-56946779D01*
X210703390Y-56946779D02*
X210751009Y-57042017D01*
X210751009Y-57042017D02*
X210751009Y-57375350D01*
X211274819Y-55851541D02*
X211274819Y-56422969D01*
X211274819Y-56137255D02*
X210274819Y-56137255D01*
X210274819Y-56137255D02*
X210417676Y-56232493D01*
X210417676Y-56232493D02*
X210512914Y-56327731D01*
X210512914Y-56327731D02*
X210560533Y-56422969D01*
X210703390Y-55280112D02*
X210655771Y-55375350D01*
X210655771Y-55375350D02*
X210608152Y-55422969D01*
X210608152Y-55422969D02*
X210512914Y-55470588D01*
X210512914Y-55470588D02*
X210465295Y-55470588D01*
X210465295Y-55470588D02*
X210370057Y-55422969D01*
X210370057Y-55422969D02*
X210322438Y-55375350D01*
X210322438Y-55375350D02*
X210274819Y-55280112D01*
X210274819Y-55280112D02*
X210274819Y-55089636D01*
X210274819Y-55089636D02*
X210322438Y-54994398D01*
X210322438Y-54994398D02*
X210370057Y-54946779D01*
X210370057Y-54946779D02*
X210465295Y-54899160D01*
X210465295Y-54899160D02*
X210512914Y-54899160D01*
X210512914Y-54899160D02*
X210608152Y-54946779D01*
X210608152Y-54946779D02*
X210655771Y-54994398D01*
X210655771Y-54994398D02*
X210703390Y-55089636D01*
X210703390Y-55089636D02*
X210703390Y-55280112D01*
X210703390Y-55280112D02*
X210751009Y-55375350D01*
X210751009Y-55375350D02*
X210798628Y-55422969D01*
X210798628Y-55422969D02*
X210893866Y-55470588D01*
X210893866Y-55470588D02*
X211084342Y-55470588D01*
X211084342Y-55470588D02*
X211179580Y-55422969D01*
X211179580Y-55422969D02*
X211227200Y-55375350D01*
X211227200Y-55375350D02*
X211274819Y-55280112D01*
X211274819Y-55280112D02*
X211274819Y-55089636D01*
X211274819Y-55089636D02*
X211227200Y-54994398D01*
X211227200Y-54994398D02*
X211179580Y-54946779D01*
X211179580Y-54946779D02*
X211084342Y-54899160D01*
X211084342Y-54899160D02*
X210893866Y-54899160D01*
X210893866Y-54899160D02*
X210798628Y-54946779D01*
X210798628Y-54946779D02*
X210751009Y-54994398D01*
X210751009Y-54994398D02*
X210703390Y-55089636D01*
X129042438Y-68989411D02*
X128994819Y-69084649D01*
X128994819Y-69084649D02*
X128994819Y-69227506D01*
X128994819Y-69227506D02*
X129042438Y-69370363D01*
X129042438Y-69370363D02*
X129137676Y-69465601D01*
X129137676Y-69465601D02*
X129232914Y-69513220D01*
X129232914Y-69513220D02*
X129423390Y-69560839D01*
X129423390Y-69560839D02*
X129566247Y-69560839D01*
X129566247Y-69560839D02*
X129756723Y-69513220D01*
X129756723Y-69513220D02*
X129851961Y-69465601D01*
X129851961Y-69465601D02*
X129947200Y-69370363D01*
X129947200Y-69370363D02*
X129994819Y-69227506D01*
X129994819Y-69227506D02*
X129994819Y-69132268D01*
X129994819Y-69132268D02*
X129947200Y-68989411D01*
X129947200Y-68989411D02*
X129899580Y-68941792D01*
X129899580Y-68941792D02*
X129566247Y-68941792D01*
X129566247Y-68941792D02*
X129566247Y-69132268D01*
X129994819Y-68513220D02*
X128994819Y-68513220D01*
X128994819Y-68513220D02*
X129994819Y-67941792D01*
X129994819Y-67941792D02*
X128994819Y-67941792D01*
X129994819Y-67465601D02*
X128994819Y-67465601D01*
X128994819Y-67465601D02*
X128994819Y-67227506D01*
X128994819Y-67227506D02*
X129042438Y-67084649D01*
X129042438Y-67084649D02*
X129137676Y-66989411D01*
X129137676Y-66989411D02*
X129232914Y-66941792D01*
X129232914Y-66941792D02*
X129423390Y-66894173D01*
X129423390Y-66894173D02*
X129566247Y-66894173D01*
X129566247Y-66894173D02*
X129756723Y-66941792D01*
X129756723Y-66941792D02*
X129851961Y-66989411D01*
X129851961Y-66989411D02*
X129947200Y-67084649D01*
X129947200Y-67084649D02*
X129994819Y-67227506D01*
X129994819Y-67227506D02*
X129994819Y-67465601D01*
X157411009Y-69513220D02*
X157411009Y-69179887D01*
X157934819Y-69037030D02*
X157934819Y-69513220D01*
X157934819Y-69513220D02*
X156934819Y-69513220D01*
X156934819Y-69513220D02*
X156934819Y-69037030D01*
X157268152Y-68179887D02*
X157934819Y-68179887D01*
X156887200Y-68417982D02*
X157601485Y-68656077D01*
X157601485Y-68656077D02*
X157601485Y-68037030D01*
X157934819Y-67608458D02*
X157934819Y-67417982D01*
X157934819Y-67417982D02*
X157887200Y-67322744D01*
X157887200Y-67322744D02*
X157839580Y-67275125D01*
X157839580Y-67275125D02*
X157696723Y-67179887D01*
X157696723Y-67179887D02*
X157506247Y-67132268D01*
X157506247Y-67132268D02*
X157125295Y-67132268D01*
X157125295Y-67132268D02*
X157030057Y-67179887D01*
X157030057Y-67179887D02*
X156982438Y-67227506D01*
X156982438Y-67227506D02*
X156934819Y-67322744D01*
X156934819Y-67322744D02*
X156934819Y-67513220D01*
X156934819Y-67513220D02*
X156982438Y-67608458D01*
X156982438Y-67608458D02*
X157030057Y-67656077D01*
X157030057Y-67656077D02*
X157125295Y-67703696D01*
X157125295Y-67703696D02*
X157363390Y-67703696D01*
X157363390Y-67703696D02*
X157458628Y-67656077D01*
X157458628Y-67656077D02*
X157506247Y-67608458D01*
X157506247Y-67608458D02*
X157553866Y-67513220D01*
X157553866Y-67513220D02*
X157553866Y-67322744D01*
X157553866Y-67322744D02*
X157506247Y-67227506D01*
X157506247Y-67227506D02*
X157458628Y-67179887D01*
X157458628Y-67179887D02*
X157363390Y-67132268D01*
X190669104Y-56327731D02*
X190669104Y-55851541D01*
X190954819Y-56422969D02*
X189954819Y-56089636D01*
X189954819Y-56089636D02*
X190954819Y-55756303D01*
X190383390Y-55280112D02*
X190335771Y-55375350D01*
X190335771Y-55375350D02*
X190288152Y-55422969D01*
X190288152Y-55422969D02*
X190192914Y-55470588D01*
X190192914Y-55470588D02*
X190145295Y-55470588D01*
X190145295Y-55470588D02*
X190050057Y-55422969D01*
X190050057Y-55422969D02*
X190002438Y-55375350D01*
X190002438Y-55375350D02*
X189954819Y-55280112D01*
X189954819Y-55280112D02*
X189954819Y-55089636D01*
X189954819Y-55089636D02*
X190002438Y-54994398D01*
X190002438Y-54994398D02*
X190050057Y-54946779D01*
X190050057Y-54946779D02*
X190145295Y-54899160D01*
X190145295Y-54899160D02*
X190192914Y-54899160D01*
X190192914Y-54899160D02*
X190288152Y-54946779D01*
X190288152Y-54946779D02*
X190335771Y-54994398D01*
X190335771Y-54994398D02*
X190383390Y-55089636D01*
X190383390Y-55089636D02*
X190383390Y-55280112D01*
X190383390Y-55280112D02*
X190431009Y-55375350D01*
X190431009Y-55375350D02*
X190478628Y-55422969D01*
X190478628Y-55422969D02*
X190573866Y-55470588D01*
X190573866Y-55470588D02*
X190764342Y-55470588D01*
X190764342Y-55470588D02*
X190859580Y-55422969D01*
X190859580Y-55422969D02*
X190907200Y-55375350D01*
X190907200Y-55375350D02*
X190954819Y-55280112D01*
X190954819Y-55280112D02*
X190954819Y-55089636D01*
X190954819Y-55089636D02*
X190907200Y-54994398D01*
X190907200Y-54994398D02*
X190859580Y-54946779D01*
X190859580Y-54946779D02*
X190764342Y-54899160D01*
X190764342Y-54899160D02*
X190573866Y-54899160D01*
X190573866Y-54899160D02*
X190478628Y-54946779D01*
X190478628Y-54946779D02*
X190431009Y-54994398D01*
X190431009Y-54994398D02*
X190383390Y-55089636D01*
X139202438Y-61661065D02*
X139154819Y-61756303D01*
X139154819Y-61756303D02*
X139154819Y-61899160D01*
X139154819Y-61899160D02*
X139202438Y-62042017D01*
X139202438Y-62042017D02*
X139297676Y-62137255D01*
X139297676Y-62137255D02*
X139392914Y-62184874D01*
X139392914Y-62184874D02*
X139583390Y-62232493D01*
X139583390Y-62232493D02*
X139726247Y-62232493D01*
X139726247Y-62232493D02*
X139916723Y-62184874D01*
X139916723Y-62184874D02*
X140011961Y-62137255D01*
X140011961Y-62137255D02*
X140107200Y-62042017D01*
X140107200Y-62042017D02*
X140154819Y-61899160D01*
X140154819Y-61899160D02*
X140154819Y-61803922D01*
X140154819Y-61803922D02*
X140107200Y-61661065D01*
X140107200Y-61661065D02*
X140059580Y-61613446D01*
X140059580Y-61613446D02*
X139726247Y-61613446D01*
X139726247Y-61613446D02*
X139726247Y-61803922D01*
X140059580Y-60613446D02*
X140107200Y-60661065D01*
X140107200Y-60661065D02*
X140154819Y-60803922D01*
X140154819Y-60803922D02*
X140154819Y-60899160D01*
X140154819Y-60899160D02*
X140107200Y-61042017D01*
X140107200Y-61042017D02*
X140011961Y-61137255D01*
X140011961Y-61137255D02*
X139916723Y-61184874D01*
X139916723Y-61184874D02*
X139726247Y-61232493D01*
X139726247Y-61232493D02*
X139583390Y-61232493D01*
X139583390Y-61232493D02*
X139392914Y-61184874D01*
X139392914Y-61184874D02*
X139297676Y-61137255D01*
X139297676Y-61137255D02*
X139202438Y-61042017D01*
X139202438Y-61042017D02*
X139154819Y-60899160D01*
X139154819Y-60899160D02*
X139154819Y-60803922D01*
X139154819Y-60803922D02*
X139202438Y-60661065D01*
X139202438Y-60661065D02*
X139250057Y-60613446D01*
X140154819Y-59708684D02*
X140154819Y-60184874D01*
X140154819Y-60184874D02*
X139154819Y-60184874D01*
X140154819Y-59375350D02*
X139154819Y-59375350D01*
X140154819Y-58803922D02*
X139583390Y-59232493D01*
X139154819Y-58803922D02*
X139726247Y-59375350D01*
X140154819Y-57851541D02*
X140154819Y-58422969D01*
X140154819Y-58137255D02*
X139154819Y-58137255D01*
X139154819Y-58137255D02*
X139297676Y-58232493D01*
X139297676Y-58232493D02*
X139392914Y-58327731D01*
X139392914Y-58327731D02*
X139440533Y-58422969D01*
X139107200Y-56708684D02*
X140392914Y-57565826D01*
X139583390Y-56232493D02*
X139535771Y-56327731D01*
X139535771Y-56327731D02*
X139488152Y-56375350D01*
X139488152Y-56375350D02*
X139392914Y-56422969D01*
X139392914Y-56422969D02*
X139345295Y-56422969D01*
X139345295Y-56422969D02*
X139250057Y-56375350D01*
X139250057Y-56375350D02*
X139202438Y-56327731D01*
X139202438Y-56327731D02*
X139154819Y-56232493D01*
X139154819Y-56232493D02*
X139154819Y-56042017D01*
X139154819Y-56042017D02*
X139202438Y-55946779D01*
X139202438Y-55946779D02*
X139250057Y-55899160D01*
X139250057Y-55899160D02*
X139345295Y-55851541D01*
X139345295Y-55851541D02*
X139392914Y-55851541D01*
X139392914Y-55851541D02*
X139488152Y-55899160D01*
X139488152Y-55899160D02*
X139535771Y-55946779D01*
X139535771Y-55946779D02*
X139583390Y-56042017D01*
X139583390Y-56042017D02*
X139583390Y-56232493D01*
X139583390Y-56232493D02*
X139631009Y-56327731D01*
X139631009Y-56327731D02*
X139678628Y-56375350D01*
X139678628Y-56375350D02*
X139773866Y-56422969D01*
X139773866Y-56422969D02*
X139964342Y-56422969D01*
X139964342Y-56422969D02*
X140059580Y-56375350D01*
X140059580Y-56375350D02*
X140107200Y-56327731D01*
X140107200Y-56327731D02*
X140154819Y-56232493D01*
X140154819Y-56232493D02*
X140154819Y-56042017D01*
X140154819Y-56042017D02*
X140107200Y-55946779D01*
X140107200Y-55946779D02*
X140059580Y-55899160D01*
X140059580Y-55899160D02*
X139964342Y-55851541D01*
X139964342Y-55851541D02*
X139773866Y-55851541D01*
X139773866Y-55851541D02*
X139678628Y-55899160D01*
X139678628Y-55899160D02*
X139631009Y-55946779D01*
X139631009Y-55946779D02*
X139583390Y-56042017D01*
X139154819Y-55518207D02*
X139154819Y-54899160D01*
X139154819Y-54899160D02*
X139535771Y-55232493D01*
X139535771Y-55232493D02*
X139535771Y-55089636D01*
X139535771Y-55089636D02*
X139583390Y-54994398D01*
X139583390Y-54994398D02*
X139631009Y-54946779D01*
X139631009Y-54946779D02*
X139726247Y-54899160D01*
X139726247Y-54899160D02*
X139964342Y-54899160D01*
X139964342Y-54899160D02*
X140059580Y-54946779D01*
X140059580Y-54946779D02*
X140107200Y-54994398D01*
X140107200Y-54994398D02*
X140154819Y-55089636D01*
X140154819Y-55089636D02*
X140154819Y-55375350D01*
X140154819Y-55375350D02*
X140107200Y-55470588D01*
X140107200Y-55470588D02*
X140059580Y-55518207D01*
X152854819Y-57422969D02*
X151854819Y-57422969D01*
X152331009Y-57422969D02*
X152331009Y-56851541D01*
X152854819Y-56851541D02*
X151854819Y-56851541D01*
X151854819Y-56470588D02*
X151854819Y-55803922D01*
X151854819Y-55803922D02*
X152854819Y-56232493D01*
X151854819Y-54994398D02*
X151854819Y-55184874D01*
X151854819Y-55184874D02*
X151902438Y-55280112D01*
X151902438Y-55280112D02*
X151950057Y-55327731D01*
X151950057Y-55327731D02*
X152092914Y-55422969D01*
X152092914Y-55422969D02*
X152283390Y-55470588D01*
X152283390Y-55470588D02*
X152664342Y-55470588D01*
X152664342Y-55470588D02*
X152759580Y-55422969D01*
X152759580Y-55422969D02*
X152807200Y-55375350D01*
X152807200Y-55375350D02*
X152854819Y-55280112D01*
X152854819Y-55280112D02*
X152854819Y-55089636D01*
X152854819Y-55089636D02*
X152807200Y-54994398D01*
X152807200Y-54994398D02*
X152759580Y-54946779D01*
X152759580Y-54946779D02*
X152664342Y-54899160D01*
X152664342Y-54899160D02*
X152426247Y-54899160D01*
X152426247Y-54899160D02*
X152331009Y-54946779D01*
X152331009Y-54946779D02*
X152283390Y-54994398D01*
X152283390Y-54994398D02*
X152235771Y-55089636D01*
X152235771Y-55089636D02*
X152235771Y-55280112D01*
X152235771Y-55280112D02*
X152283390Y-55375350D01*
X152283390Y-55375350D02*
X152331009Y-55422969D01*
X152331009Y-55422969D02*
X152426247Y-55470588D01*
X159951009Y-69513220D02*
X159951009Y-69179887D01*
X160474819Y-69037030D02*
X160474819Y-69513220D01*
X160474819Y-69513220D02*
X159474819Y-69513220D01*
X159474819Y-69513220D02*
X159474819Y-69037030D01*
X159808152Y-68179887D02*
X160474819Y-68179887D01*
X159427200Y-68417982D02*
X160141485Y-68656077D01*
X160141485Y-68656077D02*
X160141485Y-68037030D01*
X159903390Y-67513220D02*
X159855771Y-67608458D01*
X159855771Y-67608458D02*
X159808152Y-67656077D01*
X159808152Y-67656077D02*
X159712914Y-67703696D01*
X159712914Y-67703696D02*
X159665295Y-67703696D01*
X159665295Y-67703696D02*
X159570057Y-67656077D01*
X159570057Y-67656077D02*
X159522438Y-67608458D01*
X159522438Y-67608458D02*
X159474819Y-67513220D01*
X159474819Y-67513220D02*
X159474819Y-67322744D01*
X159474819Y-67322744D02*
X159522438Y-67227506D01*
X159522438Y-67227506D02*
X159570057Y-67179887D01*
X159570057Y-67179887D02*
X159665295Y-67132268D01*
X159665295Y-67132268D02*
X159712914Y-67132268D01*
X159712914Y-67132268D02*
X159808152Y-67179887D01*
X159808152Y-67179887D02*
X159855771Y-67227506D01*
X159855771Y-67227506D02*
X159903390Y-67322744D01*
X159903390Y-67322744D02*
X159903390Y-67513220D01*
X159903390Y-67513220D02*
X159951009Y-67608458D01*
X159951009Y-67608458D02*
X159998628Y-67656077D01*
X159998628Y-67656077D02*
X160093866Y-67703696D01*
X160093866Y-67703696D02*
X160284342Y-67703696D01*
X160284342Y-67703696D02*
X160379580Y-67656077D01*
X160379580Y-67656077D02*
X160427200Y-67608458D01*
X160427200Y-67608458D02*
X160474819Y-67513220D01*
X160474819Y-67513220D02*
X160474819Y-67322744D01*
X160474819Y-67322744D02*
X160427200Y-67227506D01*
X160427200Y-67227506D02*
X160379580Y-67179887D01*
X160379580Y-67179887D02*
X160284342Y-67132268D01*
X160284342Y-67132268D02*
X160093866Y-67132268D01*
X160093866Y-67132268D02*
X159998628Y-67179887D01*
X159998628Y-67179887D02*
X159951009Y-67227506D01*
X159951009Y-67227506D02*
X159903390Y-67322744D01*
X213291009Y-69179887D02*
X213338628Y-69037030D01*
X213338628Y-69037030D02*
X213386247Y-68989411D01*
X213386247Y-68989411D02*
X213481485Y-68941792D01*
X213481485Y-68941792D02*
X213624342Y-68941792D01*
X213624342Y-68941792D02*
X213719580Y-68989411D01*
X213719580Y-68989411D02*
X213767200Y-69037030D01*
X213767200Y-69037030D02*
X213814819Y-69132268D01*
X213814819Y-69132268D02*
X213814819Y-69513220D01*
X213814819Y-69513220D02*
X212814819Y-69513220D01*
X212814819Y-69513220D02*
X212814819Y-69179887D01*
X212814819Y-69179887D02*
X212862438Y-69084649D01*
X212862438Y-69084649D02*
X212910057Y-69037030D01*
X212910057Y-69037030D02*
X213005295Y-68989411D01*
X213005295Y-68989411D02*
X213100533Y-68989411D01*
X213100533Y-68989411D02*
X213195771Y-69037030D01*
X213195771Y-69037030D02*
X213243390Y-69084649D01*
X213243390Y-69084649D02*
X213291009Y-69179887D01*
X213291009Y-69179887D02*
X213291009Y-69513220D01*
X212910057Y-68560839D02*
X212862438Y-68513220D01*
X212862438Y-68513220D02*
X212814819Y-68417982D01*
X212814819Y-68417982D02*
X212814819Y-68179887D01*
X212814819Y-68179887D02*
X212862438Y-68084649D01*
X212862438Y-68084649D02*
X212910057Y-68037030D01*
X212910057Y-68037030D02*
X213005295Y-67989411D01*
X213005295Y-67989411D02*
X213100533Y-67989411D01*
X213100533Y-67989411D02*
X213243390Y-68037030D01*
X213243390Y-68037030D02*
X213814819Y-68608458D01*
X213814819Y-68608458D02*
X213814819Y-67989411D01*
X213814819Y-67037030D02*
X213814819Y-67608458D01*
X213814819Y-67322744D02*
X212814819Y-67322744D01*
X212814819Y-67322744D02*
X212957676Y-67417982D01*
X212957676Y-67417982D02*
X213052914Y-67513220D01*
X213052914Y-67513220D02*
X213100533Y-67608458D01*
X145234819Y-57422969D02*
X144234819Y-57422969D01*
X144711009Y-57422969D02*
X144711009Y-56851541D01*
X145234819Y-56851541D02*
X144234819Y-56851541D01*
X144663390Y-56232493D02*
X144615771Y-56327731D01*
X144615771Y-56327731D02*
X144568152Y-56375350D01*
X144568152Y-56375350D02*
X144472914Y-56422969D01*
X144472914Y-56422969D02*
X144425295Y-56422969D01*
X144425295Y-56422969D02*
X144330057Y-56375350D01*
X144330057Y-56375350D02*
X144282438Y-56327731D01*
X144282438Y-56327731D02*
X144234819Y-56232493D01*
X144234819Y-56232493D02*
X144234819Y-56042017D01*
X144234819Y-56042017D02*
X144282438Y-55946779D01*
X144282438Y-55946779D02*
X144330057Y-55899160D01*
X144330057Y-55899160D02*
X144425295Y-55851541D01*
X144425295Y-55851541D02*
X144472914Y-55851541D01*
X144472914Y-55851541D02*
X144568152Y-55899160D01*
X144568152Y-55899160D02*
X144615771Y-55946779D01*
X144615771Y-55946779D02*
X144663390Y-56042017D01*
X144663390Y-56042017D02*
X144663390Y-56232493D01*
X144663390Y-56232493D02*
X144711009Y-56327731D01*
X144711009Y-56327731D02*
X144758628Y-56375350D01*
X144758628Y-56375350D02*
X144853866Y-56422969D01*
X144853866Y-56422969D02*
X145044342Y-56422969D01*
X145044342Y-56422969D02*
X145139580Y-56375350D01*
X145139580Y-56375350D02*
X145187200Y-56327731D01*
X145187200Y-56327731D02*
X145234819Y-56232493D01*
X145234819Y-56232493D02*
X145234819Y-56042017D01*
X145234819Y-56042017D02*
X145187200Y-55946779D01*
X145187200Y-55946779D02*
X145139580Y-55899160D01*
X145139580Y-55899160D02*
X145044342Y-55851541D01*
X145044342Y-55851541D02*
X144853866Y-55851541D01*
X144853866Y-55851541D02*
X144758628Y-55899160D01*
X144758628Y-55899160D02*
X144711009Y-55946779D01*
X144711009Y-55946779D02*
X144663390Y-56042017D01*
X144234819Y-55232493D02*
X144234819Y-55137255D01*
X144234819Y-55137255D02*
X144282438Y-55042017D01*
X144282438Y-55042017D02*
X144330057Y-54994398D01*
X144330057Y-54994398D02*
X144425295Y-54946779D01*
X144425295Y-54946779D02*
X144615771Y-54899160D01*
X144615771Y-54899160D02*
X144853866Y-54899160D01*
X144853866Y-54899160D02*
X145044342Y-54946779D01*
X145044342Y-54946779D02*
X145139580Y-54994398D01*
X145139580Y-54994398D02*
X145187200Y-55042017D01*
X145187200Y-55042017D02*
X145234819Y-55137255D01*
X145234819Y-55137255D02*
X145234819Y-55232493D01*
X145234819Y-55232493D02*
X145187200Y-55327731D01*
X145187200Y-55327731D02*
X145139580Y-55375350D01*
X145139580Y-55375350D02*
X145044342Y-55422969D01*
X145044342Y-55422969D02*
X144853866Y-55470588D01*
X144853866Y-55470588D02*
X144615771Y-55470588D01*
X144615771Y-55470588D02*
X144425295Y-55422969D01*
X144425295Y-55422969D02*
X144330057Y-55375350D01*
X144330057Y-55375350D02*
X144282438Y-55327731D01*
X144282438Y-55327731D02*
X144234819Y-55232493D01*
X154871009Y-69513220D02*
X154871009Y-69179887D01*
X155394819Y-69037030D02*
X155394819Y-69513220D01*
X155394819Y-69513220D02*
X154394819Y-69513220D01*
X154394819Y-69513220D02*
X154394819Y-69037030D01*
X154394819Y-68132268D02*
X154394819Y-68608458D01*
X154394819Y-68608458D02*
X154871009Y-68656077D01*
X154871009Y-68656077D02*
X154823390Y-68608458D01*
X154823390Y-68608458D02*
X154775771Y-68513220D01*
X154775771Y-68513220D02*
X154775771Y-68275125D01*
X154775771Y-68275125D02*
X154823390Y-68179887D01*
X154823390Y-68179887D02*
X154871009Y-68132268D01*
X154871009Y-68132268D02*
X154966247Y-68084649D01*
X154966247Y-68084649D02*
X155204342Y-68084649D01*
X155204342Y-68084649D02*
X155299580Y-68132268D01*
X155299580Y-68132268D02*
X155347200Y-68179887D01*
X155347200Y-68179887D02*
X155394819Y-68275125D01*
X155394819Y-68275125D02*
X155394819Y-68513220D01*
X155394819Y-68513220D02*
X155347200Y-68608458D01*
X155347200Y-68608458D02*
X155299580Y-68656077D01*
X154394819Y-67465601D02*
X154394819Y-67370363D01*
X154394819Y-67370363D02*
X154442438Y-67275125D01*
X154442438Y-67275125D02*
X154490057Y-67227506D01*
X154490057Y-67227506D02*
X154585295Y-67179887D01*
X154585295Y-67179887D02*
X154775771Y-67132268D01*
X154775771Y-67132268D02*
X155013866Y-67132268D01*
X155013866Y-67132268D02*
X155204342Y-67179887D01*
X155204342Y-67179887D02*
X155299580Y-67227506D01*
X155299580Y-67227506D02*
X155347200Y-67275125D01*
X155347200Y-67275125D02*
X155394819Y-67370363D01*
X155394819Y-67370363D02*
X155394819Y-67465601D01*
X155394819Y-67465601D02*
X155347200Y-67560839D01*
X155347200Y-67560839D02*
X155299580Y-67608458D01*
X155299580Y-67608458D02*
X155204342Y-67656077D01*
X155204342Y-67656077D02*
X155013866Y-67703696D01*
X155013866Y-67703696D02*
X154775771Y-67703696D01*
X154775771Y-67703696D02*
X154585295Y-67656077D01*
X154585295Y-67656077D02*
X154490057Y-67608458D01*
X154490057Y-67608458D02*
X154442438Y-67560839D01*
X154442438Y-67560839D02*
X154394819Y-67465601D01*
X195939580Y-68941792D02*
X195987200Y-68989411D01*
X195987200Y-68989411D02*
X196034819Y-69132268D01*
X196034819Y-69132268D02*
X196034819Y-69227506D01*
X196034819Y-69227506D02*
X195987200Y-69370363D01*
X195987200Y-69370363D02*
X195891961Y-69465601D01*
X195891961Y-69465601D02*
X195796723Y-69513220D01*
X195796723Y-69513220D02*
X195606247Y-69560839D01*
X195606247Y-69560839D02*
X195463390Y-69560839D01*
X195463390Y-69560839D02*
X195272914Y-69513220D01*
X195272914Y-69513220D02*
X195177676Y-69465601D01*
X195177676Y-69465601D02*
X195082438Y-69370363D01*
X195082438Y-69370363D02*
X195034819Y-69227506D01*
X195034819Y-69227506D02*
X195034819Y-69132268D01*
X195034819Y-69132268D02*
X195082438Y-68989411D01*
X195082438Y-68989411D02*
X195130057Y-68941792D01*
X195034819Y-68608458D02*
X195034819Y-67989411D01*
X195034819Y-67989411D02*
X195415771Y-68322744D01*
X195415771Y-68322744D02*
X195415771Y-68179887D01*
X195415771Y-68179887D02*
X195463390Y-68084649D01*
X195463390Y-68084649D02*
X195511009Y-68037030D01*
X195511009Y-68037030D02*
X195606247Y-67989411D01*
X195606247Y-67989411D02*
X195844342Y-67989411D01*
X195844342Y-67989411D02*
X195939580Y-68037030D01*
X195939580Y-68037030D02*
X195987200Y-68084649D01*
X195987200Y-68084649D02*
X196034819Y-68179887D01*
X196034819Y-68179887D02*
X196034819Y-68465601D01*
X196034819Y-68465601D02*
X195987200Y-68560839D01*
X195987200Y-68560839D02*
X195939580Y-68608458D01*
X195034819Y-67370363D02*
X195034819Y-67275125D01*
X195034819Y-67275125D02*
X195082438Y-67179887D01*
X195082438Y-67179887D02*
X195130057Y-67132268D01*
X195130057Y-67132268D02*
X195225295Y-67084649D01*
X195225295Y-67084649D02*
X195415771Y-67037030D01*
X195415771Y-67037030D02*
X195653866Y-67037030D01*
X195653866Y-67037030D02*
X195844342Y-67084649D01*
X195844342Y-67084649D02*
X195939580Y-67132268D01*
X195939580Y-67132268D02*
X195987200Y-67179887D01*
X195987200Y-67179887D02*
X196034819Y-67275125D01*
X196034819Y-67275125D02*
X196034819Y-67370363D01*
X196034819Y-67370363D02*
X195987200Y-67465601D01*
X195987200Y-67465601D02*
X195939580Y-67513220D01*
X195939580Y-67513220D02*
X195844342Y-67560839D01*
X195844342Y-67560839D02*
X195653866Y-67608458D01*
X195653866Y-67608458D02*
X195415771Y-67608458D01*
X195415771Y-67608458D02*
X195225295Y-67560839D01*
X195225295Y-67560839D02*
X195130057Y-67513220D01*
X195130057Y-67513220D02*
X195082438Y-67465601D01*
X195082438Y-67465601D02*
X195034819Y-67370363D01*
X205671009Y-57042017D02*
X205718628Y-56899160D01*
X205718628Y-56899160D02*
X205766247Y-56851541D01*
X205766247Y-56851541D02*
X205861485Y-56803922D01*
X205861485Y-56803922D02*
X206004342Y-56803922D01*
X206004342Y-56803922D02*
X206099580Y-56851541D01*
X206099580Y-56851541D02*
X206147200Y-56899160D01*
X206147200Y-56899160D02*
X206194819Y-56994398D01*
X206194819Y-56994398D02*
X206194819Y-57375350D01*
X206194819Y-57375350D02*
X205194819Y-57375350D01*
X205194819Y-57375350D02*
X205194819Y-57042017D01*
X205194819Y-57042017D02*
X205242438Y-56946779D01*
X205242438Y-56946779D02*
X205290057Y-56899160D01*
X205290057Y-56899160D02*
X205385295Y-56851541D01*
X205385295Y-56851541D02*
X205480533Y-56851541D01*
X205480533Y-56851541D02*
X205575771Y-56899160D01*
X205575771Y-56899160D02*
X205623390Y-56946779D01*
X205623390Y-56946779D02*
X205671009Y-57042017D01*
X205671009Y-57042017D02*
X205671009Y-57375350D01*
X206194819Y-55851541D02*
X206194819Y-56422969D01*
X206194819Y-56137255D02*
X205194819Y-56137255D01*
X205194819Y-56137255D02*
X205337676Y-56232493D01*
X205337676Y-56232493D02*
X205432914Y-56327731D01*
X205432914Y-56327731D02*
X205480533Y-56422969D01*
X205194819Y-54994398D02*
X205194819Y-55184874D01*
X205194819Y-55184874D02*
X205242438Y-55280112D01*
X205242438Y-55280112D02*
X205290057Y-55327731D01*
X205290057Y-55327731D02*
X205432914Y-55422969D01*
X205432914Y-55422969D02*
X205623390Y-55470588D01*
X205623390Y-55470588D02*
X206004342Y-55470588D01*
X206004342Y-55470588D02*
X206099580Y-55422969D01*
X206099580Y-55422969D02*
X206147200Y-55375350D01*
X206147200Y-55375350D02*
X206194819Y-55280112D01*
X206194819Y-55280112D02*
X206194819Y-55089636D01*
X206194819Y-55089636D02*
X206147200Y-54994398D01*
X206147200Y-54994398D02*
X206099580Y-54946779D01*
X206099580Y-54946779D02*
X206004342Y-54899160D01*
X206004342Y-54899160D02*
X205766247Y-54899160D01*
X205766247Y-54899160D02*
X205671009Y-54946779D01*
X205671009Y-54946779D02*
X205623390Y-54994398D01*
X205623390Y-54994398D02*
X205575771Y-55089636D01*
X205575771Y-55089636D02*
X205575771Y-55280112D01*
X205575771Y-55280112D02*
X205623390Y-55375350D01*
X205623390Y-55375350D02*
X205671009Y-55422969D01*
X205671009Y-55422969D02*
X205766247Y-55470588D01*
X160474819Y-57422969D02*
X159474819Y-57422969D01*
X159951009Y-57422969D02*
X159951009Y-56851541D01*
X160474819Y-56851541D02*
X159474819Y-56851541D01*
X159474819Y-56470588D02*
X159474819Y-55803922D01*
X159474819Y-55803922D02*
X160474819Y-56232493D01*
X159474819Y-55518207D02*
X159474819Y-54899160D01*
X159474819Y-54899160D02*
X159855771Y-55232493D01*
X159855771Y-55232493D02*
X159855771Y-55089636D01*
X159855771Y-55089636D02*
X159903390Y-54994398D01*
X159903390Y-54994398D02*
X159951009Y-54946779D01*
X159951009Y-54946779D02*
X160046247Y-54899160D01*
X160046247Y-54899160D02*
X160284342Y-54899160D01*
X160284342Y-54899160D02*
X160379580Y-54946779D01*
X160379580Y-54946779D02*
X160427200Y-54994398D01*
X160427200Y-54994398D02*
X160474819Y-55089636D01*
X160474819Y-55089636D02*
X160474819Y-55375350D01*
X160474819Y-55375350D02*
X160427200Y-55470588D01*
X160427200Y-55470588D02*
X160379580Y-55518207D01*
X173174819Y-69513220D02*
X172174819Y-69513220D01*
X172174819Y-69513220D02*
X172174819Y-69275125D01*
X172174819Y-69275125D02*
X172222438Y-69132268D01*
X172222438Y-69132268D02*
X172317676Y-69037030D01*
X172317676Y-69037030D02*
X172412914Y-68989411D01*
X172412914Y-68989411D02*
X172603390Y-68941792D01*
X172603390Y-68941792D02*
X172746247Y-68941792D01*
X172746247Y-68941792D02*
X172936723Y-68989411D01*
X172936723Y-68989411D02*
X173031961Y-69037030D01*
X173031961Y-69037030D02*
X173127200Y-69132268D01*
X173127200Y-69132268D02*
X173174819Y-69275125D01*
X173174819Y-69275125D02*
X173174819Y-69513220D01*
X172508152Y-68084649D02*
X173174819Y-68084649D01*
X172127200Y-68322744D02*
X172841485Y-68560839D01*
X172841485Y-68560839D02*
X172841485Y-67941792D01*
X173174819Y-67037030D02*
X173174819Y-67608458D01*
X173174819Y-67322744D02*
X172174819Y-67322744D01*
X172174819Y-67322744D02*
X172317676Y-67417982D01*
X172317676Y-67417982D02*
X172412914Y-67513220D01*
X172412914Y-67513220D02*
X172460533Y-67608458D01*
X162062438Y-56851541D02*
X162014819Y-56946779D01*
X162014819Y-56946779D02*
X162014819Y-57089636D01*
X162014819Y-57089636D02*
X162062438Y-57232493D01*
X162062438Y-57232493D02*
X162157676Y-57327731D01*
X162157676Y-57327731D02*
X162252914Y-57375350D01*
X162252914Y-57375350D02*
X162443390Y-57422969D01*
X162443390Y-57422969D02*
X162586247Y-57422969D01*
X162586247Y-57422969D02*
X162776723Y-57375350D01*
X162776723Y-57375350D02*
X162871961Y-57327731D01*
X162871961Y-57327731D02*
X162967200Y-57232493D01*
X162967200Y-57232493D02*
X163014819Y-57089636D01*
X163014819Y-57089636D02*
X163014819Y-56994398D01*
X163014819Y-56994398D02*
X162967200Y-56851541D01*
X162967200Y-56851541D02*
X162919580Y-56803922D01*
X162919580Y-56803922D02*
X162586247Y-56803922D01*
X162586247Y-56803922D02*
X162586247Y-56994398D01*
X162014819Y-56470588D02*
X162014819Y-55803922D01*
X162014819Y-55803922D02*
X163014819Y-56232493D01*
X162014819Y-55232493D02*
X162014819Y-55137255D01*
X162014819Y-55137255D02*
X162062438Y-55042017D01*
X162062438Y-55042017D02*
X162110057Y-54994398D01*
X162110057Y-54994398D02*
X162205295Y-54946779D01*
X162205295Y-54946779D02*
X162395771Y-54899160D01*
X162395771Y-54899160D02*
X162633866Y-54899160D01*
X162633866Y-54899160D02*
X162824342Y-54946779D01*
X162824342Y-54946779D02*
X162919580Y-54994398D01*
X162919580Y-54994398D02*
X162967200Y-55042017D01*
X162967200Y-55042017D02*
X163014819Y-55137255D01*
X163014819Y-55137255D02*
X163014819Y-55232493D01*
X163014819Y-55232493D02*
X162967200Y-55327731D01*
X162967200Y-55327731D02*
X162919580Y-55375350D01*
X162919580Y-55375350D02*
X162824342Y-55422969D01*
X162824342Y-55422969D02*
X162633866Y-55470588D01*
X162633866Y-55470588D02*
X162395771Y-55470588D01*
X162395771Y-55470588D02*
X162205295Y-55422969D01*
X162205295Y-55422969D02*
X162110057Y-55375350D01*
X162110057Y-55375350D02*
X162062438Y-55327731D01*
X162062438Y-55327731D02*
X162014819Y-55232493D01*
X215402438Y-56994398D02*
X215354819Y-57089636D01*
X215354819Y-57089636D02*
X215354819Y-57232493D01*
X215354819Y-57232493D02*
X215402438Y-57375350D01*
X215402438Y-57375350D02*
X215497676Y-57470588D01*
X215497676Y-57470588D02*
X215592914Y-57518207D01*
X215592914Y-57518207D02*
X215783390Y-57565826D01*
X215783390Y-57565826D02*
X215926247Y-57565826D01*
X215926247Y-57565826D02*
X216116723Y-57518207D01*
X216116723Y-57518207D02*
X216211961Y-57470588D01*
X216211961Y-57470588D02*
X216307200Y-57375350D01*
X216307200Y-57375350D02*
X216354819Y-57232493D01*
X216354819Y-57232493D02*
X216354819Y-57137255D01*
X216354819Y-57137255D02*
X216307200Y-56994398D01*
X216307200Y-56994398D02*
X216259580Y-56946779D01*
X216259580Y-56946779D02*
X215926247Y-56946779D01*
X215926247Y-56946779D02*
X215926247Y-57137255D01*
X216354819Y-56518207D02*
X215354819Y-56518207D01*
X215354819Y-56518207D02*
X216354819Y-55946779D01*
X216354819Y-55946779D02*
X215354819Y-55946779D01*
X216354819Y-55470588D02*
X215354819Y-55470588D01*
X215354819Y-55470588D02*
X215354819Y-55232493D01*
X215354819Y-55232493D02*
X215402438Y-55089636D01*
X215402438Y-55089636D02*
X215497676Y-54994398D01*
X215497676Y-54994398D02*
X215592914Y-54946779D01*
X215592914Y-54946779D02*
X215783390Y-54899160D01*
X215783390Y-54899160D02*
X215926247Y-54899160D01*
X215926247Y-54899160D02*
X216116723Y-54946779D01*
X216116723Y-54946779D02*
X216211961Y-54994398D01*
X216211961Y-54994398D02*
X216307200Y-55089636D01*
X216307200Y-55089636D02*
X216354819Y-55232493D01*
X216354819Y-55232493D02*
X216354819Y-55470588D01*
X126186333Y-59085580D02*
X126138714Y-59133200D01*
X126138714Y-59133200D02*
X125995857Y-59180819D01*
X125995857Y-59180819D02*
X125900619Y-59180819D01*
X125900619Y-59180819D02*
X125757762Y-59133200D01*
X125757762Y-59133200D02*
X125662524Y-59037961D01*
X125662524Y-59037961D02*
X125614905Y-58942723D01*
X125614905Y-58942723D02*
X125567286Y-58752247D01*
X125567286Y-58752247D02*
X125567286Y-58609390D01*
X125567286Y-58609390D02*
X125614905Y-58418914D01*
X125614905Y-58418914D02*
X125662524Y-58323676D01*
X125662524Y-58323676D02*
X125757762Y-58228438D01*
X125757762Y-58228438D02*
X125900619Y-58180819D01*
X125900619Y-58180819D02*
X125995857Y-58180819D01*
X125995857Y-58180819D02*
X126138714Y-58228438D01*
X126138714Y-58228438D02*
X126186333Y-58276057D01*
X127138714Y-59180819D02*
X126567286Y-59180819D01*
X126853000Y-59180819D02*
X126853000Y-58180819D01*
X126853000Y-58180819D02*
X126757762Y-58323676D01*
X126757762Y-58323676D02*
X126662524Y-58418914D01*
X126662524Y-58418914D02*
X126567286Y-58466533D01*
D11*
X124083199Y-60781000D02*
X124483199Y-60781000D01*
X124283199Y-60581000D02*
X124283199Y-60981000D01*
X126353000Y-59896000D02*
X126353000Y-61136000D01*
X126353000Y-62816000D02*
X126353000Y-64056000D01*
X126393000Y-59896000D02*
X126393000Y-61136000D01*
X126393000Y-62816000D02*
X126393000Y-64056000D01*
X126433000Y-59897000D02*
X126433000Y-61136000D01*
X126433000Y-62816000D02*
X126433000Y-64055000D01*
X126473000Y-59899000D02*
X126473000Y-61136000D01*
X126473000Y-62816000D02*
X126473000Y-64053000D01*
X126513000Y-59902000D02*
X126513000Y-61136000D01*
X126513000Y-62816000D02*
X126513000Y-64050000D01*
X126553000Y-59905000D02*
X126553000Y-61136000D01*
X126553000Y-62816000D02*
X126553000Y-64047000D01*
X126593000Y-59909000D02*
X126593000Y-61136000D01*
X126593000Y-62816000D02*
X126593000Y-64043000D01*
X126633000Y-59914000D02*
X126633000Y-61136000D01*
X126633000Y-62816000D02*
X126633000Y-64038000D01*
X126673000Y-59920000D02*
X126673000Y-61136000D01*
X126673000Y-62816000D02*
X126673000Y-64032000D01*
X126713000Y-59926000D02*
X126713000Y-61136000D01*
X126713000Y-62816000D02*
X126713000Y-64026000D01*
X126753000Y-59934000D02*
X126753000Y-61136000D01*
X126753000Y-62816000D02*
X126753000Y-64018000D01*
X126793000Y-59942000D02*
X126793000Y-61136000D01*
X126793000Y-62816000D02*
X126793000Y-64010000D01*
X126833000Y-59951000D02*
X126833000Y-61136000D01*
X126833000Y-62816000D02*
X126833000Y-64001000D01*
X126873000Y-59960000D02*
X126873000Y-61136000D01*
X126873000Y-62816000D02*
X126873000Y-63992000D01*
X126913000Y-59971000D02*
X126913000Y-61136000D01*
X126913000Y-62816000D02*
X126913000Y-63981000D01*
X126953000Y-59982000D02*
X126953000Y-61136000D01*
X126953000Y-62816000D02*
X126953000Y-63970000D01*
X126993000Y-59994000D02*
X126993000Y-61136000D01*
X126993000Y-62816000D02*
X126993000Y-63958000D01*
X127033000Y-60008000D02*
X127033000Y-61136000D01*
X127033000Y-62816000D02*
X127033000Y-63944000D01*
X127074000Y-60022000D02*
X127074000Y-61136000D01*
X127074000Y-62816000D02*
X127074000Y-63930000D01*
X127114000Y-60036000D02*
X127114000Y-61136000D01*
X127114000Y-62816000D02*
X127114000Y-63916000D01*
X127154000Y-60052000D02*
X127154000Y-61136000D01*
X127154000Y-62816000D02*
X127154000Y-63900000D01*
X127194000Y-60069000D02*
X127194000Y-61136000D01*
X127194000Y-62816000D02*
X127194000Y-63883000D01*
X127234000Y-60087000D02*
X127234000Y-61136000D01*
X127234000Y-62816000D02*
X127234000Y-63865000D01*
X127274000Y-60106000D02*
X127274000Y-61136000D01*
X127274000Y-62816000D02*
X127274000Y-63846000D01*
X127314000Y-60125000D02*
X127314000Y-61136000D01*
X127314000Y-62816000D02*
X127314000Y-63827000D01*
X127354000Y-60146000D02*
X127354000Y-61136000D01*
X127354000Y-62816000D02*
X127354000Y-63806000D01*
X127394000Y-60168000D02*
X127394000Y-61136000D01*
X127394000Y-62816000D02*
X127394000Y-63784000D01*
X127434000Y-60191000D02*
X127434000Y-61136000D01*
X127434000Y-62816000D02*
X127434000Y-63761000D01*
X127474000Y-60216000D02*
X127474000Y-61136000D01*
X127474000Y-62816000D02*
X127474000Y-63736000D01*
X127514000Y-60241000D02*
X127514000Y-61136000D01*
X127514000Y-62816000D02*
X127514000Y-63711000D01*
X127554000Y-60268000D02*
X127554000Y-61136000D01*
X127554000Y-62816000D02*
X127554000Y-63684000D01*
X127594000Y-60296000D02*
X127594000Y-61136000D01*
X127594000Y-62816000D02*
X127594000Y-63656000D01*
X127634000Y-60326000D02*
X127634000Y-61136000D01*
X127634000Y-62816000D02*
X127634000Y-63626000D01*
X127674000Y-60357000D02*
X127674000Y-61136000D01*
X127674000Y-62816000D02*
X127674000Y-63595000D01*
X127714000Y-60389000D02*
X127714000Y-61136000D01*
X127714000Y-62816000D02*
X127714000Y-63563000D01*
X127754000Y-60424000D02*
X127754000Y-61136000D01*
X127754000Y-62816000D02*
X127754000Y-63528000D01*
X127794000Y-60460000D02*
X127794000Y-61136000D01*
X127794000Y-62816000D02*
X127794000Y-63492000D01*
X127834000Y-60498000D02*
X127834000Y-61136000D01*
X127834000Y-62816000D02*
X127834000Y-63454000D01*
X127874000Y-60538000D02*
X127874000Y-61136000D01*
X127874000Y-62816000D02*
X127874000Y-63414000D01*
X127914000Y-60580000D02*
X127914000Y-61136000D01*
X127914000Y-62816000D02*
X127914000Y-63372000D01*
X127954000Y-60625000D02*
X127954000Y-63327000D01*
X127994000Y-60672000D02*
X127994000Y-63280000D01*
X128034000Y-60722000D02*
X128034000Y-63230000D01*
X128074000Y-60776000D02*
X128074000Y-63176000D01*
X128114000Y-60834000D02*
X128114000Y-63118000D01*
X128154000Y-60896000D02*
X128154000Y-63056000D01*
X128194000Y-60963000D02*
X128194000Y-62989000D01*
X128234000Y-61036000D02*
X128234000Y-62916000D01*
X128274000Y-61117000D02*
X128274000Y-62835000D01*
X128314000Y-61208000D02*
X128314000Y-62744000D01*
X128354000Y-61312000D02*
X128354000Y-62640000D01*
X128394000Y-61439000D02*
X128394000Y-62513000D01*
X128434000Y-61606000D02*
X128434000Y-62346000D01*
X128473000Y-61976000D02*
G75*
G03*
X128473000Y-61976000I-2120000J0D01*
G01*
X104931981Y-51181000D02*
G75*
G03*
X104931981Y-51181000I-283981J0D01*
G01*
X76466000Y-52197000D02*
X85586000Y-52197000D01*
X76466000Y-60180000D02*
X77776000Y-60180000D01*
X76466000Y-72263000D02*
X76466000Y-52197000D01*
X77776000Y-53240000D02*
X84276000Y-53240000D01*
X77776000Y-60180000D02*
X77776000Y-53240000D01*
X77776000Y-64280000D02*
X76466000Y-64280000D01*
X77776000Y-64280000D02*
X77776000Y-64280000D01*
X77776000Y-71220000D02*
X77776000Y-64280000D01*
X79256000Y-54753000D02*
X79756000Y-55753000D01*
X79756000Y-55753000D02*
X80256000Y-54753000D01*
X80256000Y-54753000D02*
X79256000Y-54753000D01*
X84276000Y-53240000D02*
X84276000Y-71220000D01*
X84276000Y-71220000D02*
X77776000Y-71220000D01*
X85586000Y-52197000D02*
X85586000Y-72263000D01*
X85586000Y-72263000D02*
X76466000Y-72263000D01*
%LPC*%
D12*
X125603000Y-61976000D03*
D13*
X127103000Y-61976000D03*
D14*
X104648000Y-46990000D03*
D15*
X104648000Y-49530000D03*
X102108000Y-46990000D03*
X102108000Y-49530000D03*
X99568000Y-46990000D03*
X99568000Y-49530000D03*
X97028000Y-46990000D03*
X97028000Y-49530000D03*
X94488000Y-46990000D03*
X94488000Y-49530000D03*
X91948000Y-46990000D03*
X89408000Y-49530000D03*
X91948000Y-49530000D03*
X89408000Y-52070000D03*
X91948000Y-52070000D03*
X89408000Y-54610000D03*
X91948000Y-54610000D03*
X89408000Y-57150000D03*
X91948000Y-57150000D03*
X89408000Y-59690000D03*
X91948000Y-59690000D03*
X89408000Y-62230000D03*
X91948000Y-62230000D03*
X89408000Y-64770000D03*
X91948000Y-64770000D03*
X89408000Y-67310000D03*
X91948000Y-67310000D03*
X89408000Y-69850000D03*
X91948000Y-69850000D03*
X89408000Y-72390000D03*
X91948000Y-72390000D03*
X89408000Y-74930000D03*
X91948000Y-77470000D03*
X91948000Y-74930000D03*
X94488000Y-77470000D03*
X94488000Y-74930000D03*
X97028000Y-77470000D03*
X97028000Y-74930000D03*
X99568000Y-77470000D03*
X99568000Y-74930000D03*
X102108000Y-77470000D03*
X102108000Y-74930000D03*
X104648000Y-77470000D03*
X104648000Y-74930000D03*
X107188000Y-77470000D03*
X107188000Y-74930000D03*
X109728000Y-77470000D03*
X109728000Y-74930000D03*
X112268000Y-77470000D03*
X112268000Y-74930000D03*
X114808000Y-77470000D03*
X114808000Y-74930000D03*
X117348000Y-77470000D03*
X119888000Y-74930000D03*
X117348000Y-74930000D03*
X119888000Y-72390000D03*
X117348000Y-72390000D03*
X119888000Y-69850000D03*
X117348000Y-69850000D03*
X119888000Y-67310000D03*
X117348000Y-67310000D03*
X119888000Y-64770000D03*
X117348000Y-64770000D03*
X119888000Y-62230000D03*
X117348000Y-62230000D03*
X119888000Y-59690000D03*
X117348000Y-59690000D03*
X119888000Y-57150000D03*
X117348000Y-57150000D03*
X119888000Y-54610000D03*
X117348000Y-54610000D03*
X119888000Y-52070000D03*
X117348000Y-52070000D03*
X119888000Y-49530000D03*
X117348000Y-46990000D03*
X117348000Y-49530000D03*
X114808000Y-46990000D03*
X114808000Y-49530000D03*
X112268000Y-46990000D03*
X112268000Y-49530000D03*
X109728000Y-46990000D03*
X109728000Y-49530000D03*
X107188000Y-46990000D03*
X107188000Y-49530000D03*
D16*
X79756000Y-57150000D03*
D17*
X82296000Y-57150000D03*
X79756000Y-59690000D03*
X82296000Y-59690000D03*
X79756000Y-62230000D03*
X82296000Y-62230000D03*
X79756000Y-64770000D03*
X82296000Y-64770000D03*
X79756000Y-67310000D03*
X82296000Y-67310000D03*
D18*
X129535000Y-71120000D03*
D19*
X132075000Y-71120000D03*
X134615000Y-71120000D03*
X137155000Y-71120000D03*
X139695000Y-71120000D03*
X142235000Y-71120000D03*
X144775000Y-71120000D03*
X147315000Y-71120000D03*
X149855000Y-71120000D03*
X152395000Y-71120000D03*
X154935000Y-71120000D03*
X157475000Y-71120000D03*
X160015000Y-71120000D03*
X162555000Y-71120000D03*
X165095000Y-71120000D03*
X167635000Y-71120000D03*
X170175000Y-71120000D03*
X172715000Y-71120000D03*
X175255000Y-71120000D03*
X177795000Y-71120000D03*
X180335000Y-71120000D03*
X182875000Y-71120000D03*
X185415000Y-71120000D03*
X187955000Y-71120000D03*
X190495000Y-71120000D03*
X193035000Y-71120000D03*
X195575000Y-71120000D03*
X198115000Y-71120000D03*
X200655000Y-71120000D03*
X203195000Y-71120000D03*
X205735000Y-71120000D03*
X208275000Y-71120000D03*
X210815000Y-71120000D03*
X213355000Y-71120000D03*
X215895000Y-71120000D03*
D18*
X129540000Y-53340000D03*
D19*
X132080000Y-53340000D03*
X134620000Y-53340000D03*
X137160000Y-53340000D03*
X139700000Y-53340000D03*
X142240000Y-53340000D03*
X144780000Y-53340000D03*
X147320000Y-53340000D03*
X149860000Y-53340000D03*
X152400000Y-53340000D03*
X154940000Y-53340000D03*
X157480000Y-53340000D03*
X160020000Y-53340000D03*
X162560000Y-53340000D03*
X165100000Y-53340000D03*
X167640000Y-53340000D03*
X170180000Y-53340000D03*
X172720000Y-53340000D03*
X175260000Y-53340000D03*
X177800000Y-53340000D03*
X180340000Y-53340000D03*
X182880000Y-53340000D03*
X185420000Y-53340000D03*
X187960000Y-53340000D03*
X190500000Y-53340000D03*
X193040000Y-53340000D03*
X195580000Y-53340000D03*
X198120000Y-53340000D03*
X200660000Y-53340000D03*
X203200000Y-53340000D03*
X205740000Y-53340000D03*
X208280000Y-53340000D03*
X210820000Y-53340000D03*
X213360000Y-53340000D03*
X215900000Y-53340000D03*
%LPD*%
M02*
