%TF.GenerationSoftware,KiCad,Pcbnew,7.0.5-0*%
%TF.CreationDate,2023-06-22T13:56:17+02:00*%
%TF.ProjectId,atf1508_plcc84_breakout,61746631-3530-4385-9f70-6c636338345f,A*%
%TF.SameCoordinates,Original*%
%TF.FileFunction,Drillmap*%
%TF.FilePolarity,Positive*%
%FSLAX45Y45*%
G04 Gerber Fmt 4.5, Leading zero omitted, Abs format (unit mm)*
G04 Created by KiCad (PCBNEW 7.0.5-0) date 2023-06-22 13:56:17*
%MOMM*%
%LPD*%
G01*
G04 APERTURE LIST*
%ADD10C,0.100000*%
%ADD11C,0.200000*%
G04 APERTURE END LIST*
D10*
X12115800Y-7874000D02*
X12750800Y-7239000D01*
X9067800Y-4572000D02*
X8432800Y-5207000D01*
X9067800Y-7874000D02*
X12115800Y-7874000D01*
X21717000Y-7239000D02*
X12750800Y-7239000D01*
X8432800Y-5207000D02*
X7632700Y-5207000D01*
X9067800Y-7874000D02*
X8432800Y-7239000D01*
X9067800Y-4572000D02*
X12115800Y-4572000D01*
X21717000Y-5207000D02*
X21717000Y-7239000D01*
X12750800Y-5207000D02*
X12115800Y-4572000D01*
X7632700Y-7239000D02*
X7632700Y-5207000D01*
X12750800Y-5207000D02*
X21717000Y-5207000D01*
X8432800Y-7239000D02*
X7632700Y-7239000D01*
D11*
X7888477Y-8190484D02*
X7888477Y-7990484D01*
X7888477Y-7990484D02*
X7936096Y-7990484D01*
X7936096Y-7990484D02*
X7964667Y-8000008D01*
X7964667Y-8000008D02*
X7983715Y-8019055D01*
X7983715Y-8019055D02*
X7993239Y-8038103D01*
X7993239Y-8038103D02*
X8002762Y-8076198D01*
X8002762Y-8076198D02*
X8002762Y-8104769D01*
X8002762Y-8104769D02*
X7993239Y-8142865D01*
X7993239Y-8142865D02*
X7983715Y-8161912D01*
X7983715Y-8161912D02*
X7964667Y-8180960D01*
X7964667Y-8180960D02*
X7936096Y-8190484D01*
X7936096Y-8190484D02*
X7888477Y-8190484D01*
X8088477Y-8190484D02*
X8088477Y-8057150D01*
X8088477Y-8095246D02*
X8098001Y-8076198D01*
X8098001Y-8076198D02*
X8107524Y-8066674D01*
X8107524Y-8066674D02*
X8126572Y-8057150D01*
X8126572Y-8057150D02*
X8145620Y-8057150D01*
X8212286Y-8190484D02*
X8212286Y-8057150D01*
X8212286Y-7990484D02*
X8202762Y-8000008D01*
X8202762Y-8000008D02*
X8212286Y-8009531D01*
X8212286Y-8009531D02*
X8221810Y-8000008D01*
X8221810Y-8000008D02*
X8212286Y-7990484D01*
X8212286Y-7990484D02*
X8212286Y-8009531D01*
X8336096Y-8190484D02*
X8317048Y-8180960D01*
X8317048Y-8180960D02*
X8307524Y-8161912D01*
X8307524Y-8161912D02*
X8307524Y-7990484D01*
X8440858Y-8190484D02*
X8421810Y-8180960D01*
X8421810Y-8180960D02*
X8412286Y-8161912D01*
X8412286Y-8161912D02*
X8412286Y-7990484D01*
X8669429Y-8190484D02*
X8669429Y-7990484D01*
X8669429Y-7990484D02*
X8736096Y-8133341D01*
X8736096Y-8133341D02*
X8802763Y-7990484D01*
X8802763Y-7990484D02*
X8802763Y-8190484D01*
X8983715Y-8190484D02*
X8983715Y-8085722D01*
X8983715Y-8085722D02*
X8974191Y-8066674D01*
X8974191Y-8066674D02*
X8955144Y-8057150D01*
X8955144Y-8057150D02*
X8917048Y-8057150D01*
X8917048Y-8057150D02*
X8898001Y-8066674D01*
X8983715Y-8180960D02*
X8964667Y-8190484D01*
X8964667Y-8190484D02*
X8917048Y-8190484D01*
X8917048Y-8190484D02*
X8898001Y-8180960D01*
X8898001Y-8180960D02*
X8888477Y-8161912D01*
X8888477Y-8161912D02*
X8888477Y-8142865D01*
X8888477Y-8142865D02*
X8898001Y-8123817D01*
X8898001Y-8123817D02*
X8917048Y-8114293D01*
X8917048Y-8114293D02*
X8964667Y-8114293D01*
X8964667Y-8114293D02*
X8983715Y-8104769D01*
X9078953Y-8057150D02*
X9078953Y-8257150D01*
X9078953Y-8066674D02*
X9098001Y-8057150D01*
X9098001Y-8057150D02*
X9136096Y-8057150D01*
X9136096Y-8057150D02*
X9155144Y-8066674D01*
X9155144Y-8066674D02*
X9164667Y-8076198D01*
X9164667Y-8076198D02*
X9174191Y-8095246D01*
X9174191Y-8095246D02*
X9174191Y-8152388D01*
X9174191Y-8152388D02*
X9164667Y-8171436D01*
X9164667Y-8171436D02*
X9155144Y-8180960D01*
X9155144Y-8180960D02*
X9136096Y-8190484D01*
X9136096Y-8190484D02*
X9098001Y-8190484D01*
X9098001Y-8190484D02*
X9078953Y-8180960D01*
X9259905Y-8171436D02*
X9269429Y-8180960D01*
X9269429Y-8180960D02*
X9259905Y-8190484D01*
X9259905Y-8190484D02*
X9250382Y-8180960D01*
X9250382Y-8180960D02*
X9259905Y-8171436D01*
X9259905Y-8171436D02*
X9259905Y-8190484D01*
X9259905Y-8066674D02*
X9269429Y-8076198D01*
X9269429Y-8076198D02*
X9259905Y-8085722D01*
X9259905Y-8085722D02*
X9250382Y-8076198D01*
X9250382Y-8076198D02*
X9259905Y-8066674D01*
X9259905Y-8066674D02*
X9259905Y-8085722D01*
M02*
