G04 #@! TF.GenerationSoftware,KiCad,Pcbnew,(6.0.11-0)*
G04 #@! TF.CreationDate,2023-06-20T14:40:52+02:00*
G04 #@! TF.ProjectId,atf1508_plcc84_breakout,61746631-3530-4385-9f70-6c636338345f,A*
G04 #@! TF.SameCoordinates,Original*
G04 #@! TF.FileFunction,Legend,Bot*
G04 #@! TF.FilePolarity,Positive*
%FSLAX46Y46*%
G04 Gerber Fmt 4.6, Leading zero omitted, Abs format (unit mm)*
G04 Created by KiCad (PCBNEW (6.0.11-0)) date 2023-06-20 14:40:52*
%MOMM*%
%LPD*%
G01*
G04 APERTURE LIST*
G04 Aperture macros list*
%AMRoundRect*
0 Rectangle with rounded corners*
0 $1 Rounding radius*
0 $2 $3 $4 $5 $6 $7 $8 $9 X,Y pos of 4 corners*
0 Add a 4 corners polygon primitive as box body*
4,1,4,$2,$3,$4,$5,$6,$7,$8,$9,$2,$3,0*
0 Add four circle primitives for the rounded corners*
1,1,$1+$1,$2,$3*
1,1,$1+$1,$4,$5*
1,1,$1+$1,$6,$7*
1,1,$1+$1,$8,$9*
0 Add four rect primitives between the rounded corners*
20,1,$1+$1,$2,$3,$4,$5,0*
20,1,$1+$1,$4,$5,$6,$7,0*
20,1,$1+$1,$6,$7,$8,$9,0*
20,1,$1+$1,$8,$9,$2,$3,0*%
G04 Aperture macros list end*
%ADD10C,0.150000*%
%ADD11C,0.120000*%
%ADD12R,1.422400X1.422400*%
%ADD13C,1.422400*%
%ADD14RoundRect,0.250000X-0.600000X-0.600000X0.600000X-0.600000X0.600000X0.600000X-0.600000X0.600000X0*%
%ADD15C,1.700000*%
%ADD16RoundRect,0.250000X0.337500X0.475000X-0.337500X0.475000X-0.337500X-0.475000X0.337500X-0.475000X0*%
%ADD17RoundRect,0.250000X-0.337500X-0.475000X0.337500X-0.475000X0.337500X0.475000X-0.337500X0.475000X0*%
%ADD18RoundRect,0.250000X-0.475000X0.337500X-0.475000X-0.337500X0.475000X-0.337500X0.475000X0.337500X0*%
%ADD19R,1.700000X1.700000*%
%ADD20O,1.700000X1.700000*%
%ADD21RoundRect,0.250000X0.475000X-0.337500X0.475000X0.337500X-0.475000X0.337500X-0.475000X-0.337500X0*%
G04 APERTURE END LIST*
D10*
X213072023Y-60786666D02*
X212595833Y-60786666D01*
X213167261Y-61072380D02*
X212833928Y-60072380D01*
X212500595Y-61072380D01*
X212310119Y-60072380D02*
X211738690Y-60072380D01*
X212024404Y-61072380D02*
X212024404Y-60072380D01*
X211072023Y-60548571D02*
X211405357Y-60548571D01*
X211405357Y-61072380D02*
X211405357Y-60072380D01*
X210929166Y-60072380D01*
X210024404Y-61072380D02*
X210595833Y-61072380D01*
X210310119Y-61072380D02*
X210310119Y-60072380D01*
X210405357Y-60215238D01*
X210500595Y-60310476D01*
X210595833Y-60358095D01*
X209119642Y-60072380D02*
X209595833Y-60072380D01*
X209643452Y-60548571D01*
X209595833Y-60500952D01*
X209500595Y-60453333D01*
X209262500Y-60453333D01*
X209167261Y-60500952D01*
X209119642Y-60548571D01*
X209072023Y-60643809D01*
X209072023Y-60881904D01*
X209119642Y-60977142D01*
X209167261Y-61024761D01*
X209262500Y-61072380D01*
X209500595Y-61072380D01*
X209595833Y-61024761D01*
X209643452Y-60977142D01*
X208452976Y-60072380D02*
X208357738Y-60072380D01*
X208262500Y-60120000D01*
X208214880Y-60167619D01*
X208167261Y-60262857D01*
X208119642Y-60453333D01*
X208119642Y-60691428D01*
X208167261Y-60881904D01*
X208214880Y-60977142D01*
X208262500Y-61024761D01*
X208357738Y-61072380D01*
X208452976Y-61072380D01*
X208548214Y-61024761D01*
X208595833Y-60977142D01*
X208643452Y-60881904D01*
X208691071Y-60691428D01*
X208691071Y-60453333D01*
X208643452Y-60262857D01*
X208595833Y-60167619D01*
X208548214Y-60120000D01*
X208452976Y-60072380D01*
X207548214Y-60500952D02*
X207643452Y-60453333D01*
X207691071Y-60405714D01*
X207738690Y-60310476D01*
X207738690Y-60262857D01*
X207691071Y-60167619D01*
X207643452Y-60120000D01*
X207548214Y-60072380D01*
X207357738Y-60072380D01*
X207262500Y-60120000D01*
X207214880Y-60167619D01*
X207167261Y-60262857D01*
X207167261Y-60310476D01*
X207214880Y-60405714D01*
X207262500Y-60453333D01*
X207357738Y-60500952D01*
X207548214Y-60500952D01*
X207643452Y-60548571D01*
X207691071Y-60596190D01*
X207738690Y-60691428D01*
X207738690Y-60881904D01*
X207691071Y-60977142D01*
X207643452Y-61024761D01*
X207548214Y-61072380D01*
X207357738Y-61072380D01*
X207262500Y-61024761D01*
X207214880Y-60977142D01*
X207167261Y-60881904D01*
X207167261Y-60691428D01*
X207214880Y-60596190D01*
X207262500Y-60548571D01*
X207357738Y-60500952D01*
X205643452Y-60548571D02*
X205500595Y-60596190D01*
X205452976Y-60643809D01*
X205405357Y-60739047D01*
X205405357Y-60881904D01*
X205452976Y-60977142D01*
X205500595Y-61024761D01*
X205595833Y-61072380D01*
X205976785Y-61072380D01*
X205976785Y-60072380D01*
X205643452Y-60072380D01*
X205548214Y-60120000D01*
X205500595Y-60167619D01*
X205452976Y-60262857D01*
X205452976Y-60358095D01*
X205500595Y-60453333D01*
X205548214Y-60500952D01*
X205643452Y-60548571D01*
X205976785Y-60548571D01*
X204976785Y-61072380D02*
X204976785Y-60405714D01*
X204976785Y-60596190D02*
X204929166Y-60500952D01*
X204881547Y-60453333D01*
X204786309Y-60405714D01*
X204691071Y-60405714D01*
X203976785Y-61024761D02*
X204072023Y-61072380D01*
X204262500Y-61072380D01*
X204357738Y-61024761D01*
X204405357Y-60929523D01*
X204405357Y-60548571D01*
X204357738Y-60453333D01*
X204262500Y-60405714D01*
X204072023Y-60405714D01*
X203976785Y-60453333D01*
X203929166Y-60548571D01*
X203929166Y-60643809D01*
X204405357Y-60739047D01*
X203072023Y-61072380D02*
X203072023Y-60548571D01*
X203119642Y-60453333D01*
X203214880Y-60405714D01*
X203405357Y-60405714D01*
X203500595Y-60453333D01*
X203072023Y-61024761D02*
X203167261Y-61072380D01*
X203405357Y-61072380D01*
X203500595Y-61024761D01*
X203548214Y-60929523D01*
X203548214Y-60834285D01*
X203500595Y-60739047D01*
X203405357Y-60691428D01*
X203167261Y-60691428D01*
X203072023Y-60643809D01*
X202595833Y-61072380D02*
X202595833Y-60072380D01*
X202500595Y-60691428D02*
X202214880Y-61072380D01*
X202214880Y-60405714D02*
X202595833Y-60786666D01*
X201643452Y-61072380D02*
X201738690Y-61024761D01*
X201786309Y-60977142D01*
X201833928Y-60881904D01*
X201833928Y-60596190D01*
X201786309Y-60500952D01*
X201738690Y-60453333D01*
X201643452Y-60405714D01*
X201500595Y-60405714D01*
X201405357Y-60453333D01*
X201357738Y-60500952D01*
X201310119Y-60596190D01*
X201310119Y-60881904D01*
X201357738Y-60977142D01*
X201405357Y-61024761D01*
X201500595Y-61072380D01*
X201643452Y-61072380D01*
X200452976Y-60405714D02*
X200452976Y-61072380D01*
X200881547Y-60405714D02*
X200881547Y-60929523D01*
X200833928Y-61024761D01*
X200738690Y-61072380D01*
X200595833Y-61072380D01*
X200500595Y-61024761D01*
X200452976Y-60977142D01*
X200119642Y-60405714D02*
X199738690Y-60405714D01*
X199976785Y-60072380D02*
X199976785Y-60929523D01*
X199929166Y-61024761D01*
X199833928Y-61072380D01*
X199738690Y-61072380D01*
X213072023Y-61777619D02*
X213024404Y-61730000D01*
X212929166Y-61682380D01*
X212691071Y-61682380D01*
X212595833Y-61730000D01*
X212548214Y-61777619D01*
X212500595Y-61872857D01*
X212500595Y-61968095D01*
X212548214Y-62110952D01*
X213119642Y-62682380D01*
X212500595Y-62682380D01*
X211881547Y-61682380D02*
X211786309Y-61682380D01*
X211691071Y-61730000D01*
X211643452Y-61777619D01*
X211595833Y-61872857D01*
X211548214Y-62063333D01*
X211548214Y-62301428D01*
X211595833Y-62491904D01*
X211643452Y-62587142D01*
X211691071Y-62634761D01*
X211786309Y-62682380D01*
X211881547Y-62682380D01*
X211976785Y-62634761D01*
X212024404Y-62587142D01*
X212072023Y-62491904D01*
X212119642Y-62301428D01*
X212119642Y-62063333D01*
X212072023Y-61872857D01*
X212024404Y-61777619D01*
X211976785Y-61730000D01*
X211881547Y-61682380D01*
X211167261Y-61777619D02*
X211119642Y-61730000D01*
X211024404Y-61682380D01*
X210786309Y-61682380D01*
X210691071Y-61730000D01*
X210643452Y-61777619D01*
X210595833Y-61872857D01*
X210595833Y-61968095D01*
X210643452Y-62110952D01*
X211214880Y-62682380D01*
X210595833Y-62682380D01*
X210262500Y-61682380D02*
X209643452Y-61682380D01*
X209976785Y-62063333D01*
X209833928Y-62063333D01*
X209738690Y-62110952D01*
X209691071Y-62158571D01*
X209643452Y-62253809D01*
X209643452Y-62491904D01*
X209691071Y-62587142D01*
X209738690Y-62634761D01*
X209833928Y-62682380D01*
X210119642Y-62682380D01*
X210214880Y-62634761D01*
X210262500Y-62587142D01*
X209214880Y-62301428D02*
X208452976Y-62301428D01*
X207786309Y-61682380D02*
X207691071Y-61682380D01*
X207595833Y-61730000D01*
X207548214Y-61777619D01*
X207500595Y-61872857D01*
X207452976Y-62063333D01*
X207452976Y-62301428D01*
X207500595Y-62491904D01*
X207548214Y-62587142D01*
X207595833Y-62634761D01*
X207691071Y-62682380D01*
X207786309Y-62682380D01*
X207881547Y-62634761D01*
X207929166Y-62587142D01*
X207976785Y-62491904D01*
X208024404Y-62301428D01*
X208024404Y-62063333D01*
X207976785Y-61872857D01*
X207929166Y-61777619D01*
X207881547Y-61730000D01*
X207786309Y-61682380D01*
X206595833Y-61682380D02*
X206786309Y-61682380D01*
X206881547Y-61730000D01*
X206929166Y-61777619D01*
X207024404Y-61920476D01*
X207072023Y-62110952D01*
X207072023Y-62491904D01*
X207024404Y-62587142D01*
X206976785Y-62634761D01*
X206881547Y-62682380D01*
X206691071Y-62682380D01*
X206595833Y-62634761D01*
X206548214Y-62587142D01*
X206500595Y-62491904D01*
X206500595Y-62253809D01*
X206548214Y-62158571D01*
X206595833Y-62110952D01*
X206691071Y-62063333D01*
X206881547Y-62063333D01*
X206976785Y-62110952D01*
X207024404Y-62158571D01*
X207072023Y-62253809D01*
X206072023Y-62301428D02*
X205310119Y-62301428D01*
X204310119Y-62682380D02*
X204881547Y-62682380D01*
X204595833Y-62682380D02*
X204595833Y-61682380D01*
X204691071Y-61825238D01*
X204786309Y-61920476D01*
X204881547Y-61968095D01*
X203976785Y-61682380D02*
X203310119Y-61682380D01*
X203738690Y-62682380D01*
X202167261Y-62301428D02*
X201405357Y-62301428D01*
X199595833Y-62682380D02*
X199929166Y-62206190D01*
X200167261Y-62682380D02*
X200167261Y-61682380D01*
X199786309Y-61682380D01*
X199691071Y-61730000D01*
X199643452Y-61777619D01*
X199595833Y-61872857D01*
X199595833Y-62015714D01*
X199643452Y-62110952D01*
X199691071Y-62158571D01*
X199786309Y-62206190D01*
X200167261Y-62206190D01*
X198786309Y-62634761D02*
X198881547Y-62682380D01*
X199072023Y-62682380D01*
X199167261Y-62634761D01*
X199214880Y-62539523D01*
X199214880Y-62158571D01*
X199167261Y-62063333D01*
X199072023Y-62015714D01*
X198881547Y-62015714D01*
X198786309Y-62063333D01*
X198738690Y-62158571D01*
X198738690Y-62253809D01*
X199214880Y-62349047D01*
X198405357Y-62015714D02*
X198167261Y-62682380D01*
X197929166Y-62015714D01*
X196833928Y-62396666D02*
X196357738Y-62396666D01*
X196929166Y-62682380D02*
X196595833Y-61682380D01*
X196262500Y-62682380D01*
X213072023Y-64006666D02*
X212595833Y-64006666D01*
X213167261Y-64292380D02*
X212833928Y-63292380D01*
X212500595Y-64292380D01*
X211738690Y-64292380D02*
X211738690Y-63292380D01*
X211738690Y-64244761D02*
X211833928Y-64292380D01*
X212024404Y-64292380D01*
X212119642Y-64244761D01*
X212167261Y-64197142D01*
X212214880Y-64101904D01*
X212214880Y-63816190D01*
X212167261Y-63720952D01*
X212119642Y-63673333D01*
X212024404Y-63625714D01*
X211833928Y-63625714D01*
X211738690Y-63673333D01*
X211262500Y-64292380D02*
X211262500Y-63625714D01*
X211262500Y-63816190D02*
X211214880Y-63720952D01*
X211167261Y-63673333D01*
X211072023Y-63625714D01*
X210976785Y-63625714D01*
X210643452Y-64292380D02*
X210643452Y-63625714D01*
X210643452Y-63292380D02*
X210691071Y-63340000D01*
X210643452Y-63387619D01*
X210595833Y-63340000D01*
X210643452Y-63292380D01*
X210643452Y-63387619D01*
X209786309Y-64244761D02*
X209881547Y-64292380D01*
X210072023Y-64292380D01*
X210167261Y-64244761D01*
X210214880Y-64149523D01*
X210214880Y-63768571D01*
X210167261Y-63673333D01*
X210072023Y-63625714D01*
X209881547Y-63625714D01*
X209786309Y-63673333D01*
X209738690Y-63768571D01*
X209738690Y-63863809D01*
X210214880Y-63959047D01*
X209310119Y-63625714D02*
X209310119Y-64292380D01*
X209310119Y-63720952D02*
X209262500Y-63673333D01*
X209167261Y-63625714D01*
X209024404Y-63625714D01*
X208929166Y-63673333D01*
X208881547Y-63768571D01*
X208881547Y-64292380D01*
X207643452Y-64292380D02*
X207643452Y-63292380D01*
X207072023Y-64292380D02*
X207500595Y-63720952D01*
X207072023Y-63292380D02*
X207643452Y-63863809D01*
X206500595Y-64292380D02*
X206595833Y-64244761D01*
X206643452Y-64197142D01*
X206691071Y-64101904D01*
X206691071Y-63816190D01*
X206643452Y-63720952D01*
X206595833Y-63673333D01*
X206500595Y-63625714D01*
X206357738Y-63625714D01*
X206262500Y-63673333D01*
X206214880Y-63720952D01*
X206167261Y-63816190D01*
X206167261Y-64101904D01*
X206214880Y-64197142D01*
X206262500Y-64244761D01*
X206357738Y-64292380D01*
X206500595Y-64292380D01*
X205738690Y-64292380D02*
X205738690Y-63292380D01*
X205310119Y-64292380D02*
X205310119Y-63768571D01*
X205357738Y-63673333D01*
X205452976Y-63625714D01*
X205595833Y-63625714D01*
X205691071Y-63673333D01*
X205738690Y-63720952D01*
X204691071Y-64292380D02*
X204786309Y-64244761D01*
X204833928Y-64149523D01*
X204833928Y-63292380D01*
X204310119Y-64292380D02*
X204310119Y-63292380D01*
X204310119Y-63673333D02*
X204214880Y-63625714D01*
X204024404Y-63625714D01*
X203929166Y-63673333D01*
X203881547Y-63720952D01*
X203833928Y-63816190D01*
X203833928Y-64101904D01*
X203881547Y-64197142D01*
X203929166Y-64244761D01*
X204024404Y-64292380D01*
X204214880Y-64292380D01*
X204310119Y-64244761D01*
X203024404Y-64244761D02*
X203119642Y-64292380D01*
X203310119Y-64292380D01*
X203405357Y-64244761D01*
X203452976Y-64149523D01*
X203452976Y-63768571D01*
X203405357Y-63673333D01*
X203310119Y-63625714D01*
X203119642Y-63625714D01*
X203024404Y-63673333D01*
X202976785Y-63768571D01*
X202976785Y-63863809D01*
X203452976Y-63959047D01*
X202119642Y-64244761D02*
X202214880Y-64292380D01*
X202405357Y-64292380D01*
X202500595Y-64244761D01*
X202548214Y-64197142D01*
X202595833Y-64101904D01*
X202595833Y-63816190D01*
X202548214Y-63720952D01*
X202500595Y-63673333D01*
X202405357Y-63625714D01*
X202214880Y-63625714D01*
X202119642Y-63673333D01*
X201691071Y-64292380D02*
X201691071Y-63292380D01*
X201595833Y-63911428D02*
X201310119Y-64292380D01*
X201310119Y-63625714D02*
X201691071Y-64006666D01*
X200500595Y-64244761D02*
X200595833Y-64292380D01*
X200786309Y-64292380D01*
X200881547Y-64244761D01*
X200929166Y-64149523D01*
X200929166Y-63768571D01*
X200881547Y-63673333D01*
X200786309Y-63625714D01*
X200595833Y-63625714D01*
X200500595Y-63673333D01*
X200452976Y-63768571D01*
X200452976Y-63863809D01*
X200929166Y-63959047D01*
X200024404Y-64292380D02*
X200024404Y-63625714D01*
X200024404Y-63816190D02*
X199976785Y-63720952D01*
X199929166Y-63673333D01*
X199833928Y-63625714D01*
X199738690Y-63625714D01*
D11*
X112529252Y-53313000D02*
X112006748Y-53313000D01*
X112529252Y-51843000D02*
X112006748Y-51843000D01*
X109339748Y-61114000D02*
X109862252Y-61114000D01*
X109339748Y-62584000D02*
X109862252Y-62584000D01*
X94134000Y-53227248D02*
X94134000Y-53749752D01*
X95604000Y-53227248D02*
X95604000Y-53749752D01*
X99306748Y-72744000D02*
X99829252Y-72744000D01*
X99306748Y-71274000D02*
X99829252Y-71274000D01*
X94134000Y-70858748D02*
X94134000Y-71381252D01*
X95604000Y-70858748D02*
X95604000Y-71381252D01*
X106926748Y-71274000D02*
X107449252Y-71274000D01*
X106926748Y-72744000D02*
X107449252Y-72744000D01*
X115162000Y-71381252D02*
X115162000Y-70858748D01*
X113692000Y-71381252D02*
X113692000Y-70858748D01*
X115162000Y-56014252D02*
X115162000Y-55491748D01*
X113692000Y-56014252D02*
X113692000Y-55491748D01*
X99829252Y-51843000D02*
X99306748Y-51843000D01*
X99829252Y-53313000D02*
X99306748Y-53313000D01*
%LPC*%
D12*
X104648000Y-46990000D03*
D13*
X104648000Y-49530000D03*
X102108000Y-46990000D03*
X102108000Y-49530000D03*
X99568000Y-46990000D03*
X99568000Y-49530000D03*
X97028000Y-46990000D03*
X97028000Y-49530000D03*
X94488000Y-46990000D03*
X94488000Y-49530000D03*
X91948000Y-46990000D03*
X89408000Y-49530000D03*
X91948000Y-49530000D03*
X89408000Y-52070000D03*
X91948000Y-52070000D03*
X89408000Y-54610000D03*
X91948000Y-54610000D03*
X89408000Y-57150000D03*
X91948000Y-57150000D03*
X89408000Y-59690000D03*
X91948000Y-59690000D03*
X89408000Y-62230000D03*
X91948000Y-62230000D03*
X89408000Y-64770000D03*
X91948000Y-64770000D03*
X89408000Y-67310000D03*
X91948000Y-67310000D03*
X89408000Y-69850000D03*
X91948000Y-69850000D03*
X89408000Y-72390000D03*
X91948000Y-72390000D03*
X89408000Y-74930000D03*
X91948000Y-77470000D03*
X91948000Y-74930000D03*
X94488000Y-77470000D03*
X94488000Y-74930000D03*
X97028000Y-77470000D03*
X97028000Y-74930000D03*
X99568000Y-77470000D03*
X99568000Y-74930000D03*
X102108000Y-77470000D03*
X102108000Y-74930000D03*
X104648000Y-77470000D03*
X104648000Y-74930000D03*
X107188000Y-77470000D03*
X107188000Y-74930000D03*
X109728000Y-77470000D03*
X109728000Y-74930000D03*
X112268000Y-77470000D03*
X112268000Y-74930000D03*
X114808000Y-77470000D03*
X114808000Y-74930000D03*
X117348000Y-77470000D03*
X119888000Y-74930000D03*
X117348000Y-74930000D03*
X119888000Y-72390000D03*
X117348000Y-72390000D03*
X119888000Y-69850000D03*
X117348000Y-69850000D03*
X119888000Y-67310000D03*
X117348000Y-67310000D03*
X119888000Y-64770000D03*
X117348000Y-64770000D03*
X119888000Y-62230000D03*
X117348000Y-62230000D03*
X119888000Y-59690000D03*
X117348000Y-59690000D03*
X119888000Y-57150000D03*
X117348000Y-57150000D03*
X119888000Y-54610000D03*
X117348000Y-54610000D03*
X119888000Y-52070000D03*
X117348000Y-52070000D03*
X119888000Y-49530000D03*
X117348000Y-46990000D03*
X117348000Y-49530000D03*
X114808000Y-46990000D03*
X114808000Y-49530000D03*
X112268000Y-46990000D03*
X112268000Y-49530000D03*
X109728000Y-46990000D03*
X109728000Y-49530000D03*
X107188000Y-46990000D03*
X107188000Y-49530000D03*
D14*
X79756000Y-57150000D03*
D15*
X82296000Y-57150000D03*
X79756000Y-59690000D03*
X82296000Y-59690000D03*
X79756000Y-62230000D03*
X82296000Y-62230000D03*
X79756000Y-64770000D03*
X82296000Y-64770000D03*
X79756000Y-67310000D03*
X82296000Y-67310000D03*
D16*
X113305500Y-52578000D03*
X111230500Y-52578000D03*
D17*
X108563500Y-61849000D03*
X110638500Y-61849000D03*
D18*
X94869000Y-52451000D03*
X94869000Y-54526000D03*
D17*
X98530500Y-72009000D03*
X100605500Y-72009000D03*
D18*
X94869000Y-70082500D03*
X94869000Y-72157500D03*
D19*
X129535000Y-71120000D03*
D20*
X132075000Y-71120000D03*
X134615000Y-71120000D03*
X137155000Y-71120000D03*
X139695000Y-71120000D03*
X142235000Y-71120000D03*
X144775000Y-71120000D03*
X147315000Y-71120000D03*
X149855000Y-71120000D03*
X152395000Y-71120000D03*
X154935000Y-71120000D03*
X157475000Y-71120000D03*
X160015000Y-71120000D03*
X162555000Y-71120000D03*
X165095000Y-71120000D03*
X167635000Y-71120000D03*
X170175000Y-71120000D03*
X172715000Y-71120000D03*
X175255000Y-71120000D03*
X177795000Y-71120000D03*
X180335000Y-71120000D03*
X182875000Y-71120000D03*
X185415000Y-71120000D03*
X187955000Y-71120000D03*
X190495000Y-71120000D03*
X193035000Y-71120000D03*
X195575000Y-71120000D03*
X198115000Y-71120000D03*
X200655000Y-71120000D03*
X203195000Y-71120000D03*
X205735000Y-71120000D03*
X208275000Y-71120000D03*
X210815000Y-71120000D03*
X213355000Y-71120000D03*
X215895000Y-71120000D03*
D17*
X106150500Y-72009000D03*
X108225500Y-72009000D03*
D21*
X114427000Y-72157500D03*
X114427000Y-70082500D03*
D19*
X129540000Y-53340000D03*
D20*
X132080000Y-53340000D03*
X134620000Y-53340000D03*
X137160000Y-53340000D03*
X139700000Y-53340000D03*
X142240000Y-53340000D03*
X144780000Y-53340000D03*
X147320000Y-53340000D03*
X149860000Y-53340000D03*
X152400000Y-53340000D03*
X154940000Y-53340000D03*
X157480000Y-53340000D03*
X160020000Y-53340000D03*
X162560000Y-53340000D03*
X165100000Y-53340000D03*
X167640000Y-53340000D03*
X170180000Y-53340000D03*
X172720000Y-53340000D03*
X175260000Y-53340000D03*
X177800000Y-53340000D03*
X180340000Y-53340000D03*
X182880000Y-53340000D03*
X185420000Y-53340000D03*
X187960000Y-53340000D03*
X190500000Y-53340000D03*
X193040000Y-53340000D03*
X195580000Y-53340000D03*
X198120000Y-53340000D03*
X200660000Y-53340000D03*
X203200000Y-53340000D03*
X205740000Y-53340000D03*
X208280000Y-53340000D03*
X210820000Y-53340000D03*
X213360000Y-53340000D03*
X215900000Y-53340000D03*
D21*
X114427000Y-56790500D03*
X114427000Y-54715500D03*
D16*
X100605500Y-52578000D03*
X98530500Y-52578000D03*
M02*
