%TF.GenerationSoftware,KiCad,Pcbnew,(6.0.11-0)*%
%TF.CreationDate,2023-06-20T17:34:37+02:00*%
%TF.ProjectId,atf1508_plcc84_breakout,61746631-3530-4385-9f70-6c636338345f,A*%
%TF.SameCoordinates,Original*%
%TF.FileFunction,Drillmap*%
%TF.FilePolarity,Positive*%
%FSLAX45Y45*%
G04 Gerber Fmt 4.5, Leading zero omitted, Abs format (unit mm)*
G04 Created by KiCad (PCBNEW (6.0.11-0)) date 2023-06-20 17:34:37*
%MOMM*%
%LPD*%
G01*
G04 APERTURE LIST*
%ADD10C,0.100000*%
%ADD11C,0.200000*%
%ADD12C,0.030000*%
%ADD13C,0.040000*%
%ADD14C,0.080000*%
G04 APERTURE END LIST*
D10*
X12115800Y-7874000D02*
X12750800Y-7239000D01*
X9067800Y-4572000D02*
X8432800Y-5207000D01*
X9067800Y-7874000D02*
X12115800Y-7874000D01*
X21717000Y-7239000D02*
X12750800Y-7239000D01*
X8432800Y-5207000D02*
X7632700Y-5207000D01*
X9067800Y-7874000D02*
X8432800Y-7239000D01*
X9067800Y-4572000D02*
X12115800Y-4572000D01*
X21717000Y-5207000D02*
X21717000Y-7239000D01*
X12750800Y-5207000D02*
X12115800Y-4572000D01*
X7632700Y-7239000D02*
X7632700Y-5207000D01*
X12750800Y-5207000D02*
X21717000Y-5207000D01*
X8432800Y-7239000D02*
X7632700Y-7239000D01*
D11*
D12*
X8468600Y-6030200D02*
X8498600Y-6060200D01*
X8498600Y-6030200D02*
X8468600Y-6060200D01*
X9332200Y-6106400D02*
X9362200Y-6136400D01*
X9362200Y-6106400D02*
X9332200Y-6136400D01*
X9497300Y-5598400D02*
X9527300Y-5628400D01*
X9527300Y-5598400D02*
X9497300Y-5628400D01*
X9560800Y-5674600D02*
X9590800Y-5704600D01*
X9590800Y-5674600D02*
X9560800Y-5704600D01*
X9624300Y-5738100D02*
X9654300Y-5768100D01*
X9654300Y-5738100D02*
X9624300Y-5768100D01*
X9878300Y-6512800D02*
X9908300Y-6542800D01*
X9908300Y-6512800D02*
X9878300Y-6542800D01*
X10526000Y-5357100D02*
X10556000Y-5387100D01*
X10556000Y-5357100D02*
X10526000Y-5387100D01*
X10767300Y-5738100D02*
X10797300Y-5768100D01*
X10797300Y-5738100D02*
X10767300Y-5768100D01*
X10792700Y-5153900D02*
X10822700Y-5183900D01*
X10822700Y-5153900D02*
X10792700Y-5183900D01*
X10830800Y-5788900D02*
X10860800Y-5818900D01*
X10860800Y-5788900D02*
X10830800Y-5818900D01*
X10843500Y-5217400D02*
X10873500Y-5247400D01*
X10873500Y-5217400D02*
X10843500Y-5247400D01*
X10902450Y-5827000D02*
X10932450Y-5857000D01*
X10932450Y-5827000D02*
X10902450Y-5857000D01*
X10907000Y-5268200D02*
X10937000Y-5298200D01*
X10937000Y-5268200D02*
X10907000Y-5298200D01*
X11199100Y-6093700D02*
X11229100Y-6123700D01*
X11229100Y-6093700D02*
X11199100Y-6123700D01*
X11199100Y-6614400D02*
X11229100Y-6644400D01*
X11229100Y-6614400D02*
X11199100Y-6644400D01*
X11262600Y-6144500D02*
X11292600Y-6174500D01*
X11292600Y-6144500D02*
X11262600Y-6174500D01*
X11300700Y-6677900D02*
X11330700Y-6707900D01*
X11330700Y-6677900D02*
X11300700Y-6707900D01*
X11351500Y-6157200D02*
X11381500Y-6187200D01*
X11381500Y-6157200D02*
X11351500Y-6187200D01*
X11376900Y-6614400D02*
X11406900Y-6644400D01*
X11406900Y-6614400D02*
X11376900Y-6644400D01*
X11389600Y-6271500D02*
X11419600Y-6301500D01*
X11419600Y-6271500D02*
X11389600Y-6301500D01*
X11415000Y-6841905D02*
X11445000Y-6871905D01*
X11445000Y-6841905D02*
X11415000Y-6871905D01*
X11465800Y-6309600D02*
X11495800Y-6339600D01*
X11495800Y-6309600D02*
X11465800Y-6339600D01*
X11491200Y-5192000D02*
X11521200Y-5222000D01*
X11521200Y-5192000D02*
X11491200Y-5222000D01*
X11503900Y-6385800D02*
X11533900Y-6415800D01*
X11533900Y-6385800D02*
X11503900Y-6415800D01*
X11529300Y-6817600D02*
X11559300Y-6847600D01*
X11559300Y-6817600D02*
X11529300Y-6847600D01*
X11554700Y-6741400D02*
X11584700Y-6771400D01*
X11584700Y-6741400D02*
X11554700Y-6771400D01*
X11567400Y-5166600D02*
X11597400Y-5196600D01*
X11597400Y-5166600D02*
X11567400Y-5196600D01*
X11567400Y-5585700D02*
X11597400Y-5615700D01*
X11597400Y-5585700D02*
X11567400Y-5615700D01*
X11567400Y-5674600D02*
X11597400Y-5704600D01*
X11597400Y-5674600D02*
X11567400Y-5704600D01*
X11580100Y-5763500D02*
X11610100Y-5793500D01*
X11610100Y-5763500D02*
X11580100Y-5793500D01*
X11592800Y-5268200D02*
X11622800Y-5298200D01*
X11622800Y-5268200D02*
X11592800Y-5298200D01*
X11834100Y-6398500D02*
X11864100Y-6428500D01*
X11864100Y-6398500D02*
X11834100Y-6428500D01*
X12202400Y-6627100D02*
X12232400Y-6657100D01*
X12232400Y-6627100D02*
X12202400Y-6657100D01*
X12253200Y-6563600D02*
X12283200Y-6593600D01*
X12283200Y-6563600D02*
X12253200Y-6593600D01*
X12748500Y-6995400D02*
X12778500Y-7025400D01*
X12778500Y-6995400D02*
X12748500Y-7025400D01*
X12824700Y-6906500D02*
X12854700Y-6936500D01*
X12854700Y-6906500D02*
X12824700Y-6936500D01*
X12913600Y-6893800D02*
X12943600Y-6923800D01*
X12943600Y-6893800D02*
X12913600Y-6923800D01*
X12964400Y-5865100D02*
X12994400Y-5895100D01*
X12994400Y-5865100D02*
X12964400Y-5895100D01*
X13091400Y-5877800D02*
X13121400Y-5907800D01*
X13121400Y-5877800D02*
X13091400Y-5907800D01*
X13134480Y-5656920D02*
X13164480Y-5686920D01*
X13164480Y-5656920D02*
X13134480Y-5686920D01*
X13358100Y-6868400D02*
X13388100Y-6898400D01*
X13388100Y-6868400D02*
X13358100Y-6898400D01*
X13561300Y-5661900D02*
X13591300Y-5691900D01*
X13591300Y-5661900D02*
X13561300Y-5691900D01*
X13828000Y-5611100D02*
X13858000Y-5641100D01*
X13858000Y-5611100D02*
X13828000Y-5641100D01*
X13853400Y-6792200D02*
X13883400Y-6822200D01*
X13883400Y-6792200D02*
X13853400Y-6822200D01*
X13904200Y-6728700D02*
X13934200Y-6758700D01*
X13934200Y-6728700D02*
X13904200Y-6758700D01*
X14062950Y-6798550D02*
X14092950Y-6828550D01*
X14092950Y-6798550D02*
X14062950Y-6828550D01*
X14177250Y-6735050D02*
X14207250Y-6765050D01*
X14207250Y-6735050D02*
X14177250Y-6765050D01*
X14259800Y-6716000D02*
X14289800Y-6746000D01*
X14289800Y-6716000D02*
X14259800Y-6746000D01*
X14323300Y-5547600D02*
X14353300Y-5577600D01*
X14353300Y-5547600D02*
X14323300Y-5577600D01*
X14577300Y-5522200D02*
X14607300Y-5552200D01*
X14607300Y-5522200D02*
X14577300Y-5552200D01*
X14808985Y-5436385D02*
X14838985Y-5466385D01*
X14838985Y-5436385D02*
X14808985Y-5466385D01*
X15967950Y-5642850D02*
X15997950Y-5672850D01*
X15997950Y-5642850D02*
X15967950Y-5672850D01*
X16190200Y-5649200D02*
X16220200Y-5679200D01*
X16220200Y-5649200D02*
X16190200Y-5679200D01*
X16310850Y-5680950D02*
X16340850Y-5710950D01*
X16340850Y-5680950D02*
X16310850Y-5710950D01*
X16596600Y-5712700D02*
X16626600Y-5742700D01*
X16626600Y-5712700D02*
X16596600Y-5742700D01*
X16698200Y-5750800D02*
X16728200Y-5780800D01*
X16728200Y-5750800D02*
X16698200Y-5780800D01*
X16812500Y-5763500D02*
X16842500Y-5793500D01*
X16842500Y-5763500D02*
X16812500Y-5793500D01*
X17003000Y-5865100D02*
X17033000Y-5895100D01*
X17033000Y-5865100D02*
X17003000Y-5895100D01*
X17282400Y-5877800D02*
X17312400Y-5907800D01*
X17312400Y-5877800D02*
X17282400Y-5907800D01*
X17396700Y-5877800D02*
X17426700Y-5907800D01*
X17426700Y-5877800D02*
X17396700Y-5907800D01*
D13*
X9684700Y-5245100D02*
G75*
G03*
X9684700Y-5245100I-20000J0D01*
G01*
X9748549Y-7188549D02*
G75*
G03*
X9748549Y-7188549I-20000J0D01*
G01*
X10078400Y-5410200D02*
G75*
G03*
X10078400Y-5410200I-20000J0D01*
G01*
X10227100Y-7090300D02*
G75*
G03*
X10227100Y-7090300I-20000J0D01*
G01*
X10345100Y-5749235D02*
G75*
G03*
X10345100Y-5749235I-20000J0D01*
G01*
X10738800Y-7327900D02*
G75*
G03*
X10738800Y-7327900I-20000J0D01*
G01*
X10856964Y-7058033D02*
G75*
G03*
X10856964Y-7058033I-20000J0D01*
G01*
X10994650Y-5653350D02*
G75*
G03*
X10994650Y-5653350I-20000J0D01*
G01*
X11041450Y-7215750D02*
G75*
G03*
X11041450Y-7215750I-20000J0D01*
G01*
X11094131Y-5528152D02*
G75*
G03*
X11094131Y-5528152I-20000J0D01*
G01*
X11193850Y-5676630D02*
G75*
G03*
X11193850Y-5676630I-20000J0D01*
G01*
X11239902Y-5512915D02*
G75*
G03*
X11239902Y-5512915I-20000J0D01*
G01*
X15818800Y-5651500D02*
G75*
G03*
X15818800Y-5651500I-20000J0D01*
G01*
D14*
X8940800Y-4913000D02*
X8940800Y-4993000D01*
X8900800Y-4953000D02*
X8980800Y-4953000D01*
X8940800Y-5167000D02*
X8940800Y-5247000D01*
X8900800Y-5207000D02*
X8980800Y-5207000D01*
X8940800Y-5421000D02*
X8940800Y-5501000D01*
X8900800Y-5461000D02*
X8980800Y-5461000D01*
X8940800Y-5675000D02*
X8940800Y-5755000D01*
X8900800Y-5715000D02*
X8980800Y-5715000D01*
X8940800Y-5929000D02*
X8940800Y-6009000D01*
X8900800Y-5969000D02*
X8980800Y-5969000D01*
X8940800Y-6183000D02*
X8940800Y-6263000D01*
X8900800Y-6223000D02*
X8980800Y-6223000D01*
X8940800Y-6437000D02*
X8940800Y-6517000D01*
X8900800Y-6477000D02*
X8980800Y-6477000D01*
X8940800Y-6691000D02*
X8940800Y-6771000D01*
X8900800Y-6731000D02*
X8980800Y-6731000D01*
X8940800Y-6945000D02*
X8940800Y-7025000D01*
X8900800Y-6985000D02*
X8980800Y-6985000D01*
X8940800Y-7199000D02*
X8940800Y-7279000D01*
X8900800Y-7239000D02*
X8980800Y-7239000D01*
X8940800Y-7453000D02*
X8940800Y-7533000D01*
X8900800Y-7493000D02*
X8980800Y-7493000D01*
X9194800Y-4659000D02*
X9194800Y-4739000D01*
X9154800Y-4699000D02*
X9234800Y-4699000D01*
X9194800Y-4913000D02*
X9194800Y-4993000D01*
X9154800Y-4953000D02*
X9234800Y-4953000D01*
X9194800Y-5167000D02*
X9194800Y-5247000D01*
X9154800Y-5207000D02*
X9234800Y-5207000D01*
X9194800Y-5421000D02*
X9194800Y-5501000D01*
X9154800Y-5461000D02*
X9234800Y-5461000D01*
X9194800Y-5675000D02*
X9194800Y-5755000D01*
X9154800Y-5715000D02*
X9234800Y-5715000D01*
X9194800Y-5929000D02*
X9194800Y-6009000D01*
X9154800Y-5969000D02*
X9234800Y-5969000D01*
X9194800Y-6183000D02*
X9194800Y-6263000D01*
X9154800Y-6223000D02*
X9234800Y-6223000D01*
X9194800Y-6437000D02*
X9194800Y-6517000D01*
X9154800Y-6477000D02*
X9234800Y-6477000D01*
X9194800Y-6691000D02*
X9194800Y-6771000D01*
X9154800Y-6731000D02*
X9234800Y-6731000D01*
X9194800Y-6945000D02*
X9194800Y-7025000D01*
X9154800Y-6985000D02*
X9234800Y-6985000D01*
X9194800Y-7199000D02*
X9194800Y-7279000D01*
X9154800Y-7239000D02*
X9234800Y-7239000D01*
X9194800Y-7453000D02*
X9194800Y-7533000D01*
X9154800Y-7493000D02*
X9234800Y-7493000D01*
X9194800Y-7707000D02*
X9194800Y-7787000D01*
X9154800Y-7747000D02*
X9234800Y-7747000D01*
X9448800Y-4659000D02*
X9448800Y-4739000D01*
X9408800Y-4699000D02*
X9488800Y-4699000D01*
X9448800Y-4913000D02*
X9448800Y-4993000D01*
X9408800Y-4953000D02*
X9488800Y-4953000D01*
X9448800Y-7453000D02*
X9448800Y-7533000D01*
X9408800Y-7493000D02*
X9488800Y-7493000D01*
X9448800Y-7707000D02*
X9448800Y-7787000D01*
X9408800Y-7747000D02*
X9488800Y-7747000D01*
X9702800Y-4659000D02*
X9702800Y-4739000D01*
X9662800Y-4699000D02*
X9742800Y-4699000D01*
X9702800Y-4913000D02*
X9702800Y-4993000D01*
X9662800Y-4953000D02*
X9742800Y-4953000D01*
X9702800Y-7453000D02*
X9702800Y-7533000D01*
X9662800Y-7493000D02*
X9742800Y-7493000D01*
X9702800Y-7707000D02*
X9702800Y-7787000D01*
X9662800Y-7747000D02*
X9742800Y-7747000D01*
X9956800Y-4659000D02*
X9956800Y-4739000D01*
X9916800Y-4699000D02*
X9996800Y-4699000D01*
X9956800Y-4913000D02*
X9956800Y-4993000D01*
X9916800Y-4953000D02*
X9996800Y-4953000D01*
X9956800Y-7453000D02*
X9956800Y-7533000D01*
X9916800Y-7493000D02*
X9996800Y-7493000D01*
X9956800Y-7707000D02*
X9956800Y-7787000D01*
X9916800Y-7747000D02*
X9996800Y-7747000D01*
X10210800Y-4659000D02*
X10210800Y-4739000D01*
X10170800Y-4699000D02*
X10250800Y-4699000D01*
X10210800Y-4913000D02*
X10210800Y-4993000D01*
X10170800Y-4953000D02*
X10250800Y-4953000D01*
X10210800Y-7453000D02*
X10210800Y-7533000D01*
X10170800Y-7493000D02*
X10250800Y-7493000D01*
X10210800Y-7707000D02*
X10210800Y-7787000D01*
X10170800Y-7747000D02*
X10250800Y-7747000D01*
X10464800Y-4659000D02*
X10464800Y-4739000D01*
X10424800Y-4699000D02*
X10504800Y-4699000D01*
X10464800Y-4913000D02*
X10464800Y-4993000D01*
X10424800Y-4953000D02*
X10504800Y-4953000D01*
X10464800Y-7453000D02*
X10464800Y-7533000D01*
X10424800Y-7493000D02*
X10504800Y-7493000D01*
X10464800Y-7707000D02*
X10464800Y-7787000D01*
X10424800Y-7747000D02*
X10504800Y-7747000D01*
X10718800Y-4659000D02*
X10718800Y-4739000D01*
X10678800Y-4699000D02*
X10758800Y-4699000D01*
X10718800Y-4913000D02*
X10718800Y-4993000D01*
X10678800Y-4953000D02*
X10758800Y-4953000D01*
X10718800Y-7453000D02*
X10718800Y-7533000D01*
X10678800Y-7493000D02*
X10758800Y-7493000D01*
X10718800Y-7707000D02*
X10718800Y-7787000D01*
X10678800Y-7747000D02*
X10758800Y-7747000D01*
X10972800Y-4659000D02*
X10972800Y-4739000D01*
X10932800Y-4699000D02*
X11012800Y-4699000D01*
X10972800Y-4913000D02*
X10972800Y-4993000D01*
X10932800Y-4953000D02*
X11012800Y-4953000D01*
X10972800Y-7453000D02*
X10972800Y-7533000D01*
X10932800Y-7493000D02*
X11012800Y-7493000D01*
X10972800Y-7707000D02*
X10972800Y-7787000D01*
X10932800Y-7747000D02*
X11012800Y-7747000D01*
X11226800Y-4659000D02*
X11226800Y-4739000D01*
X11186800Y-4699000D02*
X11266800Y-4699000D01*
X11226800Y-4913000D02*
X11226800Y-4993000D01*
X11186800Y-4953000D02*
X11266800Y-4953000D01*
X11226800Y-7453000D02*
X11226800Y-7533000D01*
X11186800Y-7493000D02*
X11266800Y-7493000D01*
X11226800Y-7707000D02*
X11226800Y-7787000D01*
X11186800Y-7747000D02*
X11266800Y-7747000D01*
X11480800Y-4659000D02*
X11480800Y-4739000D01*
X11440800Y-4699000D02*
X11520800Y-4699000D01*
X11480800Y-4913000D02*
X11480800Y-4993000D01*
X11440800Y-4953000D02*
X11520800Y-4953000D01*
X11480800Y-7453000D02*
X11480800Y-7533000D01*
X11440800Y-7493000D02*
X11520800Y-7493000D01*
X11480800Y-7707000D02*
X11480800Y-7787000D01*
X11440800Y-7747000D02*
X11520800Y-7747000D01*
X11734800Y-4659000D02*
X11734800Y-4739000D01*
X11694800Y-4699000D02*
X11774800Y-4699000D01*
X11734800Y-4913000D02*
X11734800Y-4993000D01*
X11694800Y-4953000D02*
X11774800Y-4953000D01*
X11734800Y-5167000D02*
X11734800Y-5247000D01*
X11694800Y-5207000D02*
X11774800Y-5207000D01*
X11734800Y-5421000D02*
X11734800Y-5501000D01*
X11694800Y-5461000D02*
X11774800Y-5461000D01*
X11734800Y-5675000D02*
X11734800Y-5755000D01*
X11694800Y-5715000D02*
X11774800Y-5715000D01*
X11734800Y-5929000D02*
X11734800Y-6009000D01*
X11694800Y-5969000D02*
X11774800Y-5969000D01*
X11734800Y-6183000D02*
X11734800Y-6263000D01*
X11694800Y-6223000D02*
X11774800Y-6223000D01*
X11734800Y-6437000D02*
X11734800Y-6517000D01*
X11694800Y-6477000D02*
X11774800Y-6477000D01*
X11734800Y-6691000D02*
X11734800Y-6771000D01*
X11694800Y-6731000D02*
X11774800Y-6731000D01*
X11734800Y-6945000D02*
X11734800Y-7025000D01*
X11694800Y-6985000D02*
X11774800Y-6985000D01*
X11734800Y-7199000D02*
X11734800Y-7279000D01*
X11694800Y-7239000D02*
X11774800Y-7239000D01*
X11734800Y-7453000D02*
X11734800Y-7533000D01*
X11694800Y-7493000D02*
X11774800Y-7493000D01*
X11734800Y-7707000D02*
X11734800Y-7787000D01*
X11694800Y-7747000D02*
X11774800Y-7747000D01*
X11988800Y-4913000D02*
X11988800Y-4993000D01*
X11948800Y-4953000D02*
X12028800Y-4953000D01*
X11988800Y-5167000D02*
X11988800Y-5247000D01*
X11948800Y-5207000D02*
X12028800Y-5207000D01*
X11988800Y-5421000D02*
X11988800Y-5501000D01*
X11948800Y-5461000D02*
X12028800Y-5461000D01*
X11988800Y-5675000D02*
X11988800Y-5755000D01*
X11948800Y-5715000D02*
X12028800Y-5715000D01*
X11988800Y-5929000D02*
X11988800Y-6009000D01*
X11948800Y-5969000D02*
X12028800Y-5969000D01*
X11988800Y-6183000D02*
X11988800Y-6263000D01*
X11948800Y-6223000D02*
X12028800Y-6223000D01*
X11988800Y-6437000D02*
X11988800Y-6517000D01*
X11948800Y-6477000D02*
X12028800Y-6477000D01*
X11988800Y-6691000D02*
X11988800Y-6771000D01*
X11948800Y-6731000D02*
X12028800Y-6731000D01*
X11988800Y-6945000D02*
X11988800Y-7025000D01*
X11948800Y-6985000D02*
X12028800Y-6985000D01*
X11988800Y-7199000D02*
X11988800Y-7279000D01*
X11948800Y-7239000D02*
X12028800Y-7239000D01*
X11988800Y-7453000D02*
X11988800Y-7533000D01*
X11948800Y-7493000D02*
X12028800Y-7493000D01*
D10*
X8010956Y-5750356D02*
X8010956Y-5679644D01*
X7940244Y-5679644D01*
X7940244Y-5750356D01*
X8010956Y-5750356D01*
X8010956Y-6004356D02*
X8010956Y-5933644D01*
X7940244Y-5933644D01*
X7940244Y-6004356D01*
X8010956Y-6004356D01*
X8010956Y-6258356D02*
X8010956Y-6187644D01*
X7940244Y-6187644D01*
X7940244Y-6258356D01*
X8010956Y-6258356D01*
X8010956Y-6512356D02*
X8010956Y-6441644D01*
X7940244Y-6441644D01*
X7940244Y-6512356D01*
X8010956Y-6512356D01*
X8010956Y-6766356D02*
X8010956Y-6695644D01*
X7940244Y-6695644D01*
X7940244Y-6766356D01*
X8010956Y-6766356D01*
X8264956Y-5750356D02*
X8264956Y-5679644D01*
X8194244Y-5679644D01*
X8194244Y-5750356D01*
X8264956Y-5750356D01*
X8264956Y-6004356D02*
X8264956Y-5933644D01*
X8194244Y-5933644D01*
X8194244Y-6004356D01*
X8264956Y-6004356D01*
X8264956Y-6258356D02*
X8264956Y-6187644D01*
X8194244Y-6187644D01*
X8194244Y-6258356D01*
X8264956Y-6258356D01*
X8264956Y-6512356D02*
X8264956Y-6441644D01*
X8194244Y-6441644D01*
X8194244Y-6512356D01*
X8264956Y-6512356D01*
X8264956Y-6766356D02*
X8264956Y-6695644D01*
X8194244Y-6695644D01*
X8194244Y-6766356D01*
X8264956Y-6766356D01*
X12988856Y-7147356D02*
X12988856Y-7076644D01*
X12918144Y-7076644D01*
X12918144Y-7147356D01*
X12988856Y-7147356D01*
X12989356Y-5369356D02*
X12989356Y-5298644D01*
X12918644Y-5298644D01*
X12918644Y-5369356D01*
X12989356Y-5369356D01*
X13242856Y-7147356D02*
X13242856Y-7076644D01*
X13172144Y-7076644D01*
X13172144Y-7147356D01*
X13242856Y-7147356D01*
X13243356Y-5369356D02*
X13243356Y-5298644D01*
X13172644Y-5298644D01*
X13172644Y-5369356D01*
X13243356Y-5369356D01*
X13496856Y-7147356D02*
X13496856Y-7076644D01*
X13426144Y-7076644D01*
X13426144Y-7147356D01*
X13496856Y-7147356D01*
X13497356Y-5369356D02*
X13497356Y-5298644D01*
X13426644Y-5298644D01*
X13426644Y-5369356D01*
X13497356Y-5369356D01*
X13750856Y-7147356D02*
X13750856Y-7076644D01*
X13680144Y-7076644D01*
X13680144Y-7147356D01*
X13750856Y-7147356D01*
X13751356Y-5369356D02*
X13751356Y-5298644D01*
X13680644Y-5298644D01*
X13680644Y-5369356D01*
X13751356Y-5369356D01*
X14004856Y-7147356D02*
X14004856Y-7076644D01*
X13934144Y-7076644D01*
X13934144Y-7147356D01*
X14004856Y-7147356D01*
X14005356Y-5369356D02*
X14005356Y-5298644D01*
X13934644Y-5298644D01*
X13934644Y-5369356D01*
X14005356Y-5369356D01*
X14258856Y-7147356D02*
X14258856Y-7076644D01*
X14188144Y-7076644D01*
X14188144Y-7147356D01*
X14258856Y-7147356D01*
X14259356Y-5369356D02*
X14259356Y-5298644D01*
X14188644Y-5298644D01*
X14188644Y-5369356D01*
X14259356Y-5369356D01*
X14512856Y-7147356D02*
X14512856Y-7076644D01*
X14442144Y-7076644D01*
X14442144Y-7147356D01*
X14512856Y-7147356D01*
X14513356Y-5369356D02*
X14513356Y-5298644D01*
X14442644Y-5298644D01*
X14442644Y-5369356D01*
X14513356Y-5369356D01*
X14766856Y-7147356D02*
X14766856Y-7076644D01*
X14696144Y-7076644D01*
X14696144Y-7147356D01*
X14766856Y-7147356D01*
X14767356Y-5369356D02*
X14767356Y-5298644D01*
X14696644Y-5298644D01*
X14696644Y-5369356D01*
X14767356Y-5369356D01*
X15020856Y-7147356D02*
X15020856Y-7076644D01*
X14950144Y-7076644D01*
X14950144Y-7147356D01*
X15020856Y-7147356D01*
X15021356Y-5369356D02*
X15021356Y-5298644D01*
X14950644Y-5298644D01*
X14950644Y-5369356D01*
X15021356Y-5369356D01*
X15274856Y-7147356D02*
X15274856Y-7076644D01*
X15204144Y-7076644D01*
X15204144Y-7147356D01*
X15274856Y-7147356D01*
X15275356Y-5369356D02*
X15275356Y-5298644D01*
X15204644Y-5298644D01*
X15204644Y-5369356D01*
X15275356Y-5369356D01*
X15528856Y-7147356D02*
X15528856Y-7076644D01*
X15458144Y-7076644D01*
X15458144Y-7147356D01*
X15528856Y-7147356D01*
X15529356Y-5369356D02*
X15529356Y-5298644D01*
X15458644Y-5298644D01*
X15458644Y-5369356D01*
X15529356Y-5369356D01*
X15782856Y-7147356D02*
X15782856Y-7076644D01*
X15712144Y-7076644D01*
X15712144Y-7147356D01*
X15782856Y-7147356D01*
X15783356Y-5369356D02*
X15783356Y-5298644D01*
X15712644Y-5298644D01*
X15712644Y-5369356D01*
X15783356Y-5369356D01*
X16036856Y-7147356D02*
X16036856Y-7076644D01*
X15966144Y-7076644D01*
X15966144Y-7147356D01*
X16036856Y-7147356D01*
X16037356Y-5369356D02*
X16037356Y-5298644D01*
X15966644Y-5298644D01*
X15966644Y-5369356D01*
X16037356Y-5369356D01*
X16290856Y-7147356D02*
X16290856Y-7076644D01*
X16220144Y-7076644D01*
X16220144Y-7147356D01*
X16290856Y-7147356D01*
X16291356Y-5369356D02*
X16291356Y-5298644D01*
X16220644Y-5298644D01*
X16220644Y-5369356D01*
X16291356Y-5369356D01*
X16544856Y-7147356D02*
X16544856Y-7076644D01*
X16474144Y-7076644D01*
X16474144Y-7147356D01*
X16544856Y-7147356D01*
X16545356Y-5369356D02*
X16545356Y-5298644D01*
X16474644Y-5298644D01*
X16474644Y-5369356D01*
X16545356Y-5369356D01*
X16798856Y-7147356D02*
X16798856Y-7076644D01*
X16728144Y-7076644D01*
X16728144Y-7147356D01*
X16798856Y-7147356D01*
X16799356Y-5369356D02*
X16799356Y-5298644D01*
X16728644Y-5298644D01*
X16728644Y-5369356D01*
X16799356Y-5369356D01*
X17052856Y-7147356D02*
X17052856Y-7076644D01*
X16982144Y-7076644D01*
X16982144Y-7147356D01*
X17052856Y-7147356D01*
X17053356Y-5369356D02*
X17053356Y-5298644D01*
X16982644Y-5298644D01*
X16982644Y-5369356D01*
X17053356Y-5369356D01*
X17306856Y-7147356D02*
X17306856Y-7076644D01*
X17236144Y-7076644D01*
X17236144Y-7147356D01*
X17306856Y-7147356D01*
X17307356Y-5369356D02*
X17307356Y-5298644D01*
X17236644Y-5298644D01*
X17236644Y-5369356D01*
X17307356Y-5369356D01*
X17560856Y-7147356D02*
X17560856Y-7076644D01*
X17490144Y-7076644D01*
X17490144Y-7147356D01*
X17560856Y-7147356D01*
X17561356Y-5369356D02*
X17561356Y-5298644D01*
X17490644Y-5298644D01*
X17490644Y-5369356D01*
X17561356Y-5369356D01*
X17814856Y-7147356D02*
X17814856Y-7076644D01*
X17744144Y-7076644D01*
X17744144Y-7147356D01*
X17814856Y-7147356D01*
X17815356Y-5369356D02*
X17815356Y-5298644D01*
X17744644Y-5298644D01*
X17744644Y-5369356D01*
X17815356Y-5369356D01*
X18068856Y-7147356D02*
X18068856Y-7076644D01*
X17998144Y-7076644D01*
X17998144Y-7147356D01*
X18068856Y-7147356D01*
X18069356Y-5369356D02*
X18069356Y-5298644D01*
X17998644Y-5298644D01*
X17998644Y-5369356D01*
X18069356Y-5369356D01*
X18322856Y-7147356D02*
X18322856Y-7076644D01*
X18252144Y-7076644D01*
X18252144Y-7147356D01*
X18322856Y-7147356D01*
X18323356Y-5369356D02*
X18323356Y-5298644D01*
X18252644Y-5298644D01*
X18252644Y-5369356D01*
X18323356Y-5369356D01*
X18576856Y-7147356D02*
X18576856Y-7076644D01*
X18506144Y-7076644D01*
X18506144Y-7147356D01*
X18576856Y-7147356D01*
X18577356Y-5369356D02*
X18577356Y-5298644D01*
X18506644Y-5298644D01*
X18506644Y-5369356D01*
X18577356Y-5369356D01*
X18830856Y-7147356D02*
X18830856Y-7076644D01*
X18760144Y-7076644D01*
X18760144Y-7147356D01*
X18830856Y-7147356D01*
X18831356Y-5369356D02*
X18831356Y-5298644D01*
X18760644Y-5298644D01*
X18760644Y-5369356D01*
X18831356Y-5369356D01*
X19084856Y-7147356D02*
X19084856Y-7076644D01*
X19014144Y-7076644D01*
X19014144Y-7147356D01*
X19084856Y-7147356D01*
X19085356Y-5369356D02*
X19085356Y-5298644D01*
X19014644Y-5298644D01*
X19014644Y-5369356D01*
X19085356Y-5369356D01*
X19338856Y-7147356D02*
X19338856Y-7076644D01*
X19268144Y-7076644D01*
X19268144Y-7147356D01*
X19338856Y-7147356D01*
X19339356Y-5369356D02*
X19339356Y-5298644D01*
X19268644Y-5298644D01*
X19268644Y-5369356D01*
X19339356Y-5369356D01*
X19592856Y-7147356D02*
X19592856Y-7076644D01*
X19522144Y-7076644D01*
X19522144Y-7147356D01*
X19592856Y-7147356D01*
X19593356Y-5369356D02*
X19593356Y-5298644D01*
X19522644Y-5298644D01*
X19522644Y-5369356D01*
X19593356Y-5369356D01*
X19846856Y-7147356D02*
X19846856Y-7076644D01*
X19776144Y-7076644D01*
X19776144Y-7147356D01*
X19846856Y-7147356D01*
X19847356Y-5369356D02*
X19847356Y-5298644D01*
X19776644Y-5298644D01*
X19776644Y-5369356D01*
X19847356Y-5369356D01*
X20100856Y-7147356D02*
X20100856Y-7076644D01*
X20030144Y-7076644D01*
X20030144Y-7147356D01*
X20100856Y-7147356D01*
X20101356Y-5369356D02*
X20101356Y-5298644D01*
X20030644Y-5298644D01*
X20030644Y-5369356D01*
X20101356Y-5369356D01*
X20354856Y-7147356D02*
X20354856Y-7076644D01*
X20284144Y-7076644D01*
X20284144Y-7147356D01*
X20354856Y-7147356D01*
X20355356Y-5369356D02*
X20355356Y-5298644D01*
X20284644Y-5298644D01*
X20284644Y-5369356D01*
X20355356Y-5369356D01*
X20608856Y-7147356D02*
X20608856Y-7076644D01*
X20538144Y-7076644D01*
X20538144Y-7147356D01*
X20608856Y-7147356D01*
X20609356Y-5369356D02*
X20609356Y-5298644D01*
X20538644Y-5298644D01*
X20538644Y-5369356D01*
X20609356Y-5369356D01*
X20862856Y-7147356D02*
X20862856Y-7076644D01*
X20792144Y-7076644D01*
X20792144Y-7147356D01*
X20862856Y-7147356D01*
X20863356Y-5369356D02*
X20863356Y-5298644D01*
X20792644Y-5298644D01*
X20792644Y-5369356D01*
X20863356Y-5369356D01*
X21116856Y-7147356D02*
X21116856Y-7076644D01*
X21046144Y-7076644D01*
X21046144Y-7147356D01*
X21116856Y-7147356D01*
X21117356Y-5369356D02*
X21117356Y-5298644D01*
X21046644Y-5298644D01*
X21046644Y-5369356D01*
X21117356Y-5369356D01*
X21370856Y-7147356D02*
X21370856Y-7076644D01*
X21300144Y-7076644D01*
X21300144Y-7147356D01*
X21370856Y-7147356D01*
X21371356Y-5369356D02*
X21371356Y-5298644D01*
X21300644Y-5298644D01*
X21300644Y-5369356D01*
X21371356Y-5369356D01*
X21624856Y-7147356D02*
X21624856Y-7076644D01*
X21554144Y-7076644D01*
X21554144Y-7147356D01*
X21624856Y-7147356D01*
X21625356Y-5369356D02*
X21625356Y-5298644D01*
X21554644Y-5298644D01*
X21554644Y-5369356D01*
X21625356Y-5369356D01*
D11*
X7885319Y-8189476D02*
X7885319Y-7989476D01*
X7932938Y-7989476D01*
X7961509Y-7999000D01*
X7980557Y-8018048D01*
X7990081Y-8037095D01*
X7999605Y-8075190D01*
X7999605Y-8103762D01*
X7990081Y-8141857D01*
X7980557Y-8160905D01*
X7961509Y-8179952D01*
X7932938Y-8189476D01*
X7885319Y-8189476D01*
X8085319Y-8189476D02*
X8085319Y-8056143D01*
X8085319Y-8094238D02*
X8094843Y-8075190D01*
X8104367Y-8065667D01*
X8123414Y-8056143D01*
X8142462Y-8056143D01*
X8209128Y-8189476D02*
X8209128Y-8056143D01*
X8209128Y-7989476D02*
X8199605Y-7999000D01*
X8209128Y-8008524D01*
X8218652Y-7999000D01*
X8209128Y-7989476D01*
X8209128Y-8008524D01*
X8332938Y-8189476D02*
X8313890Y-8179952D01*
X8304367Y-8160905D01*
X8304367Y-7989476D01*
X8437700Y-8189476D02*
X8418652Y-8179952D01*
X8409129Y-8160905D01*
X8409129Y-7989476D01*
X8666271Y-8189476D02*
X8666271Y-7989476D01*
X8732938Y-8132333D01*
X8799605Y-7989476D01*
X8799605Y-8189476D01*
X8980557Y-8189476D02*
X8980557Y-8084714D01*
X8971033Y-8065667D01*
X8951986Y-8056143D01*
X8913890Y-8056143D01*
X8894843Y-8065667D01*
X8980557Y-8179952D02*
X8961510Y-8189476D01*
X8913890Y-8189476D01*
X8894843Y-8179952D01*
X8885319Y-8160905D01*
X8885319Y-8141857D01*
X8894843Y-8122809D01*
X8913890Y-8113286D01*
X8961510Y-8113286D01*
X8980557Y-8103762D01*
X9075795Y-8056143D02*
X9075795Y-8256143D01*
X9075795Y-8065667D02*
X9094843Y-8056143D01*
X9132938Y-8056143D01*
X9151986Y-8065667D01*
X9161510Y-8075190D01*
X9171033Y-8094238D01*
X9171033Y-8151381D01*
X9161510Y-8170428D01*
X9151986Y-8179952D01*
X9132938Y-8189476D01*
X9094843Y-8189476D01*
X9075795Y-8179952D01*
X9256748Y-8170428D02*
X9266271Y-8179952D01*
X9256748Y-8189476D01*
X9247224Y-8179952D01*
X9256748Y-8170428D01*
X9256748Y-8189476D01*
X9256748Y-8065667D02*
X9266271Y-8075190D01*
X9256748Y-8084714D01*
X9247224Y-8075190D01*
X9256748Y-8065667D01*
X9256748Y-8084714D01*
D12*
X7597700Y-8504000D02*
X7627700Y-8534000D01*
X7627700Y-8504000D02*
X7597700Y-8534000D01*
D11*
X7923414Y-8409476D02*
X7942462Y-8409476D01*
X7961509Y-8419000D01*
X7971033Y-8428524D01*
X7980557Y-8447571D01*
X7990081Y-8485667D01*
X7990081Y-8533286D01*
X7980557Y-8571381D01*
X7971033Y-8590429D01*
X7961509Y-8599952D01*
X7942462Y-8609476D01*
X7923414Y-8609476D01*
X7904367Y-8599952D01*
X7894843Y-8590429D01*
X7885319Y-8571381D01*
X7875795Y-8533286D01*
X7875795Y-8485667D01*
X7885319Y-8447571D01*
X7894843Y-8428524D01*
X7904367Y-8419000D01*
X7923414Y-8409476D01*
X8075795Y-8590429D02*
X8085319Y-8599952D01*
X8075795Y-8609476D01*
X8066271Y-8599952D01*
X8075795Y-8590429D01*
X8075795Y-8609476D01*
X8151986Y-8409476D02*
X8275795Y-8409476D01*
X8209128Y-8485667D01*
X8237700Y-8485667D01*
X8256748Y-8495190D01*
X8266271Y-8504714D01*
X8275795Y-8523762D01*
X8275795Y-8571381D01*
X8266271Y-8590429D01*
X8256748Y-8599952D01*
X8237700Y-8609476D01*
X8180557Y-8609476D01*
X8161509Y-8599952D01*
X8151986Y-8590429D01*
X8399605Y-8409476D02*
X8418652Y-8409476D01*
X8437700Y-8419000D01*
X8447224Y-8428524D01*
X8456748Y-8447571D01*
X8466271Y-8485667D01*
X8466271Y-8533286D01*
X8456748Y-8571381D01*
X8447224Y-8590429D01*
X8437700Y-8599952D01*
X8418652Y-8609476D01*
X8399605Y-8609476D01*
X8380557Y-8599952D01*
X8371033Y-8590429D01*
X8361509Y-8571381D01*
X8351986Y-8533286D01*
X8351986Y-8485667D01*
X8361509Y-8447571D01*
X8371033Y-8428524D01*
X8380557Y-8419000D01*
X8399605Y-8409476D01*
X8590081Y-8409476D02*
X8609129Y-8409476D01*
X8628176Y-8419000D01*
X8637700Y-8428524D01*
X8647224Y-8447571D01*
X8656748Y-8485667D01*
X8656748Y-8533286D01*
X8647224Y-8571381D01*
X8637700Y-8590429D01*
X8628176Y-8599952D01*
X8609129Y-8609476D01*
X8590081Y-8609476D01*
X8571033Y-8599952D01*
X8561510Y-8590429D01*
X8551986Y-8571381D01*
X8542462Y-8533286D01*
X8542462Y-8485667D01*
X8551986Y-8447571D01*
X8561510Y-8428524D01*
X8571033Y-8419000D01*
X8590081Y-8409476D01*
X8742462Y-8609476D02*
X8742462Y-8476143D01*
X8742462Y-8495190D02*
X8751986Y-8485667D01*
X8771033Y-8476143D01*
X8799605Y-8476143D01*
X8818652Y-8485667D01*
X8828176Y-8504714D01*
X8828176Y-8609476D01*
X8828176Y-8504714D02*
X8837700Y-8485667D01*
X8856748Y-8476143D01*
X8885319Y-8476143D01*
X8904367Y-8485667D01*
X8913890Y-8504714D01*
X8913890Y-8609476D01*
X9009129Y-8609476D02*
X9009129Y-8476143D01*
X9009129Y-8495190D02*
X9018652Y-8485667D01*
X9037700Y-8476143D01*
X9066271Y-8476143D01*
X9085319Y-8485667D01*
X9094843Y-8504714D01*
X9094843Y-8609476D01*
X9094843Y-8504714D02*
X9104367Y-8485667D01*
X9123414Y-8476143D01*
X9151986Y-8476143D01*
X9171033Y-8485667D01*
X9180557Y-8504714D01*
X9180557Y-8609476D01*
X9571033Y-8399952D02*
X9399605Y-8657095D01*
X9828176Y-8409476D02*
X9847224Y-8409476D01*
X9866271Y-8419000D01*
X9875795Y-8428524D01*
X9885319Y-8447571D01*
X9894843Y-8485667D01*
X9894843Y-8533286D01*
X9885319Y-8571381D01*
X9875795Y-8590429D01*
X9866271Y-8599952D01*
X9847224Y-8609476D01*
X9828176Y-8609476D01*
X9809129Y-8599952D01*
X9799605Y-8590429D01*
X9790081Y-8571381D01*
X9780557Y-8533286D01*
X9780557Y-8485667D01*
X9790081Y-8447571D01*
X9799605Y-8428524D01*
X9809129Y-8419000D01*
X9828176Y-8409476D01*
X9980557Y-8590429D02*
X9990081Y-8599952D01*
X9980557Y-8609476D01*
X9971033Y-8599952D01*
X9980557Y-8590429D01*
X9980557Y-8609476D01*
X10113890Y-8409476D02*
X10132938Y-8409476D01*
X10151986Y-8419000D01*
X10161510Y-8428524D01*
X10171033Y-8447571D01*
X10180557Y-8485667D01*
X10180557Y-8533286D01*
X10171033Y-8571381D01*
X10161510Y-8590429D01*
X10151986Y-8599952D01*
X10132938Y-8609476D01*
X10113890Y-8609476D01*
X10094843Y-8599952D01*
X10085319Y-8590429D01*
X10075795Y-8571381D01*
X10066271Y-8533286D01*
X10066271Y-8485667D01*
X10075795Y-8447571D01*
X10085319Y-8428524D01*
X10094843Y-8419000D01*
X10113890Y-8409476D01*
X10371033Y-8609476D02*
X10256748Y-8609476D01*
X10313890Y-8609476D02*
X10313890Y-8409476D01*
X10294843Y-8438048D01*
X10275795Y-8457095D01*
X10256748Y-8466619D01*
X10561510Y-8609476D02*
X10447224Y-8609476D01*
X10504367Y-8609476D02*
X10504367Y-8409476D01*
X10485319Y-8438048D01*
X10466271Y-8457095D01*
X10447224Y-8466619D01*
X10675795Y-8495190D02*
X10656748Y-8485667D01*
X10647224Y-8476143D01*
X10637700Y-8457095D01*
X10637700Y-8447571D01*
X10647224Y-8428524D01*
X10656748Y-8419000D01*
X10675795Y-8409476D01*
X10713890Y-8409476D01*
X10732938Y-8419000D01*
X10742462Y-8428524D01*
X10751986Y-8447571D01*
X10751986Y-8457095D01*
X10742462Y-8476143D01*
X10732938Y-8485667D01*
X10713890Y-8495190D01*
X10675795Y-8495190D01*
X10656748Y-8504714D01*
X10647224Y-8514238D01*
X10637700Y-8533286D01*
X10637700Y-8571381D01*
X10647224Y-8590429D01*
X10656748Y-8599952D01*
X10675795Y-8609476D01*
X10713890Y-8609476D01*
X10732938Y-8599952D01*
X10742462Y-8590429D01*
X10751986Y-8571381D01*
X10751986Y-8533286D01*
X10742462Y-8514238D01*
X10732938Y-8504714D01*
X10713890Y-8495190D01*
X10828176Y-8409476D02*
X10828176Y-8447571D01*
X10904367Y-8409476D02*
X10904367Y-8447571D01*
X11199605Y-8685667D02*
X11190081Y-8676143D01*
X11171033Y-8647571D01*
X11161510Y-8628524D01*
X11151986Y-8599952D01*
X11142462Y-8552333D01*
X11142462Y-8514238D01*
X11151986Y-8466619D01*
X11161510Y-8438048D01*
X11171033Y-8419000D01*
X11190081Y-8390429D01*
X11199605Y-8380905D01*
X11361509Y-8409476D02*
X11323414Y-8409476D01*
X11304367Y-8419000D01*
X11294843Y-8428524D01*
X11275795Y-8457095D01*
X11266271Y-8495190D01*
X11266271Y-8571381D01*
X11275795Y-8590429D01*
X11285319Y-8599952D01*
X11304367Y-8609476D01*
X11342462Y-8609476D01*
X11361509Y-8599952D01*
X11371033Y-8590429D01*
X11380557Y-8571381D01*
X11380557Y-8523762D01*
X11371033Y-8504714D01*
X11361509Y-8495190D01*
X11342462Y-8485667D01*
X11304367Y-8485667D01*
X11285319Y-8495190D01*
X11275795Y-8504714D01*
X11266271Y-8523762D01*
X11504367Y-8409476D02*
X11523414Y-8409476D01*
X11542462Y-8419000D01*
X11551986Y-8428524D01*
X11561509Y-8447571D01*
X11571033Y-8485667D01*
X11571033Y-8533286D01*
X11561509Y-8571381D01*
X11551986Y-8590429D01*
X11542462Y-8599952D01*
X11523414Y-8609476D01*
X11504367Y-8609476D01*
X11485319Y-8599952D01*
X11475795Y-8590429D01*
X11466271Y-8571381D01*
X11456748Y-8533286D01*
X11456748Y-8485667D01*
X11466271Y-8447571D01*
X11475795Y-8428524D01*
X11485319Y-8419000D01*
X11504367Y-8409476D01*
X11809128Y-8609476D02*
X11809128Y-8409476D01*
X11894843Y-8609476D02*
X11894843Y-8504714D01*
X11885319Y-8485667D01*
X11866271Y-8476143D01*
X11837700Y-8476143D01*
X11818652Y-8485667D01*
X11809128Y-8495190D01*
X12018652Y-8609476D02*
X11999605Y-8599952D01*
X11990081Y-8590429D01*
X11980557Y-8571381D01*
X11980557Y-8514238D01*
X11990081Y-8495190D01*
X11999605Y-8485667D01*
X12018652Y-8476143D01*
X12047224Y-8476143D01*
X12066271Y-8485667D01*
X12075795Y-8495190D01*
X12085319Y-8514238D01*
X12085319Y-8571381D01*
X12075795Y-8590429D01*
X12066271Y-8599952D01*
X12047224Y-8609476D01*
X12018652Y-8609476D01*
X12199605Y-8609476D02*
X12180557Y-8599952D01*
X12171033Y-8580905D01*
X12171033Y-8409476D01*
X12351986Y-8599952D02*
X12332938Y-8609476D01*
X12294843Y-8609476D01*
X12275795Y-8599952D01*
X12266271Y-8580905D01*
X12266271Y-8504714D01*
X12275795Y-8485667D01*
X12294843Y-8476143D01*
X12332938Y-8476143D01*
X12351986Y-8485667D01*
X12361509Y-8504714D01*
X12361509Y-8523762D01*
X12266271Y-8542810D01*
X12437700Y-8599952D02*
X12456748Y-8609476D01*
X12494843Y-8609476D01*
X12513890Y-8599952D01*
X12523414Y-8580905D01*
X12523414Y-8571381D01*
X12513890Y-8552333D01*
X12494843Y-8542810D01*
X12466271Y-8542810D01*
X12447224Y-8533286D01*
X12437700Y-8514238D01*
X12437700Y-8504714D01*
X12447224Y-8485667D01*
X12466271Y-8476143D01*
X12494843Y-8476143D01*
X12513890Y-8485667D01*
X12590081Y-8685667D02*
X12599605Y-8676143D01*
X12618652Y-8647571D01*
X12628176Y-8628524D01*
X12637700Y-8599952D01*
X12647224Y-8552333D01*
X12647224Y-8514238D01*
X12637700Y-8466619D01*
X12628176Y-8438048D01*
X12618652Y-8419000D01*
X12599605Y-8390429D01*
X12590081Y-8380905D01*
D13*
X7627700Y-8783000D02*
G75*
G03*
X7627700Y-8783000I-20000J0D01*
G01*
D11*
X7923414Y-8673476D02*
X7942462Y-8673476D01*
X7961509Y-8683000D01*
X7971033Y-8692524D01*
X7980557Y-8711571D01*
X7990081Y-8749667D01*
X7990081Y-8797286D01*
X7980557Y-8835381D01*
X7971033Y-8854429D01*
X7961509Y-8863952D01*
X7942462Y-8873476D01*
X7923414Y-8873476D01*
X7904367Y-8863952D01*
X7894843Y-8854429D01*
X7885319Y-8835381D01*
X7875795Y-8797286D01*
X7875795Y-8749667D01*
X7885319Y-8711571D01*
X7894843Y-8692524D01*
X7904367Y-8683000D01*
X7923414Y-8673476D01*
X8075795Y-8854429D02*
X8085319Y-8863952D01*
X8075795Y-8873476D01*
X8066271Y-8863952D01*
X8075795Y-8854429D01*
X8075795Y-8873476D01*
X8256748Y-8740143D02*
X8256748Y-8873476D01*
X8209128Y-8663952D02*
X8161509Y-8806810D01*
X8285319Y-8806810D01*
X8399605Y-8673476D02*
X8418652Y-8673476D01*
X8437700Y-8683000D01*
X8447224Y-8692524D01*
X8456748Y-8711571D01*
X8466271Y-8749667D01*
X8466271Y-8797286D01*
X8456748Y-8835381D01*
X8447224Y-8854429D01*
X8437700Y-8863952D01*
X8418652Y-8873476D01*
X8399605Y-8873476D01*
X8380557Y-8863952D01*
X8371033Y-8854429D01*
X8361509Y-8835381D01*
X8351986Y-8797286D01*
X8351986Y-8749667D01*
X8361509Y-8711571D01*
X8371033Y-8692524D01*
X8380557Y-8683000D01*
X8399605Y-8673476D01*
X8590081Y-8673476D02*
X8609129Y-8673476D01*
X8628176Y-8683000D01*
X8637700Y-8692524D01*
X8647224Y-8711571D01*
X8656748Y-8749667D01*
X8656748Y-8797286D01*
X8647224Y-8835381D01*
X8637700Y-8854429D01*
X8628176Y-8863952D01*
X8609129Y-8873476D01*
X8590081Y-8873476D01*
X8571033Y-8863952D01*
X8561510Y-8854429D01*
X8551986Y-8835381D01*
X8542462Y-8797286D01*
X8542462Y-8749667D01*
X8551986Y-8711571D01*
X8561510Y-8692524D01*
X8571033Y-8683000D01*
X8590081Y-8673476D01*
X8742462Y-8873476D02*
X8742462Y-8740143D01*
X8742462Y-8759190D02*
X8751986Y-8749667D01*
X8771033Y-8740143D01*
X8799605Y-8740143D01*
X8818652Y-8749667D01*
X8828176Y-8768714D01*
X8828176Y-8873476D01*
X8828176Y-8768714D02*
X8837700Y-8749667D01*
X8856748Y-8740143D01*
X8885319Y-8740143D01*
X8904367Y-8749667D01*
X8913890Y-8768714D01*
X8913890Y-8873476D01*
X9009129Y-8873476D02*
X9009129Y-8740143D01*
X9009129Y-8759190D02*
X9018652Y-8749667D01*
X9037700Y-8740143D01*
X9066271Y-8740143D01*
X9085319Y-8749667D01*
X9094843Y-8768714D01*
X9094843Y-8873476D01*
X9094843Y-8768714D02*
X9104367Y-8749667D01*
X9123414Y-8740143D01*
X9151986Y-8740143D01*
X9171033Y-8749667D01*
X9180557Y-8768714D01*
X9180557Y-8873476D01*
X9571033Y-8663952D02*
X9399605Y-8921095D01*
X9828176Y-8673476D02*
X9847224Y-8673476D01*
X9866271Y-8683000D01*
X9875795Y-8692524D01*
X9885319Y-8711571D01*
X9894843Y-8749667D01*
X9894843Y-8797286D01*
X9885319Y-8835381D01*
X9875795Y-8854429D01*
X9866271Y-8863952D01*
X9847224Y-8873476D01*
X9828176Y-8873476D01*
X9809129Y-8863952D01*
X9799605Y-8854429D01*
X9790081Y-8835381D01*
X9780557Y-8797286D01*
X9780557Y-8749667D01*
X9790081Y-8711571D01*
X9799605Y-8692524D01*
X9809129Y-8683000D01*
X9828176Y-8673476D01*
X9980557Y-8854429D02*
X9990081Y-8863952D01*
X9980557Y-8873476D01*
X9971033Y-8863952D01*
X9980557Y-8854429D01*
X9980557Y-8873476D01*
X10113890Y-8673476D02*
X10132938Y-8673476D01*
X10151986Y-8683000D01*
X10161510Y-8692524D01*
X10171033Y-8711571D01*
X10180557Y-8749667D01*
X10180557Y-8797286D01*
X10171033Y-8835381D01*
X10161510Y-8854429D01*
X10151986Y-8863952D01*
X10132938Y-8873476D01*
X10113890Y-8873476D01*
X10094843Y-8863952D01*
X10085319Y-8854429D01*
X10075795Y-8835381D01*
X10066271Y-8797286D01*
X10066271Y-8749667D01*
X10075795Y-8711571D01*
X10085319Y-8692524D01*
X10094843Y-8683000D01*
X10113890Y-8673476D01*
X10371033Y-8873476D02*
X10256748Y-8873476D01*
X10313890Y-8873476D02*
X10313890Y-8673476D01*
X10294843Y-8702048D01*
X10275795Y-8721095D01*
X10256748Y-8730619D01*
X10551986Y-8673476D02*
X10456748Y-8673476D01*
X10447224Y-8768714D01*
X10456748Y-8759190D01*
X10475795Y-8749667D01*
X10523414Y-8749667D01*
X10542462Y-8759190D01*
X10551986Y-8768714D01*
X10561510Y-8787762D01*
X10561510Y-8835381D01*
X10551986Y-8854429D01*
X10542462Y-8863952D01*
X10523414Y-8873476D01*
X10475795Y-8873476D01*
X10456748Y-8863952D01*
X10447224Y-8854429D01*
X10628176Y-8673476D02*
X10761510Y-8673476D01*
X10675795Y-8873476D01*
X10828176Y-8673476D02*
X10828176Y-8711571D01*
X10904367Y-8673476D02*
X10904367Y-8711571D01*
X11199605Y-8949667D02*
X11190081Y-8940143D01*
X11171033Y-8911571D01*
X11161510Y-8892524D01*
X11151986Y-8863952D01*
X11142462Y-8816333D01*
X11142462Y-8778238D01*
X11151986Y-8730619D01*
X11161510Y-8702048D01*
X11171033Y-8683000D01*
X11190081Y-8654429D01*
X11199605Y-8644905D01*
X11380557Y-8873476D02*
X11266271Y-8873476D01*
X11323414Y-8873476D02*
X11323414Y-8673476D01*
X11304367Y-8702048D01*
X11285319Y-8721095D01*
X11266271Y-8730619D01*
X11447224Y-8673476D02*
X11571033Y-8673476D01*
X11504367Y-8749667D01*
X11532938Y-8749667D01*
X11551986Y-8759190D01*
X11561509Y-8768714D01*
X11571033Y-8787762D01*
X11571033Y-8835381D01*
X11561509Y-8854429D01*
X11551986Y-8863952D01*
X11532938Y-8873476D01*
X11475795Y-8873476D01*
X11456748Y-8863952D01*
X11447224Y-8854429D01*
X11809128Y-8873476D02*
X11809128Y-8673476D01*
X11894843Y-8873476D02*
X11894843Y-8768714D01*
X11885319Y-8749667D01*
X11866271Y-8740143D01*
X11837700Y-8740143D01*
X11818652Y-8749667D01*
X11809128Y-8759190D01*
X12018652Y-8873476D02*
X11999605Y-8863952D01*
X11990081Y-8854429D01*
X11980557Y-8835381D01*
X11980557Y-8778238D01*
X11990081Y-8759190D01*
X11999605Y-8749667D01*
X12018652Y-8740143D01*
X12047224Y-8740143D01*
X12066271Y-8749667D01*
X12075795Y-8759190D01*
X12085319Y-8778238D01*
X12085319Y-8835381D01*
X12075795Y-8854429D01*
X12066271Y-8863952D01*
X12047224Y-8873476D01*
X12018652Y-8873476D01*
X12199605Y-8873476D02*
X12180557Y-8863952D01*
X12171033Y-8844905D01*
X12171033Y-8673476D01*
X12351986Y-8863952D02*
X12332938Y-8873476D01*
X12294843Y-8873476D01*
X12275795Y-8863952D01*
X12266271Y-8844905D01*
X12266271Y-8768714D01*
X12275795Y-8749667D01*
X12294843Y-8740143D01*
X12332938Y-8740143D01*
X12351986Y-8749667D01*
X12361509Y-8768714D01*
X12361509Y-8787762D01*
X12266271Y-8806810D01*
X12437700Y-8863952D02*
X12456748Y-8873476D01*
X12494843Y-8873476D01*
X12513890Y-8863952D01*
X12523414Y-8844905D01*
X12523414Y-8835381D01*
X12513890Y-8816333D01*
X12494843Y-8806810D01*
X12466271Y-8806810D01*
X12447224Y-8797286D01*
X12437700Y-8778238D01*
X12437700Y-8768714D01*
X12447224Y-8749667D01*
X12466271Y-8740143D01*
X12494843Y-8740143D01*
X12513890Y-8749667D01*
X12590081Y-8949667D02*
X12599605Y-8940143D01*
X12618652Y-8911571D01*
X12628176Y-8892524D01*
X12637700Y-8863952D01*
X12647224Y-8816333D01*
X12647224Y-8778238D01*
X12637700Y-8730619D01*
X12628176Y-8702048D01*
X12618652Y-8683000D01*
X12599605Y-8654429D01*
X12590081Y-8644905D01*
D14*
X7587700Y-9007000D02*
X7587700Y-9087000D01*
X7547700Y-9047000D02*
X7627700Y-9047000D01*
D11*
X7923414Y-8937476D02*
X7942462Y-8937476D01*
X7961509Y-8947000D01*
X7971033Y-8956524D01*
X7980557Y-8975571D01*
X7990081Y-9013667D01*
X7990081Y-9061286D01*
X7980557Y-9099381D01*
X7971033Y-9118429D01*
X7961509Y-9127952D01*
X7942462Y-9137476D01*
X7923414Y-9137476D01*
X7904367Y-9127952D01*
X7894843Y-9118429D01*
X7885319Y-9099381D01*
X7875795Y-9061286D01*
X7875795Y-9013667D01*
X7885319Y-8975571D01*
X7894843Y-8956524D01*
X7904367Y-8947000D01*
X7923414Y-8937476D01*
X8075795Y-9118429D02*
X8085319Y-9127952D01*
X8075795Y-9137476D01*
X8066271Y-9127952D01*
X8075795Y-9118429D01*
X8075795Y-9137476D01*
X8199605Y-9023190D02*
X8180557Y-9013667D01*
X8171033Y-9004143D01*
X8161509Y-8985095D01*
X8161509Y-8975571D01*
X8171033Y-8956524D01*
X8180557Y-8947000D01*
X8199605Y-8937476D01*
X8237700Y-8937476D01*
X8256748Y-8947000D01*
X8266271Y-8956524D01*
X8275795Y-8975571D01*
X8275795Y-8985095D01*
X8266271Y-9004143D01*
X8256748Y-9013667D01*
X8237700Y-9023190D01*
X8199605Y-9023190D01*
X8180557Y-9032714D01*
X8171033Y-9042238D01*
X8161509Y-9061286D01*
X8161509Y-9099381D01*
X8171033Y-9118429D01*
X8180557Y-9127952D01*
X8199605Y-9137476D01*
X8237700Y-9137476D01*
X8256748Y-9127952D01*
X8266271Y-9118429D01*
X8275795Y-9099381D01*
X8275795Y-9061286D01*
X8266271Y-9042238D01*
X8256748Y-9032714D01*
X8237700Y-9023190D01*
X8399605Y-8937476D02*
X8418652Y-8937476D01*
X8437700Y-8947000D01*
X8447224Y-8956524D01*
X8456748Y-8975571D01*
X8466271Y-9013667D01*
X8466271Y-9061286D01*
X8456748Y-9099381D01*
X8447224Y-9118429D01*
X8437700Y-9127952D01*
X8418652Y-9137476D01*
X8399605Y-9137476D01*
X8380557Y-9127952D01*
X8371033Y-9118429D01*
X8361509Y-9099381D01*
X8351986Y-9061286D01*
X8351986Y-9013667D01*
X8361509Y-8975571D01*
X8371033Y-8956524D01*
X8380557Y-8947000D01*
X8399605Y-8937476D01*
X8590081Y-8937476D02*
X8609129Y-8937476D01*
X8628176Y-8947000D01*
X8637700Y-8956524D01*
X8647224Y-8975571D01*
X8656748Y-9013667D01*
X8656748Y-9061286D01*
X8647224Y-9099381D01*
X8637700Y-9118429D01*
X8628176Y-9127952D01*
X8609129Y-9137476D01*
X8590081Y-9137476D01*
X8571033Y-9127952D01*
X8561510Y-9118429D01*
X8551986Y-9099381D01*
X8542462Y-9061286D01*
X8542462Y-9013667D01*
X8551986Y-8975571D01*
X8561510Y-8956524D01*
X8571033Y-8947000D01*
X8590081Y-8937476D01*
X8742462Y-9137476D02*
X8742462Y-9004143D01*
X8742462Y-9023190D02*
X8751986Y-9013667D01*
X8771033Y-9004143D01*
X8799605Y-9004143D01*
X8818652Y-9013667D01*
X8828176Y-9032714D01*
X8828176Y-9137476D01*
X8828176Y-9032714D02*
X8837700Y-9013667D01*
X8856748Y-9004143D01*
X8885319Y-9004143D01*
X8904367Y-9013667D01*
X8913890Y-9032714D01*
X8913890Y-9137476D01*
X9009129Y-9137476D02*
X9009129Y-9004143D01*
X9009129Y-9023190D02*
X9018652Y-9013667D01*
X9037700Y-9004143D01*
X9066271Y-9004143D01*
X9085319Y-9013667D01*
X9094843Y-9032714D01*
X9094843Y-9137476D01*
X9094843Y-9032714D02*
X9104367Y-9013667D01*
X9123414Y-9004143D01*
X9151986Y-9004143D01*
X9171033Y-9013667D01*
X9180557Y-9032714D01*
X9180557Y-9137476D01*
X9571033Y-8927952D02*
X9399605Y-9185095D01*
X9828176Y-8937476D02*
X9847224Y-8937476D01*
X9866271Y-8947000D01*
X9875795Y-8956524D01*
X9885319Y-8975571D01*
X9894843Y-9013667D01*
X9894843Y-9061286D01*
X9885319Y-9099381D01*
X9875795Y-9118429D01*
X9866271Y-9127952D01*
X9847224Y-9137476D01*
X9828176Y-9137476D01*
X9809129Y-9127952D01*
X9799605Y-9118429D01*
X9790081Y-9099381D01*
X9780557Y-9061286D01*
X9780557Y-9013667D01*
X9790081Y-8975571D01*
X9799605Y-8956524D01*
X9809129Y-8947000D01*
X9828176Y-8937476D01*
X9980557Y-9118429D02*
X9990081Y-9127952D01*
X9980557Y-9137476D01*
X9971033Y-9127952D01*
X9980557Y-9118429D01*
X9980557Y-9137476D01*
X10113890Y-8937476D02*
X10132938Y-8937476D01*
X10151986Y-8947000D01*
X10161510Y-8956524D01*
X10171033Y-8975571D01*
X10180557Y-9013667D01*
X10180557Y-9061286D01*
X10171033Y-9099381D01*
X10161510Y-9118429D01*
X10151986Y-9127952D01*
X10132938Y-9137476D01*
X10113890Y-9137476D01*
X10094843Y-9127952D01*
X10085319Y-9118429D01*
X10075795Y-9099381D01*
X10066271Y-9061286D01*
X10066271Y-9013667D01*
X10075795Y-8975571D01*
X10085319Y-8956524D01*
X10094843Y-8947000D01*
X10113890Y-8937476D01*
X10247224Y-8937476D02*
X10371033Y-8937476D01*
X10304367Y-9013667D01*
X10332938Y-9013667D01*
X10351986Y-9023190D01*
X10361510Y-9032714D01*
X10371033Y-9051762D01*
X10371033Y-9099381D01*
X10361510Y-9118429D01*
X10351986Y-9127952D01*
X10332938Y-9137476D01*
X10275795Y-9137476D01*
X10256748Y-9127952D01*
X10247224Y-9118429D01*
X10561510Y-9137476D02*
X10447224Y-9137476D01*
X10504367Y-9137476D02*
X10504367Y-8937476D01*
X10485319Y-8966048D01*
X10466271Y-8985095D01*
X10447224Y-8994619D01*
X10742462Y-8937476D02*
X10647224Y-8937476D01*
X10637700Y-9032714D01*
X10647224Y-9023190D01*
X10666271Y-9013667D01*
X10713890Y-9013667D01*
X10732938Y-9023190D01*
X10742462Y-9032714D01*
X10751986Y-9051762D01*
X10751986Y-9099381D01*
X10742462Y-9118429D01*
X10732938Y-9127952D01*
X10713890Y-9137476D01*
X10666271Y-9137476D01*
X10647224Y-9127952D01*
X10637700Y-9118429D01*
X10828176Y-8937476D02*
X10828176Y-8975571D01*
X10904367Y-8937476D02*
X10904367Y-8975571D01*
X11199605Y-9213667D02*
X11190081Y-9204143D01*
X11171033Y-9175571D01*
X11161510Y-9156524D01*
X11151986Y-9127952D01*
X11142462Y-9080333D01*
X11142462Y-9042238D01*
X11151986Y-8994619D01*
X11161510Y-8966048D01*
X11171033Y-8947000D01*
X11190081Y-8918429D01*
X11199605Y-8908905D01*
X11304367Y-9023190D02*
X11285319Y-9013667D01*
X11275795Y-9004143D01*
X11266271Y-8985095D01*
X11266271Y-8975571D01*
X11275795Y-8956524D01*
X11285319Y-8947000D01*
X11304367Y-8937476D01*
X11342462Y-8937476D01*
X11361509Y-8947000D01*
X11371033Y-8956524D01*
X11380557Y-8975571D01*
X11380557Y-8985095D01*
X11371033Y-9004143D01*
X11361509Y-9013667D01*
X11342462Y-9023190D01*
X11304367Y-9023190D01*
X11285319Y-9032714D01*
X11275795Y-9042238D01*
X11266271Y-9061286D01*
X11266271Y-9099381D01*
X11275795Y-9118429D01*
X11285319Y-9127952D01*
X11304367Y-9137476D01*
X11342462Y-9137476D01*
X11361509Y-9127952D01*
X11371033Y-9118429D01*
X11380557Y-9099381D01*
X11380557Y-9061286D01*
X11371033Y-9042238D01*
X11361509Y-9032714D01*
X11342462Y-9023190D01*
X11551986Y-9004143D02*
X11551986Y-9137476D01*
X11504367Y-8927952D02*
X11456748Y-9070810D01*
X11580557Y-9070810D01*
X11809128Y-9137476D02*
X11809128Y-8937476D01*
X11894843Y-9137476D02*
X11894843Y-9032714D01*
X11885319Y-9013667D01*
X11866271Y-9004143D01*
X11837700Y-9004143D01*
X11818652Y-9013667D01*
X11809128Y-9023190D01*
X12018652Y-9137476D02*
X11999605Y-9127952D01*
X11990081Y-9118429D01*
X11980557Y-9099381D01*
X11980557Y-9042238D01*
X11990081Y-9023190D01*
X11999605Y-9013667D01*
X12018652Y-9004143D01*
X12047224Y-9004143D01*
X12066271Y-9013667D01*
X12075795Y-9023190D01*
X12085319Y-9042238D01*
X12085319Y-9099381D01*
X12075795Y-9118429D01*
X12066271Y-9127952D01*
X12047224Y-9137476D01*
X12018652Y-9137476D01*
X12199605Y-9137476D02*
X12180557Y-9127952D01*
X12171033Y-9108905D01*
X12171033Y-8937476D01*
X12351986Y-9127952D02*
X12332938Y-9137476D01*
X12294843Y-9137476D01*
X12275795Y-9127952D01*
X12266271Y-9108905D01*
X12266271Y-9032714D01*
X12275795Y-9013667D01*
X12294843Y-9004143D01*
X12332938Y-9004143D01*
X12351986Y-9013667D01*
X12361509Y-9032714D01*
X12361509Y-9051762D01*
X12266271Y-9070810D01*
X12437700Y-9127952D02*
X12456748Y-9137476D01*
X12494843Y-9137476D01*
X12513890Y-9127952D01*
X12523414Y-9108905D01*
X12523414Y-9099381D01*
X12513890Y-9080333D01*
X12494843Y-9070810D01*
X12466271Y-9070810D01*
X12447224Y-9061286D01*
X12437700Y-9042238D01*
X12437700Y-9032714D01*
X12447224Y-9013667D01*
X12466271Y-9004143D01*
X12494843Y-9004143D01*
X12513890Y-9013667D01*
X12590081Y-9213667D02*
X12599605Y-9204143D01*
X12618652Y-9175571D01*
X12628176Y-9156524D01*
X12637700Y-9127952D01*
X12647224Y-9080333D01*
X12647224Y-9042238D01*
X12637700Y-8994619D01*
X12628176Y-8966048D01*
X12618652Y-8947000D01*
X12599605Y-8918429D01*
X12590081Y-8908905D01*
D10*
X7613056Y-9346356D02*
X7613056Y-9275644D01*
X7542344Y-9275644D01*
X7542344Y-9346356D01*
X7613056Y-9346356D01*
D11*
X7990081Y-9401476D02*
X7875795Y-9401476D01*
X7932938Y-9401476D02*
X7932938Y-9201476D01*
X7913890Y-9230048D01*
X7894843Y-9249095D01*
X7875795Y-9258619D01*
X8075795Y-9382429D02*
X8085319Y-9391952D01*
X8075795Y-9401476D01*
X8066271Y-9391952D01*
X8075795Y-9382429D01*
X8075795Y-9401476D01*
X8209128Y-9201476D02*
X8228176Y-9201476D01*
X8247224Y-9211000D01*
X8256748Y-9220524D01*
X8266271Y-9239571D01*
X8275795Y-9277667D01*
X8275795Y-9325286D01*
X8266271Y-9363381D01*
X8256748Y-9382429D01*
X8247224Y-9391952D01*
X8228176Y-9401476D01*
X8209128Y-9401476D01*
X8190081Y-9391952D01*
X8180557Y-9382429D01*
X8171033Y-9363381D01*
X8161509Y-9325286D01*
X8161509Y-9277667D01*
X8171033Y-9239571D01*
X8180557Y-9220524D01*
X8190081Y-9211000D01*
X8209128Y-9201476D01*
X8399605Y-9201476D02*
X8418652Y-9201476D01*
X8437700Y-9211000D01*
X8447224Y-9220524D01*
X8456748Y-9239571D01*
X8466271Y-9277667D01*
X8466271Y-9325286D01*
X8456748Y-9363381D01*
X8447224Y-9382429D01*
X8437700Y-9391952D01*
X8418652Y-9401476D01*
X8399605Y-9401476D01*
X8380557Y-9391952D01*
X8371033Y-9382429D01*
X8361509Y-9363381D01*
X8351986Y-9325286D01*
X8351986Y-9277667D01*
X8361509Y-9239571D01*
X8371033Y-9220524D01*
X8380557Y-9211000D01*
X8399605Y-9201476D01*
X8590081Y-9201476D02*
X8609129Y-9201476D01*
X8628176Y-9211000D01*
X8637700Y-9220524D01*
X8647224Y-9239571D01*
X8656748Y-9277667D01*
X8656748Y-9325286D01*
X8647224Y-9363381D01*
X8637700Y-9382429D01*
X8628176Y-9391952D01*
X8609129Y-9401476D01*
X8590081Y-9401476D01*
X8571033Y-9391952D01*
X8561510Y-9382429D01*
X8551986Y-9363381D01*
X8542462Y-9325286D01*
X8542462Y-9277667D01*
X8551986Y-9239571D01*
X8561510Y-9220524D01*
X8571033Y-9211000D01*
X8590081Y-9201476D01*
X8742462Y-9401476D02*
X8742462Y-9268143D01*
X8742462Y-9287190D02*
X8751986Y-9277667D01*
X8771033Y-9268143D01*
X8799605Y-9268143D01*
X8818652Y-9277667D01*
X8828176Y-9296714D01*
X8828176Y-9401476D01*
X8828176Y-9296714D02*
X8837700Y-9277667D01*
X8856748Y-9268143D01*
X8885319Y-9268143D01*
X8904367Y-9277667D01*
X8913890Y-9296714D01*
X8913890Y-9401476D01*
X9009129Y-9401476D02*
X9009129Y-9268143D01*
X9009129Y-9287190D02*
X9018652Y-9277667D01*
X9037700Y-9268143D01*
X9066271Y-9268143D01*
X9085319Y-9277667D01*
X9094843Y-9296714D01*
X9094843Y-9401476D01*
X9094843Y-9296714D02*
X9104367Y-9277667D01*
X9123414Y-9268143D01*
X9151986Y-9268143D01*
X9171033Y-9277667D01*
X9180557Y-9296714D01*
X9180557Y-9401476D01*
X9571033Y-9191952D02*
X9399605Y-9449095D01*
X9828176Y-9201476D02*
X9847224Y-9201476D01*
X9866271Y-9211000D01*
X9875795Y-9220524D01*
X9885319Y-9239571D01*
X9894843Y-9277667D01*
X9894843Y-9325286D01*
X9885319Y-9363381D01*
X9875795Y-9382429D01*
X9866271Y-9391952D01*
X9847224Y-9401476D01*
X9828176Y-9401476D01*
X9809129Y-9391952D01*
X9799605Y-9382429D01*
X9790081Y-9363381D01*
X9780557Y-9325286D01*
X9780557Y-9277667D01*
X9790081Y-9239571D01*
X9799605Y-9220524D01*
X9809129Y-9211000D01*
X9828176Y-9201476D01*
X9980557Y-9382429D02*
X9990081Y-9391952D01*
X9980557Y-9401476D01*
X9971033Y-9391952D01*
X9980557Y-9382429D01*
X9980557Y-9401476D01*
X10113890Y-9201476D02*
X10132938Y-9201476D01*
X10151986Y-9211000D01*
X10161510Y-9220524D01*
X10171033Y-9239571D01*
X10180557Y-9277667D01*
X10180557Y-9325286D01*
X10171033Y-9363381D01*
X10161510Y-9382429D01*
X10151986Y-9391952D01*
X10132938Y-9401476D01*
X10113890Y-9401476D01*
X10094843Y-9391952D01*
X10085319Y-9382429D01*
X10075795Y-9363381D01*
X10066271Y-9325286D01*
X10066271Y-9277667D01*
X10075795Y-9239571D01*
X10085319Y-9220524D01*
X10094843Y-9211000D01*
X10113890Y-9201476D01*
X10247224Y-9201476D02*
X10371033Y-9201476D01*
X10304367Y-9277667D01*
X10332938Y-9277667D01*
X10351986Y-9287190D01*
X10361510Y-9296714D01*
X10371033Y-9315762D01*
X10371033Y-9363381D01*
X10361510Y-9382429D01*
X10351986Y-9391952D01*
X10332938Y-9401476D01*
X10275795Y-9401476D01*
X10256748Y-9391952D01*
X10247224Y-9382429D01*
X10466271Y-9401476D02*
X10504367Y-9401476D01*
X10523414Y-9391952D01*
X10532938Y-9382429D01*
X10551986Y-9353857D01*
X10561510Y-9315762D01*
X10561510Y-9239571D01*
X10551986Y-9220524D01*
X10542462Y-9211000D01*
X10523414Y-9201476D01*
X10485319Y-9201476D01*
X10466271Y-9211000D01*
X10456748Y-9220524D01*
X10447224Y-9239571D01*
X10447224Y-9287190D01*
X10456748Y-9306238D01*
X10466271Y-9315762D01*
X10485319Y-9325286D01*
X10523414Y-9325286D01*
X10542462Y-9315762D01*
X10551986Y-9306238D01*
X10561510Y-9287190D01*
X10732938Y-9268143D02*
X10732938Y-9401476D01*
X10685319Y-9191952D02*
X10637700Y-9334810D01*
X10761510Y-9334810D01*
X10828176Y-9201476D02*
X10828176Y-9239571D01*
X10904367Y-9201476D02*
X10904367Y-9239571D01*
X11199605Y-9477667D02*
X11190081Y-9468143D01*
X11171033Y-9439571D01*
X11161510Y-9420524D01*
X11151986Y-9391952D01*
X11142462Y-9344333D01*
X11142462Y-9306238D01*
X11151986Y-9258619D01*
X11161510Y-9230048D01*
X11171033Y-9211000D01*
X11190081Y-9182429D01*
X11199605Y-9172905D01*
X11304367Y-9287190D02*
X11285319Y-9277667D01*
X11275795Y-9268143D01*
X11266271Y-9249095D01*
X11266271Y-9239571D01*
X11275795Y-9220524D01*
X11285319Y-9211000D01*
X11304367Y-9201476D01*
X11342462Y-9201476D01*
X11361509Y-9211000D01*
X11371033Y-9220524D01*
X11380557Y-9239571D01*
X11380557Y-9249095D01*
X11371033Y-9268143D01*
X11361509Y-9277667D01*
X11342462Y-9287190D01*
X11304367Y-9287190D01*
X11285319Y-9296714D01*
X11275795Y-9306238D01*
X11266271Y-9325286D01*
X11266271Y-9363381D01*
X11275795Y-9382429D01*
X11285319Y-9391952D01*
X11304367Y-9401476D01*
X11342462Y-9401476D01*
X11361509Y-9391952D01*
X11371033Y-9382429D01*
X11380557Y-9363381D01*
X11380557Y-9325286D01*
X11371033Y-9306238D01*
X11361509Y-9296714D01*
X11342462Y-9287190D01*
X11504367Y-9201476D02*
X11523414Y-9201476D01*
X11542462Y-9211000D01*
X11551986Y-9220524D01*
X11561509Y-9239571D01*
X11571033Y-9277667D01*
X11571033Y-9325286D01*
X11561509Y-9363381D01*
X11551986Y-9382429D01*
X11542462Y-9391952D01*
X11523414Y-9401476D01*
X11504367Y-9401476D01*
X11485319Y-9391952D01*
X11475795Y-9382429D01*
X11466271Y-9363381D01*
X11456748Y-9325286D01*
X11456748Y-9277667D01*
X11466271Y-9239571D01*
X11475795Y-9220524D01*
X11485319Y-9211000D01*
X11504367Y-9201476D01*
X11809128Y-9401476D02*
X11809128Y-9201476D01*
X11894843Y-9401476D02*
X11894843Y-9296714D01*
X11885319Y-9277667D01*
X11866271Y-9268143D01*
X11837700Y-9268143D01*
X11818652Y-9277667D01*
X11809128Y-9287190D01*
X12018652Y-9401476D02*
X11999605Y-9391952D01*
X11990081Y-9382429D01*
X11980557Y-9363381D01*
X11980557Y-9306238D01*
X11990081Y-9287190D01*
X11999605Y-9277667D01*
X12018652Y-9268143D01*
X12047224Y-9268143D01*
X12066271Y-9277667D01*
X12075795Y-9287190D01*
X12085319Y-9306238D01*
X12085319Y-9363381D01*
X12075795Y-9382429D01*
X12066271Y-9391952D01*
X12047224Y-9401476D01*
X12018652Y-9401476D01*
X12199605Y-9401476D02*
X12180557Y-9391952D01*
X12171033Y-9372905D01*
X12171033Y-9201476D01*
X12351986Y-9391952D02*
X12332938Y-9401476D01*
X12294843Y-9401476D01*
X12275795Y-9391952D01*
X12266271Y-9372905D01*
X12266271Y-9296714D01*
X12275795Y-9277667D01*
X12294843Y-9268143D01*
X12332938Y-9268143D01*
X12351986Y-9277667D01*
X12361509Y-9296714D01*
X12361509Y-9315762D01*
X12266271Y-9334810D01*
X12437700Y-9391952D02*
X12456748Y-9401476D01*
X12494843Y-9401476D01*
X12513890Y-9391952D01*
X12523414Y-9372905D01*
X12523414Y-9363381D01*
X12513890Y-9344333D01*
X12494843Y-9334810D01*
X12466271Y-9334810D01*
X12447224Y-9325286D01*
X12437700Y-9306238D01*
X12437700Y-9296714D01*
X12447224Y-9277667D01*
X12466271Y-9268143D01*
X12494843Y-9268143D01*
X12513890Y-9277667D01*
X12590081Y-9477667D02*
X12599605Y-9468143D01*
X12618652Y-9439571D01*
X12628176Y-9420524D01*
X12637700Y-9391952D01*
X12647224Y-9344333D01*
X12647224Y-9306238D01*
X12637700Y-9258619D01*
X12628176Y-9230048D01*
X12618652Y-9211000D01*
X12599605Y-9182429D01*
X12590081Y-9172905D01*
M02*
