%TF.GenerationSoftware,KiCad,Pcbnew,(6.0.11-0)*%
%TF.CreationDate,2023-06-20T17:34:37+02:00*%
%TF.ProjectId,atf1508_plcc84_breakout,61746631-3530-4385-9f70-6c636338345f,A*%
%TF.SameCoordinates,Original*%
%TF.FileFunction,Drillmap*%
%TF.FilePolarity,Positive*%
%FSLAX45Y45*%
G04 Gerber Fmt 4.5, Leading zero omitted, Abs format (unit mm)*
G04 Created by KiCad (PCBNEW (6.0.11-0)) date 2023-06-20 17:34:37*
%MOMM*%
%LPD*%
G01*
G04 APERTURE LIST*
%ADD10C,0.100000*%
%ADD11C,0.200000*%
G04 APERTURE END LIST*
D10*
X12115800Y-7874000D02*
X12750800Y-7239000D01*
X9067800Y-4572000D02*
X8432800Y-5207000D01*
X9067800Y-7874000D02*
X12115800Y-7874000D01*
X21717000Y-7239000D02*
X12750800Y-7239000D01*
X8432800Y-5207000D02*
X7632700Y-5207000D01*
X9067800Y-7874000D02*
X8432800Y-7239000D01*
X9067800Y-4572000D02*
X12115800Y-4572000D01*
X21717000Y-5207000D02*
X21717000Y-7239000D01*
X12750800Y-5207000D02*
X12115800Y-4572000D01*
X7632700Y-7239000D02*
X7632700Y-5207000D01*
X12750800Y-5207000D02*
X21717000Y-5207000D01*
X8432800Y-7239000D02*
X7632700Y-7239000D01*
D11*
X7885319Y-8189476D02*
X7885319Y-7989476D01*
X7932938Y-7989476D01*
X7961509Y-7999000D01*
X7980557Y-8018048D01*
X7990081Y-8037095D01*
X7999605Y-8075190D01*
X7999605Y-8103762D01*
X7990081Y-8141857D01*
X7980557Y-8160905D01*
X7961509Y-8179952D01*
X7932938Y-8189476D01*
X7885319Y-8189476D01*
X8085319Y-8189476D02*
X8085319Y-8056143D01*
X8085319Y-8094238D02*
X8094843Y-8075190D01*
X8104367Y-8065667D01*
X8123414Y-8056143D01*
X8142462Y-8056143D01*
X8209128Y-8189476D02*
X8209128Y-8056143D01*
X8209128Y-7989476D02*
X8199605Y-7999000D01*
X8209128Y-8008524D01*
X8218652Y-7999000D01*
X8209128Y-7989476D01*
X8209128Y-8008524D01*
X8332938Y-8189476D02*
X8313890Y-8179952D01*
X8304367Y-8160905D01*
X8304367Y-7989476D01*
X8437700Y-8189476D02*
X8418652Y-8179952D01*
X8409129Y-8160905D01*
X8409129Y-7989476D01*
X8666271Y-8189476D02*
X8666271Y-7989476D01*
X8732938Y-8132333D01*
X8799605Y-7989476D01*
X8799605Y-8189476D01*
X8980557Y-8189476D02*
X8980557Y-8084714D01*
X8971033Y-8065667D01*
X8951986Y-8056143D01*
X8913890Y-8056143D01*
X8894843Y-8065667D01*
X8980557Y-8179952D02*
X8961510Y-8189476D01*
X8913890Y-8189476D01*
X8894843Y-8179952D01*
X8885319Y-8160905D01*
X8885319Y-8141857D01*
X8894843Y-8122809D01*
X8913890Y-8113286D01*
X8961510Y-8113286D01*
X8980557Y-8103762D01*
X9075795Y-8056143D02*
X9075795Y-8256143D01*
X9075795Y-8065667D02*
X9094843Y-8056143D01*
X9132938Y-8056143D01*
X9151986Y-8065667D01*
X9161510Y-8075190D01*
X9171033Y-8094238D01*
X9171033Y-8151381D01*
X9161510Y-8170428D01*
X9151986Y-8179952D01*
X9132938Y-8189476D01*
X9094843Y-8189476D01*
X9075795Y-8179952D01*
X9256748Y-8170428D02*
X9266271Y-8179952D01*
X9256748Y-8189476D01*
X9247224Y-8179952D01*
X9256748Y-8170428D01*
X9256748Y-8189476D01*
X9256748Y-8065667D02*
X9266271Y-8075190D01*
X9256748Y-8084714D01*
X9247224Y-8075190D01*
X9256748Y-8065667D01*
X9256748Y-8084714D01*
M02*
