G04 #@! TF.GenerationSoftware,KiCad,Pcbnew,7.0.5-0*
G04 #@! TF.CreationDate,2023-07-15T23:21:00+02:00*
G04 #@! TF.ProjectId,atf1508_plcc84_breakout,61746631-3530-4385-9f70-6c636338345f,B*
G04 #@! TF.SameCoordinates,Original*
G04 #@! TF.FileFunction,Soldermask,Bot*
G04 #@! TF.FilePolarity,Negative*
%FSLAX46Y46*%
G04 Gerber Fmt 4.6, Leading zero omitted, Abs format (unit mm)*
G04 Created by KiCad (PCBNEW 7.0.5-0) date 2023-07-15 23:21:00*
%MOMM*%
%LPD*%
G01*
G04 APERTURE LIST*
G04 Aperture macros list*
%AMRoundRect*
0 Rectangle with rounded corners*
0 $1 Rounding radius*
0 $2 $3 $4 $5 $6 $7 $8 $9 X,Y pos of 4 corners*
0 Add a 4 corners polygon primitive as box body*
4,1,4,$2,$3,$4,$5,$6,$7,$8,$9,$2,$3,0*
0 Add four circle primitives for the rounded corners*
1,1,$1+$1,$2,$3*
1,1,$1+$1,$4,$5*
1,1,$1+$1,$6,$7*
1,1,$1+$1,$8,$9*
0 Add four rect primitives between the rounded corners*
20,1,$1+$1,$2,$3,$4,$5,0*
20,1,$1+$1,$4,$5,$6,$7,0*
20,1,$1+$1,$6,$7,$8,$9,0*
20,1,$1+$1,$8,$9,$2,$3,0*%
G04 Aperture macros list end*
%ADD10R,1.200000X1.200000*%
%ADD11C,1.200000*%
%ADD12R,1.422400X1.422400*%
%ADD13C,1.422400*%
%ADD14RoundRect,0.250000X-0.600000X-0.600000X0.600000X-0.600000X0.600000X0.600000X-0.600000X0.600000X0*%
%ADD15C,1.700000*%
%ADD16RoundRect,0.250000X0.337500X0.475000X-0.337500X0.475000X-0.337500X-0.475000X0.337500X-0.475000X0*%
%ADD17RoundRect,0.250000X-0.475000X0.337500X-0.475000X-0.337500X0.475000X-0.337500X0.475000X0.337500X0*%
%ADD18RoundRect,0.250000X-0.337500X-0.475000X0.337500X-0.475000X0.337500X0.475000X-0.337500X0.475000X0*%
%ADD19R,1.700000X1.700000*%
%ADD20O,1.700000X1.700000*%
%ADD21RoundRect,0.250000X0.475000X-0.337500X0.475000X0.337500X-0.475000X0.337500X-0.475000X-0.337500X0*%
G04 APERTURE END LIST*
D10*
X125603000Y-61976000D03*
D11*
X127103000Y-61976000D03*
D12*
X104648000Y-46990000D03*
D13*
X104648000Y-49530000D03*
X102108000Y-46990000D03*
X102108000Y-49530000D03*
X99568000Y-46990000D03*
X99568000Y-49530000D03*
X97028000Y-46990000D03*
X97028000Y-49530000D03*
X94488000Y-46990000D03*
X94488000Y-49530000D03*
X91948000Y-46990000D03*
X89408000Y-49530000D03*
X91948000Y-49530000D03*
X89408000Y-52070000D03*
X91948000Y-52070000D03*
X89408000Y-54610000D03*
X91948000Y-54610000D03*
X89408000Y-57150000D03*
X91948000Y-57150000D03*
X89408000Y-59690000D03*
X91948000Y-59690000D03*
X89408000Y-62230000D03*
X91948000Y-62230000D03*
X89408000Y-64770000D03*
X91948000Y-64770000D03*
X89408000Y-67310000D03*
X91948000Y-67310000D03*
X89408000Y-69850000D03*
X91948000Y-69850000D03*
X89408000Y-72390000D03*
X91948000Y-72390000D03*
X89408000Y-74930000D03*
X91948000Y-77470000D03*
X91948000Y-74930000D03*
X94488000Y-77470000D03*
X94488000Y-74930000D03*
X97028000Y-77470000D03*
X97028000Y-74930000D03*
X99568000Y-77470000D03*
X99568000Y-74930000D03*
X102108000Y-77470000D03*
X102108000Y-74930000D03*
X104648000Y-77470000D03*
X104648000Y-74930000D03*
X107188000Y-77470000D03*
X107188000Y-74930000D03*
X109728000Y-77470000D03*
X109728000Y-74930000D03*
X112268000Y-77470000D03*
X112268000Y-74930000D03*
X114808000Y-77470000D03*
X114808000Y-74930000D03*
X117348000Y-77470000D03*
X119888000Y-74930000D03*
X117348000Y-74930000D03*
X119888000Y-72390000D03*
X117348000Y-72390000D03*
X119888000Y-69850000D03*
X117348000Y-69850000D03*
X119888000Y-67310000D03*
X117348000Y-67310000D03*
X119888000Y-64770000D03*
X117348000Y-64770000D03*
X119888000Y-62230000D03*
X117348000Y-62230000D03*
X119888000Y-59690000D03*
X117348000Y-59690000D03*
X119888000Y-57150000D03*
X117348000Y-57150000D03*
X119888000Y-54610000D03*
X117348000Y-54610000D03*
X119888000Y-52070000D03*
X117348000Y-52070000D03*
X119888000Y-49530000D03*
X117348000Y-46990000D03*
X117348000Y-49530000D03*
X114808000Y-46990000D03*
X114808000Y-49530000D03*
X112268000Y-46990000D03*
X112268000Y-49530000D03*
X109728000Y-46990000D03*
X109728000Y-49530000D03*
X107188000Y-46990000D03*
X107188000Y-49530000D03*
D14*
X79756000Y-57150000D03*
D15*
X82296000Y-57150000D03*
X79756000Y-59690000D03*
X82296000Y-59690000D03*
X79756000Y-62230000D03*
X82296000Y-62230000D03*
X79756000Y-64770000D03*
X82296000Y-64770000D03*
X79756000Y-67310000D03*
X82296000Y-67310000D03*
D16*
X113305500Y-52578000D03*
X111230500Y-52578000D03*
D17*
X94869000Y-52451000D03*
X94869000Y-54526000D03*
D18*
X98530500Y-72009000D03*
X100605500Y-72009000D03*
D17*
X94869000Y-70082500D03*
X94869000Y-72157500D03*
D19*
X129535000Y-71120000D03*
D20*
X132075000Y-71120000D03*
X134615000Y-71120000D03*
X137155000Y-71120000D03*
X139695000Y-71120000D03*
X142235000Y-71120000D03*
X144775000Y-71120000D03*
X147315000Y-71120000D03*
X149855000Y-71120000D03*
X152395000Y-71120000D03*
X154935000Y-71120000D03*
X157475000Y-71120000D03*
X160015000Y-71120000D03*
X162555000Y-71120000D03*
X165095000Y-71120000D03*
X167635000Y-71120000D03*
X170175000Y-71120000D03*
X172715000Y-71120000D03*
X175255000Y-71120000D03*
X177795000Y-71120000D03*
X180335000Y-71120000D03*
X182875000Y-71120000D03*
X185415000Y-71120000D03*
X187955000Y-71120000D03*
X190495000Y-71120000D03*
X193035000Y-71120000D03*
X195575000Y-71120000D03*
X198115000Y-71120000D03*
X200655000Y-71120000D03*
X203195000Y-71120000D03*
X205735000Y-71120000D03*
X208275000Y-71120000D03*
X210815000Y-71120000D03*
X213355000Y-71120000D03*
X215895000Y-71120000D03*
D18*
X106150500Y-72009000D03*
X108225500Y-72009000D03*
D21*
X114427000Y-72157500D03*
X114427000Y-70082500D03*
D19*
X129540000Y-53340000D03*
D20*
X132080000Y-53340000D03*
X134620000Y-53340000D03*
X137160000Y-53340000D03*
X139700000Y-53340000D03*
X142240000Y-53340000D03*
X144780000Y-53340000D03*
X147320000Y-53340000D03*
X149860000Y-53340000D03*
X152400000Y-53340000D03*
X154940000Y-53340000D03*
X157480000Y-53340000D03*
X160020000Y-53340000D03*
X162560000Y-53340000D03*
X165100000Y-53340000D03*
X167640000Y-53340000D03*
X170180000Y-53340000D03*
X172720000Y-53340000D03*
X175260000Y-53340000D03*
X177800000Y-53340000D03*
X180340000Y-53340000D03*
X182880000Y-53340000D03*
X185420000Y-53340000D03*
X187960000Y-53340000D03*
X190500000Y-53340000D03*
X193040000Y-53340000D03*
X195580000Y-53340000D03*
X198120000Y-53340000D03*
X200660000Y-53340000D03*
X203200000Y-53340000D03*
X205740000Y-53340000D03*
X208280000Y-53340000D03*
X210820000Y-53340000D03*
X213360000Y-53340000D03*
X215900000Y-53340000D03*
D21*
X114427000Y-56790500D03*
X114427000Y-54715500D03*
D16*
X100605500Y-52578000D03*
X98530500Y-52578000D03*
M02*
