G04 #@! TF.GenerationSoftware,KiCad,Pcbnew,7.0.5-0*
G04 #@! TF.CreationDate,2023-06-22T13:56:14+02:00*
G04 #@! TF.ProjectId,atf1508_plcc84_breakout,61746631-3530-4385-9f70-6c636338345f,A*
G04 #@! TF.SameCoordinates,Original*
G04 #@! TF.FileFunction,Copper,L1,Top*
G04 #@! TF.FilePolarity,Positive*
%FSLAX46Y46*%
G04 Gerber Fmt 4.6, Leading zero omitted, Abs format (unit mm)*
G04 Created by KiCad (PCBNEW 7.0.5-0) date 2023-06-22 13:56:14*
%MOMM*%
%LPD*%
G01*
G04 APERTURE LIST*
G04 Aperture macros list*
%AMRoundRect*
0 Rectangle with rounded corners*
0 $1 Rounding radius*
0 $2 $3 $4 $5 $6 $7 $8 $9 X,Y pos of 4 corners*
0 Add a 4 corners polygon primitive as box body*
4,1,4,$2,$3,$4,$5,$6,$7,$8,$9,$2,$3,0*
0 Add four circle primitives for the rounded corners*
1,1,$1+$1,$2,$3*
1,1,$1+$1,$4,$5*
1,1,$1+$1,$6,$7*
1,1,$1+$1,$8,$9*
0 Add four rect primitives between the rounded corners*
20,1,$1+$1,$2,$3,$4,$5,0*
20,1,$1+$1,$4,$5,$6,$7,0*
20,1,$1+$1,$6,$7,$8,$9,0*
20,1,$1+$1,$8,$9,$2,$3,0*%
G04 Aperture macros list end*
G04 #@! TA.AperFunction,ComponentPad*
%ADD10C,1.200000*%
G04 #@! TD*
G04 #@! TA.AperFunction,ComponentPad*
%ADD11R,1.200000X1.200000*%
G04 #@! TD*
G04 #@! TA.AperFunction,ComponentPad*
%ADD12R,1.422400X1.422400*%
G04 #@! TD*
G04 #@! TA.AperFunction,ComponentPad*
%ADD13C,1.422400*%
G04 #@! TD*
G04 #@! TA.AperFunction,ComponentPad*
%ADD14RoundRect,0.250000X-0.600000X-0.600000X0.600000X-0.600000X0.600000X0.600000X-0.600000X0.600000X0*%
G04 #@! TD*
G04 #@! TA.AperFunction,ComponentPad*
%ADD15C,1.700000*%
G04 #@! TD*
G04 #@! TA.AperFunction,SMDPad,CuDef*
%ADD16R,1.980000X3.000000*%
G04 #@! TD*
G04 #@! TA.AperFunction,ComponentPad*
%ADD17R,1.700000X1.700000*%
G04 #@! TD*
G04 #@! TA.AperFunction,ComponentPad*
%ADD18O,1.700000X1.700000*%
G04 #@! TD*
G04 #@! TA.AperFunction,ViaPad*
%ADD19C,0.600000*%
G04 #@! TD*
G04 #@! TA.AperFunction,ViaPad*
%ADD20C,0.800000*%
G04 #@! TD*
G04 #@! TA.AperFunction,Conductor*
%ADD21C,0.254000*%
G04 #@! TD*
G04 #@! TA.AperFunction,Conductor*
%ADD22C,0.139700*%
G04 #@! TD*
G04 APERTURE END LIST*
D10*
X127992000Y-62230000D03*
D11*
X126492000Y-62230000D03*
D12*
X104648000Y-46990000D03*
D13*
X104648000Y-49530000D03*
X102108000Y-46990000D03*
X102108000Y-49530000D03*
X99568000Y-46990000D03*
X99568000Y-49530000D03*
X97028000Y-46990000D03*
X97028000Y-49530000D03*
X94488000Y-46990000D03*
X94488000Y-49530000D03*
X91948000Y-46990000D03*
X89408000Y-49530000D03*
X91948000Y-49530000D03*
X89408000Y-52070000D03*
X91948000Y-52070000D03*
X89408000Y-54610000D03*
X91948000Y-54610000D03*
X89408000Y-57150000D03*
X91948000Y-57150000D03*
X89408000Y-59690000D03*
X91948000Y-59690000D03*
X89408000Y-62230000D03*
X91948000Y-62230000D03*
X89408000Y-64770000D03*
X91948000Y-64770000D03*
X89408000Y-67310000D03*
X91948000Y-67310000D03*
X89408000Y-69850000D03*
X91948000Y-69850000D03*
X89408000Y-72390000D03*
X91948000Y-72390000D03*
X89408000Y-74930000D03*
X91948000Y-77470000D03*
X91948000Y-74930000D03*
X94488000Y-77470000D03*
X94488000Y-74930000D03*
X97028000Y-77470000D03*
X97028000Y-74930000D03*
X99568000Y-77470000D03*
X99568000Y-74930000D03*
X102108000Y-77470000D03*
X102108000Y-74930000D03*
X104648000Y-77470000D03*
X104648000Y-74930000D03*
X107188000Y-77470000D03*
X107188000Y-74930000D03*
X109728000Y-77470000D03*
X109728000Y-74930000D03*
X112268000Y-77470000D03*
X112268000Y-74930000D03*
X114808000Y-77470000D03*
X114808000Y-74930000D03*
X117348000Y-77470000D03*
X119888000Y-74930000D03*
X117348000Y-74930000D03*
X119888000Y-72390000D03*
X117348000Y-72390000D03*
X119888000Y-69850000D03*
X117348000Y-69850000D03*
X119888000Y-67310000D03*
X117348000Y-67310000D03*
X119888000Y-64770000D03*
X117348000Y-64770000D03*
X119888000Y-62230000D03*
X117348000Y-62230000D03*
X119888000Y-59690000D03*
X117348000Y-59690000D03*
X119888000Y-57150000D03*
X117348000Y-57150000D03*
X119888000Y-54610000D03*
X117348000Y-54610000D03*
X119888000Y-52070000D03*
X117348000Y-52070000D03*
X119888000Y-49530000D03*
X117348000Y-46990000D03*
X117348000Y-49530000D03*
X114808000Y-46990000D03*
X114808000Y-49530000D03*
X112268000Y-46990000D03*
X112268000Y-49530000D03*
X109728000Y-46990000D03*
X109728000Y-49530000D03*
X107188000Y-46990000D03*
X107188000Y-49530000D03*
D14*
X79756000Y-57150000D03*
D15*
X82296000Y-57150000D03*
X79756000Y-59690000D03*
X82296000Y-59690000D03*
X79756000Y-62230000D03*
X82296000Y-62230000D03*
X79756000Y-64770000D03*
X82296000Y-64770000D03*
X79756000Y-67310000D03*
X82296000Y-67310000D03*
D16*
X183970000Y-64382000D03*
X189230000Y-64382000D03*
X189230000Y-59182000D03*
X183970000Y-59182000D03*
D17*
X129535000Y-71120000D03*
D18*
X132075000Y-71120000D03*
X134615000Y-71120000D03*
X137155000Y-71120000D03*
X139695000Y-71120000D03*
X142235000Y-71120000D03*
X144775000Y-71120000D03*
X147315000Y-71120000D03*
X149855000Y-71120000D03*
X152395000Y-71120000D03*
X154935000Y-71120000D03*
X157475000Y-71120000D03*
X160015000Y-71120000D03*
X162555000Y-71120000D03*
X165095000Y-71120000D03*
X167635000Y-71120000D03*
X170175000Y-71120000D03*
X172715000Y-71120000D03*
X175255000Y-71120000D03*
X177795000Y-71120000D03*
X180335000Y-71120000D03*
X182875000Y-71120000D03*
X185415000Y-71120000D03*
X187955000Y-71120000D03*
X190495000Y-71120000D03*
X193035000Y-71120000D03*
X195575000Y-71120000D03*
X198115000Y-71120000D03*
X200655000Y-71120000D03*
X203195000Y-71120000D03*
X205735000Y-71120000D03*
X208275000Y-71120000D03*
X210815000Y-71120000D03*
X213355000Y-71120000D03*
X215895000Y-71120000D03*
D17*
X129540000Y-53340000D03*
D18*
X132080000Y-53340000D03*
X134620000Y-53340000D03*
X137160000Y-53340000D03*
X139700000Y-53340000D03*
X142240000Y-53340000D03*
X144780000Y-53340000D03*
X147320000Y-53340000D03*
X149860000Y-53340000D03*
X152400000Y-53340000D03*
X154940000Y-53340000D03*
X157480000Y-53340000D03*
X160020000Y-53340000D03*
X162560000Y-53340000D03*
X165100000Y-53340000D03*
X167640000Y-53340000D03*
X170180000Y-53340000D03*
X172720000Y-53340000D03*
X175260000Y-53340000D03*
X177800000Y-53340000D03*
X180340000Y-53340000D03*
X182880000Y-53340000D03*
X185420000Y-53340000D03*
X187960000Y-53340000D03*
X190500000Y-53340000D03*
X193040000Y-53340000D03*
X195580000Y-53340000D03*
X198120000Y-53340000D03*
X200660000Y-53340000D03*
X203200000Y-53340000D03*
X205740000Y-53340000D03*
X208280000Y-53340000D03*
X210820000Y-53340000D03*
X213360000Y-53340000D03*
X215900000Y-53340000D03*
D19*
X127635000Y-70231000D03*
D20*
X184023000Y-61976000D03*
X188468000Y-61468000D03*
X177165000Y-60325000D03*
X163169600Y-62014150D03*
X96647000Y-52451000D03*
X112695228Y-55269703D03*
X100584000Y-54102000D03*
X110214501Y-72157499D03*
X107188000Y-73279000D03*
X108369643Y-70580330D03*
X111725245Y-56699977D03*
X103251000Y-57492350D03*
X109746502Y-56533500D03*
X110998000Y-55524400D03*
X102071000Y-70903000D03*
X97285486Y-71885486D03*
D19*
X98933000Y-65278000D03*
X118491000Y-64135000D03*
X93472000Y-61214000D03*
X84836000Y-60452000D03*
X105410000Y-53721000D03*
X130810000Y-58165988D03*
X187452000Y-57277000D03*
X132461000Y-56896000D03*
X154686000Y-57404000D03*
X114300000Y-68569053D03*
X115443000Y-68326000D03*
X115697000Y-67564000D03*
X122174001Y-66420999D03*
X113919000Y-66294000D03*
X113157000Y-66929000D03*
X112141000Y-66294000D03*
X114808000Y-63246000D03*
X114046000Y-62865000D03*
X113665000Y-61722000D03*
X112141000Y-61087000D03*
X135635980Y-57404000D03*
X132842000Y-58420000D03*
X159829500Y-56578500D03*
X162052000Y-56642000D03*
X163258500Y-56959500D03*
X166116000Y-57277000D03*
X167132000Y-57658000D03*
X95758000Y-56896000D03*
X115062000Y-52070000D03*
X108585000Y-52324000D03*
X108077000Y-51689000D03*
X95123000Y-56134000D03*
X115824000Y-51816000D03*
X116078000Y-52832000D03*
X96393000Y-57531000D03*
X109220000Y-52832000D03*
X115824000Y-56007000D03*
X107467400Y-57196503D03*
X115824000Y-56896000D03*
X108204000Y-58013604D03*
X168275000Y-57785000D03*
X170180000Y-58801000D03*
X172974000Y-58913750D03*
X174117000Y-58913750D03*
X115951000Y-57785000D03*
X109113109Y-58323691D03*
X112776000Y-61595000D03*
X115189000Y-64008000D03*
X122682000Y-65786000D03*
X142748000Y-67310000D03*
X141922500Y-67500500D03*
X139319000Y-67564000D03*
X139065016Y-56515000D03*
X143764000Y-55753000D03*
X145923000Y-55753000D03*
X148239850Y-54513850D03*
X129921000Y-69596000D03*
X133731000Y-68834000D03*
X126873000Y-70866000D03*
X138557000Y-68453000D03*
X140779500Y-68135500D03*
D21*
X211429600Y-61468000D02*
X213893400Y-61468000D01*
X215895000Y-63469600D02*
X215895000Y-71120000D01*
X213893400Y-61468000D02*
X215895000Y-63469600D01*
X215900000Y-53340000D02*
X215900000Y-59507200D01*
X215900000Y-59507200D02*
X213939200Y-61468000D01*
X211429600Y-61468000D02*
X213939200Y-61468000D01*
X188468000Y-61468000D02*
X211429600Y-61468000D01*
D22*
X124602474Y-63931800D02*
X165953099Y-63931800D01*
X118287800Y-61290200D02*
X121960874Y-61290200D01*
X121960874Y-61290200D02*
X124602474Y-63931800D01*
X117348000Y-62230000D02*
X118287800Y-61290200D01*
X165953099Y-63931800D02*
X172720000Y-57164899D01*
X172720000Y-57164899D02*
X172720000Y-53340000D01*
X118389400Y-60731400D02*
X117348000Y-59690000D01*
X124838402Y-63373000D02*
X122196802Y-60731400D01*
X91948000Y-46990000D02*
X93567250Y-48609250D01*
X164097426Y-63373000D02*
X124838402Y-63373000D01*
X115051053Y-59806053D02*
X116255800Y-61010800D01*
X116255800Y-61010800D02*
X122081071Y-61010800D01*
X93567250Y-48609250D02*
X93567250Y-49911388D01*
X170180000Y-53340000D02*
X170180000Y-57290426D01*
X122196802Y-60731400D02*
X118389400Y-60731400D01*
X170180000Y-57290426D02*
X164097426Y-63373000D01*
X165328600Y-63652400D02*
X170180000Y-58801000D01*
X124722671Y-63652400D02*
X165328600Y-63652400D01*
X122081071Y-61010800D02*
X124722671Y-63652400D01*
X107431053Y-59806053D02*
X115051053Y-59806053D01*
X93567250Y-49911388D02*
X95344862Y-51689000D01*
X99314000Y-51689000D02*
X107431053Y-59806053D01*
X95344862Y-51689000D02*
X99314000Y-51689000D01*
X115824000Y-56007000D02*
X114407173Y-57423827D01*
X114407173Y-57423827D02*
X107694724Y-57423827D01*
D21*
X112695228Y-55269703D02*
X112695228Y-55729994D01*
D22*
X107694724Y-57423827D02*
X107467400Y-57196503D01*
D21*
X112695228Y-55729994D02*
X111725245Y-56699977D01*
D22*
X159221332Y-59867800D02*
X159221334Y-59867802D01*
X129247843Y-59327184D02*
X129788458Y-59867800D01*
X110594257Y-54406301D02*
X112926449Y-54406301D01*
X116411181Y-55809651D02*
X122541179Y-55809651D01*
X157494144Y-59867802D02*
X159221332Y-59867800D01*
X159221334Y-59867802D02*
X160350198Y-59867802D01*
X160350198Y-59867802D02*
X163258500Y-56959500D01*
X126058714Y-59327184D02*
X129247843Y-59327184D01*
X115973530Y-55372000D02*
X116411181Y-55809651D01*
X129788458Y-59867800D02*
X157494141Y-59867799D01*
X113892148Y-55372000D02*
X115973530Y-55372000D01*
X105562400Y-55524400D02*
X109476158Y-55524400D01*
X157494141Y-59867799D02*
X157494144Y-59867802D01*
X112926449Y-54406301D02*
X113892148Y-55372000D01*
X122541179Y-55809651D02*
X126058714Y-59327184D01*
X99568000Y-49530000D02*
X105562400Y-55524400D01*
X109476158Y-55524400D02*
X110594257Y-54406301D01*
D21*
X110755602Y-55524400D02*
X110998000Y-55524400D01*
X109746502Y-56533500D02*
X110755602Y-55524400D01*
D22*
X109209418Y-58420000D02*
X109113109Y-58323691D01*
X115316000Y-58420000D02*
X109209418Y-58420000D01*
X115951000Y-57785000D02*
X115316000Y-58420000D01*
X115824000Y-56896000D02*
X114985800Y-57734200D01*
X114985800Y-57734200D02*
X108483404Y-57734200D01*
X108483404Y-57734200D02*
X108204000Y-58013604D01*
X95631000Y-48133000D02*
X95631000Y-49784000D01*
X159221338Y-60985402D02*
X163804598Y-60985402D01*
X123526550Y-58375550D02*
X125595783Y-60444783D01*
X95631000Y-49784000D02*
X96749098Y-50902098D01*
X94488000Y-46990000D02*
X95631000Y-48133000D01*
X125595783Y-60444783D02*
X128784915Y-60444783D01*
X96749098Y-50902098D02*
X99797098Y-50902098D01*
X128784915Y-60444783D02*
X129325536Y-60985404D01*
X159221336Y-60985404D02*
X159221338Y-60985402D01*
X99797098Y-50902098D02*
X108142752Y-59247752D01*
X108142752Y-59247752D02*
X116092978Y-59247752D01*
X116092978Y-59247752D02*
X116965181Y-58375550D01*
X116965181Y-58375550D02*
X123526550Y-58375550D01*
X129325536Y-60985404D02*
X159221336Y-60985404D01*
X163804598Y-60985402D02*
X167132000Y-57658000D01*
X96368098Y-51410098D02*
X99670098Y-51410098D01*
X117080912Y-58654950D02*
X123299249Y-58654950D01*
X107787152Y-59527152D02*
X116208710Y-59527152D01*
X94488000Y-49530000D02*
X96368098Y-51410098D01*
X99670098Y-51410098D02*
X107787152Y-59527152D01*
X116208710Y-59527152D02*
X117080912Y-58654950D01*
X125368482Y-60724183D02*
X128669183Y-60724183D01*
X128669183Y-60724183D02*
X129209805Y-61264804D01*
X129209805Y-61264804D02*
X159337068Y-61264804D01*
X123299249Y-58654950D02*
X125368482Y-60724183D01*
X159337068Y-61264804D02*
X159337070Y-61264802D01*
X167843200Y-57785000D02*
X168275000Y-57785000D01*
X159337070Y-61264802D02*
X164363400Y-61264800D01*
X164363400Y-61264800D02*
X167843200Y-57785000D01*
X128900647Y-60165384D02*
X129441262Y-60705999D01*
X158874135Y-60705999D02*
X158874140Y-60706004D01*
X129441262Y-60705999D02*
X158874135Y-60705999D01*
X97028000Y-49530000D02*
X98019099Y-50521099D01*
X98019099Y-50521099D02*
X99924099Y-50521099D01*
X99924099Y-50521099D02*
X108371352Y-58968352D01*
X108371352Y-58968352D02*
X115769516Y-58968352D01*
X115769516Y-58968352D02*
X116641718Y-58096150D01*
X123642282Y-58096150D02*
X125711521Y-60165384D01*
X116641718Y-58096150D02*
X123642282Y-58096150D01*
X125711521Y-60165384D02*
X128900647Y-60165384D01*
X158874140Y-60706004D02*
X159105604Y-60706004D01*
X159105604Y-60706004D02*
X159105606Y-60706002D01*
X159105606Y-60706002D02*
X162686999Y-60706001D01*
X162686999Y-60706001D02*
X166116000Y-57277000D01*
X129132111Y-59606584D02*
X129672727Y-60147200D01*
X123873746Y-57537350D02*
X125942983Y-59606584D01*
X159105600Y-60147200D02*
X159105603Y-60147202D01*
X157494154Y-60426602D02*
X158989868Y-60426600D01*
X157378411Y-60147200D02*
X157378417Y-60147203D01*
X125827252Y-59885984D02*
X129016379Y-59885984D01*
X158989868Y-60426600D02*
X158989872Y-60426602D01*
X125942983Y-59606584D02*
X129132111Y-59606584D01*
X157378417Y-60147203D02*
X159105600Y-60147200D01*
X157262685Y-60426607D02*
X157494149Y-60426607D01*
X160963429Y-60426602D02*
X166790000Y-54600030D01*
X123758014Y-57816750D02*
X125827252Y-59885984D01*
X166790000Y-54600030D02*
X166790000Y-54190000D01*
X157262678Y-60426600D02*
X157262685Y-60426607D01*
X121799350Y-57537350D02*
X123873746Y-57537350D01*
X157494149Y-60426607D02*
X157494154Y-60426602D01*
X133206184Y-60426600D02*
X157262678Y-60426600D01*
X133206176Y-60426608D02*
X133206184Y-60426600D01*
X129016379Y-59885984D02*
X129557003Y-60426608D01*
X120554750Y-57816750D02*
X123758014Y-57816750D01*
X166790000Y-54190000D02*
X167640000Y-53340000D01*
X129557003Y-60426608D02*
X133206176Y-60426608D01*
X158989872Y-60426602D02*
X160963429Y-60426602D01*
X129672727Y-60147200D02*
X157378411Y-60147200D01*
X159105603Y-60147202D02*
X160847697Y-60147202D01*
X119888000Y-57150000D02*
X120554750Y-57816750D01*
X120420901Y-56158901D02*
X121799350Y-57537350D01*
X117348000Y-57150000D02*
X118339099Y-56158901D01*
X118339099Y-56158901D02*
X120420901Y-56158901D01*
X160847697Y-60147202D02*
X165100000Y-55894899D01*
X165100000Y-55894899D02*
X165100000Y-53340000D01*
X122656910Y-55530251D02*
X116682659Y-55530251D01*
X101116902Y-48538902D02*
X99568000Y-46990000D01*
X129363574Y-59047784D02*
X126174445Y-59047784D01*
X110478525Y-54126901D02*
X109360426Y-55245000D01*
X116682659Y-55530251D02*
X116041309Y-54888901D01*
X106157101Y-55245000D02*
X101116902Y-50204801D01*
X126174445Y-59047784D02*
X122656910Y-55530251D01*
X113042180Y-54126901D02*
X110478525Y-54126901D01*
X101116902Y-50204801D02*
X101116902Y-48538902D01*
X162052000Y-56642000D02*
X159105600Y-59588400D01*
X159105600Y-59588400D02*
X129904189Y-59588400D01*
X129904189Y-59588400D02*
X129363574Y-59047784D01*
X116041309Y-54888901D02*
X113804181Y-54888901D01*
X113804181Y-54888901D02*
X113042180Y-54126901D01*
X109360426Y-55245000D02*
X106157101Y-55245000D01*
X162560000Y-54624899D02*
X162560000Y-53340000D01*
X126290177Y-58768384D02*
X129479305Y-58768384D01*
X122131791Y-54610000D02*
X126290177Y-58768384D01*
X119888000Y-54610000D02*
X122131791Y-54610000D01*
X129479305Y-58768384D02*
X130019921Y-59309000D01*
X130019921Y-59309000D02*
X157875899Y-59309000D01*
X157875899Y-59309000D02*
X162560000Y-54624899D01*
X102108000Y-49530000D02*
X106807000Y-54229000D01*
X157378400Y-59029600D02*
X159829500Y-56578500D01*
X109460574Y-54229000D02*
X110145378Y-53544196D01*
X116902700Y-53685152D02*
X121602075Y-53685152D01*
X106807000Y-54229000D02*
X109460574Y-54229000D01*
X110145378Y-53544196D02*
X113755622Y-53544196D01*
X113755622Y-53544196D02*
X114313426Y-54102000D01*
X114313426Y-54102000D02*
X116485852Y-54102000D01*
X116485852Y-54102000D02*
X116902700Y-53685152D01*
X121602075Y-53685152D02*
X126405908Y-58488984D01*
X126405908Y-58488984D02*
X129595036Y-58488984D01*
X129595036Y-58488984D02*
X130135652Y-59029600D01*
X130135652Y-59029600D02*
X157378400Y-59029600D01*
X109496244Y-53798198D02*
X110029647Y-53264796D01*
X126521639Y-58209584D02*
X129710767Y-58209584D01*
X129710767Y-58209584D02*
X130251383Y-58750200D01*
X114796026Y-53822600D02*
X116370120Y-53822600D01*
X110029647Y-53264796D02*
X114238222Y-53264796D01*
X104648000Y-49530000D02*
X104648000Y-50535788D01*
X104648000Y-50535788D02*
X107910410Y-53798198D01*
X107910410Y-53798198D02*
X109496244Y-53798198D01*
X114238222Y-53264796D02*
X114796026Y-53822600D01*
X116370120Y-53822600D02*
X116786969Y-53405752D01*
X116786969Y-53405752D02*
X121717807Y-53405752D01*
X121717807Y-53405752D02*
X126521639Y-58209584D01*
X130251383Y-58750200D02*
X132511800Y-58750200D01*
X132511800Y-58750200D02*
X132842000Y-58420000D01*
X111448850Y-50869850D02*
X116850880Y-50869850D01*
X116566950Y-51149250D02*
X116484400Y-51231800D01*
X135508980Y-57531000D02*
X131572000Y-57531000D01*
X127381000Y-57130485D02*
X121050515Y-50800000D01*
X127558802Y-56565800D02*
X129999881Y-56565800D01*
X131572000Y-57531000D02*
X131318000Y-57277000D01*
X127381000Y-57150000D02*
X127381000Y-57130485D01*
X118186200Y-50825400D02*
X118491001Y-50520600D01*
X121513602Y-50520600D02*
X127558802Y-56565800D01*
X116895330Y-50825400D02*
X118186200Y-50825400D01*
X121050515Y-50800000D02*
X118606732Y-50800000D01*
X110871000Y-50292000D02*
X111448850Y-50869850D01*
X129999881Y-56565800D02*
X130330081Y-56896000D01*
X108585000Y-49149000D02*
X107950000Y-48514000D01*
X130330081Y-56896000D02*
X132461000Y-56896000D01*
X118491001Y-50520600D02*
X121513602Y-50520600D01*
X109539699Y-51231800D02*
X108585000Y-50277101D01*
X127508000Y-57277000D02*
X127381000Y-57150000D01*
X110236000Y-48133000D02*
X110871000Y-48768000D01*
X107188000Y-46990000D02*
X108331000Y-48133000D01*
X135635980Y-57404000D02*
X135508980Y-57531000D01*
X116850880Y-50869850D02*
X116895330Y-50825400D01*
X108331000Y-48133000D02*
X110236000Y-48133000D01*
X131318000Y-57277000D02*
X127508000Y-57277000D01*
X110871000Y-48768000D02*
X110871000Y-50292000D01*
X118606732Y-50800000D02*
X118257482Y-51149250D01*
X118257482Y-51149250D02*
X116566950Y-51149250D01*
X116484400Y-51231800D02*
X109539699Y-51231800D01*
X108585000Y-50277101D02*
X108585000Y-49149000D01*
X107950000Y-48514000D02*
X106172000Y-48514000D01*
X106172000Y-48514000D02*
X104648000Y-46990000D01*
X120392514Y-48609250D02*
X127790264Y-56007000D01*
X111276901Y-50176475D02*
X111682274Y-50581848D01*
X116753352Y-50581848D02*
X116789200Y-50546000D01*
X117856000Y-50546000D02*
X118618000Y-49784000D01*
X111682274Y-50581848D02*
X116753352Y-50581848D01*
X111276901Y-48538901D02*
X111276901Y-50176475D01*
X109728000Y-46990000D02*
X111276901Y-48538901D01*
X116789200Y-50546000D02*
X117856000Y-50546000D01*
X127790264Y-56007000D02*
X138557016Y-56007000D01*
X118618000Y-49784000D02*
X118618000Y-49276000D01*
X118618000Y-49276000D02*
X119284750Y-48609250D01*
X119284750Y-48609250D02*
X120392514Y-48609250D01*
X138557016Y-56007000D02*
X139065016Y-56515000D01*
X113328948Y-48469052D02*
X118210607Y-48469052D01*
X118094875Y-48189652D02*
X118583329Y-47701200D01*
X113467652Y-48189652D02*
X118094875Y-48189652D01*
X140884350Y-56302350D02*
X149437650Y-56302350D01*
X112268000Y-46990000D02*
X113467652Y-48189652D01*
X145338800Y-55168800D02*
X145923000Y-55753000D01*
X143459200Y-55448200D02*
X143764000Y-55753000D01*
X120564731Y-47980600D02*
X128032331Y-55448200D01*
X118583329Y-47701200D02*
X120680462Y-47701200D01*
X128148062Y-55168800D02*
X145338800Y-55168800D01*
X120680462Y-47701200D02*
X128148062Y-55168800D01*
X140309600Y-55727600D02*
X140884350Y-56302350D01*
X118699060Y-47980600D02*
X120564731Y-47980600D01*
X118210607Y-48469052D02*
X118699060Y-47980600D01*
X112268000Y-49530000D02*
X113328948Y-48469052D01*
X128032331Y-55448200D02*
X143459200Y-55448200D01*
X118814791Y-48260000D02*
X120438396Y-48260000D01*
X117544791Y-49530000D02*
X118814791Y-48260000D01*
X127905996Y-55727600D02*
X140309600Y-55727600D01*
X120438396Y-48260000D02*
X127905996Y-55727600D01*
X149437650Y-56302350D02*
X152400000Y-53340000D01*
X118491000Y-47398395D02*
X120889187Y-47398395D01*
X128380191Y-54889400D02*
X147726400Y-54889400D01*
X149284081Y-55118000D02*
X149860000Y-54542081D01*
X120889187Y-47398395D02*
X128380191Y-54889400D01*
X147726400Y-54889400D02*
X147955000Y-55118000D01*
X114808000Y-46990000D02*
X115728252Y-47910252D01*
X149860000Y-54542081D02*
X149860000Y-53340000D01*
X115728252Y-47910252D02*
X117979143Y-47910252D01*
X117979143Y-47910252D02*
X118491000Y-47398395D01*
X147955000Y-55118000D02*
X149284081Y-55118000D01*
X127254000Y-69596000D02*
X129921000Y-69596000D01*
X120972852Y-75877148D02*
X127254000Y-69596000D01*
X114808000Y-74930000D02*
X115755148Y-75877148D01*
X115755148Y-75877148D02*
X120972852Y-75877148D01*
X127635000Y-70231000D02*
X127635000Y-71437500D01*
X127635000Y-71437500D02*
X122637550Y-76434950D01*
X122637550Y-76434950D02*
X115843050Y-76434950D01*
X115843050Y-76434950D02*
X114808000Y-77470000D01*
X121709951Y-76156049D02*
X126873000Y-70993000D01*
X126873000Y-70993000D02*
X126873000Y-70866000D01*
X113581951Y-76156049D02*
X121709951Y-76156049D01*
X112268000Y-77470000D02*
X113581951Y-76156049D01*
X120875923Y-46990000D02*
X117348000Y-46990000D01*
X148222439Y-54496439D02*
X147728571Y-54496439D01*
X147615010Y-54610000D02*
X128495923Y-54610000D01*
X148239850Y-54513850D02*
X148222439Y-54496439D01*
X147728571Y-54496439D02*
X147615010Y-54610000D01*
X128495923Y-54610000D02*
X120875923Y-46990000D01*
X132637802Y-56719198D02*
X132461000Y-56896000D01*
X137806268Y-57429400D02*
X137096066Y-56719198D01*
X154686000Y-57404000D02*
X154660600Y-57429400D01*
X154660600Y-57429400D02*
X137806268Y-57429400D01*
X137096066Y-56719198D02*
X132637802Y-56719198D01*
X127674533Y-56286400D02*
X137058400Y-56286400D01*
X153670000Y-57150000D02*
X157480000Y-53340000D01*
X119888000Y-49530000D02*
X120918132Y-49530000D01*
X137922000Y-57150000D02*
X153670000Y-57150000D01*
X120918132Y-49530000D02*
X127674533Y-56286400D01*
X137058400Y-56286400D02*
X137922000Y-57150000D01*
X118603823Y-52070000D02*
X117348000Y-52070000D01*
X127101600Y-57246217D02*
X121017333Y-51161950D01*
X160020000Y-53340000D02*
X155194000Y-58166000D01*
X127101600Y-57265731D02*
X127101600Y-57246217D01*
X127392268Y-57556400D02*
X127101600Y-57265731D01*
X121017333Y-51161950D02*
X119511873Y-51161950D01*
X134070150Y-57870150D02*
X131484102Y-57870150D01*
X134366000Y-58166000D02*
X134070150Y-57870150D01*
X119511873Y-51161950D02*
X118603823Y-52070000D01*
X131170352Y-57556400D02*
X127392268Y-57556400D01*
X131484102Y-57870150D02*
X131170352Y-57556400D01*
X155194000Y-58166000D02*
X134366000Y-58166000D01*
D21*
X184023000Y-61976000D02*
X184023000Y-64329000D01*
X184023000Y-61976000D02*
X183970000Y-61923000D01*
X183970000Y-61923000D02*
X183970000Y-59182000D01*
X189230000Y-62230000D02*
X189230000Y-64382000D01*
X188468000Y-61468000D02*
X189230000Y-62230000D01*
X170175000Y-67315000D02*
X177165000Y-60325000D01*
X177165000Y-60325000D02*
X180340000Y-57150000D01*
X127546967Y-61175033D02*
X128482435Y-61175033D01*
X126492000Y-62230000D02*
X127546967Y-61175033D01*
X128482435Y-61175033D02*
X129410402Y-62103000D01*
X129410402Y-62103000D02*
X163080750Y-62103000D01*
X163080750Y-62103000D02*
X163169600Y-62014150D01*
D22*
X189230000Y-59055000D02*
X187452000Y-57277000D01*
X177800000Y-53340000D02*
X177800000Y-56021899D01*
X177800000Y-56021899D02*
X168645502Y-65176397D01*
X122907775Y-63817626D02*
X119458273Y-63817626D01*
X118632899Y-64770000D02*
X117348000Y-64770000D01*
X168645502Y-65176397D02*
X125896539Y-65176397D01*
X125896534Y-65176400D02*
X124266548Y-65176400D01*
X119040350Y-64235549D02*
X119040350Y-64362549D01*
X125896539Y-65176397D02*
X125896534Y-65176400D01*
X124266548Y-65176400D02*
X122907775Y-63817626D01*
X119458273Y-63817626D02*
X119040350Y-64235549D01*
X119040350Y-64362549D02*
X118632899Y-64770000D01*
X89408000Y-49530000D02*
X91002073Y-51124073D01*
X123139239Y-63258826D02*
X124498009Y-64617597D01*
X91002073Y-51124073D02*
X92653073Y-51124073D01*
X92653073Y-51124073D02*
X101726501Y-60197501D01*
X101726501Y-60197501D02*
X113551633Y-60197501D01*
X113551633Y-60197501D02*
X116612958Y-63258826D01*
X167270153Y-64617597D02*
X172974000Y-58913750D01*
X116612958Y-63258826D02*
X123139239Y-63258826D01*
X124498009Y-64617597D02*
X167270153Y-64617597D01*
X175260000Y-53340000D02*
X175260000Y-55020031D01*
X175260000Y-55020031D02*
X165941834Y-64338197D01*
X124613741Y-64338197D02*
X122505543Y-62230000D01*
X165941834Y-64338197D02*
X124613741Y-64338197D01*
X122505543Y-62230000D02*
X119888000Y-62230000D01*
X174117000Y-58928000D02*
X174117000Y-58913750D01*
X100354901Y-60476901D02*
X113435901Y-60476901D01*
X123023507Y-63538226D02*
X124382278Y-64896997D01*
X91948000Y-52070000D02*
X100354901Y-60476901D01*
X113435901Y-60476901D02*
X116497227Y-63538226D01*
X124382278Y-64896997D02*
X168148003Y-64896997D01*
X116497227Y-63538226D02*
X123023507Y-63538226D01*
X168148003Y-64896997D02*
X174117000Y-58928000D01*
X116330589Y-53467000D02*
X116671238Y-53126352D01*
X126637339Y-57930151D02*
X130574163Y-57930151D01*
X130574163Y-57930151D02*
X130810000Y-58165988D01*
X114353954Y-52985396D02*
X114835558Y-53467000D01*
X121833539Y-53126352D02*
X126637339Y-57930151D01*
X109432311Y-53467000D02*
X109913916Y-52985396D01*
X114835558Y-53467000D02*
X116330589Y-53467000D01*
X116671238Y-53126352D02*
X121833539Y-53126352D01*
X108951101Y-53467000D02*
X109432311Y-53467000D01*
X109913916Y-52985396D02*
X114353954Y-52985396D01*
X107188000Y-51703899D02*
X108951101Y-53467000D01*
X107188000Y-49530000D02*
X107188000Y-51703899D01*
D21*
X121793000Y-59690000D02*
X119888000Y-59690000D01*
X126492000Y-62230000D02*
X124333000Y-62230000D01*
X124333000Y-62230000D02*
X121793000Y-59690000D01*
D22*
X134797803Y-65735197D02*
X143132279Y-65735197D01*
X122823132Y-67310000D02*
X124372507Y-65760625D01*
X125986842Y-65481222D02*
X126012263Y-65455802D01*
X126127996Y-65735200D02*
X134797800Y-65735200D01*
X147315000Y-68956000D02*
X147315000Y-71120000D01*
X124256778Y-65481222D02*
X125986842Y-65481222D01*
X117348000Y-67310000D02*
X118322650Y-66335350D01*
X120215488Y-66335350D02*
X120910738Y-67030600D01*
X144775000Y-67377918D02*
X144775000Y-71120000D01*
X122707400Y-67030600D02*
X124256778Y-65481222D01*
X134797800Y-65735200D02*
X134797803Y-65735197D01*
X126012268Y-65455800D02*
X134682068Y-65455800D01*
X143132279Y-65735197D02*
X144775000Y-67377918D01*
X126012263Y-65455802D02*
X126012268Y-65455800D01*
X119888000Y-67310000D02*
X122823132Y-67310000D01*
X126102571Y-65760625D02*
X126127996Y-65735200D01*
X143814797Y-65455797D02*
X147315000Y-68956000D01*
X120910738Y-67030600D02*
X122707400Y-67030600D01*
X118322650Y-66335350D02*
X120215488Y-66335350D01*
X134682071Y-65455797D02*
X143814797Y-65455797D01*
X124372507Y-65760625D02*
X126102571Y-65760625D01*
X134682068Y-65455800D02*
X134682071Y-65455797D01*
X140716000Y-66294000D02*
X141922500Y-67500500D01*
X104648000Y-74930000D02*
X104648000Y-73279000D01*
X115570000Y-69850000D02*
X116864402Y-68555598D01*
X116864402Y-68555598D02*
X124097860Y-68555598D01*
X124097860Y-68555598D02*
X126359458Y-66294000D01*
X108077000Y-69850000D02*
X115570000Y-69850000D01*
X126359458Y-66294000D02*
X140716000Y-66294000D01*
X124488236Y-66040028D02*
X126218298Y-66040028D01*
X102108000Y-77470000D02*
X103727250Y-75850750D01*
X141452600Y-66014600D02*
X142748000Y-67310000D01*
X103727250Y-75850750D02*
X103727250Y-73381699D01*
X103727250Y-73381699D02*
X107700698Y-69408251D01*
X104648000Y-73279000D02*
X108077000Y-69850000D01*
X107700698Y-69408251D02*
X115376749Y-69408251D01*
X115376749Y-69408251D02*
X116508802Y-68276198D01*
X116508802Y-68276198D02*
X122252066Y-68276198D01*
X122252066Y-68276198D02*
X124488236Y-66040028D01*
X126218298Y-66040028D02*
X126243727Y-66014600D01*
X126243727Y-66014600D02*
X141452600Y-66014600D01*
X126867655Y-67132200D02*
X138887200Y-67132200D01*
X108458000Y-74549000D02*
X108997750Y-74009250D01*
X140779500Y-67246500D02*
X140779500Y-68135500D01*
X140081000Y-68966000D02*
X140081000Y-67323426D01*
X142235000Y-71120000D02*
X140081000Y-68966000D01*
X126751923Y-66852800D02*
X123754723Y-69850000D01*
X107188000Y-74930000D02*
X108387651Y-73730349D01*
X140106392Y-66573392D02*
X140779500Y-67246500D01*
X127169577Y-66573392D02*
X140106392Y-66573392D01*
X117776732Y-70885050D02*
X118491000Y-70170782D01*
X140081000Y-67323426D02*
X139610374Y-66852800D01*
X118491000Y-69596000D02*
X119252002Y-68834998D01*
X108997750Y-74009250D02*
X110775750Y-74009250D01*
X118491000Y-70170782D02*
X118491000Y-69596000D01*
X124374592Y-68834998D02*
X126636192Y-66573400D01*
X110775750Y-74009250D02*
X113621049Y-71163951D01*
X108387651Y-73730349D02*
X110138092Y-73730349D01*
X139610374Y-66852800D02*
X126751923Y-66852800D01*
X110138092Y-73730349D02*
X112983391Y-70885050D01*
X123133854Y-70866000D02*
X126867655Y-67132200D01*
X123754723Y-69850000D02*
X119888000Y-69850000D01*
X118293197Y-71163951D02*
X118591149Y-70866000D01*
X107188000Y-77470000D02*
X108458000Y-76200000D01*
X127169569Y-66573400D02*
X127169577Y-66573392D01*
X126636192Y-66573400D02*
X127169569Y-66573400D01*
X112983391Y-70885050D02*
X117776732Y-70885050D01*
X138887200Y-67132200D02*
X139319000Y-67564000D01*
X108458000Y-76200000D02*
X108458000Y-74549000D01*
X113621049Y-71163951D02*
X118293197Y-71163951D01*
X118591149Y-70866000D02*
X123133854Y-70866000D01*
X119252002Y-68834998D02*
X124374592Y-68834998D01*
X126983386Y-67411600D02*
X137515600Y-67411600D01*
X118706880Y-71145400D02*
X123249586Y-71145400D01*
X110871000Y-74930000D02*
X114357649Y-71443351D01*
X114357649Y-71443351D02*
X118408929Y-71443351D01*
X123249586Y-71145400D02*
X126983386Y-67411600D01*
X118408929Y-71443351D02*
X118706880Y-71145400D01*
X109728000Y-74930000D02*
X110871000Y-74930000D01*
X137515600Y-67411600D02*
X138557000Y-68453000D01*
X119888000Y-74930000D02*
X121440646Y-74930000D01*
X121440646Y-74930000D02*
X127562046Y-68808600D01*
X127562046Y-68808600D02*
X130584630Y-68808600D01*
X130584630Y-68808600D02*
X130584639Y-68808592D01*
X130584639Y-68808592D02*
X131165592Y-68808592D01*
X131165592Y-68808592D02*
X132075000Y-69718000D01*
X132075000Y-69718000D02*
X132075000Y-71120000D01*
X136265986Y-67690986D02*
X139695000Y-71120000D01*
X133146786Y-68249786D02*
X133731000Y-68834000D01*
X117348000Y-72390000D02*
X118015249Y-71722751D01*
X118822612Y-71424800D02*
X123365318Y-71424800D01*
X118015249Y-71722751D02*
X118524661Y-71722751D01*
X118408948Y-73869052D02*
X122106462Y-73869052D01*
X112268000Y-74930000D02*
X113608348Y-73589652D01*
X127214867Y-67970384D02*
X122795250Y-72390000D01*
X127099132Y-67690986D02*
X136265986Y-67690986D01*
X134005384Y-67970384D02*
X127214867Y-67970384D01*
X137155000Y-71120000D02*
X134005384Y-67970384D01*
X132024184Y-68529184D02*
X134615000Y-71120000D01*
X132139917Y-68249786D02*
X133146786Y-68249786D01*
X127330599Y-68249784D02*
X132139916Y-68249784D01*
X121990730Y-73589652D02*
X127330599Y-68249784D01*
X122795250Y-72390000D02*
X119888000Y-72390000D01*
X118524661Y-71722751D02*
X118822612Y-71424800D01*
X113608348Y-73589652D02*
X121990730Y-73589652D01*
X123365318Y-71424800D02*
X127099132Y-67690986D01*
X117348000Y-74930000D02*
X118408948Y-73869052D01*
X132139916Y-68249784D02*
X132139917Y-68249786D01*
X122106462Y-73869052D02*
X127446330Y-68529184D01*
X127446330Y-68529184D02*
X132024184Y-68529184D01*
D21*
X108637332Y-70580330D02*
X108369643Y-70580330D01*
X103251000Y-56769000D02*
X103251000Y-57492350D01*
X96647000Y-52451000D02*
X98298000Y-54102000D01*
X108309501Y-72157499D02*
X107188000Y-73279000D01*
X98298000Y-54102000D02*
X100584000Y-54102000D01*
X110214501Y-72157499D02*
X108637332Y-70580330D01*
X110214501Y-72157499D02*
X108309501Y-72157499D01*
X100584000Y-54102000D02*
X103251000Y-56769000D01*
X98267972Y-70903000D02*
X97285486Y-71885486D01*
X180340000Y-57150000D02*
X180340000Y-53340000D01*
X102071000Y-70903000D02*
X98267972Y-70903000D01*
X170175000Y-71120000D02*
X170175000Y-67315000D01*
D22*
X114935000Y-65278000D02*
X98933000Y-65278000D01*
X86868000Y-60833000D02*
X84358850Y-58323850D01*
X93091000Y-60833000D02*
X86868000Y-60833000D01*
X118491000Y-64135000D02*
X118205250Y-63849250D01*
X80929850Y-58323850D02*
X79756000Y-57150000D01*
X116363750Y-63849250D02*
X114935000Y-65278000D01*
X93472000Y-61214000D02*
X93091000Y-60833000D01*
X84358850Y-58323850D02*
X80929850Y-58323850D01*
X118205250Y-63849250D02*
X116363750Y-63849250D01*
X80929850Y-60863850D02*
X84424150Y-60863850D01*
X117348000Y-54610000D02*
X114173000Y-54610000D01*
X84424150Y-60863850D02*
X84836000Y-60452000D01*
X114173000Y-54610000D02*
X113411000Y-53848000D01*
X79756000Y-59690000D02*
X80929850Y-60863850D01*
X106426000Y-54737000D02*
X105410000Y-53721000D01*
X110236000Y-53848000D02*
X109347000Y-54737000D01*
X109347000Y-54737000D02*
X106426000Y-54737000D01*
X113411000Y-53848000D02*
X110236000Y-53848000D01*
X80815550Y-61170450D02*
X79756000Y-62230000D01*
X90888450Y-61170450D02*
X80815550Y-61170450D01*
X91948000Y-62230000D02*
X90888450Y-61170450D01*
X86106000Y-55372000D02*
X89408000Y-52070000D01*
X78359000Y-65913000D02*
X78359000Y-56388000D01*
X78359000Y-56388000D02*
X79375000Y-55372000D01*
X79375000Y-55372000D02*
X86106000Y-55372000D01*
X79756000Y-67310000D02*
X78359000Y-65913000D01*
X106210599Y-68731901D02*
X114137152Y-68731901D01*
X100457000Y-74041000D02*
X100901500Y-74041000D01*
X99568000Y-74930000D02*
X100457000Y-74041000D01*
X114137152Y-68731901D02*
X114300000Y-68569053D01*
X100901500Y-74041000D02*
X106210599Y-68731901D01*
X115443000Y-68453000D02*
X115443000Y-68326000D01*
X100711000Y-74863218D02*
X106455815Y-69118403D01*
X99568000Y-77470000D02*
X100711000Y-76327000D01*
X114777597Y-69118403D02*
X115443000Y-68453000D01*
X106455815Y-69118403D02*
X114777597Y-69118403D01*
X100711000Y-76327000D02*
X100711000Y-74863218D01*
X97028000Y-77470000D02*
X98647250Y-75850750D01*
X114528154Y-67564000D02*
X115697000Y-67564000D01*
X113766154Y-68326000D02*
X114528154Y-67564000D01*
X105918000Y-68326000D02*
X113766154Y-68326000D01*
X98647250Y-74455642D02*
X99721794Y-73381098D01*
X99721794Y-73381098D02*
X100862902Y-73381098D01*
X98647250Y-75850750D02*
X98647250Y-74455642D01*
X100862902Y-73381098D02*
X105918000Y-68326000D01*
X94488000Y-74930000D02*
X94488000Y-73660000D01*
X121793000Y-66040000D02*
X122174001Y-66420999D01*
X115583426Y-66040000D02*
X121793000Y-66040000D01*
X94488000Y-73660000D02*
X100136749Y-68011251D01*
X113612175Y-68011251D02*
X115583426Y-66040000D01*
X100136749Y-68011251D02*
X113612175Y-68011251D01*
X113015101Y-66294000D02*
X113919000Y-66294000D01*
X91948000Y-73787000D02*
X98891650Y-66843350D01*
X91948000Y-74930000D02*
X91948000Y-73787000D01*
X98891650Y-66843350D02*
X112465751Y-66843350D01*
X112465751Y-66843350D02*
X113015101Y-66294000D01*
X112903000Y-67183000D02*
X113157000Y-66929000D01*
X99568000Y-67183000D02*
X112903000Y-67183000D01*
X93091000Y-73660000D02*
X99568000Y-67183000D01*
X91948000Y-77470000D02*
X93091000Y-76327000D01*
X93091000Y-76327000D02*
X93091000Y-73660000D01*
X91948000Y-72390000D02*
X98044000Y-66294000D01*
X98044000Y-66294000D02*
X112141000Y-66294000D01*
X114173000Y-63881000D02*
X114808000Y-63246000D01*
X97917000Y-63881000D02*
X114173000Y-63881000D01*
X91948000Y-69850000D02*
X97917000Y-63881000D01*
X89408000Y-69850000D02*
X90328750Y-68929250D01*
X92868750Y-67659250D02*
X97282000Y-63246000D01*
X92868750Y-67691388D02*
X92868750Y-67659250D01*
X91630888Y-68929250D02*
X92868750Y-67691388D01*
X90328750Y-68929250D02*
X91630888Y-68929250D01*
X113665000Y-63246000D02*
X114046000Y-62865000D01*
X97282000Y-63246000D02*
X113665000Y-63246000D01*
X96012000Y-62611000D02*
X112776000Y-62611000D01*
X112776000Y-62611000D02*
X113665000Y-61722000D01*
X91948000Y-66675000D02*
X96012000Y-62611000D01*
X90678000Y-63500000D02*
X92710000Y-63500000D01*
X92710000Y-63500000D02*
X95123000Y-61087000D01*
X95123000Y-61087000D02*
X112141000Y-61087000D01*
X89408000Y-64770000D02*
X90678000Y-63500000D01*
X93949475Y-55836049D02*
X95009426Y-56896000D01*
X95009426Y-56896000D02*
X95758000Y-56896000D01*
X90634049Y-55836049D02*
X93949475Y-55836049D01*
X89408000Y-54610000D02*
X90634049Y-55836049D01*
X108839000Y-52070000D02*
X115062000Y-52070000D01*
X108585000Y-52324000D02*
X108839000Y-52070000D01*
X93599000Y-54610000D02*
X95123000Y-56134000D01*
X115528650Y-51520650D02*
X115824000Y-51816000D01*
X91948000Y-54610000D02*
X93599000Y-54610000D01*
X108245350Y-51520650D02*
X115528650Y-51520650D01*
X108077000Y-51689000D02*
X108245350Y-51520650D01*
X114498694Y-52605394D02*
X115020650Y-53127350D01*
X89408000Y-57150000D02*
X90443050Y-56114950D01*
X115782650Y-53127350D02*
X116078000Y-52832000D01*
X115020650Y-53127350D02*
X115782650Y-53127350D01*
X92817950Y-56114950D02*
X94234000Y-57531000D01*
X109446606Y-52605394D02*
X114498694Y-52605394D01*
X94234000Y-57531000D02*
X96393000Y-57531000D01*
X90443050Y-56114950D02*
X92817950Y-56114950D01*
X109220000Y-52832000D02*
X109446606Y-52605394D01*
X112395000Y-61976000D02*
X112776000Y-61595000D01*
X95123000Y-61976000D02*
X112395000Y-61976000D01*
X92329000Y-64770000D02*
X95123000Y-61976000D01*
X91027250Y-70770750D02*
X92329388Y-70770750D01*
X89408000Y-72390000D02*
X91027250Y-70770750D01*
X114681000Y-64516000D02*
X115189000Y-64008000D01*
X92329388Y-70770750D02*
X98584138Y-64516000D01*
X98584138Y-64516000D02*
X114681000Y-64516000D01*
X94488000Y-77470000D02*
X93567250Y-76549250D01*
X93567250Y-76549250D02*
X93567250Y-73945750D01*
X99949000Y-67564000D02*
X113665000Y-67564000D01*
X122657098Y-65761098D02*
X122682000Y-65786000D01*
X93567250Y-73945750D02*
X99949000Y-67564000D01*
X115467902Y-65761098D02*
X122657098Y-65761098D01*
X113665000Y-67564000D02*
X115467902Y-65761098D01*
M02*
