%TF.GenerationSoftware,KiCad,Pcbnew,(6.0.11-0)*%
%TF.CreationDate,2023-06-20T14:40:55+02:00*%
%TF.ProjectId,atf1508_plcc84_breakout,61746631-3530-4385-9f70-6c636338345f,A*%
%TF.SameCoordinates,Original*%
%TF.FileFunction,Drillmap*%
%TF.FilePolarity,Positive*%
%FSLAX45Y45*%
G04 Gerber Fmt 4.5, Leading zero omitted, Abs format (unit mm)*
G04 Created by KiCad (PCBNEW (6.0.11-0)) date 2023-06-20 14:40:55*
%MOMM*%
%LPD*%
G01*
G04 APERTURE LIST*
%ADD10C,0.100000*%
%ADD11C,0.200000*%
G04 APERTURE END LIST*
D10*
X12204700Y-7861300D02*
X12827000Y-7239000D01*
X8915400Y-4597400D02*
X8318500Y-5194300D01*
X8940800Y-7861300D02*
X12204700Y-7861300D01*
X21717000Y-7239000D02*
X12827000Y-7239000D01*
X8318500Y-5194300D02*
X7632700Y-5194300D01*
X8940800Y-7861300D02*
X8318500Y-7239000D01*
X8915400Y-4597400D02*
X12217400Y-4597400D01*
X21717000Y-5207000D02*
X21717000Y-7239000D01*
X12827000Y-5207000D02*
X12217400Y-4597400D01*
X7632700Y-7239000D02*
X7632700Y-5194300D01*
X12827000Y-5207000D02*
X21717000Y-5207000D01*
X8318500Y-7239000D02*
X7632700Y-7239000D01*
D11*
X7885319Y-8176776D02*
X7885319Y-7976776D01*
X7932938Y-7976776D01*
X7961509Y-7986300D01*
X7980557Y-8005348D01*
X7990081Y-8024395D01*
X7999605Y-8062490D01*
X7999605Y-8091062D01*
X7990081Y-8129157D01*
X7980557Y-8148205D01*
X7961509Y-8167252D01*
X7932938Y-8176776D01*
X7885319Y-8176776D01*
X8085319Y-8176776D02*
X8085319Y-8043443D01*
X8085319Y-8081538D02*
X8094843Y-8062490D01*
X8104367Y-8052967D01*
X8123414Y-8043443D01*
X8142462Y-8043443D01*
X8209128Y-8176776D02*
X8209128Y-8043443D01*
X8209128Y-7976776D02*
X8199605Y-7986300D01*
X8209128Y-7995824D01*
X8218652Y-7986300D01*
X8209128Y-7976776D01*
X8209128Y-7995824D01*
X8332938Y-8176776D02*
X8313890Y-8167252D01*
X8304367Y-8148205D01*
X8304367Y-7976776D01*
X8437700Y-8176776D02*
X8418652Y-8167252D01*
X8409129Y-8148205D01*
X8409129Y-7976776D01*
X8666271Y-8176776D02*
X8666271Y-7976776D01*
X8732938Y-8119633D01*
X8799605Y-7976776D01*
X8799605Y-8176776D01*
X8980557Y-8176776D02*
X8980557Y-8072014D01*
X8971033Y-8052967D01*
X8951986Y-8043443D01*
X8913890Y-8043443D01*
X8894843Y-8052967D01*
X8980557Y-8167252D02*
X8961510Y-8176776D01*
X8913890Y-8176776D01*
X8894843Y-8167252D01*
X8885319Y-8148205D01*
X8885319Y-8129157D01*
X8894843Y-8110109D01*
X8913890Y-8100586D01*
X8961510Y-8100586D01*
X8980557Y-8091062D01*
X9075795Y-8043443D02*
X9075795Y-8243443D01*
X9075795Y-8052967D02*
X9094843Y-8043443D01*
X9132938Y-8043443D01*
X9151986Y-8052967D01*
X9161510Y-8062490D01*
X9171033Y-8081538D01*
X9171033Y-8138681D01*
X9161510Y-8157728D01*
X9151986Y-8167252D01*
X9132938Y-8176776D01*
X9094843Y-8176776D01*
X9075795Y-8167252D01*
X9256748Y-8157728D02*
X9266271Y-8167252D01*
X9256748Y-8176776D01*
X9247224Y-8167252D01*
X9256748Y-8157728D01*
X9256748Y-8176776D01*
X9256748Y-8052967D02*
X9266271Y-8062490D01*
X9256748Y-8072014D01*
X9247224Y-8062490D01*
X9256748Y-8052967D01*
X9256748Y-8072014D01*
M02*
