M48
; DRILL file {KiCad 7.0.5-0} date 2023 June 22, Thursday 13:56:17
; FORMAT={-:-/ absolute / metric / decimal}
; #@! TF.CreationDate,2023-06-22T13:56:17+02:00
; #@! TF.GenerationSoftware,Kicad,Pcbnew,7.0.5-0
; #@! TF.FileFunction,Plated,1,2,PTH
FMAT,2
METRIC
; #@! TA.AperFunction,Plated,PTH,ViaDrill
T1C0.300
; #@! TA.AperFunction,Plated,PTH,ViaDrill
T2C0.400
; #@! TA.AperFunction,Plated,PTH,ComponentDrill
T3C0.600
; #@! TA.AperFunction,Plated,PTH,ComponentDrill
T4C0.800
; #@! TA.AperFunction,Plated,PTH,ComponentDrill
T5C1.000
%
G90
G05
T1
X84.836Y-60.452
X93.472Y-61.214
X95.123Y-56.134
X95.758Y-56.896
X96.393Y-57.531
X98.933Y-65.278
X105.41Y-53.721
X107.467Y-57.197
X108.077Y-51.689
X108.204Y-58.014
X108.585Y-52.324
X109.113Y-58.324
X109.22Y-52.832
X112.141Y-61.087
X112.141Y-66.294
X112.776Y-61.595
X113.157Y-66.929
X113.665Y-61.722
X113.919Y-66.294
X114.046Y-62.865
X114.3Y-68.569
X114.808Y-63.246
X115.062Y-52.07
X115.189Y-64.008
X115.443Y-68.326
X115.697Y-67.564
X115.824Y-51.816
X115.824Y-56.007
X115.824Y-56.896
X115.951Y-57.785
X116.078Y-52.832
X118.491Y-64.135
X122.174Y-66.421
X122.682Y-65.786
X126.873Y-70.866
X127.635Y-70.231
X129.921Y-69.596
X130.81Y-58.166
X132.461Y-56.896
X132.842Y-58.42
X133.731Y-68.834
X135.636Y-57.404
X138.557Y-68.453
X139.065Y-56.515
X139.319Y-67.564
X140.779Y-68.135
X141.922Y-67.501
X142.748Y-67.31
X143.764Y-55.753
X145.923Y-55.753
X148.24Y-54.514
X154.686Y-57.404
X159.829Y-56.578
X162.052Y-56.642
X163.258Y-56.959
X166.116Y-57.277
X167.132Y-57.658
X168.275Y-57.785
X170.18Y-58.801
X172.974Y-58.914
X174.117Y-58.914
X187.452Y-57.277
T2
X96.647Y-52.451
X97.285Y-71.885
X100.584Y-54.102
X102.071Y-70.903
X103.251Y-57.492
X107.188Y-73.279
X108.37Y-70.58
X109.747Y-56.533
X110.215Y-72.157
X110.998Y-55.524
X111.725Y-56.7
X112.695Y-55.27
X163.17Y-62.014
X177.165Y-60.325
X184.023Y-61.976
X188.468Y-61.468
T3
X126.492Y-62.23
X127.992Y-62.23
T4
X89.408Y-49.53
X89.408Y-52.07
X89.408Y-54.61
X89.408Y-57.15
X89.408Y-59.69
X89.408Y-62.23
X89.408Y-64.77
X89.408Y-67.31
X89.408Y-69.85
X89.408Y-72.39
X89.408Y-74.93
X91.948Y-46.99
X91.948Y-49.53
X91.948Y-52.07
X91.948Y-54.61
X91.948Y-57.15
X91.948Y-59.69
X91.948Y-62.23
X91.948Y-64.77
X91.948Y-67.31
X91.948Y-69.85
X91.948Y-72.39
X91.948Y-74.93
X91.948Y-77.47
X94.488Y-46.99
X94.488Y-49.53
X94.488Y-74.93
X94.488Y-77.47
X97.028Y-46.99
X97.028Y-49.53
X97.028Y-74.93
X97.028Y-77.47
X99.568Y-46.99
X99.568Y-49.53
X99.568Y-74.93
X99.568Y-77.47
X102.108Y-46.99
X102.108Y-49.53
X102.108Y-74.93
X102.108Y-77.47
X104.648Y-46.99
X104.648Y-49.53
X104.648Y-74.93
X104.648Y-77.47
X107.188Y-46.99
X107.188Y-49.53
X107.188Y-74.93
X107.188Y-77.47
X109.728Y-46.99
X109.728Y-49.53
X109.728Y-74.93
X109.728Y-77.47
X112.268Y-46.99
X112.268Y-49.53
X112.268Y-74.93
X112.268Y-77.47
X114.808Y-46.99
X114.808Y-49.53
X114.808Y-74.93
X114.808Y-77.47
X117.348Y-46.99
X117.348Y-49.53
X117.348Y-52.07
X117.348Y-54.61
X117.348Y-57.15
X117.348Y-59.69
X117.348Y-62.23
X117.348Y-64.77
X117.348Y-67.31
X117.348Y-69.85
X117.348Y-72.39
X117.348Y-74.93
X117.348Y-77.47
X119.888Y-49.53
X119.888Y-52.07
X119.888Y-54.61
X119.888Y-57.15
X119.888Y-59.69
X119.888Y-62.23
X119.888Y-64.77
X119.888Y-67.31
X119.888Y-69.85
X119.888Y-72.39
X119.888Y-74.93
T5
X79.756Y-57.15
X79.756Y-59.69
X79.756Y-62.23
X79.756Y-64.77
X79.756Y-67.31
X82.296Y-57.15
X82.296Y-59.69
X82.296Y-62.23
X82.296Y-64.77
X82.296Y-67.31
X129.535Y-71.12
X129.54Y-53.34
X132.075Y-71.12
X132.08Y-53.34
X134.615Y-71.12
X134.62Y-53.34
X137.155Y-71.12
X137.16Y-53.34
X139.695Y-71.12
X139.7Y-53.34
X142.235Y-71.12
X142.24Y-53.34
X144.775Y-71.12
X144.78Y-53.34
X147.315Y-71.12
X147.32Y-53.34
X149.855Y-71.12
X149.86Y-53.34
X152.395Y-71.12
X152.4Y-53.34
X154.935Y-71.12
X154.94Y-53.34
X157.475Y-71.12
X157.48Y-53.34
X160.015Y-71.12
X160.02Y-53.34
X162.555Y-71.12
X162.56Y-53.34
X165.095Y-71.12
X165.1Y-53.34
X167.635Y-71.12
X167.64Y-53.34
X170.175Y-71.12
X170.18Y-53.34
X172.715Y-71.12
X172.72Y-53.34
X175.255Y-71.12
X175.26Y-53.34
X177.795Y-71.12
X177.8Y-53.34
X180.335Y-71.12
X180.34Y-53.34
X182.875Y-71.12
X182.88Y-53.34
X185.415Y-71.12
X185.42Y-53.34
X187.955Y-71.12
X187.96Y-53.34
X190.495Y-71.12
X190.5Y-53.34
X193.035Y-71.12
X193.04Y-53.34
X195.575Y-71.12
X195.58Y-53.34
X198.115Y-71.12
X198.12Y-53.34
X200.655Y-71.12
X200.66Y-53.34
X203.195Y-71.12
X203.2Y-53.34
X205.735Y-71.12
X205.74Y-53.34
X208.275Y-71.12
X208.28Y-53.34
X210.815Y-71.12
X210.82Y-53.34
X213.355Y-71.12
X213.36Y-53.34
X215.895Y-71.12
X215.9Y-53.34
T0
M30
