G04 #@! TF.GenerationSoftware,KiCad,Pcbnew,7.0.5-0*
G04 #@! TF.CreationDate,2023-06-22T13:56:14+02:00*
G04 #@! TF.ProjectId,atf1508_plcc84_breakout,61746631-3530-4385-9f70-6c636338345f,A*
G04 #@! TF.SameCoordinates,Original*
G04 #@! TF.FileFunction,Legend,Bot*
G04 #@! TF.FilePolarity,Positive*
%FSLAX46Y46*%
G04 Gerber Fmt 4.6, Leading zero omitted, Abs format (unit mm)*
G04 Created by KiCad (PCBNEW 7.0.5-0) date 2023-06-22 13:56:14*
%MOMM*%
%LPD*%
G01*
G04 APERTURE LIST*
G04 Aperture macros list*
%AMRoundRect*
0 Rectangle with rounded corners*
0 $1 Rounding radius*
0 $2 $3 $4 $5 $6 $7 $8 $9 X,Y pos of 4 corners*
0 Add a 4 corners polygon primitive as box body*
4,1,4,$2,$3,$4,$5,$6,$7,$8,$9,$2,$3,0*
0 Add four circle primitives for the rounded corners*
1,1,$1+$1,$2,$3*
1,1,$1+$1,$4,$5*
1,1,$1+$1,$6,$7*
1,1,$1+$1,$8,$9*
0 Add four rect primitives between the rounded corners*
20,1,$1+$1,$2,$3,$4,$5,0*
20,1,$1+$1,$4,$5,$6,$7,0*
20,1,$1+$1,$6,$7,$8,$9,0*
20,1,$1+$1,$8,$9,$2,$3,0*%
G04 Aperture macros list end*
%ADD10C,0.150000*%
%ADD11C,0.120000*%
%ADD12C,1.200000*%
%ADD13R,1.200000X1.200000*%
%ADD14RoundRect,0.250000X-0.475000X0.337500X-0.475000X-0.337500X0.475000X-0.337500X0.475000X0.337500X0*%
%ADD15R,1.422400X1.422400*%
%ADD16C,1.422400*%
%ADD17RoundRect,0.250000X-0.600000X-0.600000X0.600000X-0.600000X0.600000X0.600000X-0.600000X0.600000X0*%
%ADD18C,1.700000*%
%ADD19RoundRect,0.250000X0.337500X0.475000X-0.337500X0.475000X-0.337500X-0.475000X0.337500X-0.475000X0*%
%ADD20RoundRect,0.250000X-0.337500X-0.475000X0.337500X-0.475000X0.337500X0.475000X-0.337500X0.475000X0*%
%ADD21R,1.700000X1.700000*%
%ADD22O,1.700000X1.700000*%
%ADD23RoundRect,0.250000X0.475000X-0.337500X0.475000X0.337500X-0.475000X0.337500X-0.475000X-0.337500X0*%
G04 APERTURE END LIST*
D10*
X213070839Y-60789104D02*
X212594649Y-60789104D01*
X213166077Y-61074819D02*
X212832744Y-60074819D01*
X212832744Y-60074819D02*
X212499411Y-61074819D01*
X212308934Y-60074819D02*
X211737506Y-60074819D01*
X212023220Y-61074819D02*
X212023220Y-60074819D01*
X211070839Y-60551009D02*
X211404172Y-60551009D01*
X211404172Y-61074819D02*
X211404172Y-60074819D01*
X211404172Y-60074819D02*
X210927982Y-60074819D01*
X210023220Y-61074819D02*
X210594648Y-61074819D01*
X210308934Y-61074819D02*
X210308934Y-60074819D01*
X210308934Y-60074819D02*
X210404172Y-60217676D01*
X210404172Y-60217676D02*
X210499410Y-60312914D01*
X210499410Y-60312914D02*
X210594648Y-60360533D01*
X209118458Y-60074819D02*
X209594648Y-60074819D01*
X209594648Y-60074819D02*
X209642267Y-60551009D01*
X209642267Y-60551009D02*
X209594648Y-60503390D01*
X209594648Y-60503390D02*
X209499410Y-60455771D01*
X209499410Y-60455771D02*
X209261315Y-60455771D01*
X209261315Y-60455771D02*
X209166077Y-60503390D01*
X209166077Y-60503390D02*
X209118458Y-60551009D01*
X209118458Y-60551009D02*
X209070839Y-60646247D01*
X209070839Y-60646247D02*
X209070839Y-60884342D01*
X209070839Y-60884342D02*
X209118458Y-60979580D01*
X209118458Y-60979580D02*
X209166077Y-61027200D01*
X209166077Y-61027200D02*
X209261315Y-61074819D01*
X209261315Y-61074819D02*
X209499410Y-61074819D01*
X209499410Y-61074819D02*
X209594648Y-61027200D01*
X209594648Y-61027200D02*
X209642267Y-60979580D01*
X208451791Y-60074819D02*
X208356553Y-60074819D01*
X208356553Y-60074819D02*
X208261315Y-60122438D01*
X208261315Y-60122438D02*
X208213696Y-60170057D01*
X208213696Y-60170057D02*
X208166077Y-60265295D01*
X208166077Y-60265295D02*
X208118458Y-60455771D01*
X208118458Y-60455771D02*
X208118458Y-60693866D01*
X208118458Y-60693866D02*
X208166077Y-60884342D01*
X208166077Y-60884342D02*
X208213696Y-60979580D01*
X208213696Y-60979580D02*
X208261315Y-61027200D01*
X208261315Y-61027200D02*
X208356553Y-61074819D01*
X208356553Y-61074819D02*
X208451791Y-61074819D01*
X208451791Y-61074819D02*
X208547029Y-61027200D01*
X208547029Y-61027200D02*
X208594648Y-60979580D01*
X208594648Y-60979580D02*
X208642267Y-60884342D01*
X208642267Y-60884342D02*
X208689886Y-60693866D01*
X208689886Y-60693866D02*
X208689886Y-60455771D01*
X208689886Y-60455771D02*
X208642267Y-60265295D01*
X208642267Y-60265295D02*
X208594648Y-60170057D01*
X208594648Y-60170057D02*
X208547029Y-60122438D01*
X208547029Y-60122438D02*
X208451791Y-60074819D01*
X207547029Y-60503390D02*
X207642267Y-60455771D01*
X207642267Y-60455771D02*
X207689886Y-60408152D01*
X207689886Y-60408152D02*
X207737505Y-60312914D01*
X207737505Y-60312914D02*
X207737505Y-60265295D01*
X207737505Y-60265295D02*
X207689886Y-60170057D01*
X207689886Y-60170057D02*
X207642267Y-60122438D01*
X207642267Y-60122438D02*
X207547029Y-60074819D01*
X207547029Y-60074819D02*
X207356553Y-60074819D01*
X207356553Y-60074819D02*
X207261315Y-60122438D01*
X207261315Y-60122438D02*
X207213696Y-60170057D01*
X207213696Y-60170057D02*
X207166077Y-60265295D01*
X207166077Y-60265295D02*
X207166077Y-60312914D01*
X207166077Y-60312914D02*
X207213696Y-60408152D01*
X207213696Y-60408152D02*
X207261315Y-60455771D01*
X207261315Y-60455771D02*
X207356553Y-60503390D01*
X207356553Y-60503390D02*
X207547029Y-60503390D01*
X207547029Y-60503390D02*
X207642267Y-60551009D01*
X207642267Y-60551009D02*
X207689886Y-60598628D01*
X207689886Y-60598628D02*
X207737505Y-60693866D01*
X207737505Y-60693866D02*
X207737505Y-60884342D01*
X207737505Y-60884342D02*
X207689886Y-60979580D01*
X207689886Y-60979580D02*
X207642267Y-61027200D01*
X207642267Y-61027200D02*
X207547029Y-61074819D01*
X207547029Y-61074819D02*
X207356553Y-61074819D01*
X207356553Y-61074819D02*
X207261315Y-61027200D01*
X207261315Y-61027200D02*
X207213696Y-60979580D01*
X207213696Y-60979580D02*
X207166077Y-60884342D01*
X207166077Y-60884342D02*
X207166077Y-60693866D01*
X207166077Y-60693866D02*
X207213696Y-60598628D01*
X207213696Y-60598628D02*
X207261315Y-60551009D01*
X207261315Y-60551009D02*
X207356553Y-60503390D01*
X205642267Y-60551009D02*
X205499410Y-60598628D01*
X205499410Y-60598628D02*
X205451791Y-60646247D01*
X205451791Y-60646247D02*
X205404172Y-60741485D01*
X205404172Y-60741485D02*
X205404172Y-60884342D01*
X205404172Y-60884342D02*
X205451791Y-60979580D01*
X205451791Y-60979580D02*
X205499410Y-61027200D01*
X205499410Y-61027200D02*
X205594648Y-61074819D01*
X205594648Y-61074819D02*
X205975600Y-61074819D01*
X205975600Y-61074819D02*
X205975600Y-60074819D01*
X205975600Y-60074819D02*
X205642267Y-60074819D01*
X205642267Y-60074819D02*
X205547029Y-60122438D01*
X205547029Y-60122438D02*
X205499410Y-60170057D01*
X205499410Y-60170057D02*
X205451791Y-60265295D01*
X205451791Y-60265295D02*
X205451791Y-60360533D01*
X205451791Y-60360533D02*
X205499410Y-60455771D01*
X205499410Y-60455771D02*
X205547029Y-60503390D01*
X205547029Y-60503390D02*
X205642267Y-60551009D01*
X205642267Y-60551009D02*
X205975600Y-60551009D01*
X204975600Y-61074819D02*
X204975600Y-60408152D01*
X204975600Y-60598628D02*
X204927981Y-60503390D01*
X204927981Y-60503390D02*
X204880362Y-60455771D01*
X204880362Y-60455771D02*
X204785124Y-60408152D01*
X204785124Y-60408152D02*
X204689886Y-60408152D01*
X203975600Y-61027200D02*
X204070838Y-61074819D01*
X204070838Y-61074819D02*
X204261314Y-61074819D01*
X204261314Y-61074819D02*
X204356552Y-61027200D01*
X204356552Y-61027200D02*
X204404171Y-60931961D01*
X204404171Y-60931961D02*
X204404171Y-60551009D01*
X204404171Y-60551009D02*
X204356552Y-60455771D01*
X204356552Y-60455771D02*
X204261314Y-60408152D01*
X204261314Y-60408152D02*
X204070838Y-60408152D01*
X204070838Y-60408152D02*
X203975600Y-60455771D01*
X203975600Y-60455771D02*
X203927981Y-60551009D01*
X203927981Y-60551009D02*
X203927981Y-60646247D01*
X203927981Y-60646247D02*
X204404171Y-60741485D01*
X203070838Y-61074819D02*
X203070838Y-60551009D01*
X203070838Y-60551009D02*
X203118457Y-60455771D01*
X203118457Y-60455771D02*
X203213695Y-60408152D01*
X203213695Y-60408152D02*
X203404171Y-60408152D01*
X203404171Y-60408152D02*
X203499409Y-60455771D01*
X203070838Y-61027200D02*
X203166076Y-61074819D01*
X203166076Y-61074819D02*
X203404171Y-61074819D01*
X203404171Y-61074819D02*
X203499409Y-61027200D01*
X203499409Y-61027200D02*
X203547028Y-60931961D01*
X203547028Y-60931961D02*
X203547028Y-60836723D01*
X203547028Y-60836723D02*
X203499409Y-60741485D01*
X203499409Y-60741485D02*
X203404171Y-60693866D01*
X203404171Y-60693866D02*
X203166076Y-60693866D01*
X203166076Y-60693866D02*
X203070838Y-60646247D01*
X202594647Y-61074819D02*
X202594647Y-60074819D01*
X202499409Y-60693866D02*
X202213695Y-61074819D01*
X202213695Y-60408152D02*
X202594647Y-60789104D01*
X201642266Y-61074819D02*
X201737504Y-61027200D01*
X201737504Y-61027200D02*
X201785123Y-60979580D01*
X201785123Y-60979580D02*
X201832742Y-60884342D01*
X201832742Y-60884342D02*
X201832742Y-60598628D01*
X201832742Y-60598628D02*
X201785123Y-60503390D01*
X201785123Y-60503390D02*
X201737504Y-60455771D01*
X201737504Y-60455771D02*
X201642266Y-60408152D01*
X201642266Y-60408152D02*
X201499409Y-60408152D01*
X201499409Y-60408152D02*
X201404171Y-60455771D01*
X201404171Y-60455771D02*
X201356552Y-60503390D01*
X201356552Y-60503390D02*
X201308933Y-60598628D01*
X201308933Y-60598628D02*
X201308933Y-60884342D01*
X201308933Y-60884342D02*
X201356552Y-60979580D01*
X201356552Y-60979580D02*
X201404171Y-61027200D01*
X201404171Y-61027200D02*
X201499409Y-61074819D01*
X201499409Y-61074819D02*
X201642266Y-61074819D01*
X200451790Y-60408152D02*
X200451790Y-61074819D01*
X200880361Y-60408152D02*
X200880361Y-60931961D01*
X200880361Y-60931961D02*
X200832742Y-61027200D01*
X200832742Y-61027200D02*
X200737504Y-61074819D01*
X200737504Y-61074819D02*
X200594647Y-61074819D01*
X200594647Y-61074819D02*
X200499409Y-61027200D01*
X200499409Y-61027200D02*
X200451790Y-60979580D01*
X200118456Y-60408152D02*
X199737504Y-60408152D01*
X199975599Y-60074819D02*
X199975599Y-60931961D01*
X199975599Y-60931961D02*
X199927980Y-61027200D01*
X199927980Y-61027200D02*
X199832742Y-61074819D01*
X199832742Y-61074819D02*
X199737504Y-61074819D01*
X213070839Y-61780057D02*
X213023220Y-61732438D01*
X213023220Y-61732438D02*
X212927982Y-61684819D01*
X212927982Y-61684819D02*
X212689887Y-61684819D01*
X212689887Y-61684819D02*
X212594649Y-61732438D01*
X212594649Y-61732438D02*
X212547030Y-61780057D01*
X212547030Y-61780057D02*
X212499411Y-61875295D01*
X212499411Y-61875295D02*
X212499411Y-61970533D01*
X212499411Y-61970533D02*
X212547030Y-62113390D01*
X212547030Y-62113390D02*
X213118458Y-62684819D01*
X213118458Y-62684819D02*
X212499411Y-62684819D01*
X211880363Y-61684819D02*
X211785125Y-61684819D01*
X211785125Y-61684819D02*
X211689887Y-61732438D01*
X211689887Y-61732438D02*
X211642268Y-61780057D01*
X211642268Y-61780057D02*
X211594649Y-61875295D01*
X211594649Y-61875295D02*
X211547030Y-62065771D01*
X211547030Y-62065771D02*
X211547030Y-62303866D01*
X211547030Y-62303866D02*
X211594649Y-62494342D01*
X211594649Y-62494342D02*
X211642268Y-62589580D01*
X211642268Y-62589580D02*
X211689887Y-62637200D01*
X211689887Y-62637200D02*
X211785125Y-62684819D01*
X211785125Y-62684819D02*
X211880363Y-62684819D01*
X211880363Y-62684819D02*
X211975601Y-62637200D01*
X211975601Y-62637200D02*
X212023220Y-62589580D01*
X212023220Y-62589580D02*
X212070839Y-62494342D01*
X212070839Y-62494342D02*
X212118458Y-62303866D01*
X212118458Y-62303866D02*
X212118458Y-62065771D01*
X212118458Y-62065771D02*
X212070839Y-61875295D01*
X212070839Y-61875295D02*
X212023220Y-61780057D01*
X212023220Y-61780057D02*
X211975601Y-61732438D01*
X211975601Y-61732438D02*
X211880363Y-61684819D01*
X211166077Y-61780057D02*
X211118458Y-61732438D01*
X211118458Y-61732438D02*
X211023220Y-61684819D01*
X211023220Y-61684819D02*
X210785125Y-61684819D01*
X210785125Y-61684819D02*
X210689887Y-61732438D01*
X210689887Y-61732438D02*
X210642268Y-61780057D01*
X210642268Y-61780057D02*
X210594649Y-61875295D01*
X210594649Y-61875295D02*
X210594649Y-61970533D01*
X210594649Y-61970533D02*
X210642268Y-62113390D01*
X210642268Y-62113390D02*
X211213696Y-62684819D01*
X211213696Y-62684819D02*
X210594649Y-62684819D01*
X210261315Y-61684819D02*
X209642268Y-61684819D01*
X209642268Y-61684819D02*
X209975601Y-62065771D01*
X209975601Y-62065771D02*
X209832744Y-62065771D01*
X209832744Y-62065771D02*
X209737506Y-62113390D01*
X209737506Y-62113390D02*
X209689887Y-62161009D01*
X209689887Y-62161009D02*
X209642268Y-62256247D01*
X209642268Y-62256247D02*
X209642268Y-62494342D01*
X209642268Y-62494342D02*
X209689887Y-62589580D01*
X209689887Y-62589580D02*
X209737506Y-62637200D01*
X209737506Y-62637200D02*
X209832744Y-62684819D01*
X209832744Y-62684819D02*
X210118458Y-62684819D01*
X210118458Y-62684819D02*
X210213696Y-62637200D01*
X210213696Y-62637200D02*
X210261315Y-62589580D01*
X209213696Y-62303866D02*
X208451792Y-62303866D01*
X207785125Y-61684819D02*
X207689887Y-61684819D01*
X207689887Y-61684819D02*
X207594649Y-61732438D01*
X207594649Y-61732438D02*
X207547030Y-61780057D01*
X207547030Y-61780057D02*
X207499411Y-61875295D01*
X207499411Y-61875295D02*
X207451792Y-62065771D01*
X207451792Y-62065771D02*
X207451792Y-62303866D01*
X207451792Y-62303866D02*
X207499411Y-62494342D01*
X207499411Y-62494342D02*
X207547030Y-62589580D01*
X207547030Y-62589580D02*
X207594649Y-62637200D01*
X207594649Y-62637200D02*
X207689887Y-62684819D01*
X207689887Y-62684819D02*
X207785125Y-62684819D01*
X207785125Y-62684819D02*
X207880363Y-62637200D01*
X207880363Y-62637200D02*
X207927982Y-62589580D01*
X207927982Y-62589580D02*
X207975601Y-62494342D01*
X207975601Y-62494342D02*
X208023220Y-62303866D01*
X208023220Y-62303866D02*
X208023220Y-62065771D01*
X208023220Y-62065771D02*
X207975601Y-61875295D01*
X207975601Y-61875295D02*
X207927982Y-61780057D01*
X207927982Y-61780057D02*
X207880363Y-61732438D01*
X207880363Y-61732438D02*
X207785125Y-61684819D01*
X206594649Y-61684819D02*
X206785125Y-61684819D01*
X206785125Y-61684819D02*
X206880363Y-61732438D01*
X206880363Y-61732438D02*
X206927982Y-61780057D01*
X206927982Y-61780057D02*
X207023220Y-61922914D01*
X207023220Y-61922914D02*
X207070839Y-62113390D01*
X207070839Y-62113390D02*
X207070839Y-62494342D01*
X207070839Y-62494342D02*
X207023220Y-62589580D01*
X207023220Y-62589580D02*
X206975601Y-62637200D01*
X206975601Y-62637200D02*
X206880363Y-62684819D01*
X206880363Y-62684819D02*
X206689887Y-62684819D01*
X206689887Y-62684819D02*
X206594649Y-62637200D01*
X206594649Y-62637200D02*
X206547030Y-62589580D01*
X206547030Y-62589580D02*
X206499411Y-62494342D01*
X206499411Y-62494342D02*
X206499411Y-62256247D01*
X206499411Y-62256247D02*
X206547030Y-62161009D01*
X206547030Y-62161009D02*
X206594649Y-62113390D01*
X206594649Y-62113390D02*
X206689887Y-62065771D01*
X206689887Y-62065771D02*
X206880363Y-62065771D01*
X206880363Y-62065771D02*
X206975601Y-62113390D01*
X206975601Y-62113390D02*
X207023220Y-62161009D01*
X207023220Y-62161009D02*
X207070839Y-62256247D01*
X206070839Y-62303866D02*
X205308935Y-62303866D01*
X204308935Y-62684819D02*
X204880363Y-62684819D01*
X204594649Y-62684819D02*
X204594649Y-61684819D01*
X204594649Y-61684819D02*
X204689887Y-61827676D01*
X204689887Y-61827676D02*
X204785125Y-61922914D01*
X204785125Y-61922914D02*
X204880363Y-61970533D01*
X203975601Y-61684819D02*
X203308935Y-61684819D01*
X203308935Y-61684819D02*
X203737506Y-62684819D01*
X202166077Y-62303866D02*
X201404173Y-62303866D01*
X199594649Y-62684819D02*
X199927982Y-62208628D01*
X200166077Y-62684819D02*
X200166077Y-61684819D01*
X200166077Y-61684819D02*
X199785125Y-61684819D01*
X199785125Y-61684819D02*
X199689887Y-61732438D01*
X199689887Y-61732438D02*
X199642268Y-61780057D01*
X199642268Y-61780057D02*
X199594649Y-61875295D01*
X199594649Y-61875295D02*
X199594649Y-62018152D01*
X199594649Y-62018152D02*
X199642268Y-62113390D01*
X199642268Y-62113390D02*
X199689887Y-62161009D01*
X199689887Y-62161009D02*
X199785125Y-62208628D01*
X199785125Y-62208628D02*
X200166077Y-62208628D01*
X198785125Y-62637200D02*
X198880363Y-62684819D01*
X198880363Y-62684819D02*
X199070839Y-62684819D01*
X199070839Y-62684819D02*
X199166077Y-62637200D01*
X199166077Y-62637200D02*
X199213696Y-62541961D01*
X199213696Y-62541961D02*
X199213696Y-62161009D01*
X199213696Y-62161009D02*
X199166077Y-62065771D01*
X199166077Y-62065771D02*
X199070839Y-62018152D01*
X199070839Y-62018152D02*
X198880363Y-62018152D01*
X198880363Y-62018152D02*
X198785125Y-62065771D01*
X198785125Y-62065771D02*
X198737506Y-62161009D01*
X198737506Y-62161009D02*
X198737506Y-62256247D01*
X198737506Y-62256247D02*
X199213696Y-62351485D01*
X198404172Y-62018152D02*
X198166077Y-62684819D01*
X198166077Y-62684819D02*
X197927982Y-62018152D01*
X196832743Y-62399104D02*
X196356553Y-62399104D01*
X196927981Y-62684819D02*
X196594648Y-61684819D01*
X196594648Y-61684819D02*
X196261315Y-62684819D01*
X213070839Y-64009104D02*
X212594649Y-64009104D01*
X213166077Y-64294819D02*
X212832744Y-63294819D01*
X212832744Y-63294819D02*
X212499411Y-64294819D01*
X211737506Y-64294819D02*
X211737506Y-63294819D01*
X211737506Y-64247200D02*
X211832744Y-64294819D01*
X211832744Y-64294819D02*
X212023220Y-64294819D01*
X212023220Y-64294819D02*
X212118458Y-64247200D01*
X212118458Y-64247200D02*
X212166077Y-64199580D01*
X212166077Y-64199580D02*
X212213696Y-64104342D01*
X212213696Y-64104342D02*
X212213696Y-63818628D01*
X212213696Y-63818628D02*
X212166077Y-63723390D01*
X212166077Y-63723390D02*
X212118458Y-63675771D01*
X212118458Y-63675771D02*
X212023220Y-63628152D01*
X212023220Y-63628152D02*
X211832744Y-63628152D01*
X211832744Y-63628152D02*
X211737506Y-63675771D01*
X211261315Y-64294819D02*
X211261315Y-63628152D01*
X211261315Y-63818628D02*
X211213696Y-63723390D01*
X211213696Y-63723390D02*
X211166077Y-63675771D01*
X211166077Y-63675771D02*
X211070839Y-63628152D01*
X211070839Y-63628152D02*
X210975601Y-63628152D01*
X210642267Y-64294819D02*
X210642267Y-63628152D01*
X210642267Y-63294819D02*
X210689886Y-63342438D01*
X210689886Y-63342438D02*
X210642267Y-63390057D01*
X210642267Y-63390057D02*
X210594648Y-63342438D01*
X210594648Y-63342438D02*
X210642267Y-63294819D01*
X210642267Y-63294819D02*
X210642267Y-63390057D01*
X209785125Y-64247200D02*
X209880363Y-64294819D01*
X209880363Y-64294819D02*
X210070839Y-64294819D01*
X210070839Y-64294819D02*
X210166077Y-64247200D01*
X210166077Y-64247200D02*
X210213696Y-64151961D01*
X210213696Y-64151961D02*
X210213696Y-63771009D01*
X210213696Y-63771009D02*
X210166077Y-63675771D01*
X210166077Y-63675771D02*
X210070839Y-63628152D01*
X210070839Y-63628152D02*
X209880363Y-63628152D01*
X209880363Y-63628152D02*
X209785125Y-63675771D01*
X209785125Y-63675771D02*
X209737506Y-63771009D01*
X209737506Y-63771009D02*
X209737506Y-63866247D01*
X209737506Y-63866247D02*
X210213696Y-63961485D01*
X209308934Y-63628152D02*
X209308934Y-64294819D01*
X209308934Y-63723390D02*
X209261315Y-63675771D01*
X209261315Y-63675771D02*
X209166077Y-63628152D01*
X209166077Y-63628152D02*
X209023220Y-63628152D01*
X209023220Y-63628152D02*
X208927982Y-63675771D01*
X208927982Y-63675771D02*
X208880363Y-63771009D01*
X208880363Y-63771009D02*
X208880363Y-64294819D01*
X207642267Y-64294819D02*
X207642267Y-63294819D01*
X207070839Y-64294819D02*
X207499410Y-63723390D01*
X207070839Y-63294819D02*
X207642267Y-63866247D01*
X206499410Y-64294819D02*
X206594648Y-64247200D01*
X206594648Y-64247200D02*
X206642267Y-64199580D01*
X206642267Y-64199580D02*
X206689886Y-64104342D01*
X206689886Y-64104342D02*
X206689886Y-63818628D01*
X206689886Y-63818628D02*
X206642267Y-63723390D01*
X206642267Y-63723390D02*
X206594648Y-63675771D01*
X206594648Y-63675771D02*
X206499410Y-63628152D01*
X206499410Y-63628152D02*
X206356553Y-63628152D01*
X206356553Y-63628152D02*
X206261315Y-63675771D01*
X206261315Y-63675771D02*
X206213696Y-63723390D01*
X206213696Y-63723390D02*
X206166077Y-63818628D01*
X206166077Y-63818628D02*
X206166077Y-64104342D01*
X206166077Y-64104342D02*
X206213696Y-64199580D01*
X206213696Y-64199580D02*
X206261315Y-64247200D01*
X206261315Y-64247200D02*
X206356553Y-64294819D01*
X206356553Y-64294819D02*
X206499410Y-64294819D01*
X205737505Y-64294819D02*
X205737505Y-63294819D01*
X205308934Y-64294819D02*
X205308934Y-63771009D01*
X205308934Y-63771009D02*
X205356553Y-63675771D01*
X205356553Y-63675771D02*
X205451791Y-63628152D01*
X205451791Y-63628152D02*
X205594648Y-63628152D01*
X205594648Y-63628152D02*
X205689886Y-63675771D01*
X205689886Y-63675771D02*
X205737505Y-63723390D01*
X204689886Y-64294819D02*
X204785124Y-64247200D01*
X204785124Y-64247200D02*
X204832743Y-64151961D01*
X204832743Y-64151961D02*
X204832743Y-63294819D01*
X204308933Y-64294819D02*
X204308933Y-63294819D01*
X204308933Y-63675771D02*
X204213695Y-63628152D01*
X204213695Y-63628152D02*
X204023219Y-63628152D01*
X204023219Y-63628152D02*
X203927981Y-63675771D01*
X203927981Y-63675771D02*
X203880362Y-63723390D01*
X203880362Y-63723390D02*
X203832743Y-63818628D01*
X203832743Y-63818628D02*
X203832743Y-64104342D01*
X203832743Y-64104342D02*
X203880362Y-64199580D01*
X203880362Y-64199580D02*
X203927981Y-64247200D01*
X203927981Y-64247200D02*
X204023219Y-64294819D01*
X204023219Y-64294819D02*
X204213695Y-64294819D01*
X204213695Y-64294819D02*
X204308933Y-64247200D01*
X203023219Y-64247200D02*
X203118457Y-64294819D01*
X203118457Y-64294819D02*
X203308933Y-64294819D01*
X203308933Y-64294819D02*
X203404171Y-64247200D01*
X203404171Y-64247200D02*
X203451790Y-64151961D01*
X203451790Y-64151961D02*
X203451790Y-63771009D01*
X203451790Y-63771009D02*
X203404171Y-63675771D01*
X203404171Y-63675771D02*
X203308933Y-63628152D01*
X203308933Y-63628152D02*
X203118457Y-63628152D01*
X203118457Y-63628152D02*
X203023219Y-63675771D01*
X203023219Y-63675771D02*
X202975600Y-63771009D01*
X202975600Y-63771009D02*
X202975600Y-63866247D01*
X202975600Y-63866247D02*
X203451790Y-63961485D01*
X202118457Y-64247200D02*
X202213695Y-64294819D01*
X202213695Y-64294819D02*
X202404171Y-64294819D01*
X202404171Y-64294819D02*
X202499409Y-64247200D01*
X202499409Y-64247200D02*
X202547028Y-64199580D01*
X202547028Y-64199580D02*
X202594647Y-64104342D01*
X202594647Y-64104342D02*
X202594647Y-63818628D01*
X202594647Y-63818628D02*
X202547028Y-63723390D01*
X202547028Y-63723390D02*
X202499409Y-63675771D01*
X202499409Y-63675771D02*
X202404171Y-63628152D01*
X202404171Y-63628152D02*
X202213695Y-63628152D01*
X202213695Y-63628152D02*
X202118457Y-63675771D01*
X201689885Y-64294819D02*
X201689885Y-63294819D01*
X201594647Y-63913866D02*
X201308933Y-64294819D01*
X201308933Y-63628152D02*
X201689885Y-64009104D01*
X200499409Y-64247200D02*
X200594647Y-64294819D01*
X200594647Y-64294819D02*
X200785123Y-64294819D01*
X200785123Y-64294819D02*
X200880361Y-64247200D01*
X200880361Y-64247200D02*
X200927980Y-64151961D01*
X200927980Y-64151961D02*
X200927980Y-63771009D01*
X200927980Y-63771009D02*
X200880361Y-63675771D01*
X200880361Y-63675771D02*
X200785123Y-63628152D01*
X200785123Y-63628152D02*
X200594647Y-63628152D01*
X200594647Y-63628152D02*
X200499409Y-63675771D01*
X200499409Y-63675771D02*
X200451790Y-63771009D01*
X200451790Y-63771009D02*
X200451790Y-63866247D01*
X200451790Y-63866247D02*
X200927980Y-63961485D01*
X200023218Y-64294819D02*
X200023218Y-63628152D01*
X200023218Y-63818628D02*
X199975599Y-63723390D01*
X199975599Y-63723390D02*
X199927980Y-63675771D01*
X199927980Y-63675771D02*
X199832742Y-63628152D01*
X199832742Y-63628152D02*
X199737504Y-63628152D01*
D11*
X185955000Y-61460748D02*
X185955000Y-61983252D01*
X187425000Y-61460748D02*
X187425000Y-61983252D01*
X112529252Y-53313000D02*
X112006748Y-53313000D01*
X112529252Y-51843000D02*
X112006748Y-51843000D01*
X95604000Y-53227248D02*
X95604000Y-53749752D01*
X94134000Y-53227248D02*
X94134000Y-53749752D01*
X99306748Y-71274000D02*
X99829252Y-71274000D01*
X99306748Y-72744000D02*
X99829252Y-72744000D01*
X95604000Y-70858748D02*
X95604000Y-71381252D01*
X94134000Y-70858748D02*
X94134000Y-71381252D01*
X106926748Y-71274000D02*
X107449252Y-71274000D01*
X106926748Y-72744000D02*
X107449252Y-72744000D01*
X113692000Y-71381252D02*
X113692000Y-70858748D01*
X115162000Y-71381252D02*
X115162000Y-70858748D01*
X113692000Y-56014252D02*
X113692000Y-55491748D01*
X115162000Y-56014252D02*
X115162000Y-55491748D01*
X99829252Y-53313000D02*
X99306748Y-53313000D01*
X99829252Y-51843000D02*
X99306748Y-51843000D01*
%LPC*%
D12*
X127992000Y-62230000D03*
D13*
X126492000Y-62230000D03*
D14*
X186690000Y-60684500D03*
X186690000Y-62759500D03*
D15*
X104648000Y-46990000D03*
D16*
X104648000Y-49530000D03*
X102108000Y-46990000D03*
X102108000Y-49530000D03*
X99568000Y-46990000D03*
X99568000Y-49530000D03*
X97028000Y-46990000D03*
X97028000Y-49530000D03*
X94488000Y-46990000D03*
X94488000Y-49530000D03*
X91948000Y-46990000D03*
X89408000Y-49530000D03*
X91948000Y-49530000D03*
X89408000Y-52070000D03*
X91948000Y-52070000D03*
X89408000Y-54610000D03*
X91948000Y-54610000D03*
X89408000Y-57150000D03*
X91948000Y-57150000D03*
X89408000Y-59690000D03*
X91948000Y-59690000D03*
X89408000Y-62230000D03*
X91948000Y-62230000D03*
X89408000Y-64770000D03*
X91948000Y-64770000D03*
X89408000Y-67310000D03*
X91948000Y-67310000D03*
X89408000Y-69850000D03*
X91948000Y-69850000D03*
X89408000Y-72390000D03*
X91948000Y-72390000D03*
X89408000Y-74930000D03*
X91948000Y-77470000D03*
X91948000Y-74930000D03*
X94488000Y-77470000D03*
X94488000Y-74930000D03*
X97028000Y-77470000D03*
X97028000Y-74930000D03*
X99568000Y-77470000D03*
X99568000Y-74930000D03*
X102108000Y-77470000D03*
X102108000Y-74930000D03*
X104648000Y-77470000D03*
X104648000Y-74930000D03*
X107188000Y-77470000D03*
X107188000Y-74930000D03*
X109728000Y-77470000D03*
X109728000Y-74930000D03*
X112268000Y-77470000D03*
X112268000Y-74930000D03*
X114808000Y-77470000D03*
X114808000Y-74930000D03*
X117348000Y-77470000D03*
X119888000Y-74930000D03*
X117348000Y-74930000D03*
X119888000Y-72390000D03*
X117348000Y-72390000D03*
X119888000Y-69850000D03*
X117348000Y-69850000D03*
X119888000Y-67310000D03*
X117348000Y-67310000D03*
X119888000Y-64770000D03*
X117348000Y-64770000D03*
X119888000Y-62230000D03*
X117348000Y-62230000D03*
X119888000Y-59690000D03*
X117348000Y-59690000D03*
X119888000Y-57150000D03*
X117348000Y-57150000D03*
X119888000Y-54610000D03*
X117348000Y-54610000D03*
X119888000Y-52070000D03*
X117348000Y-52070000D03*
X119888000Y-49530000D03*
X117348000Y-46990000D03*
X117348000Y-49530000D03*
X114808000Y-46990000D03*
X114808000Y-49530000D03*
X112268000Y-46990000D03*
X112268000Y-49530000D03*
X109728000Y-46990000D03*
X109728000Y-49530000D03*
X107188000Y-46990000D03*
X107188000Y-49530000D03*
D17*
X79756000Y-57150000D03*
D18*
X82296000Y-57150000D03*
X79756000Y-59690000D03*
X82296000Y-59690000D03*
X79756000Y-62230000D03*
X82296000Y-62230000D03*
X79756000Y-64770000D03*
X82296000Y-64770000D03*
X79756000Y-67310000D03*
X82296000Y-67310000D03*
D19*
X113305500Y-52578000D03*
X111230500Y-52578000D03*
D14*
X94869000Y-52451000D03*
X94869000Y-54526000D03*
D20*
X98530500Y-72009000D03*
X100605500Y-72009000D03*
D14*
X94869000Y-70082500D03*
X94869000Y-72157500D03*
D21*
X129535000Y-71120000D03*
D22*
X132075000Y-71120000D03*
X134615000Y-71120000D03*
X137155000Y-71120000D03*
X139695000Y-71120000D03*
X142235000Y-71120000D03*
X144775000Y-71120000D03*
X147315000Y-71120000D03*
X149855000Y-71120000D03*
X152395000Y-71120000D03*
X154935000Y-71120000D03*
X157475000Y-71120000D03*
X160015000Y-71120000D03*
X162555000Y-71120000D03*
X165095000Y-71120000D03*
X167635000Y-71120000D03*
X170175000Y-71120000D03*
X172715000Y-71120000D03*
X175255000Y-71120000D03*
X177795000Y-71120000D03*
X180335000Y-71120000D03*
X182875000Y-71120000D03*
X185415000Y-71120000D03*
X187955000Y-71120000D03*
X190495000Y-71120000D03*
X193035000Y-71120000D03*
X195575000Y-71120000D03*
X198115000Y-71120000D03*
X200655000Y-71120000D03*
X203195000Y-71120000D03*
X205735000Y-71120000D03*
X208275000Y-71120000D03*
X210815000Y-71120000D03*
X213355000Y-71120000D03*
X215895000Y-71120000D03*
D20*
X106150500Y-72009000D03*
X108225500Y-72009000D03*
D23*
X114427000Y-72157500D03*
X114427000Y-70082500D03*
D21*
X129540000Y-53340000D03*
D22*
X132080000Y-53340000D03*
X134620000Y-53340000D03*
X137160000Y-53340000D03*
X139700000Y-53340000D03*
X142240000Y-53340000D03*
X144780000Y-53340000D03*
X147320000Y-53340000D03*
X149860000Y-53340000D03*
X152400000Y-53340000D03*
X154940000Y-53340000D03*
X157480000Y-53340000D03*
X160020000Y-53340000D03*
X162560000Y-53340000D03*
X165100000Y-53340000D03*
X167640000Y-53340000D03*
X170180000Y-53340000D03*
X172720000Y-53340000D03*
X175260000Y-53340000D03*
X177800000Y-53340000D03*
X180340000Y-53340000D03*
X182880000Y-53340000D03*
X185420000Y-53340000D03*
X187960000Y-53340000D03*
X190500000Y-53340000D03*
X193040000Y-53340000D03*
X195580000Y-53340000D03*
X198120000Y-53340000D03*
X200660000Y-53340000D03*
X203200000Y-53340000D03*
X205740000Y-53340000D03*
X208280000Y-53340000D03*
X210820000Y-53340000D03*
X213360000Y-53340000D03*
X215900000Y-53340000D03*
D23*
X114427000Y-56790500D03*
X114427000Y-54715500D03*
D19*
X100605500Y-52578000D03*
X98530500Y-52578000D03*
%LPD*%
M02*
