G04 #@! TF.GenerationSoftware,KiCad,Pcbnew,7.0.5-0*
G04 #@! TF.CreationDate,2023-07-15T23:21:00+02:00*
G04 #@! TF.ProjectId,atf1508_plcc84_breakout,61746631-3530-4385-9f70-6c636338345f,B*
G04 #@! TF.SameCoordinates,Original*
G04 #@! TF.FileFunction,Copper,L1,Top*
G04 #@! TF.FilePolarity,Positive*
%FSLAX46Y46*%
G04 Gerber Fmt 4.6, Leading zero omitted, Abs format (unit mm)*
G04 Created by KiCad (PCBNEW 7.0.5-0) date 2023-07-15 23:21:00*
%MOMM*%
%LPD*%
G01*
G04 APERTURE LIST*
G04 Aperture macros list*
%AMRoundRect*
0 Rectangle with rounded corners*
0 $1 Rounding radius*
0 $2 $3 $4 $5 $6 $7 $8 $9 X,Y pos of 4 corners*
0 Add a 4 corners polygon primitive as box body*
4,1,4,$2,$3,$4,$5,$6,$7,$8,$9,$2,$3,0*
0 Add four circle primitives for the rounded corners*
1,1,$1+$1,$2,$3*
1,1,$1+$1,$4,$5*
1,1,$1+$1,$6,$7*
1,1,$1+$1,$8,$9*
0 Add four rect primitives between the rounded corners*
20,1,$1+$1,$2,$3,$4,$5,0*
20,1,$1+$1,$4,$5,$6,$7,0*
20,1,$1+$1,$6,$7,$8,$9,0*
20,1,$1+$1,$8,$9,$2,$3,0*%
G04 Aperture macros list end*
G04 #@! TA.AperFunction,ComponentPad*
%ADD10R,1.200000X1.200000*%
G04 #@! TD*
G04 #@! TA.AperFunction,ComponentPad*
%ADD11C,1.200000*%
G04 #@! TD*
G04 #@! TA.AperFunction,ComponentPad*
%ADD12R,1.422400X1.422400*%
G04 #@! TD*
G04 #@! TA.AperFunction,ComponentPad*
%ADD13C,1.422400*%
G04 #@! TD*
G04 #@! TA.AperFunction,ComponentPad*
%ADD14RoundRect,0.250000X-0.600000X-0.600000X0.600000X-0.600000X0.600000X0.600000X-0.600000X0.600000X0*%
G04 #@! TD*
G04 #@! TA.AperFunction,ComponentPad*
%ADD15C,1.700000*%
G04 #@! TD*
G04 #@! TA.AperFunction,ComponentPad*
%ADD16R,1.700000X1.700000*%
G04 #@! TD*
G04 #@! TA.AperFunction,ComponentPad*
%ADD17O,1.700000X1.700000*%
G04 #@! TD*
G04 #@! TA.AperFunction,ViaPad*
%ADD18C,0.600000*%
G04 #@! TD*
G04 #@! TA.AperFunction,ViaPad*
%ADD19C,0.800000*%
G04 #@! TD*
G04 #@! TA.AperFunction,Conductor*
%ADD20C,0.139700*%
G04 #@! TD*
G04 #@! TA.AperFunction,Conductor*
%ADD21C,0.254000*%
G04 #@! TD*
G04 APERTURE END LIST*
D10*
X125603000Y-61976000D03*
D11*
X127103000Y-61976000D03*
D12*
X104648000Y-46990000D03*
D13*
X104648000Y-49530000D03*
X102108000Y-46990000D03*
X102108000Y-49530000D03*
X99568000Y-46990000D03*
X99568000Y-49530000D03*
X97028000Y-46990000D03*
X97028000Y-49530000D03*
X94488000Y-46990000D03*
X94488000Y-49530000D03*
X91948000Y-46990000D03*
X89408000Y-49530000D03*
X91948000Y-49530000D03*
X89408000Y-52070000D03*
X91948000Y-52070000D03*
X89408000Y-54610000D03*
X91948000Y-54610000D03*
X89408000Y-57150000D03*
X91948000Y-57150000D03*
X89408000Y-59690000D03*
X91948000Y-59690000D03*
X89408000Y-62230000D03*
X91948000Y-62230000D03*
X89408000Y-64770000D03*
X91948000Y-64770000D03*
X89408000Y-67310000D03*
X91948000Y-67310000D03*
X89408000Y-69850000D03*
X91948000Y-69850000D03*
X89408000Y-72390000D03*
X91948000Y-72390000D03*
X89408000Y-74930000D03*
X91948000Y-77470000D03*
X91948000Y-74930000D03*
X94488000Y-77470000D03*
X94488000Y-74930000D03*
X97028000Y-77470000D03*
X97028000Y-74930000D03*
X99568000Y-77470000D03*
X99568000Y-74930000D03*
X102108000Y-77470000D03*
X102108000Y-74930000D03*
X104648000Y-77470000D03*
X104648000Y-74930000D03*
X107188000Y-77470000D03*
X107188000Y-74930000D03*
X109728000Y-77470000D03*
X109728000Y-74930000D03*
X112268000Y-77470000D03*
X112268000Y-74930000D03*
X114808000Y-77470000D03*
X114808000Y-74930000D03*
X117348000Y-77470000D03*
X119888000Y-74930000D03*
X117348000Y-74930000D03*
X119888000Y-72390000D03*
X117348000Y-72390000D03*
X119888000Y-69850000D03*
X117348000Y-69850000D03*
X119888000Y-67310000D03*
X117348000Y-67310000D03*
X119888000Y-64770000D03*
X117348000Y-64770000D03*
X119888000Y-62230000D03*
X117348000Y-62230000D03*
X119888000Y-59690000D03*
X117348000Y-59690000D03*
X119888000Y-57150000D03*
X117348000Y-57150000D03*
X119888000Y-54610000D03*
X117348000Y-54610000D03*
X119888000Y-52070000D03*
X117348000Y-52070000D03*
X119888000Y-49530000D03*
X117348000Y-46990000D03*
X117348000Y-49530000D03*
X114808000Y-46990000D03*
X114808000Y-49530000D03*
X112268000Y-46990000D03*
X112268000Y-49530000D03*
X109728000Y-46990000D03*
X109728000Y-49530000D03*
X107188000Y-46990000D03*
X107188000Y-49530000D03*
D14*
X79756000Y-57150000D03*
D15*
X82296000Y-57150000D03*
X79756000Y-59690000D03*
X82296000Y-59690000D03*
X79756000Y-62230000D03*
X82296000Y-62230000D03*
X79756000Y-64770000D03*
X82296000Y-64770000D03*
X79756000Y-67310000D03*
X82296000Y-67310000D03*
D16*
X129535000Y-71120000D03*
D17*
X132075000Y-71120000D03*
X134615000Y-71120000D03*
X137155000Y-71120000D03*
X139695000Y-71120000D03*
X142235000Y-71120000D03*
X144775000Y-71120000D03*
X147315000Y-71120000D03*
X149855000Y-71120000D03*
X152395000Y-71120000D03*
X154935000Y-71120000D03*
X157475000Y-71120000D03*
X160015000Y-71120000D03*
X162555000Y-71120000D03*
X165095000Y-71120000D03*
X167635000Y-71120000D03*
X170175000Y-71120000D03*
X172715000Y-71120000D03*
X175255000Y-71120000D03*
X177795000Y-71120000D03*
X180335000Y-71120000D03*
X182875000Y-71120000D03*
X185415000Y-71120000D03*
X187955000Y-71120000D03*
X190495000Y-71120000D03*
X193035000Y-71120000D03*
X195575000Y-71120000D03*
X198115000Y-71120000D03*
X200655000Y-71120000D03*
X203195000Y-71120000D03*
X205735000Y-71120000D03*
X208275000Y-71120000D03*
X210815000Y-71120000D03*
X213355000Y-71120000D03*
X215895000Y-71120000D03*
D16*
X129540000Y-53340000D03*
D17*
X132080000Y-53340000D03*
X134620000Y-53340000D03*
X137160000Y-53340000D03*
X139700000Y-53340000D03*
X142240000Y-53340000D03*
X144780000Y-53340000D03*
X147320000Y-53340000D03*
X149860000Y-53340000D03*
X152400000Y-53340000D03*
X154940000Y-53340000D03*
X157480000Y-53340000D03*
X160020000Y-53340000D03*
X162560000Y-53340000D03*
X165100000Y-53340000D03*
X167640000Y-53340000D03*
X170180000Y-53340000D03*
X172720000Y-53340000D03*
X175260000Y-53340000D03*
X177800000Y-53340000D03*
X180340000Y-53340000D03*
X182880000Y-53340000D03*
X185420000Y-53340000D03*
X187960000Y-53340000D03*
X190500000Y-53340000D03*
X193040000Y-53340000D03*
X195580000Y-53340000D03*
X198120000Y-53340000D03*
X200660000Y-53340000D03*
X203200000Y-53340000D03*
X205740000Y-53340000D03*
X208280000Y-53340000D03*
X210820000Y-53340000D03*
X213360000Y-53340000D03*
X215900000Y-53340000D03*
D18*
X132588000Y-57150000D03*
X136144000Y-56896000D03*
D19*
X96647000Y-52451000D03*
X112695228Y-55269703D03*
X100584000Y-54102000D03*
X110214501Y-72157499D03*
X107188000Y-73279000D03*
X108369643Y-70580330D03*
X111725245Y-56699977D03*
X103251000Y-57492350D03*
X109746502Y-56533500D03*
X110998000Y-55524400D03*
X102071000Y-70903000D03*
X130168801Y-61455350D03*
X176018160Y-61341000D03*
X97285486Y-71885486D03*
D18*
X90678000Y-71628000D03*
X118491000Y-64135000D03*
X105410000Y-53721000D03*
X131191000Y-57658000D03*
X114300000Y-68569053D03*
X115443000Y-68326000D03*
X115697000Y-67564000D03*
X122174001Y-66420999D03*
X113919000Y-66294000D03*
X113157000Y-66929000D03*
X112141000Y-66294000D03*
X114808000Y-63246000D03*
X114046000Y-62865000D03*
X113665000Y-61722000D03*
X112141000Y-61087000D03*
X134874000Y-57912000D03*
X159829500Y-56578500D03*
X162052000Y-56642000D03*
X163258500Y-56959500D03*
X166116000Y-57277000D03*
X167132000Y-57658000D03*
X95758000Y-56896000D03*
X115062000Y-52070000D03*
X108585000Y-52324000D03*
X108077000Y-51689000D03*
X95123000Y-56134000D03*
X115824000Y-51816000D03*
X116078000Y-52832000D03*
X96393000Y-57531000D03*
X109220000Y-52832000D03*
X115824000Y-56007000D03*
X107467400Y-57196503D03*
X115824000Y-56896000D03*
X108204000Y-58013604D03*
X168275000Y-57785000D03*
X171068998Y-57912002D03*
X173220879Y-58666871D03*
X174752000Y-58801000D03*
X115951000Y-57785000D03*
X109113109Y-58323691D03*
X112776000Y-61595000D03*
X115189000Y-64008000D03*
X122809000Y-65913000D03*
X142748000Y-67311549D03*
X141922500Y-67500500D03*
X139319000Y-67564000D03*
X139065016Y-56515000D03*
X143764000Y-55753000D03*
X145923000Y-55753000D03*
X148239850Y-54513850D03*
X129921000Y-69596000D03*
X127635000Y-70231000D03*
X133731000Y-68834000D03*
X126873000Y-70866000D03*
X138557000Y-68453000D03*
X140779500Y-68135500D03*
D20*
X132207000Y-56769000D02*
X132588000Y-57150000D01*
X131586133Y-56769000D02*
X132207000Y-56769000D01*
X131701865Y-56489600D02*
X135737600Y-56489600D01*
X135737600Y-56489600D02*
X136144000Y-56896000D01*
D21*
X89408000Y-67310000D02*
X82296000Y-60198000D01*
X108637332Y-70580330D02*
X108369643Y-70580330D01*
X103251000Y-56769000D02*
X103251000Y-57492350D01*
X125349000Y-61976000D02*
X123063000Y-59690000D01*
X96647000Y-52451000D02*
X98298000Y-54102000D01*
X112695228Y-55729994D02*
X111725245Y-56699977D01*
X108309501Y-72157499D02*
X107188000Y-73279000D01*
X123063000Y-59690000D02*
X119888000Y-59690000D01*
X98298000Y-54102000D02*
X100584000Y-54102000D01*
X110214501Y-72157499D02*
X108637332Y-70580330D01*
X112695228Y-55269703D02*
X112695228Y-55729994D01*
X110214501Y-72157499D02*
X108309501Y-72157499D01*
X100584000Y-54102000D02*
X103251000Y-56769000D01*
X180340000Y-57019160D02*
X176018160Y-61341000D01*
X82296000Y-67310000D02*
X80987000Y-66001000D01*
X205223160Y-60448160D02*
X198628000Y-60448160D01*
X129648151Y-61976000D02*
X130168801Y-61455350D01*
X180340000Y-53340000D02*
X180340000Y-57019160D01*
X176018160Y-65276840D02*
X176018160Y-61341000D01*
X170175000Y-71120000D02*
X176018160Y-65276840D01*
X110755602Y-55524400D02*
X110998000Y-55524400D01*
X109746502Y-56533500D02*
X110755602Y-55524400D01*
X98267972Y-70903000D02*
X97285486Y-71885486D01*
X102071000Y-70903000D02*
X98267972Y-70903000D01*
X208791840Y-60448160D02*
X215900000Y-53340000D01*
X80987000Y-58459000D02*
X82296000Y-57150000D01*
X80987000Y-66001000D02*
X80987000Y-58459000D01*
X198628000Y-60448160D02*
X208791840Y-60448160D01*
X127103000Y-61976000D02*
X129648151Y-61976000D01*
X215895000Y-71120000D02*
X205223160Y-60448160D01*
X198628000Y-60448160D02*
X176911000Y-60448160D01*
X176911000Y-60448160D02*
X176018160Y-61341000D01*
D20*
X118491000Y-64135000D02*
X118205250Y-63849250D01*
X92360750Y-71469250D02*
X90836750Y-71469250D01*
X90836750Y-71469250D02*
X90678000Y-71628000D01*
X92360750Y-71469250D02*
X98552000Y-65278000D01*
X116363750Y-63849250D02*
X114935000Y-65278000D01*
X98552000Y-65278000D02*
X114935000Y-65278000D01*
X118205250Y-63849250D02*
X116363750Y-63849250D01*
X117348000Y-54610000D02*
X114173000Y-54610000D01*
X114173000Y-54610000D02*
X113411000Y-53848000D01*
X106426000Y-54737000D02*
X105410000Y-53721000D01*
X110236000Y-53848000D02*
X109347000Y-54737000D01*
X109347000Y-54737000D02*
X106426000Y-54737000D01*
X113411000Y-53848000D02*
X110236000Y-53848000D01*
X116330588Y-53467000D02*
X116762389Y-53035200D01*
X114353954Y-52985396D02*
X114835558Y-53467000D01*
X107188000Y-51703899D02*
X108951101Y-53467000D01*
X116762389Y-53035200D02*
X122743884Y-53035200D01*
X109913916Y-52985396D02*
X114353954Y-52985396D01*
X114835558Y-53467000D02*
X116330588Y-53467000D01*
X130860800Y-57327800D02*
X131191000Y-57658000D01*
X109432310Y-53467000D02*
X109913916Y-52985396D01*
X127036484Y-57327800D02*
X130860800Y-57327800D01*
X107188000Y-49530000D02*
X107188000Y-51703899D01*
X108951101Y-53467000D02*
X109432310Y-53467000D01*
X122743884Y-53035200D02*
X127036484Y-57327800D01*
X110236000Y-48133000D02*
X110871000Y-48768000D01*
X111423450Y-50844450D02*
X118167150Y-50844450D01*
X127383680Y-56489600D02*
X131701865Y-56489600D01*
X121414678Y-50520600D02*
X127383680Y-56489600D01*
X118491001Y-50520600D02*
X121414678Y-50520600D01*
X108331000Y-48133000D02*
X110236000Y-48133000D01*
X107188000Y-46990000D02*
X108331000Y-48133000D01*
X110871000Y-50292000D02*
X111423450Y-50844450D01*
X118167150Y-50844450D02*
X118491001Y-50520600D01*
X110871000Y-48768000D02*
X110871000Y-50292000D01*
X106210599Y-68731901D02*
X114137152Y-68731901D01*
X100457000Y-74041000D02*
X100901500Y-74041000D01*
X99568000Y-74930000D02*
X100457000Y-74041000D01*
X114137152Y-68731901D02*
X114300000Y-68569053D01*
X100901500Y-74041000D02*
X106210599Y-68731901D01*
X115443000Y-68453000D02*
X115443000Y-68326000D01*
X100711000Y-74863218D02*
X106455815Y-69118403D01*
X99568000Y-77470000D02*
X100711000Y-76327000D01*
X114777597Y-69118403D02*
X115443000Y-68453000D01*
X106455815Y-69118403D02*
X114777597Y-69118403D01*
X100711000Y-76327000D02*
X100711000Y-74863218D01*
X97028000Y-77470000D02*
X98647250Y-75850750D01*
X114528154Y-67564000D02*
X115697000Y-67564000D01*
X113766154Y-68326000D02*
X114528154Y-67564000D01*
X105918000Y-68326000D02*
X113766154Y-68326000D01*
X98647250Y-74455642D02*
X99721794Y-73381098D01*
X99721794Y-73381098D02*
X100862902Y-73381098D01*
X98647250Y-75850750D02*
X98647250Y-74455642D01*
X100862902Y-73381098D02*
X105918000Y-68326000D01*
X94488000Y-74930000D02*
X94488000Y-73660000D01*
X121793000Y-66040000D02*
X122174001Y-66420999D01*
X115583426Y-66040000D02*
X121793000Y-66040000D01*
X94488000Y-73660000D02*
X100136749Y-68011251D01*
X113612175Y-68011251D02*
X115583426Y-66040000D01*
X100136749Y-68011251D02*
X113612175Y-68011251D01*
X113015101Y-66294000D02*
X113919000Y-66294000D01*
X91948000Y-73787000D02*
X98891650Y-66843350D01*
X91948000Y-74930000D02*
X91948000Y-73787000D01*
X98891650Y-66843350D02*
X112465751Y-66843350D01*
X112465751Y-66843350D02*
X113015101Y-66294000D01*
X112903000Y-67183000D02*
X113157000Y-66929000D01*
X99568000Y-67183000D02*
X112903000Y-67183000D01*
X93091000Y-73660000D02*
X99568000Y-67183000D01*
X91948000Y-77470000D02*
X93091000Y-76327000D01*
X93091000Y-76327000D02*
X93091000Y-73660000D01*
X91948000Y-72390000D02*
X98044000Y-66294000D01*
X98044000Y-66294000D02*
X112141000Y-66294000D01*
X114173000Y-63881000D02*
X114808000Y-63246000D01*
X97917000Y-63881000D02*
X114173000Y-63881000D01*
X91948000Y-69850000D02*
X97917000Y-63881000D01*
X89408000Y-69850000D02*
X90328750Y-68929250D01*
X92868750Y-67659250D02*
X97282000Y-63246000D01*
X92868750Y-67691388D02*
X92868750Y-67659250D01*
X91630888Y-68929250D02*
X92868750Y-67691388D01*
X90328750Y-68929250D02*
X91630888Y-68929250D01*
X113665000Y-63246000D02*
X114046000Y-62865000D01*
X97282000Y-63246000D02*
X113665000Y-63246000D01*
X96012000Y-62611000D02*
X112776000Y-62611000D01*
X112776000Y-62611000D02*
X113665000Y-61722000D01*
X91948000Y-66675000D02*
X96012000Y-62611000D01*
X90678000Y-63500000D02*
X92710000Y-63500000D01*
X92710000Y-63500000D02*
X95123000Y-61087000D01*
X95123000Y-61087000D02*
X112141000Y-61087000D01*
X89408000Y-64770000D02*
X90678000Y-63500000D01*
X104648000Y-46990000D02*
X106172000Y-48514000D01*
X108585000Y-50277101D02*
X109457148Y-51149250D01*
X106172000Y-48514000D02*
X107950000Y-48514000D01*
X118606732Y-50800000D02*
X121298946Y-50800000D01*
X108585000Y-49149000D02*
X108585000Y-50277101D01*
X121298946Y-50800000D02*
X127267948Y-56769000D01*
X107950000Y-48514000D02*
X108585000Y-49149000D01*
X127267948Y-56769000D02*
X131586133Y-56769000D01*
X109457148Y-51149250D02*
X118257482Y-51149250D01*
X118257482Y-51149250D02*
X118606732Y-50800000D01*
X114238222Y-53264796D02*
X114796026Y-53822600D01*
X104648000Y-50535788D02*
X107910410Y-53798198D01*
X127530453Y-58216901D02*
X131278754Y-58216900D01*
X122628152Y-53314600D02*
X127530453Y-58216901D01*
X109496244Y-53798198D02*
X110029647Y-53264796D01*
X110029647Y-53264796D02*
X114238222Y-53264796D01*
X114796026Y-53822600D02*
X116370120Y-53822600D01*
X131278756Y-58216898D02*
X134569102Y-58216898D01*
X116370120Y-53822600D02*
X116878120Y-53314600D01*
X116878120Y-53314600D02*
X122628152Y-53314600D01*
X107910410Y-53798198D02*
X109496244Y-53798198D01*
X134569102Y-58216898D02*
X134874000Y-57912000D01*
X104648000Y-49530000D02*
X104648000Y-50535788D01*
X131278754Y-58216900D02*
X131278756Y-58216898D01*
X157911700Y-58496300D02*
X159829500Y-56578500D01*
X123249020Y-54330600D02*
X123249025Y-54330600D01*
X127414726Y-58496300D02*
X128943113Y-58496300D01*
X106807000Y-54229000D02*
X109460574Y-54229000D01*
X102108000Y-49530000D02*
X106807000Y-54229000D01*
X128943113Y-58496300D02*
X128943116Y-58496298D01*
X110145378Y-53544196D02*
X113755622Y-53544196D01*
X116485852Y-54102000D02*
X116902700Y-53685152D01*
X128943116Y-58496298D02*
X157911700Y-58496300D01*
X123249025Y-54330600D02*
X127414726Y-58496300D01*
X122603572Y-53685152D02*
X123249020Y-54330600D01*
X114313426Y-54102000D02*
X116485852Y-54102000D01*
X116902700Y-53685152D02*
X122603572Y-53685152D01*
X113755622Y-53544196D02*
X114313426Y-54102000D01*
X109460574Y-54229000D02*
X110145378Y-53544196D01*
X113042181Y-54126901D02*
X113804181Y-54888901D01*
X101116902Y-50204801D02*
X106157101Y-55245000D01*
X116682659Y-55530251D02*
X123658413Y-55530251D01*
X113804181Y-54888901D02*
X116041309Y-54888901D01*
X110478526Y-54126901D02*
X113042181Y-54126901D01*
X123658413Y-55530251D02*
X127183262Y-59055100D01*
X101116902Y-48538902D02*
X101116902Y-50204801D01*
X116041309Y-54888901D02*
X116682659Y-55530251D01*
X99568000Y-46990000D02*
X101116902Y-48538902D01*
X159638900Y-59055100D02*
X162052000Y-56642000D01*
X127183262Y-59055100D02*
X159638900Y-59055100D01*
X109360426Y-55245000D02*
X110478526Y-54126901D01*
X106157101Y-55245000D02*
X109360426Y-55245000D01*
X160883500Y-59334500D02*
X163258500Y-56959500D01*
X113892148Y-55372000D02*
X115973530Y-55372000D01*
X105562400Y-55524400D02*
X109476158Y-55524400D01*
X116411181Y-55809651D02*
X123542681Y-55809651D01*
X115973530Y-55372000D02*
X116411181Y-55809651D01*
X99568000Y-49530000D02*
X105562400Y-55524400D01*
X127067530Y-59334500D02*
X160883500Y-59334500D01*
X123542681Y-55809651D02*
X127067530Y-59334500D01*
X112926449Y-54406301D02*
X113892148Y-55372000D01*
X110594257Y-54406301D02*
X112926449Y-54406301D01*
X109476158Y-55524400D02*
X110594257Y-54406301D01*
X166116000Y-57277000D02*
X163220300Y-60172700D01*
X163220300Y-60172700D02*
X126720326Y-60172700D01*
X116641718Y-58096150D02*
X115769516Y-58968352D01*
X126720326Y-60172700D02*
X124643776Y-58096150D01*
X124643776Y-58096150D02*
X116641718Y-58096150D01*
X108371352Y-58968352D02*
X99924099Y-50521099D01*
X115769516Y-58968352D02*
X108371352Y-58968352D01*
X98019099Y-50521099D02*
X97028000Y-49530000D01*
X99924099Y-50521099D02*
X98019099Y-50521099D01*
X116092978Y-59247752D02*
X108142752Y-59247752D01*
X108142752Y-59247752D02*
X99797098Y-50902098D01*
X116965180Y-58375550D02*
X116092978Y-59247752D01*
X167132000Y-57658000D02*
X164337900Y-60452100D01*
X95631000Y-49784000D02*
X95631000Y-48133000D01*
X126604595Y-60452100D02*
X124528045Y-58375550D01*
X96749098Y-50902098D02*
X95631000Y-49784000D01*
X99797098Y-50902098D02*
X96749098Y-50902098D01*
X124528045Y-58375550D02*
X116965180Y-58375550D01*
X95631000Y-48133000D02*
X94488000Y-46990000D01*
X164337900Y-60452100D02*
X126604595Y-60452100D01*
X93949475Y-55836049D02*
X95009426Y-56896000D01*
X95009426Y-56896000D02*
X95758000Y-56896000D01*
X90634049Y-55836049D02*
X93949475Y-55836049D01*
X89408000Y-54610000D02*
X90634049Y-55836049D01*
X108839000Y-52070000D02*
X115062000Y-52070000D01*
X108585000Y-52324000D02*
X108839000Y-52070000D01*
X93599000Y-54610000D02*
X95123000Y-56134000D01*
X115528650Y-51520650D02*
X115824000Y-51816000D01*
X91948000Y-54610000D02*
X93599000Y-54610000D01*
X108245350Y-51520650D02*
X115528650Y-51520650D01*
X108077000Y-51689000D02*
X108245350Y-51520650D01*
X114498694Y-52605394D02*
X115020650Y-53127350D01*
X89408000Y-57150000D02*
X90443050Y-56114950D01*
X115782650Y-53127350D02*
X116078000Y-52832000D01*
X115020650Y-53127350D02*
X115782650Y-53127350D01*
X92817950Y-56114950D02*
X94234000Y-57531000D01*
X109446606Y-52605394D02*
X114498694Y-52605394D01*
X94234000Y-57531000D02*
X96393000Y-57531000D01*
X90443050Y-56114950D02*
X92817950Y-56114950D01*
X109220000Y-52832000D02*
X109446606Y-52605394D01*
X115824000Y-56007000D02*
X114407173Y-57423827D01*
X107694724Y-57423827D02*
X107467400Y-57196503D01*
X114407173Y-57423827D02*
X107694724Y-57423827D01*
X108483404Y-57734200D02*
X108204000Y-58013604D01*
X114985800Y-57734200D02*
X108483404Y-57734200D01*
X115824000Y-56896000D02*
X114985800Y-57734200D01*
X99670098Y-51410098D02*
X96368098Y-51410098D01*
X96368098Y-51410098D02*
X94488000Y-49530000D01*
X165328500Y-60731500D02*
X126488864Y-60731500D01*
X117080912Y-58654950D02*
X116208709Y-59527152D01*
X168275000Y-57785000D02*
X165328500Y-60731500D01*
X107787152Y-59527152D02*
X99670098Y-51410098D01*
X124412314Y-58654950D02*
X117080912Y-58654950D01*
X116208709Y-59527152D02*
X107787152Y-59527152D01*
X126488864Y-60731500D02*
X124412314Y-58654950D01*
X120432668Y-61010800D02*
X123201269Y-63779400D01*
X93567250Y-48609250D02*
X93567250Y-49911388D01*
X115051053Y-59806053D02*
X116255800Y-61010800D01*
X123201269Y-63779400D02*
X165201600Y-63779400D01*
X116255800Y-61010800D02*
X120432668Y-61010800D01*
X93567250Y-49911388D02*
X95344862Y-51689000D01*
X99314000Y-51689000D02*
X107431053Y-59806053D01*
X95344862Y-51689000D02*
X99314000Y-51689000D01*
X165201600Y-63779400D02*
X171068998Y-57912002D01*
X107431053Y-59806053D02*
X115051053Y-59806053D01*
X91948000Y-46990000D02*
X93567250Y-48609250D01*
X122642466Y-64617597D02*
X167270153Y-64617597D01*
X121283694Y-63258826D02*
X122642466Y-64617597D01*
X91002073Y-51124073D02*
X92653073Y-51124073D01*
X113551633Y-60197501D02*
X116612958Y-63258826D01*
X167270153Y-64617597D02*
X173220879Y-58666871D01*
X116612958Y-63258826D02*
X121283694Y-63258826D01*
X89408000Y-49530000D02*
X91002073Y-51124073D01*
X101726501Y-60197501D02*
X113551633Y-60197501D01*
X92653073Y-51124073D02*
X101726501Y-60197501D01*
X116497227Y-63538226D02*
X121167962Y-63538226D01*
X113435901Y-60476901D02*
X116497227Y-63538226D01*
X100354901Y-60476901D02*
X113435901Y-60476901D01*
X168656003Y-64896997D02*
X174752000Y-58801000D01*
X91948000Y-52070000D02*
X100354901Y-60476901D01*
X121167962Y-63538226D02*
X122526735Y-64896997D01*
X122526735Y-64896997D02*
X168656003Y-64896997D01*
X109209418Y-58420000D02*
X109113109Y-58323691D01*
X115316000Y-58420000D02*
X109209418Y-58420000D01*
X115951000Y-57785000D02*
X115316000Y-58420000D01*
X112395000Y-61976000D02*
X112776000Y-61595000D01*
X95123000Y-61976000D02*
X112395000Y-61976000D01*
X92329000Y-64770000D02*
X95123000Y-61976000D01*
X98584138Y-64516000D02*
X114681000Y-64516000D01*
X92329388Y-70770750D02*
X98584138Y-64516000D01*
X89408000Y-72390000D02*
X89408000Y-71628000D01*
X89408000Y-71628000D02*
X90265250Y-70770750D01*
X114681000Y-64516000D02*
X115189000Y-64008000D01*
X90265250Y-70770750D02*
X92329388Y-70770750D01*
X93567250Y-73945750D02*
X99949000Y-67564000D01*
X115467902Y-65761098D02*
X122657098Y-65761098D01*
X94488000Y-77470000D02*
X93567250Y-76549250D01*
X113665000Y-67564000D02*
X115467902Y-65761098D01*
X93567250Y-76549250D02*
X93567250Y-73945750D01*
X122657098Y-65761098D02*
X122809000Y-65913000D01*
X99949000Y-67564000D02*
X113665000Y-67564000D01*
X107700698Y-69408251D02*
X115376749Y-69408251D01*
X122252066Y-68276198D02*
X124513664Y-66014600D01*
X116508802Y-68276198D02*
X122252066Y-68276198D01*
X115376749Y-69408251D02*
X116508802Y-68276198D01*
X103727250Y-75850750D02*
X103727250Y-73381699D01*
X124513664Y-66014600D02*
X141451051Y-66014600D01*
X103727250Y-73381699D02*
X107700698Y-69408251D01*
X102108000Y-77470000D02*
X103727250Y-75850750D01*
X141451051Y-66014600D02*
X142748000Y-67311549D01*
X104648000Y-73279000D02*
X108077000Y-69850000D01*
X104648000Y-74930000D02*
X104648000Y-73279000D01*
X140716000Y-66294000D02*
X141922500Y-67500500D01*
X108077000Y-69850000D02*
X115570000Y-69850000D01*
X116864402Y-68555598D02*
X124097860Y-68555598D01*
X124097860Y-68555598D02*
X126359458Y-66294000D01*
X126359458Y-66294000D02*
X140716000Y-66294000D01*
X115570000Y-69850000D02*
X116864402Y-68555598D01*
X138887200Y-67132200D02*
X139319000Y-67564000D01*
X110775750Y-74009250D02*
X113621049Y-71163951D01*
X113621049Y-71163951D02*
X118293197Y-71163951D01*
X123133854Y-70866000D02*
X126867655Y-67132200D01*
X126867655Y-67132200D02*
X138887200Y-67132200D01*
X108458000Y-76200000D02*
X108458000Y-74549000D01*
X108458000Y-74549000D02*
X108997750Y-74009250D01*
X118591149Y-70866000D02*
X123133854Y-70866000D01*
X107188000Y-77470000D02*
X108458000Y-76200000D01*
X108997750Y-74009250D02*
X110775750Y-74009250D01*
X118293197Y-71163951D02*
X118591149Y-70866000D01*
X118618000Y-49276000D02*
X118618000Y-49784000D01*
X117836950Y-50565050D02*
X111665476Y-50565050D01*
X120280329Y-48609250D02*
X119284750Y-48609250D01*
X127615142Y-55930800D02*
X120530103Y-48845761D01*
X120516841Y-48845761D02*
X120280329Y-48609250D01*
X139065016Y-56515000D02*
X138480816Y-55930800D01*
X111276901Y-50176475D02*
X111276901Y-48538901D01*
X118618000Y-49784000D02*
X117836950Y-50565050D01*
X111276901Y-48538901D02*
X109728000Y-46990000D01*
X138480816Y-55930800D02*
X127615142Y-55930800D01*
X119284750Y-48609250D02*
X118618000Y-49276000D01*
X111665476Y-50565050D02*
X111276901Y-50176475D01*
X120530103Y-48845761D02*
X120516841Y-48845761D01*
X113328948Y-48469052D02*
X118210607Y-48469052D01*
X127846606Y-55372000D02*
X140349132Y-55372000D01*
X118210607Y-48469052D02*
X118699060Y-47980600D01*
X112268000Y-49530000D02*
X113328948Y-48469052D01*
X118699060Y-47980600D02*
X120455206Y-47980600D01*
X140730132Y-55753000D02*
X143764000Y-55753000D01*
X120455206Y-47980600D02*
X127846606Y-55372000D01*
X140349132Y-55372000D02*
X140730132Y-55753000D01*
X127936936Y-55067198D02*
X120570938Y-47701200D01*
X118583329Y-47701200D02*
X118094874Y-48189652D01*
X127936940Y-55067198D02*
X127936936Y-55067198D01*
X145262600Y-55092600D02*
X127962342Y-55092600D01*
X118094874Y-48189652D02*
X113467652Y-48189652D01*
X145923000Y-55753000D02*
X145262600Y-55092600D01*
X113467652Y-48189652D02*
X112268000Y-46990000D01*
X120570938Y-47701200D02*
X118583329Y-47701200D01*
X127962342Y-55092600D02*
X127936940Y-55067198D01*
X117979143Y-47910252D02*
X115728252Y-47910252D01*
X149860000Y-53340000D02*
X149860000Y-54542081D01*
X149860000Y-54542081D02*
X149284081Y-55118000D01*
X120855564Y-47398395D02*
X118491000Y-47398395D01*
X128270369Y-54813200D02*
X120855564Y-47398395D01*
X115728252Y-47910252D02*
X114808000Y-46990000D01*
X149284081Y-55118000D02*
X147955000Y-55118000D01*
X118491000Y-47398395D02*
X117979143Y-47910252D01*
X147650200Y-54813200D02*
X128270369Y-54813200D01*
X147955000Y-55118000D02*
X147650200Y-54813200D01*
X120645834Y-48566361D02*
X120632572Y-48566361D01*
X140884350Y-56302350D02*
X140233400Y-55651400D01*
X127730873Y-55651400D02*
X120645834Y-48566361D01*
X140233400Y-55651400D02*
X127730873Y-55651400D01*
X149437650Y-56302350D02*
X140884350Y-56302350D01*
X120326210Y-48260000D02*
X118814791Y-48260000D01*
X152400000Y-53340000D02*
X149437650Y-56302350D01*
X120632572Y-48566361D02*
X120326210Y-48260000D01*
X118814791Y-48260000D02*
X117544791Y-49530000D01*
X148219900Y-54533800D02*
X128543950Y-54533800D01*
X148239850Y-54513850D02*
X148219900Y-54533800D01*
X121000150Y-46990000D02*
X117348000Y-46990000D01*
X128543950Y-54533800D02*
X121000150Y-46990000D01*
X153670000Y-57150000D02*
X157480000Y-53340000D01*
X136474200Y-56210200D02*
X137414000Y-57150000D01*
X119888000Y-49530000D02*
X120819210Y-49530000D01*
X127499412Y-56210200D02*
X136474200Y-56210200D01*
X120819210Y-49530000D02*
X127499412Y-56210200D01*
X137414000Y-57150000D02*
X153670000Y-57150000D01*
X127152216Y-57048400D02*
X131470401Y-57048400D01*
X135636000Y-57445850D02*
X155914150Y-57445850D01*
X131470401Y-57048400D02*
X132232401Y-57810400D01*
X132232401Y-57810400D02*
X133070600Y-57810400D01*
X117348000Y-52070000D02*
X118603823Y-52070000D01*
X155914150Y-57445850D02*
X160020000Y-53340000D01*
X118603823Y-52070000D02*
X119511873Y-51161950D01*
X119511873Y-51161950D02*
X121265764Y-51161950D01*
X133070600Y-57810400D02*
X133604000Y-57277000D01*
X135467150Y-57277000D02*
X135636000Y-57445850D01*
X133604000Y-57277000D02*
X135467150Y-57277000D01*
X121265764Y-51161950D02*
X127152216Y-57048400D01*
X123133293Y-54610000D02*
X127298994Y-58775700D01*
X162560000Y-54624899D02*
X162560000Y-53340000D01*
X127298994Y-58775700D02*
X129058845Y-58775700D01*
X129058847Y-58775698D02*
X158409199Y-58775700D01*
X129058845Y-58775700D02*
X129058847Y-58775698D01*
X158409199Y-58775700D02*
X162560000Y-54624899D01*
X119888000Y-54610000D02*
X123133293Y-54610000D01*
X117348000Y-57150000D02*
X118339099Y-56158901D01*
X126951798Y-59613900D02*
X161380999Y-59613900D01*
X124208493Y-56870600D02*
X124208498Y-56870600D01*
X161380999Y-59613900D02*
X165100000Y-55894899D01*
X118339099Y-56158901D02*
X123496793Y-56158901D01*
X124208498Y-56870600D02*
X126951798Y-59613900D01*
X165100000Y-55894899D02*
X165100000Y-53340000D01*
X123496793Y-56158901D02*
X124208493Y-56870600D01*
X167640000Y-54542081D02*
X162288781Y-59893300D01*
X124092766Y-57150000D02*
X119888000Y-57150000D01*
X167640000Y-53340000D02*
X167640000Y-54542081D01*
X162288781Y-59893300D02*
X126836066Y-59893300D01*
X126836066Y-59893300D02*
X124092766Y-57150000D01*
X163970426Y-63500000D02*
X123317000Y-63500000D01*
X170180000Y-57290426D02*
X163970426Y-63500000D01*
X118389400Y-60731400D02*
X117348000Y-59690000D01*
X170180000Y-53340000D02*
X170180000Y-57290426D01*
X120548400Y-60731400D02*
X118389400Y-60731400D01*
X123317000Y-63500000D02*
X120548400Y-60731400D01*
X117348000Y-62230000D02*
X118287800Y-61290200D01*
X120316936Y-61290200D02*
X123085538Y-64058800D01*
X123085538Y-64058800D02*
X165826099Y-64058800D01*
X172720000Y-57164899D02*
X172720000Y-53340000D01*
X118287800Y-61290200D02*
X120316936Y-61290200D01*
X165826099Y-64058800D02*
X172720000Y-57164899D01*
X175260000Y-55499000D02*
X166420803Y-64338197D01*
X175260000Y-53340000D02*
X175260000Y-55499000D01*
X166420803Y-64338197D02*
X122758197Y-64338197D01*
X120650000Y-62230000D02*
X119888000Y-62230000D01*
X122758197Y-64338197D02*
X120650000Y-62230000D01*
X125896534Y-65176400D02*
X122199400Y-65176400D01*
X177800000Y-53340000D02*
X177800000Y-56642000D01*
X177800000Y-56642000D02*
X169265603Y-65176397D01*
X118632899Y-64770000D02*
X117348000Y-64770000D01*
X125896539Y-65176397D02*
X125896534Y-65176400D01*
X169265603Y-65176397D02*
X125896539Y-65176397D01*
X119040350Y-64235549D02*
X119040350Y-64362549D01*
X119040350Y-64362549D02*
X118632899Y-64770000D01*
X119458273Y-63817626D02*
X119040350Y-64235549D01*
X122199400Y-65176400D02*
X120840626Y-63817626D01*
X120840626Y-63817626D02*
X119458273Y-63817626D01*
X143814797Y-65455797D02*
X147315000Y-68956000D01*
X118322650Y-66335350D02*
X120215488Y-66335350D01*
X134682072Y-65455797D02*
X143814797Y-65455797D01*
X124282202Y-65455800D02*
X134682068Y-65455800D01*
X122707400Y-67030600D02*
X124282202Y-65455800D01*
X134682068Y-65455800D02*
X134682072Y-65455797D01*
X147315000Y-68956000D02*
X147315000Y-71120000D01*
X120910738Y-67030600D02*
X122707400Y-67030600D01*
X120215488Y-66335350D02*
X120910738Y-67030600D01*
X117348000Y-67310000D02*
X118322650Y-66335350D01*
X144775000Y-67377918D02*
X144775000Y-71120000D01*
X134797803Y-65735197D02*
X143132279Y-65735197D01*
X143132279Y-65735197D02*
X144775000Y-67377918D01*
X122823132Y-67310000D02*
X124397933Y-65735200D01*
X124397933Y-65735200D02*
X134797800Y-65735200D01*
X119888000Y-67310000D02*
X122823132Y-67310000D01*
X134797800Y-65735200D02*
X134797803Y-65735197D01*
X123754723Y-69850000D02*
X119888000Y-69850000D01*
X126751923Y-66852800D02*
X123754723Y-69850000D01*
X140081000Y-67323426D02*
X139610374Y-66852800D01*
X139610374Y-66852800D02*
X126751923Y-66852800D01*
X142235000Y-71120000D02*
X140081000Y-68966000D01*
X140081000Y-68966000D02*
X140081000Y-67323426D01*
X123365318Y-71424800D02*
X127099132Y-67690986D01*
X118822612Y-71424800D02*
X123365318Y-71424800D01*
X118015249Y-71722751D02*
X118524661Y-71722751D01*
X127099132Y-67690986D02*
X136265986Y-67690986D01*
X117348000Y-72390000D02*
X118015249Y-71722751D01*
X118524661Y-71722751D02*
X118822612Y-71424800D01*
X136265986Y-67690986D02*
X139695000Y-71120000D01*
X127214867Y-67970384D02*
X122795250Y-72390000D01*
X134005384Y-67970384D02*
X127214867Y-67970384D01*
X122795250Y-72390000D02*
X119888000Y-72390000D01*
X137155000Y-71120000D02*
X134005384Y-67970384D01*
X117348000Y-74930000D02*
X118408948Y-73869052D01*
X122106462Y-73869052D02*
X127446330Y-68529184D01*
X118408948Y-73869052D02*
X122106462Y-73869052D01*
X132024184Y-68529184D02*
X134615000Y-71120000D01*
X127446330Y-68529184D02*
X132024184Y-68529184D01*
X130584630Y-68808600D02*
X130584639Y-68808592D01*
X121440646Y-74930000D02*
X127562046Y-68808600D01*
X127562046Y-68808600D02*
X130584630Y-68808600D01*
X132075000Y-69718000D02*
X132075000Y-71120000D01*
X119888000Y-74930000D02*
X121440646Y-74930000D01*
X131165592Y-68808592D02*
X132075000Y-69718000D01*
X130584639Y-68808592D02*
X131165592Y-68808592D01*
X114808000Y-74930000D02*
X115755148Y-75877148D01*
X120972852Y-75877148D02*
X127254000Y-69596000D01*
X127254000Y-69596000D02*
X129921000Y-69596000D01*
X115755148Y-75877148D02*
X120972852Y-75877148D01*
X127635000Y-70231000D02*
X127635000Y-71437500D01*
X115843050Y-76434950D02*
X114808000Y-77470000D01*
X122637550Y-76434950D02*
X115843050Y-76434950D01*
X127635000Y-71437500D02*
X122637550Y-76434950D01*
X113608348Y-73589652D02*
X121990730Y-73589652D01*
X132139916Y-68249784D02*
X132139917Y-68249786D01*
X121990730Y-73589652D02*
X127330599Y-68249784D01*
X133146786Y-68249786D02*
X133731000Y-68834000D01*
X132139917Y-68249786D02*
X133146786Y-68249786D01*
X112268000Y-74930000D02*
X113608348Y-73589652D01*
X127330599Y-68249784D02*
X132139916Y-68249784D01*
X126873000Y-70993000D02*
X126873000Y-70866000D01*
X112268000Y-77470000D02*
X113581951Y-76156049D01*
X121709951Y-76156049D02*
X126873000Y-70993000D01*
X113581951Y-76156049D02*
X121709951Y-76156049D01*
X118706880Y-71145400D02*
X123249586Y-71145400D01*
X114357649Y-71443351D02*
X118408929Y-71443351D01*
X123249586Y-71145400D02*
X126983386Y-67411600D01*
X118408929Y-71443351D02*
X118706880Y-71145400D01*
X109728000Y-74930000D02*
X110871000Y-74930000D01*
X110871000Y-74930000D02*
X114357649Y-71443351D01*
X126983386Y-67411600D02*
X137515600Y-67411600D01*
X137515600Y-67411600D02*
X138557000Y-68453000D01*
X127169577Y-66573392D02*
X140106392Y-66573392D01*
X124374592Y-68834998D02*
X126636192Y-66573400D01*
X126636192Y-66573400D02*
X127169569Y-66573400D01*
X118491000Y-70170782D02*
X118491000Y-69596000D01*
X110138092Y-73730349D02*
X112983391Y-70885050D01*
X140779500Y-67246500D02*
X140779500Y-68135500D01*
X119252002Y-68834998D02*
X124374592Y-68834998D01*
X117776732Y-70885050D02*
X118491000Y-70170782D01*
X127169569Y-66573400D02*
X127169577Y-66573392D01*
X118491000Y-69596000D02*
X119252002Y-68834998D01*
X112983391Y-70885050D02*
X117776732Y-70885050D01*
X107188000Y-74930000D02*
X108387651Y-73730349D01*
X108387651Y-73730349D02*
X110138092Y-73730349D01*
X140106392Y-66573392D02*
X140779500Y-67246500D01*
M02*
